<svg width="338" height="515" viewBox="0 0 338 515" fill="none" xmlns="http://www.w3.org/2000/svg">
<path d="M252 222.714C251.743 226.351 250.229 229.433 248.611 232.479C246.954 235.523 244.954 238.367 242.65 240.956C240.278 243.532 237.546 245.751 234.539 247.544C231.602 249.485 228.23 250.671 224.725 250.996C224.3 251.026 223.88 250.886 223.557 250.608C223.235 250.329 223.036 249.934 223.003 249.509C222.984 249.214 223.046 248.919 223.181 248.656C223.317 248.393 223.522 248.172 223.774 248.017L223.927 247.927C226.689 246.251 229.591 245.395 232.137 243.637C234.728 242.005 237.067 240.004 239.081 237.698C241.198 235.429 243.049 232.925 244.597 230.235C246.165 227.531 247.332 224.593 248.913 221.925L248.994 221.781C249.181 221.472 249.466 221.234 249.803 221.105C250.141 220.977 250.512 220.966 250.857 221.073C251.201 221.181 251.5 221.401 251.705 221.698C251.91 221.996 252.009 222.353 251.986 222.714H252Z" fill="#6A5D4A"/>
<path d="M266.965 223.527C267.231 227.345 265.955 230.623 264.606 233.856C263.207 237.056 261.504 240.114 259.521 242.987C257.449 245.774 255.146 248.38 252.638 250.779C251.431 252.018 250.077 253.081 248.76 254.196C247.382 255.234 245.897 256.123 244.332 256.848C243.995 257.004 243.614 257.041 243.253 256.953C242.892 256.864 242.571 256.655 242.343 256.36C242.116 256.065 241.995 255.701 242 255.328C242.005 254.955 242.137 254.595 242.373 254.306L242.451 254.214C244.571 251.626 247.14 249.747 249.366 247.426C251.613 245.169 253.667 242.726 255.506 240.123C257.364 237.558 258.975 234.821 260.315 231.95C261.646 229.104 262.545 226.014 263.725 223.223L263.821 223.002C263.962 222.663 264.214 222.381 264.535 222.203C264.856 222.025 265.227 221.962 265.589 222.022C265.951 222.083 266.281 222.265 266.527 222.538C266.772 222.812 266.918 223.16 266.942 223.527H266.965Z" fill="#6A5D4A"/>
<path d="M62.1757 431L89 440.255L88.9099 440.519L84.6442 448.675L85.4054 451.524H85.3604L56.6036 456L54 449.858L61.9505 431.616L62.1757 431Z" fill="#FCECDD"/>
<path d="M85.5634 452L91 472.078L90.3791 472.256L65.9121 478L57 456.543L85.5187 452H85.5634Z" fill="#FEFFF5"/>
<path d="M90.6886 472L99 503.207C99 503.207 50 515.949 50 508.846C50 501.743 70.4737 488.645 70.4737 488.645L66.0526 477.901L90.0746 472.178L90.6886 472Z" fill="#796A56"/>
<path d="M216 508.84C216 515.959 166 503.202 166 503.202L174.444 472L175.071 472.178L199.65 477.9L195.135 488.642C195.135 488.642 216 501.671 216 508.84Z" fill="#796A56"/>
<path d="M209 456.58L199.838 478L174.643 472.266L174 472.088L179.589 452L179.681 452.045L209 456.58Z" fill="#FEFFF5"/>
<path d="M179.785 451.524L179.692 451.48L180.479 448.675L176.093 440.519L176 440.255L203.598 431L203.829 431.616L212 449.858L209.321 456L179.785 451.524Z" fill="#FCECDD"/>
<path d="M195 316.841L221.736 309L225 323.364C222.565 326.075 220.307 328.937 218.242 331.932C218.242 331.932 216.675 316.114 212.71 315.891C206.828 315.528 204.528 327.171 203.334 339L202.873 338.955L195.147 317.25L195 316.841Z" fill="#FAD6B5"/>
<path d="M240.593 355.365C240.593 355.365 253.483 359.35 252.017 364.754C250.551 370.158 246.372 370.02 232.635 366.494C229.792 368.372 226.549 368.877 223.434 368.739C216.813 368.372 210.767 364.524 207.082 358.845L206.949 358.615C204.003 354.07 202.64 348.63 203.081 343.184C203.17 341.807 203.304 340.429 203.438 339.015C204.592 327.078 206.815 315.292 212.5 315.659C216.323 315.884 217.847 331.871 217.847 331.871C219.843 328.844 222.025 325.952 224.379 323.212C228.514 318.359 233.802 313.689 237.492 315.338C243.092 317.854 234.114 330.948 233.268 332.284C234.555 331.412 248.247 322.528 252.244 328.611C256.241 334.695 239.269 342.899 239.269 342.899C239.269 342.899 254.334 338.308 255.889 345.415C257.524 352.844 240.593 355.365 240.593 355.365Z" fill="#FCECDD"/>
<path d="M122.585 405.545L94.2537 442L88.6325 440.029L61.7887 430.579L55 428.204L76.1325 382.434L123.122 386.734L133.918 372L141.829 388.481L191.608 393.047L202.851 414.502L210 428.204L203.207 430.579L176.318 440.029L170.742 442L142.37 405.545H122.585Z" fill="#E6DAA2"/>
<path d="M134.465 372.583L123.667 387.142L76.6707 382.892L67 382.009L83.1044 354L120.34 357.363L120.07 360.237L150.876 363.023L151.147 360.148L188.387 363.511L199 394L192.165 393.379L142.378 388.867L134.465 372.583Z" fill="#E6DAA2"/>
<path d="M85.5396 342L121 345.173L119.927 357L83 353.697L85.5396 342Z" fill="#796A56"/>
<path d="M186.695 350.402L187 363L151 359.506L152.09 347L186.695 350.402Z" fill="#796A56"/>
<path d="M152 344.668L151.68 347.722L150.536 359.247L150.261 362L119 359.332L119.274 356.579L120.373 345.05H120.418L120.693 342L152 344.668Z" fill="#FEFFF5"/>
<path d="M130 283.214L128.826 295.607L115.119 298L103 293.345L104.854 281L130 283.214Z" fill="#E6DAA2"/>
<path d="M128 295.388L126.52 312L100 309.525L102.379 293L114.403 297.913L128 295.388Z" fill="#E6DAA2"/>
<path d="M179 300.289L178.418 316L152 313.625L153.479 298L166.351 302.703L179 300.289Z" fill="#E6DAA2"/>
<path d="M180 288.072L179.512 299.728L166.868 302L154 297.575L155.16 286L180 288.072Z" fill="#E6DAA2"/>
<path d="M163 232.694L162.279 232.366L133.11 230C133.397 231.293 132.94 232.647 132 233.961L143.983 260L163 232.694Z" fill="#FAD6B5"/>
<path d="M203.028 251.577L163.937 233L144.858 261.399L132.843 234.327C132.762 234.443 132.704 234.565 132.614 234.681C128.085 240.805 114.326 246.619 114.326 246.619C114.326 246.619 129.428 250.999 128.938 254.805C128.84 255.49 128.577 256.141 128.171 256.701C127.764 257.262 127.228 257.716 126.606 258.024C125.241 258.767 123.755 259.266 122.217 259.499L114.461 262.094L114.641 260.037C109.986 259.975 105.336 259.675 100.712 259.14C99.4231 259 98.1496 258.746 96.9059 258.382V258.427L64.1812 291.83C63.2625 292.881 62.19 293.788 61 294.519L93.3157 281.595L85.9647 341.608L121.601 344.872H121.646L121.915 341.653L152.663 344.468L152.349 347.687L188.025 351L191.121 318.221L193.089 318.4L195.785 317.593L221.846 309.856L227 308.291L203.028 251.577ZM128.682 296.07L127.204 312.258L100.694 309.842L103.071 293.744L104.908 281.044L129.828 283.326L128.682 296.07ZM179.96 300.809L179.376 317.087L152.865 314.63L154.344 298.442L155.507 285.697L180.427 287.979L179.96 300.809Z" fill="#E6DAA2"/>
<path d="M76.5598 382.432L72 393.099L197 403L191.848 393.099L142.287 388.522L134.41 372L123.661 386.771L76.5598 382.432Z" fill="#BAB162"/>
<path d="M82.0727 354L78 361.073L115.36 363.537L116.99 365.748L153.531 370L155.92 367.598L190 370L187.746 363.537L150.653 360.201L150.092 362.976L119.447 360.165V357.372L82.0727 354Z" fill="#BAB162"/>
<path d="M61 293.986L89.1589 266L102 273.834L89.2965 311L92.9229 281.101L61 293.986Z" fill="#BAB162"/>
<path d="M193.142 285L206 313.305L190 317L193.142 285Z" fill="#BAB162"/>
<path d="M62.1127 431L58.0002 440.926C57.9234 441.109 85.3524 448 85.3524 448L89 440.665L62.1127 431Z" fill="#FAD6B5"/>
<path d="M176 440.235C176.09 440.498 180.03 448 180.03 448L207 440.498L202.893 431L176 440.235Z" fill="#FAD6B5"/>
<path d="M59.2939 291.355C64.4631 288.63 69.7673 286.209 75.1164 283.92L91.2494 277.258C91.8006 277.03 92.401 276.951 92.9915 277.029C93.582 277.107 94.1423 277.338 94.6175 277.7C95.0926 278.063 95.4662 278.544 95.7015 279.096C95.9368 279.648 96.0258 280.253 95.9597 280.85V280.909L92.4371 311.338L88.604 341.717L85.4953 337.825L103.32 339.596C109.258 340.255 115.183 341.036 121.072 342.212C121.654 342.327 122.172 342.657 122.526 343.136C122.88 343.616 123.045 344.211 122.989 344.806C122.933 345.402 122.66 345.955 122.223 346.358C121.785 346.762 121.215 346.987 120.622 346.99C114.616 347.062 108.651 346.74 102.694 346.299L84.843 344.764C84.3942 344.725 83.9574 344.598 83.5576 344.388C83.1577 344.179 82.8027 343.892 82.5127 343.544C82.2228 343.196 82.0036 342.794 81.8677 342.36C81.7318 341.927 81.6819 341.47 81.7207 341.017V340.927V340.872L85.2478 310.443L89.0854 280.064L93.7868 283.698L77.5638 290.129C72.1291 292.2 66.6495 294.162 61.0349 295.788C60.4677 295.948 59.8616 295.892 59.3331 295.629C58.8046 295.366 58.3909 294.915 58.1716 294.363C57.9523 293.811 57.9429 293.197 58.145 292.638C58.3472 292.08 58.7467 291.616 59.2669 291.337L59.2939 291.355Z" fill="#6A5D4A"/>
<path d="M82.8607 351.439C86.0265 350.685 89.0856 351.101 92.1403 351.239C95.1949 351.376 98.2719 351.631 101.335 351.855C104.395 352.134 107.454 352.389 110.504 352.727C113.554 353.065 116.631 353.155 119.588 354.416C120.048 354.613 120.428 354.93 120.678 355.324C120.929 355.717 121.037 356.169 120.989 356.618C120.94 357.068 120.738 357.493 120.408 357.838C120.078 358.183 119.637 358.431 119.143 358.548C115.977 359.333 112.918 358.886 109.864 358.748C106.809 358.611 103.732 358.355 100.668 358.132C97.6138 357.853 94.5547 357.597 91.5 357.26C88.4454 356.922 85.3729 356.824 82.4205 355.571C81.9586 355.375 81.5759 355.059 81.3239 354.665C81.0719 354.271 80.9628 353.818 81.0112 353.368C81.0597 352.918 81.2635 352.491 81.595 352.146C81.9265 351.801 82.3698 351.554 82.8651 351.439H82.8607Z" fill="#6A5D4A"/>
<path d="M135.396 255.799C133.885 256.972 132.139 257.475 130.419 258.065L125.26 259.812C123.54 260.407 121.781 260.871 120.039 261.403C118.297 261.935 116.582 262.517 114.778 262.865L114.238 262.966C113.931 263.024 113.614 263.008 113.315 262.92C113.017 262.833 112.746 262.676 112.528 262.463C112.31 262.251 112.152 261.991 112.068 261.706C111.985 261.422 111.978 261.122 112.048 260.834C112.207 260.185 112.439 259.555 112.74 258.953C112.887 258.666 113.123 258.428 113.417 258.27C113.71 258.113 114.048 258.043 114.384 258.071C114.72 258.099 115.04 258.222 115.3 258.425C115.561 258.629 115.75 258.902 115.842 259.209C116.033 259.849 116.146 260.508 116.179 261.173L113.453 259.146C115.111 258.392 116.875 257.923 118.581 257.311C120.287 256.7 122.011 256.114 123.753 255.603L128.983 254.045C130.725 253.525 132.44 252.935 134.394 253.006C134.837 253.022 135.254 253.204 135.555 253.511C135.856 253.818 136.016 254.225 135.999 254.643C135.988 254.865 135.929 255.082 135.826 255.281C135.722 255.48 135.576 255.657 135.396 255.799Z" fill="#6A5D4A"/>
<path d="M101.079 293.15C101.324 290.945 101.645 288.755 101.8 286.537C101.954 284.318 102.153 282.105 102.38 279.896C102.434 279.356 102.688 278.859 103.089 278.507C103.491 278.154 104.01 277.974 104.537 278.003H104.705C108.911 278.236 113.095 278.682 117.287 279.04L129.865 280.166C130.484 280.222 131.055 280.528 131.453 281.017C131.852 281.505 132.045 282.135 131.991 282.77C131.148 292.778 130.31 302.79 129.344 312.784V312.816C129.314 313.133 129.223 313.44 129.077 313.721C128.931 314.001 128.733 314.249 128.494 314.451C128.254 314.653 127.978 314.804 127.681 314.896C127.385 314.988 127.073 315.02 126.765 314.988L100.055 312.365H100.005C99.7148 312.337 99.4332 312.25 99.176 312.11C98.9188 311.969 98.6911 311.778 98.5058 311.548C98.3206 311.317 98.1815 311.051 98.0965 310.765C98.0115 310.48 97.9822 310.179 98.0104 309.882V309.728C98.4636 306.938 98.9668 304.185 99.556 301.432C100.145 298.679 100.639 295.94 101.079 293.15ZM104.252 293.615C103.894 296.405 103.572 299.195 103.345 302.013C103.119 304.832 102.842 307.622 102.493 310.417L100.472 307.775L127.214 310.156L124.635 312.361C125.451 302.353 126.389 292.364 127.327 282.351L129.453 284.969L116.889 283.732C112.7 283.305 108.508 282.96 104.333 282.402L106.659 280.519C106.269 282.705 105.802 284.876 105.385 287.057C104.968 289.239 104.605 291.452 104.234 293.638L104.252 293.615Z" fill="#6A5D4A"/>
<path d="M103.76 292.001C106.047 292.108 108.019 293.035 110.048 293.813L116.12 296.189L114.798 296.054L121.637 294.88C123.919 294.531 126.147 293.948 128.579 294.326C128.924 294.382 129.243 294.547 129.493 294.799C129.743 295.051 129.91 295.377 129.973 295.732C130.035 296.086 129.989 296.452 129.841 296.779C129.693 297.106 129.451 297.377 129.147 297.554C127.018 298.798 124.717 299.059 122.458 299.558L115.66 300.955C115.216 301.046 114.756 300.999 114.338 300.82L108.348 298.225C106.359 297.345 104.288 296.613 102.583 295.062C102.416 294.913 102.278 294.731 102.179 294.527C102.08 294.323 102.02 294.101 102.004 293.873C101.988 293.646 102.016 293.417 102.086 293.201C102.156 292.984 102.267 292.784 102.412 292.611C102.578 292.412 102.785 292.253 103.019 292.147C103.252 292.042 103.506 291.992 103.76 292.001Z" fill="#6A5D4A"/>
<path d="M195.946 284.348C196.101 289.911 195.921 295.478 195.407 301.018L193.993 317.625C193.074 328.699 192.079 339.768 190.919 350.82V350.883C190.823 351.799 190.371 352.639 189.663 353.22C188.955 353.8 188.049 354.075 187.141 353.983L169.442 352.18C166.492 351.895 163.548 351.548 160.61 351.14C157.675 350.689 154.74 350.212 151.827 349.513C151.269 349.379 150.778 349.046 150.444 348.575C150.11 348.104 149.956 347.526 150.011 346.95C150.065 346.373 150.324 345.836 150.74 345.436C151.155 345.037 151.7 344.804 152.273 344.778C155.262 344.634 158.232 344.729 161.194 344.814C164.156 344.9 167.118 345.166 170.071 345.436L187.788 346.977L184.005 350.13C184.898 339.056 185.982 328 187.128 316.949L188.765 300.365C189.269 294.817 190.106 289.306 191.272 283.862C191.401 283.294 191.73 282.794 192.198 282.454C192.666 282.113 193.24 281.956 193.813 282.011C194.387 282.066 194.922 282.33 195.317 282.753C195.713 283.176 195.943 283.731 195.964 284.312L195.946 284.348Z" fill="#6A5D4A"/>
<path d="M122.753 388.932C113.399 389.29 104.182 388.156 94.9301 387.412C85.6645 386.579 76.4255 385.902 67.1864 384.929H67.129C66.6736 384.882 66.2318 384.744 65.829 384.523C65.4261 384.302 65.0701 384.002 64.7812 383.641C64.4924 383.28 64.2764 382.865 64.1455 382.42C64.0146 381.974 63.9714 381.506 64.0184 381.044C64.0713 380.552 64.2214 380.077 64.4596 379.646L72.4325 365.55C75.1106 360.862 77.727 356.139 80.4449 351.478L80.0964 352.414C80.5685 350.42 81.0803 348.439 81.6539 346.467C82.2275 344.495 82.8054 342.523 83.4937 340.578C83.6865 340.035 84.0661 339.582 84.5623 339.301C85.0586 339.021 85.638 338.932 86.1936 339.052C86.7491 339.172 87.2433 339.491 87.5849 339.952C87.9264 340.413 88.0921 340.984 88.0515 341.559C87.9074 343.621 87.6839 345.668 87.3809 347.7C87.1206 349.739 86.7941 351.76 86.4323 353.777C86.3831 354.051 86.2923 354.315 86.1631 354.561L86.0837 354.718C83.5643 359.491 80.9171 364.197 78.3359 368.943L70.5529 383.146L67.8305 377.853C77.0961 378.637 86.3087 379.672 95.5478 380.569C104.778 381.546 114.044 382.137 123.177 384.226C123.732 384.356 124.222 384.687 124.556 385.156C124.889 385.626 125.043 386.203 124.989 386.78C124.935 387.356 124.677 387.893 124.263 388.291C123.848 388.688 123.305 388.919 122.736 388.941L122.753 388.932Z" fill="#6A5D4A"/>
<path d="M189.918 350.126C190.451 354.312 190.749 358.502 191.034 362.693L190.867 361.721C194.735 372.156 198.146 382.756 201.802 393.264C201.995 393.823 202.048 394.422 201.956 395.008C201.864 395.593 201.63 396.146 201.274 396.616C200.919 397.085 200.454 397.457 199.922 397.696C199.39 397.936 198.807 398.036 198.227 397.988H198.164C188.702 397.127 179.236 396.367 169.782 395.419L141.419 392.61H141.365C140.778 392.551 140.217 392.337 139.736 391.99C139.255 391.643 138.871 391.174 138.622 390.63C136.037 384.966 133.321 379.367 130.845 373.652L136.453 374.182C134.822 376.378 133.168 378.556 131.442 380.679C129.715 382.802 127.989 384.934 126.173 386.992C125.775 387.437 125.229 387.717 124.641 387.778C124.053 387.838 123.463 387.676 122.986 387.321C122.508 386.966 122.176 386.444 122.053 385.854C121.929 385.265 122.024 384.65 122.318 384.128C123.686 381.733 125.117 379.388 126.611 377.092C128.066 374.762 129.598 372.487 131.13 370.24C131.449 369.774 131.88 369.401 132.383 369.155C132.885 368.909 133.441 368.799 133.997 368.836C134.553 368.873 135.09 369.056 135.557 369.366C136.024 369.677 136.404 370.104 136.661 370.608L136.742 370.769C139.553 376.295 142.124 381.991 144.83 387.595L142.033 385.611L170.42 388.125L198.783 390.888L195.168 395.603C191.734 385.012 188.051 374.513 184.834 363.83L184.766 363.609C184.692 363.368 184.657 363.116 184.662 362.863C184.739 358.664 184.825 354.46 185.146 350.255C185.192 349.652 185.456 349.088 185.886 348.672C186.317 348.255 186.883 348.016 187.477 348.001C188.07 347.985 188.648 348.195 189.099 348.588C189.55 348.981 189.841 349.531 189.918 350.131V350.126Z" fill="#6A5D4A"/>
<path d="M187.139 365.506C183.973 366.355 180.914 365.886 177.86 365.727C174.805 365.568 171.728 365.285 168.665 365.037C165.605 364.723 162.546 364.435 159.496 364.055C156.446 363.675 153.369 363.573 150.412 362.153C149.952 361.931 149.572 361.574 149.322 361.131C149.071 360.688 148.963 360.179 149.011 359.673C149.06 359.167 149.262 358.688 149.592 358.299C149.922 357.911 150.363 357.632 150.857 357.5C154.023 356.637 157.082 357.12 160.136 357.274C163.191 357.429 166.268 357.717 169.332 357.969C172.395 358.221 175.445 358.57 178.5 358.951C181.555 359.331 184.627 359.442 187.58 360.853C188.041 361.073 188.424 361.429 188.676 361.873C188.928 362.316 189.037 362.826 188.989 363.334C188.94 363.841 188.737 364.321 188.405 364.71C188.073 365.098 187.63 365.376 187.135 365.506H187.139Z" fill="#6A5D4A"/>
<path d="M163.826 235.992C161.437 240.81 158.341 245.189 155.373 249.639L146.426 262.954C146.255 263.209 146.035 263.429 145.778 263.6C145.521 263.771 145.232 263.891 144.928 263.953C144.624 264.014 144.31 264.016 144.006 263.958C143.701 263.9 143.411 263.784 143.152 263.615C142.756 263.366 142.446 263.006 142.262 262.582L136.398 248.903C134.445 244.331 132.394 239.802 131.059 234.976C130.955 234.613 130.989 234.226 131.153 233.886C131.318 233.546 131.602 233.277 131.953 233.127C132.304 232.978 132.698 232.959 133.063 233.075C133.427 233.19 133.736 233.431 133.933 233.754C136.576 238.033 138.52 242.605 140.562 247.134L146.657 260.746L142.506 260.37L151.627 247.169C154.688 242.789 157.611 238.304 161.242 234.292C161.495 234.012 161.844 233.832 162.222 233.784C162.601 233.737 162.984 233.827 163.301 234.036C163.618 234.245 163.847 234.561 163.946 234.923C164.045 235.286 164.007 235.672 163.84 236.009L163.826 235.992Z" fill="#6A5D4A"/>
<path d="M155.134 255.144C158.815 256.269 162.078 258.233 165.423 260.005L175.412 265.403L171.781 267.316L172.881 256.705C173.268 253.17 173.479 249.618 174.584 246.148C174.699 245.79 174.933 245.481 175.248 245.274C175.562 245.066 175.938 244.972 176.314 245.007C176.69 245.042 177.042 245.203 177.313 245.465C177.584 245.727 177.757 246.073 177.804 246.446C178.264 250.058 177.804 253.588 177.533 257.132L176.663 267.766C176.609 268.408 176.303 269.003 175.81 269.42C175.318 269.838 174.68 270.043 174.036 269.992C173.682 269.96 173.339 269.854 173.028 269.68L163.145 264.09C159.864 262.199 156.478 260.501 153.561 257.962C153.278 257.713 153.088 257.375 153.024 257.004C152.96 256.633 153.025 256.251 153.208 255.922C153.391 255.592 153.681 255.335 154.031 255.193C154.38 255.051 154.768 255.032 155.13 255.139L155.134 255.144Z" fill="#6A5D4A"/>
<path d="M177.83 300.389C177.83 298.246 177.942 296.099 177.87 293.951C177.799 291.803 177.772 289.651 177.767 287.504L179.703 289.714C175.544 289.489 171.407 289.058 167.261 288.712L154.827 287.62L157.355 285.513C156.521 295.182 155.692 304.833 154.737 314.511L152.617 311.954L179.031 314.538L176.597 316.681C176.745 313.985 176.947 311.249 177.234 308.535C177.521 305.821 177.695 303.108 177.83 300.389ZM180.967 300.506C180.909 303.229 180.891 305.947 180.967 308.675C181.044 311.402 181.071 314.124 181.021 316.843C181.017 317.132 180.955 317.418 180.839 317.683C180.724 317.949 180.557 318.189 180.349 318.389C180.141 318.59 179.895 318.747 179.625 318.851C179.356 318.956 179.069 319.006 178.78 318.999H178.574L152.128 316.65C151.513 316.595 150.945 316.298 150.547 315.824C150.15 315.349 149.956 314.737 150.008 314.12V314.093C150.815 304.42 151.738 294.773 152.671 285.1C152.73 284.487 153.029 283.922 153.503 283.531C153.977 283.139 154.587 282.952 155.199 283.011L167.624 284.206C171.761 284.624 175.911 284.952 180.04 285.491H180.201C180.724 285.553 181.202 285.815 181.537 286.223C181.871 286.631 182.035 287.153 181.994 287.679C181.828 289.817 181.591 291.956 181.402 294.095C181.214 296.233 181.124 298.368 180.985 300.506H180.967Z" fill="#6A5D4A"/>
<path d="M180.168 301.953C178.192 303.003 176.049 303.294 173.938 303.724L167.592 304.954C167.151 305.04 166.692 305.005 166.274 304.852L159.833 302.535C157.699 301.715 155.48 301.125 153.603 299.702C153.335 299.499 153.144 299.224 153.055 298.917C152.966 298.61 152.985 298.286 153.109 297.989C153.232 297.692 153.454 297.437 153.744 297.26C154.034 297.083 154.377 296.992 154.726 297.001C157.171 297.062 159.273 297.943 161.461 298.64L167.975 300.78L166.658 300.682L173.05 299.637C175.179 299.305 177.281 298.817 179.55 299.12C179.992 299.177 180.39 299.391 180.659 299.714C180.928 300.038 181.045 300.445 180.984 300.846C180.947 301.074 180.855 301.292 180.714 301.483C180.573 301.675 180.386 301.835 180.168 301.953Z" fill="#6A5D4A"/>
<path d="M122.999 357.011C122.942 357.985 122.835 358.955 122.817 359.934L120.623 357.262C123.164 357.343 125.722 357.262 128.271 357.285C130.82 357.307 133.347 357.536 135.878 357.734L151.062 359.036L147.305 362.18C147.847 356.068 148.278 349.947 148.904 343.83L152.106 347.746L121.734 344.706L125.353 341.634C125.26 342.707 125.135 343.781 124.993 344.849L124.944 345.222C124.84 345.983 124.455 346.676 123.867 347.163C123.28 347.65 122.532 347.895 121.774 347.849H121.729L124.944 344.872C124.336 348.941 123.337 352.946 122.999 357.011ZM118.332 356.562C118.705 352.52 118.412 348.384 118.514 344.302C118.531 343.546 118.827 342.824 119.344 342.278C119.861 341.732 120.561 341.401 121.307 341.351L121.751 341.324H121.796L118.576 344.319C118.609 343.242 118.665 342.165 118.745 341.091C118.778 340.652 118.896 340.225 119.093 339.833C119.289 339.441 119.56 339.092 119.89 338.806C120.22 338.52 120.602 338.302 121.016 338.166C121.429 338.029 121.864 337.976 122.298 338.01H122.369L152.781 340.614C153.241 340.654 153.689 340.784 154.1 340.998C154.51 341.213 154.875 341.507 155.172 341.864C155.47 342.221 155.695 342.634 155.835 343.079C155.975 343.525 156.027 343.993 155.987 344.459V344.526L154.211 362.826V362.867C154.167 363.32 154.036 363.761 153.824 364.163C153.612 364.565 153.324 364.922 152.976 365.211C152.627 365.501 152.226 365.718 151.795 365.85C151.364 365.983 150.911 366.028 150.463 365.983L135.301 364.461C132.774 364.205 130.243 363.985 127.751 363.518C125.26 363.051 122.742 362.516 120.228 362.126L119.908 362.076C119.319 361.984 118.79 361.66 118.437 361.174C118.084 360.689 117.936 360.081 118.025 359.485V359.454C118.141 358.52 118.212 357.55 118.332 356.584V356.562Z" fill="#6A5D4A"/>
<path d="M94.9353 476.98C96.4641 481.211 97.8046 485.486 99.1272 489.771C100.45 494.056 101.638 498.382 102.871 502.689C103.113 503.534 103.013 504.44 102.593 505.211C102.173 505.982 101.467 506.554 100.629 506.803L100.548 506.825H100.486C93.8145 508.539 87.1748 510.091 80.4454 511.494C73.716 512.897 66.9955 514.16 59.8985 514.805C58.0653 514.971 56.2242 515.031 54.3841 514.985C53.3304 514.956 52.2807 514.84 51.2458 514.638C50.5905 514.499 49.9484 514.303 49.327 514.051C48.9003 513.833 48.4871 513.589 48.0896 513.321C47.5696 512.925 47.1221 512.441 46.7671 511.891C46.3622 511.24 46.1122 510.503 46.0363 509.739C45.9879 509.475 45.9879 509.205 46.0363 508.941L46.1035 508.382C46.1686 507.673 46.3285 506.977 46.5787 506.311L47.3005 504.638L48.1434 503.285C49.2303 501.672 50.4738 500.171 51.8556 498.806C57.1055 493.65 62.7095 489.69 68.6364 485.82L67.2691 490.159L59.3068 470.692C56.6885 464.188 53.9268 457.733 51.4386 451.184L51.3938 451.062C51.0947 450.282 51.1157 449.414 51.4521 448.649C52.797 445.546 54.2003 442.456 55.6753 439.403C57.1503 436.349 58.6119 433.291 60.1586 430.278C60.4363 429.747 60.9025 429.34 61.4647 429.139C62.0269 428.937 62.6439 428.956 63.1929 429.191C63.7419 429.426 64.1829 429.861 64.4281 430.408C64.6733 430.956 64.7048 431.576 64.5163 432.145C63.4493 435.372 62.3135 438.57 61.109 441.739C59.9479 444.924 58.6926 448.054 57.4193 451.211V448.676C60.2483 455.09 62.853 461.594 65.5789 468.071L73.6981 487.467C74.014 488.223 74.0574 489.066 73.8208 489.851C73.5842 490.636 73.0825 491.313 72.4024 491.765L72.3306 491.81C66.8879 495.418 61.3556 499.446 56.9127 503.907C55.8823 504.952 54.9391 506.081 54.0927 507.281L53.5681 508.088C53.4849 508.32 53.3875 508.546 53.2767 508.765C53.1019 509.04 53.2498 509.054 53.1691 509.175L53.1333 509.252C53.1109 509.293 53.1064 509.342 53.1333 509.081C53.0974 508.74 52.9856 508.411 52.806 508.12C52.7388 507.89 52.3577 507.633 52.3577 507.61C52.3441 507.587 52.3245 507.567 52.3008 507.554C52.2772 507.54 52.2503 507.533 52.2232 507.534C52.389 507.534 52.4249 507.633 52.7387 507.673C53.3764 507.795 54.0224 507.868 54.6711 507.89C56.2294 507.938 57.7891 507.896 59.3426 507.764C65.8209 507.236 72.4876 506.036 79.069 504.742C85.6505 503.447 92.2857 501.932 98.7954 500.312L96.3879 504.467C95.294 500.118 94.1821 495.775 93.151 491.413C92.1198 487.052 91.1649 482.663 90.3669 478.234C90.2661 477.647 90.3869 477.043 90.7055 476.541C91.0241 476.038 91.5176 475.674 92.0893 475.519C92.661 475.364 93.2697 475.429 93.7961 475.702C94.3226 475.974 94.7288 476.435 94.9353 476.993V476.98Z" fill="#6A5D4A"/>
<path d="M90.7946 441.799C90.5056 445.176 88.8118 447.821 87.5625 450.697L87.8292 448.214C88.9185 452.048 89.9988 455.927 90.9413 459.816L92.3328 465.671C92.7774 467.624 93.1909 469.595 92.9063 471.752C92.8408 472.257 92.6296 472.732 92.2993 473.116C91.969 473.501 91.5343 473.777 91.05 473.91C90.5656 474.043 90.0533 474.028 89.5775 473.866C89.1017 473.704 88.6837 473.403 88.3761 472.999C87.0423 471.277 86.4199 469.382 85.8553 467.443L84.1525 461.669C83.0633 457.795 82.0141 453.938 81.1382 449.991L81.0715 449.693C80.908 448.947 81.0271 448.165 81.405 447.505C82.9655 444.792 84.0725 441.844 86.5977 439.629C86.979 439.293 87.4501 439.081 87.9507 439.019C88.4514 438.957 88.9588 439.048 89.408 439.281C89.8573 439.514 90.2279 439.878 90.4726 440.327C90.7172 440.775 90.8247 441.288 90.7813 441.799H90.7946Z" fill="#6A5D4A"/>
<path d="M90.2368 473.474C88.3525 474.844 86.2578 475.245 84.2079 475.846L78.0403 477.587L71.8235 479.075C69.7333 479.542 67.7372 480.231 65.4545 479.924C65.1189 479.877 64.8042 479.718 64.5523 479.468C64.3005 479.218 64.1235 478.888 64.0452 478.524C63.9668 478.159 63.9908 477.777 64.1139 477.428C64.2369 477.078 64.4533 476.779 64.7339 476.57L64.8369 476.496C66.6809 475.151 68.8024 474.739 70.8344 474.144L76.9841 472.408L83.183 470.92C85.2553 470.453 87.2828 469.778 89.5162 470.071C89.7349 470.099 89.9466 470.174 90.1391 470.293C90.3316 470.411 90.501 470.571 90.6378 470.762C90.7746 470.953 90.876 471.172 90.9362 471.407C90.9964 471.642 91.0142 471.888 90.9887 472.13C90.959 472.401 90.8763 472.662 90.7465 472.894C90.6166 473.126 90.4427 473.324 90.2368 473.474Z" fill="#6A5D4A"/>
<path d="M86.0583 453.284C83.7189 454.427 81.2312 454.684 78.7806 455.125L71.4057 456.384L63.9936 457.415C61.5153 457.73 59.0739 458.247 56.4843 457.865C56.1191 457.817 55.7795 457.656 55.516 457.405C55.2524 457.155 55.0789 456.829 55.0212 456.476C54.9634 456.122 55.0246 455.76 55.1955 455.443C55.3664 455.126 55.6381 454.87 55.9701 454.715C58.2864 453.563 60.7972 453.316 63.2478 452.87L70.6227 451.611L78.0347 450.585C80.5131 450.261 82.9545 449.757 85.5441 450.135C85.7666 450.167 85.9804 450.242 86.1731 450.355C86.3658 450.468 86.5337 450.616 86.6671 450.792C86.8005 450.968 86.8968 451.168 86.9506 451.38C87.0043 451.593 87.0143 451.813 86.9801 452.029C86.9406 452.294 86.8363 452.547 86.676 452.765C86.5156 452.984 86.3038 453.162 86.0583 453.284Z" fill="#6A5D4A"/>
<path d="M62.7091 413.002C65.4252 413.141 67.8534 414.097 70.3391 414.884L77.7829 417.302L85.1469 419.937C87.5927 420.837 90.1051 421.554 92.3205 423.107C92.6059 423.307 92.8174 423.593 92.9237 423.921C93.0299 424.249 93.0251 424.603 92.91 424.928C92.7948 425.253 92.5755 425.533 92.2847 425.726C91.994 425.919 91.6475 426.015 91.2969 425.998C88.5764 425.868 86.1527 424.902 83.667 424.115L76.2232 421.698L68.8591 419.063C66.4089 418.167 63.9011 417.437 61.6856 415.893C61.5114 415.772 61.3632 415.619 61.2495 415.442C61.1358 415.265 61.0588 415.067 61.023 414.861C60.9872 414.654 60.9932 414.443 61.0408 414.239C61.0884 414.035 61.1765 413.842 61.3001 413.671C61.4598 413.454 61.6722 413.278 61.9182 413.161C62.1642 413.044 62.4361 412.99 62.7091 413.002Z" fill="#6A5D4A"/>
<path d="M193.028 488.112C193.723 484.619 194.776 481.208 196.173 477.933L200.12 468.086L204.072 458.244L208.237 448.488V451.217L204.335 441.738C202.976 438.575 201.945 435.28 201.259 431.905C201.158 431.355 201.247 430.788 201.511 430.296C201.775 429.804 202.198 429.416 202.71 429.197C203.223 428.978 203.795 428.94 204.332 429.09C204.869 429.24 205.339 429.569 205.664 430.022C207.615 432.858 209.269 435.888 210.601 439.064L214.712 448.456C214.894 448.873 214.992 449.322 214.999 449.777C215.007 450.232 214.925 450.685 214.757 451.108L214.725 451.19L210.778 461.036L206.617 470.802L202.447 480.557C201.109 483.856 199.437 487.008 197.457 489.963C197.134 490.419 196.666 490.751 196.13 490.905C195.595 491.059 195.023 491.025 194.508 490.81C193.994 490.594 193.568 490.21 193.301 489.72C193.033 489.229 192.941 488.662 193.037 488.112H193.028Z" fill="#6A5D4A"/>
<path d="M178.349 440.065C180.066 442.688 181.686 445.365 183.251 448.069C183.574 448.626 183.68 449.279 183.548 449.906L183.484 450.201C182.503 454.809 181.27 459.336 180.102 463.886L176.451 477.49L169.125 504.699L166.519 500.328C172.726 501.794 179.011 503.295 185.282 504.578C191.554 505.861 197.871 507.049 204.096 507.769C207.159 508.113 210.408 508.363 212.905 508.068C213.416 508.01 214.078 507.8 213.85 507.881L213.818 507.934C213.728 507.993 213.645 508.062 213.571 508.14C213.422 508.351 213.296 508.577 213.197 508.815C213.051 509.709 213.129 509.293 213.097 509.262C213.037 508.739 212.385 507.532 211.59 506.477C208.14 502.08 203.037 498.031 198.277 493.964C197.821 493.579 197.528 493.041 197.455 492.457C197.383 491.872 197.535 491.281 197.883 490.801C198.231 490.32 198.749 489.983 199.337 489.857C199.924 489.73 200.539 489.822 201.061 490.116C203.959 491.71 206.739 493.502 209.381 495.479C212.192 497.499 214.735 499.853 216.953 502.486C218.09 503.948 219.309 505.463 219.861 508.082C219.902 508.833 220.208 509.19 219.756 510.87C219.577 511.498 219.245 512.073 218.788 512.546C218.591 512.78 218.374 512.996 218.14 513.195L217.588 513.552C215.99 514.499 215 514.544 213.936 514.763C209.988 515.241 206.725 514.897 203.361 514.589C196.711 513.883 190.276 512.73 183.854 511.483C177.432 510.236 171.074 508.859 164.734 507.233H164.702C164.242 507.115 163.811 506.91 163.432 506.629C163.053 506.348 162.734 505.996 162.494 505.594C162.254 505.192 162.098 504.748 162.033 504.287C161.969 503.826 161.998 503.357 162.119 502.906V502.871L169.718 475.729L173.525 462.165C174.844 457.66 176.136 453.137 177.605 448.682L177.838 450.809C176.519 447.984 175.255 445.133 174.091 442.228C173.875 441.68 173.874 441.074 174.088 440.525C174.302 439.977 174.717 439.526 175.251 439.259C175.785 438.992 176.401 438.929 176.98 439.081C177.559 439.233 178.06 439.59 178.386 440.083L178.349 440.065Z" fill="#6A5D4A"/>
<path d="M175.479 470.071C177.713 469.778 179.742 470.453 181.815 470.92L188.017 472.408L194.166 474.139C196.199 474.739 198.321 475.131 200.166 476.496L200.26 476.565C200.542 476.773 200.759 477.072 200.884 477.421C201.008 477.77 201.033 478.153 200.956 478.518C200.879 478.884 200.703 479.214 200.451 479.466C200.2 479.717 199.885 479.877 199.55 479.924C197.271 480.231 195.274 479.542 193.182 479.075L186.963 477.587L180.796 475.846C178.745 475.245 176.65 474.854 174.764 473.474C174.579 473.342 174.42 473.171 174.295 472.97C174.17 472.769 174.082 472.542 174.036 472.303C173.991 472.064 173.988 471.818 174.029 471.578C174.069 471.338 174.152 471.109 174.273 470.905C174.408 470.677 174.585 470.485 174.793 470.341C175.002 470.197 175.236 470.105 175.479 470.071Z" fill="#6A5D4A"/>
<path d="M138.794 408.526C136.105 408.759 133.415 408.974 130.726 409.072C128.036 409.17 125.346 409.34 122.657 409.367L125.194 408.124C120.662 414.304 115.932 420.327 111.297 426.412L97.2931 444.629C96.8468 445.21 96.2292 445.637 95.5273 445.849C94.8253 446.062 94.0743 446.049 93.3797 445.814H93.3304C80.2721 441.343 67.3304 436.634 54.3304 432.029H54.3035C53.8748 431.877 53.4803 431.643 53.1426 431.34C52.8048 431.036 52.5304 430.669 52.3351 430.259C52.1398 429.85 52.0274 429.406 52.0044 428.953C51.9814 428.5 52.0483 428.047 52.2011 427.62C52.236 427.518 52.2764 427.418 52.3221 427.32L62.9373 404.574C64.7304 400.786 66.5639 397.035 68.4063 393.279C70.3249 389.554 72.239 385.829 74.3504 382.194C74.6453 381.679 75.1227 381.294 75.6887 381.113C76.2546 380.932 76.8679 380.97 77.4076 381.218C77.9472 381.466 78.3741 381.906 78.604 382.453C78.8339 383 78.85 383.612 78.6494 384.17C77.2597 388.132 75.6728 392.004 74.0814 395.881C72.4228 399.722 70.7731 403.568 69.0473 407.377L58.6428 430.218L56.6345 425.496L76.1883 432.275L95.6928 439.183L91.73 440.35L105.896 422.263C110.634 416.244 115.309 410.163 120.155 404.238L120.231 404.149C120.53 403.787 120.906 403.496 121.332 403.297C121.757 403.098 122.222 402.997 122.692 403C125.382 403 128.072 403.174 130.761 403.295C133.451 403.416 136.141 403.603 138.83 403.836C139.423 403.887 139.974 404.158 140.376 404.595C140.777 405.033 141 405.604 141 406.197C141 406.79 140.777 407.361 140.376 407.798C139.974 408.235 139.423 408.506 138.83 408.558L138.794 408.526Z" fill="#6A5D4A"/>
<path d="M194.055 392.091C195.942 394.862 197.656 397.727 199.352 400.598C201.048 403.468 202.653 406.393 204.235 409.322L213.597 426.978C213.811 427.382 213.943 427.824 213.985 428.279C214.027 428.733 213.979 429.192 213.843 429.628C213.707 430.064 213.486 430.469 213.193 430.821C212.899 431.172 212.539 431.462 212.133 431.675C211.987 431.751 211.835 431.815 211.678 431.865H211.619L191.873 438.925L172.059 445.805H172.022C171.322 446.047 170.562 446.064 169.852 445.853C169.141 445.642 168.515 445.214 168.062 444.63L153.854 426.196C149.103 420.067 144.465 413.847 140.355 407.211C140.045 406.707 139.933 406.107 140.039 405.526C140.146 404.945 140.465 404.423 140.934 404.061C141.404 403.699 141.991 403.522 142.584 403.563C143.177 403.605 143.733 403.862 144.147 404.286C149.576 409.896 154.477 415.908 159.265 422.015L173.677 440.29L169.681 439.124L189.454 432.095L209.3 425.265L207.345 430.174L198.184 412.423C196.67 409.458 195.174 406.483 193.778 403.455C192.382 400.426 190.995 397.393 189.786 394.269C189.571 393.719 189.568 393.108 189.777 392.555C189.986 392.002 190.393 391.545 190.92 391.272C191.447 390.999 192.057 390.928 192.633 391.074C193.209 391.221 193.711 391.573 194.042 392.064L194.055 392.091Z" fill="#6A5D4A"/>
<path d="M180.438 450.135C182.946 449.757 185.311 450.261 187.712 450.584L194.891 451.61L202.035 452.869C204.409 453.319 206.818 453.562 209.085 454.714C209.281 454.812 209.455 454.949 209.598 455.116C209.741 455.282 209.85 455.476 209.918 455.685C209.986 455.894 210.012 456.115 209.995 456.334C209.977 456.553 209.916 456.767 209.816 456.963C209.696 457.199 209.522 457.403 209.308 457.559C209.095 457.715 208.847 457.819 208.586 457.862C206.078 458.249 203.713 457.732 201.313 457.412L194.133 456.382L186.989 455.123C184.611 454.673 182.206 454.426 179.94 453.283C179.618 453.128 179.355 452.873 179.189 452.556C179.024 452.239 178.965 451.877 179.02 451.523C179.076 451.17 179.244 450.844 179.5 450.594C179.755 450.344 180.084 450.183 180.438 450.135Z" fill="#6A5D4A"/>
<path d="M203.328 415.837C201.066 417.429 198.598 418.126 196.138 419.038L188.775 421.681L181.333 424.11C178.843 424.895 176.418 425.854 173.702 425.998C173.272 426.019 172.852 425.871 172.533 425.587C172.214 425.302 172.023 424.904 172.001 424.48C171.99 424.212 172.046 423.946 172.165 423.705C172.284 423.463 172.461 423.255 172.682 423.098C174.89 421.541 177.394 420.826 179.832 419.923L187.172 417.307L194.592 414.886C197.056 414.101 199.525 413.142 202.175 413.002H202.321C202.666 412.984 203.007 413.077 203.294 413.267C203.581 413.457 203.798 413.735 203.911 414.057C204.025 414.379 204.029 414.729 203.924 415.054C203.819 415.379 203.61 415.661 203.328 415.859V415.837Z" fill="#6A5D4A"/>
<path d="M134.338 227C139.226 227 144.091 227.233 148.957 227.449C153.813 227.786 158.674 228.042 163.527 228.459C163.929 228.497 164.322 228.604 164.688 228.778L204.34 247.558C205.114 247.923 205.726 248.563 206.06 249.354V249.394C210.081 258.822 214.009 268.318 217.936 277.8L229.735 306.229C229.908 306.641 229.998 307.083 230 307.531C230.002 307.978 229.917 308.422 229.748 308.836C229.58 309.25 229.332 309.626 229.018 309.944C228.705 310.261 228.332 310.514 227.921 310.687C227.823 310.727 227.707 310.767 227.604 310.799C221.984 312.527 216.354 314.144 210.698 315.702C207.879 316.519 205.028 317.21 202.182 317.946C199.336 318.683 196.472 319.325 193.604 319.949C193.023 320.072 192.417 319.971 191.907 319.665C191.396 319.36 191.019 318.873 190.85 318.301C190.681 317.728 190.733 317.113 190.995 316.578C191.257 316.042 191.71 315.625 192.264 315.41C197.75 313.273 203.29 311.369 208.87 309.573C214.451 307.777 220.04 306.058 225.647 304.325L223.516 308.895L211.502 280.552C207.481 271.102 203.46 261.66 199.577 252.169L201.315 253.996L161.815 234.888L162.977 235.207C158.125 234.803 153.286 234.237 148.443 233.752C143.609 233.151 138.775 232.563 133.958 231.741C133.376 231.638 132.853 231.321 132.493 230.85C132.132 230.38 131.959 229.791 132.008 229.199C132.058 228.607 132.325 228.055 132.759 227.652C133.192 227.248 133.761 227.022 134.352 227.018L134.338 227Z" fill="#6A5D4A"/>
<path d="M200.895 340.353C199.263 338.839 198.778 336.92 198.022 335.098C197.267 333.277 196.624 331.413 195.943 329.563C195.262 327.714 194.674 325.827 194.11 323.959C193.546 322.09 192.744 320.264 193.079 318.055C193.177 317.42 193.522 316.85 194.039 316.47C194.556 316.09 195.202 315.931 195.835 316.028C196.31 316.102 196.753 316.315 197.108 316.639C198.75 318.153 199.221 320.077 199.981 321.899C200.741 323.72 201.38 325.584 202.061 327.434C202.742 329.283 203.325 331.17 203.889 333.038C204.453 334.907 205.25 336.738 204.924 338.938C204.83 339.572 204.488 340.142 203.974 340.524C203.46 340.906 202.815 341.068 202.182 340.974C201.7 340.903 201.251 340.687 200.895 340.353Z" fill="#6A5D4A"/>
<path d="M233.708 330.47C233.415 330.463 233.123 330.517 232.851 330.627C232.579 330.738 232.333 330.903 232.127 331.112L231.819 331.486C233.735 328.28 235.517 325.073 236.482 321.937C236.71 321.261 236.85 320.558 236.897 319.845C236.969 319.489 236.839 319.399 236.87 319.15C236.772 319.118 236.835 318.927 236.785 319.056C237.013 319.266 236.415 318.86 235.245 319.395C232.806 320.416 230.077 323.048 227.772 325.67C225.389 328.389 223.173 331.249 221.135 334.234C220.749 334.801 220.198 335.237 219.557 335.483C218.916 335.73 218.215 335.775 217.548 335.612C216.881 335.45 216.279 335.088 215.823 334.574C215.368 334.061 215.08 333.421 214.998 332.74V332.709C214.583 329.14 213.962 325.287 212.926 322.089C212.709 321.389 212.423 320.712 212.073 320.068C212.001 319.89 211.948 319.89 211.899 319.81C211.849 319.729 211.778 319.605 211.845 319.729C211.912 319.854 211.885 319.729 212.131 319.894C212.254 319.967 212.391 320.015 212.533 320.033C212.685 320.033 212.85 320.033 212.77 320.033C212.618 320.033 212.591 320.073 212.323 320.229C211.924 320.612 211.586 321.055 211.322 321.54C209.88 324.069 209.049 327.834 208.428 331.42C207.834 335.081 207.414 338.846 207.128 342.624C206.707 345.955 207.121 349.34 208.334 352.472C208.943 354.034 209.738 355.518 210.702 356.892C211.627 358.21 212.714 359.409 213.935 360.46C216.382 362.57 219.368 363.96 222.56 364.474C225.66 364.956 228.992 364.545 231.274 363.051C231.673 362.793 232.122 362.62 232.592 362.544C233.061 362.467 233.542 362.488 234.003 362.605H234.052C237.036 363.346 240.037 364.091 242.9 364.568C244.213 364.819 245.547 364.949 246.884 364.956C247.336 364.96 247.786 364.907 248.224 364.795C248.501 364.675 248.617 364.661 248.671 364.546C248.877 364.318 249.03 364.046 249.117 363.752L249.238 363.422C249.238 363.422 249.184 363.457 249.193 363.479C249.202 363.502 249.193 363.573 249.193 363.6C249.318 363.6 248.572 362.645 247.59 361.994C245.571 360.594 242.726 359.381 240.144 358.542C239.403 358.304 238.763 357.823 238.329 357.178C237.894 356.532 237.69 355.759 237.749 354.983C237.809 354.208 238.128 353.475 238.656 352.903C239.183 352.33 239.889 351.952 240.658 351.829C243.526 351.398 246.338 350.65 249.041 349.599C250.205 349.162 251.296 348.549 252.275 347.784C253.079 347.066 253.168 346.732 253.137 346.504C253.061 346.134 253.137 346.018 252.463 345.679C251.429 345.276 250.324 345.087 249.216 345.126C246.357 345.174 243.517 345.591 240.765 346.366C239.956 346.598 239.089 346.518 238.336 346.141C237.583 345.765 236.999 345.119 236.701 344.333C236.403 343.546 236.412 342.676 236.726 341.896C237.041 341.116 237.637 340.483 238.398 340.121C241.317 338.748 244.101 337.105 246.714 335.215C247.911 334.288 249.113 333.257 249.747 332.316C249.963 332.004 250.138 331.665 250.265 331.308C250.265 331.21 250.203 331.25 250.301 331.192C250.216 331.161 250.229 331.125 250.243 331.027C250.002 330.581 249.519 330.273 248.242 330.198C246.81 330.216 245.391 330.458 244.034 330.916C241.033 331.772 237.938 333.275 235.102 334.814L235.003 334.867C234.47 335.196 233.828 335.3 233.219 335.156C232.609 335.012 232.081 334.633 231.752 334.1C231.423 333.568 231.318 332.927 231.463 332.318C231.607 331.709 231.987 331.182 232.52 330.853C235.523 328.683 238.788 326.901 242.239 325.55C244.15 324.801 246.169 324.361 248.22 324.248C249.48 324.216 250.736 324.413 251.927 324.827C252.592 325.118 253.228 325.469 253.829 325.876C254.382 326.365 254.895 326.896 255.366 327.463C255.789 328.153 256.138 328.886 256.406 329.649C256.644 330.722 256.644 331.834 256.408 332.908C256.172 333.981 255.705 334.991 255.04 335.866C253.7 337.829 252.226 339.069 250.73 340.327C247.789 342.617 244.608 344.582 241.243 346.187L238.88 339.943C242.265 338.958 245.766 338.431 249.291 338.378C251.38 338.331 253.455 338.733 255.375 339.555C255.972 339.811 256.53 340.151 257.032 340.563C257.609 340.984 258.111 341.499 258.515 342.088C258.96 342.658 259.297 343.303 259.511 343.993C259.786 344.655 259.938 345.363 259.957 346.08C260.05 346.799 259.992 347.53 259.788 348.226C259.664 348.922 259.411 349.589 259.042 350.193C258.754 350.765 258.387 351.293 257.952 351.763C257.584 352.204 257.176 352.61 256.733 352.976C255.222 354.208 253.528 355.198 251.712 355.911C248.483 357.21 245.116 358.136 241.676 358.671L242.172 351.95C245.508 353.038 248.496 354.225 251.641 356.334C253.124 357.489 254.968 358.676 255.96 361.727C256.193 362.511 256.266 363.335 256.174 364.148C256.136 364.558 256.072 364.965 255.982 365.366L255.723 366.138C255.323 367.332 254.676 368.429 253.825 369.358C252.873 370.365 251.673 371.106 250.346 371.508C249.288 371.819 248.192 371.984 247.09 371.998C245.306 372.017 243.525 371.868 241.77 371.552C238.474 371.017 235.414 370.263 232.346 369.523L235.124 369.077C233.065 370.377 230.757 371.235 228.348 371.597C226.07 371.954 223.749 371.954 221.47 371.597C216.977 370.862 212.776 368.896 209.335 365.919C207.622 364.44 206.107 362.746 204.828 360.879C203.591 359.071 202.567 357.125 201.778 355.081C200.215 350.96 199.671 346.523 200.192 342.146C200.514 338.226 200.965 334.305 201.63 330.345C202.403 326.371 203.082 322.401 205.436 318.155C206.122 316.956 207.012 315.886 208.066 314.993C209.462 313.885 211.197 313.293 212.98 313.316C213.682 313.349 214.372 313.51 215.016 313.793C215.553 314.04 216.045 314.375 216.472 314.783C216.814 315.078 217.114 315.417 217.366 315.791C217.599 316.087 217.808 316.402 217.991 316.732C218.575 317.78 219.048 318.886 219.402 320.033C220.706 324.207 221.26 328.061 221.725 332.133L215.583 330.603C217.798 327.339 220.257 324.246 222.94 321.353C224.306 319.847 225.773 318.436 227.33 317.129C229.027 315.644 230.959 314.45 233.047 313.597C234.402 313.08 235.862 312.895 237.304 313.057C238.208 313.157 239.081 313.453 239.859 313.924C240.637 314.396 241.303 315.031 241.81 315.787C242.453 316.607 242.543 317.455 242.771 318.289C242.849 318.996 242.849 319.709 242.771 320.416C242.634 321.587 242.349 322.735 241.922 323.833C240.368 327.847 238.108 331.103 235.821 334.154L235.718 334.288C235.653 334.373 235.583 334.455 235.508 334.533C235.032 334.981 234.407 335.24 233.753 335.26C233.144 335.233 232.57 334.974 232.149 334.534C231.728 334.095 231.493 333.511 231.493 332.903C231.493 332.295 231.728 331.71 232.149 331.271C232.57 330.832 233.144 330.572 233.753 330.545L233.708 330.47Z" fill="#6A5D4A"/>
<path d="M223.419 308.598C224.668 309.61 224.772 310.889 225.137 312.102C225.502 313.316 225.768 314.557 226.038 315.79C226.309 317.022 226.534 318.278 226.714 319.552C226.895 320.827 227.314 322.017 226.593 323.484C226.264 324.14 225.703 324.635 225.028 324.863C224.354 325.091 223.621 325.033 222.987 324.702C222.842 324.621 222.703 324.528 222.572 324.425C221.319 323.419 221.22 322.139 220.855 320.926C220.49 319.712 220.228 318.466 219.954 317.234C219.679 316.001 219.462 314.746 219.282 313.471C219.102 312.196 218.692 311.002 219.404 309.534C219.562 309.206 219.782 308.913 220.049 308.673C220.316 308.434 220.627 308.252 220.962 308.138C221.297 308.023 221.65 307.98 222.002 308.009C222.353 308.038 222.696 308.139 223.009 308.307C223.155 308.39 223.292 308.488 223.419 308.598Z" fill="#6A5D4A"/>
<path d="M220.439 294.569C219.216 295.843 217.771 296.152 216.353 296.658L212.117 298.109L207.818 299.308C206.377 299.677 204.99 300.269 203.372 299.864C202.92 299.743 202.527 299.426 202.277 298.98C202.028 298.533 201.942 297.994 202.038 297.477C202.113 297.074 202.297 296.708 202.563 296.43C203.785 295.145 205.23 294.852 206.648 294.341L210.885 292.89L215.184 291.691C216.624 291.317 218.012 290.735 219.63 291.135C220.08 291.255 220.472 291.571 220.721 292.015C220.97 292.459 221.057 292.996 220.963 293.512C220.888 293.917 220.705 294.286 220.439 294.569Z" fill="#6A5D4A"/>
<path d="M62 105C60.7678 108.824 59.6481 112.857 58.5431 117C57.2278 114.817 56.7192 112.822 57.1495 110.858C57.6336 108.636 59.301 106.663 62 105Z" fill="#BAB162"/>
<path d="M280.849 154.89C280.418 156.813 279.123 158.5 277 160C277.723 155.871 278.365 151.855 278.872 148C280.634 150.376 281.336 152.714 280.849 154.89Z" fill="#BAB162"/>
<path d="M177.29 105C187.681 107.205 197.648 109.76 207 112.519C194.78 114.161 180.481 114.885 168 112.301C170.731 110.896 173.9 108.284 177.29 105Z" fill="#CD804D"/>
<path d="M58.3285 117.004C59.3385 112.753 60.362 108.64 61.4882 104.729V104.684C74.5696 95.566 114.082 94.3872 161 102.09C132.844 109.466 102.131 110.534 86.3326 110.507C79.9506 118.799 75.3562 128.886 73.0009 141C69.1038 136.535 63.5485 129.587 63.5485 129.587C61.1363 128.647 58.5865 128.107 56 127.988C56.7419 124.228 57.5017 120.554 58.3285 117.004Z" fill="#CD804D"/>
<path d="M275.145 171.061C278.595 173.321 280.087 180.934 278.128 188.955C275.194 201.055 264.34 213.992 240.51 210.44C235.685 219.825 229.705 227.841 221.51 233.173C208.292 241.776 191.129 244.551 176.303 244.939C175.75 244.971 175.193 244.998 174.65 244.984C169.384 245.057 164.446 244.872 160.129 244.533C155.498 244.175 150.889 243.58 146.318 242.752C142.048 241.873 137.827 240.772 133.671 239.454C129.582 238.152 124.923 236.508 119.976 234.483C119.298 234.212 118.629 233.901 117.914 233.58H117.869C104.229 227.611 89.2635 218.578 80.1835 205.565C74.7922 197.847 72.6446 188.11 72.0066 177.469C57.7913 173.772 50.2389 167.017 46.7884 159.593C44.5914 154.894 44.6318 149.024 45.764 143.643C47.624 134.963 52.4763 127.552 55.8189 128.207C58.4191 128.327 60.9824 128.874 63.4073 129.825C63.4073 129.825 68.9919 136.842 72.9096 141.375C75.2774 129.116 79.896 118.908 86.3117 110.517C102.194 110.545 133.087 109.465 161.373 102C165.579 102.682 169.856 103.473 174.164 104.313C175.135 104.503 176.101 104.693 177.062 104.928C173.621 108.064 170.404 110.558 167.627 111.9C180.297 114.376 194.813 113.676 207.218 112.108H207.258C219.919 115.553 232.349 119.806 244.473 124.841C253.422 139.495 257.3 157.469 253.409 177.604C255.741 176.176 263.19 171.662 265.93 169.995C266.55 169.611 266.91 169.403 266.91 169.403C270.576 169.435 273.146 170.072 275.145 171.061Z" fill="#FCECDD"/>
<path d="M266.872 169.762C266.872 169.762 266.506 169.971 265.874 170.357C263.08 172.031 255.487 176.566 253.11 178C257.076 157.775 253.11 139.719 244 125C261.898 132.462 274.452 140.369 279 147.563C278.542 151.575 277.951 155.732 277.292 160.053C276.715 163.725 276.018 167.511 275.249 171.401C273.211 170.429 270.591 169.789 266.872 169.762Z" fill="#CD804D"/>
<path d="M333.735 164.65C331.192 177.724 310.727 186.087 279.614 189L278.08 188.658C280.042 180.678 278.53 173.08 275.092 170.854C275.848 166.979 276.532 163.211 277.099 159.615C279.002 158.068 280.163 156.328 280.55 154.345C281 152.097 280.357 149.692 278.777 147.242C274.309 140.116 261.975 132.284 244.389 124.892C232.247 119.883 219.797 115.651 207.117 112.223H207.076C197.572 109.602 187.434 107.174 176.868 105.079C175.905 104.845 174.938 104.656 173.966 104.467C169.65 103.631 165.367 102.844 161.155 102.165C113.906 94.4099 74.1312 95.5969 60.96 104.778V104.823C58.4761 106.535 56.9416 108.568 56.4961 110.856C56.1001 112.879 56.5681 114.934 57.7786 117.182C56.9461 120.779 56.1811 124.456 55.4432 128.242C52.0952 127.59 47.2353 134.963 45.3724 143.6L44.3644 143.362C16.6091 129.015 0.715479 113.599 3.26692 100.52C5.87686 87.0951 27.4178 78.6202 59.9656 75.9361C91.3793 73.3555 133.062 76.053 177.831 84.7437C222.601 93.4343 262.258 106.527 290.419 120.675C319.551 135.305 336.344 151.221 333.735 164.65Z" fill="#BAB162"/>
<path d="M290.448 106.828L290.412 106.778C287.16 78.0172 268.202 21.4544 193.515 6.83885C118.829 -7.77668 80.2448 37.5441 66.5626 62.9811C63.575 68.5524 61.7312 73.1559 61 76.0003C92.3165 73.4046 133.87 76.1179 178.501 84.8592C223.132 93.6004 262.667 106.769 290.74 121C291.108 118.079 291.148 113.122 290.448 106.828Z" fill="#E6DAA2"/>
<path d="M281.106 104.972L281.142 105.026C281.609 108.888 281.774 112.779 281.636 116.666C284.771 118.096 287.826 119.539 290.726 121C291.111 118.087 291.152 113.129 290.446 106.831L290.41 106.782C287.129 78.0102 268.006 21.4262 192.67 6.80525C191.091 6.49763 189.548 6.25333 188 6C259.459 22.0098 277.889 76.8068 281.106 104.972Z" fill="#FEFFF5"/>
<path d="M180.202 234.239C174.285 234.184 168.723 233.872 163.86 233.419C156.88 232.732 151.372 231.871 148.29 231.261C145.361 230.68 140.278 229.484 133.989 227.597C129.364 226.168 124.089 224.391 118.472 222.192C117.701 221.899 116.943 221.565 116.131 221.217H116.081C101.502 215.166 85.6046 206.28 75 194C76.1836 197.925 77.9458 201.642 80.226 205.025C89.2874 218.226 104.23 227.382 117.849 233.423H117.894C118.607 233.753 119.275 234.069 119.953 234.339C124.887 236.391 129.548 238.059 133.626 239.378C137.775 240.714 141.99 241.83 146.253 242.722C150.817 243.561 155.419 244.163 160.043 244.526C164.354 244.87 169.284 245.058 174.541 244.984C175.088 244.984 175.64 244.984 176.192 244.939C190.995 244.526 208.118 241.732 221.315 232.993C224.938 230.536 228.199 227.564 231 224.166C216.56 231.921 198.137 234.193 182.059 234.243C181.44 234.252 180.817 234.271 180.202 234.239Z" fill="#FAD6B5"/>
<path d="M156.41 174.892C155.573 176.052 154.522 176.348 153.478 176.636C152.435 176.924 151.392 177.294 150.336 177.56L152.858 173.236C153.333 174.665 153.698 176.126 154.051 177.595L154.543 179.805C154.71 180.625 154.609 181.475 154.253 182.234C154.082 182.598 153.84 182.925 153.542 183.197C153.243 183.468 152.893 183.679 152.512 183.816C152.131 183.953 151.726 184.015 151.321 183.997C150.916 183.979 150.518 183.882 150.151 183.711C150.025 183.652 149.903 183.585 149.785 183.511C149.076 183.056 148.531 182.389 148.232 181.606L147.461 179.474C146.973 178.048 146.497 176.623 146.141 175.158L146.101 175.001C145.881 174.116 146.024 173.18 146.499 172.4C146.974 171.619 147.743 171.057 148.637 170.838H148.667C149.728 170.585 150.807 170.402 151.881 170.21C152.955 170.018 154.024 169.774 155.305 170.415C155.702 170.609 156.052 170.886 156.329 171.228C156.607 171.569 156.805 171.967 156.912 172.392C157.018 172.818 157.028 173.262 156.943 173.692C156.858 174.122 156.679 174.529 156.419 174.883L156.41 174.892Z" fill="#6A5D4A"/>
<path d="M126.585 162.459C125.184 169.59 120.652 174.721 116.467 173.917C112.281 173.113 110.013 166.691 111.414 159.541C112.815 152.392 117.347 147.279 121.537 148.083C125.727 148.887 127.986 155.323 126.585 162.459Z" fill="#6A5D4A"/>
<path d="M191.444 174.639C190.042 181.783 192.07 188.204 195.979 188.932C199.888 189.66 204.199 184.5 205.569 177.361C206.939 170.222 204.939 163.796 201.034 163.068C197.13 162.341 192.846 167.5 191.444 174.639Z" fill="#6A5D4A"/>
<path d="M117.713 186.478C119.036 179.674 111.788 172.541 101.524 170.546C91.2603 168.551 81.8678 172.449 80.5452 179.254C79.2226 186.058 86.4707 193.191 96.7344 195.186C106.998 197.181 116.391 193.283 117.713 186.478Z" fill="#F9D3BF"/>
<path d="M228.842 208.656C227.502 215.543 217.978 219.489 207.57 217.473C197.162 215.456 189.817 208.233 191.158 201.346C192.498 194.459 202.022 190.508 212.425 192.529C222.829 194.55 230.183 201.769 228.842 208.656Z" fill="#F9D3BF"/>
<path fill-rule="evenodd" clip-rule="evenodd" d="M54.1265 141.516C54.5412 140.342 55.8516 139.718 57.0535 140.124L56.3027 142.25C57.0535 140.124 57.0547 140.124 57.0559 140.124L57.0587 140.125L57.0652 140.128L57.0823 140.133C57.0955 140.138 57.1122 140.144 57.1323 140.151C57.1724 140.165 57.2263 140.185 57.2927 140.21C57.4255 140.26 57.609 140.331 57.8349 140.427C58.2861 140.617 58.91 140.901 59.6387 141.294C61.0887 142.074 62.9949 143.303 64.7794 145.092C68.4327 148.755 71.4328 154.654 69.2745 163.284C68.9727 164.491 67.7268 165.23 66.4918 164.935C65.2567 164.64 64.5001 163.423 64.8019 162.216C66.5374 155.277 64.1697 150.926 61.4819 148.231C60.0957 146.842 58.588 145.864 57.4168 145.234C56.8348 144.92 56.3462 144.698 56.0125 144.558C55.846 144.488 55.7191 144.438 55.6395 144.408C55.5997 144.393 55.5718 144.383 55.5569 144.378L55.5447 144.374C54.3475 143.966 53.7127 142.688 54.1265 141.516Z" fill="#E6C099"/>
<path fill-rule="evenodd" clip-rule="evenodd" d="M268.861 181.01C268.862 181.01 268.863 181.01 268.746 183.301L268.863 181.01C270.107 181.076 271.062 182.158 270.997 183.425C270.932 184.69 269.875 185.662 268.635 185.6M268.861 181.01L268.858 181.01L268.861 181.01ZM268.858 181.01L268.851 181.009L268.858 181.01ZM268.851 181.009L268.833 181.008L268.851 181.009ZM268.833 181.008C268.82 181.008 268.802 181.007 268.781 181.006L268.833 181.008ZM268.781 181.006C268.74 181.005 268.683 181.003 268.613 181.002L268.781 181.006ZM268.613 181.002C268.474 180.999 268.28 180.999 268.038 181.004L268.613 181.002ZM268.038 181.004C267.556 181.015 266.881 181.051 266.07 181.149L268.038 181.004ZM266.07 181.149C264.457 181.345 262.259 181.795 259.961 182.82L266.07 181.149ZM259.961 182.82C255.258 184.92 250.304 189.384 249.024 198.371L259.961 182.82ZM261.77 187.031C258.306 188.577 254.515 191.811 253.486 199.032C253.307 200.288 252.163 201.158 250.931 200.976C249.699 200.793 248.845 199.627 249.024 198.371M261.77 187.031C263.557 186.233 265.299 185.872 266.604 185.714L261.77 187.031ZM266.604 185.714C267.252 185.635 267.781 185.607 268.138 185.599L266.604 185.714ZM268.138 185.599C268.317 185.595 268.451 185.596 268.535 185.598L268.138 185.599ZM268.535 185.598C268.577 185.598 268.606 185.599 268.622 185.6L268.535 185.598ZM268.622 185.6L268.634 185.6L268.622 185.6ZM268.634 185.6L268.631 185.6L268.634 185.6ZM268.631 185.6L268.63 185.6L268.631 185.6Z" fill="#E6C099"/>
<path d="M55.4762 130.722C55.5706 130.776 55.4132 130.799 55.121 130.974C54.7412 131.259 54.3905 131.581 54.0737 131.935C53.2891 132.838 52.6104 133.828 52.051 134.885C50.8528 137.166 49.9207 139.577 49.2732 142.071C47.9247 147.038 47.7134 152.477 49.2237 156.846C50.8778 161.248 54.3614 165.204 58.5822 167.966C62.8164 170.804 67.8058 172.722 72.966 174.074C73.6588 174.255 74.2768 174.65 74.732 175.202C75.1872 175.754 75.4563 176.436 75.5012 177.15C75.8967 183.334 76.8137 189.442 78.8499 195.015C79.8388 197.769 81.1659 200.389 82.8009 202.816C84.5267 205.281 86.4397 207.61 88.523 209.782C97.0274 218.499 107.982 224.894 119.417 229.884L118.675 229.655H118.72H118.787C119.034 229.705 119.274 229.785 119.502 229.893C121.857 231.02 124.685 231.837 127.269 232.821C129.854 233.804 132.537 234.743 135.189 235.632L143.235 237.698L147.281 238.722L151.412 239.252L159.669 240.33C162.438 240.599 165.265 240.559 168.061 240.689C170.807 240.743 173.806 240.967 176.341 240.878C179.195 240.797 181.946 240.64 184.719 240.429C195.754 239.432 206.744 237.002 216.242 231.896C225.834 227.063 232.631 218.36 237.692 208.542C238.016 207.914 238.529 207.404 239.159 207.081C239.788 206.759 240.503 206.642 241.203 206.746C246.408 207.532 251.676 207.577 256.562 206.414C258.987 205.879 261.326 205.008 263.511 203.827C265.643 202.618 267.588 201.105 269.283 199.336C272.675 195.626 274.976 191.052 275.931 186.119C276.426 183.668 276.558 181.157 276.322 178.668C276.101 176.297 275.193 173.849 274.074 172.974L273.908 172.843C273.416 172.472 273.088 171.924 272.994 171.316C272.9 170.707 273.047 170.086 273.403 169.584C273.76 169.082 274.299 168.738 274.905 168.627C275.511 168.515 276.137 168.644 276.65 168.986C278.214 170.038 279.445 171.515 280.196 173.243C280.864 174.724 281.337 176.285 281.603 177.887C282.121 180.933 282.132 184.044 281.635 187.093C280.74 193.23 278.086 198.976 273.993 203.638C271.878 205.947 269.431 207.929 266.734 209.521C264.035 211.053 261.135 212.199 258.117 212.926C252.13 214.435 246.021 214.304 240.205 213.469L243.715 211.673C241.025 217.028 237.705 222.044 233.826 226.614C229.812 231.256 224.968 235.11 219.542 237.981C208.844 243.747 197.017 246.325 185.38 247.439C182.458 247.699 179.505 247.888 176.642 247.969C173.464 248.081 170.753 247.857 167.782 247.816C164.874 247.69 161.966 247.735 159.053 247.466L150.301 246.366L145.928 245.804L141.649 244.708L133.108 242.463C130.344 241.524 127.624 240.491 124.878 239.512C122.127 238.448 119.439 237.685 116.63 236.346L117.407 236.593H117.363H117.336C117.091 236.546 116.853 236.471 116.625 236.369C104.651 231.074 92.9954 224.306 83.5606 214.578C81.209 212.123 79.0539 209.488 77.1148 206.697C75.1734 203.796 73.6001 200.666 72.4311 197.378C70.0892 190.879 69.1588 184.161 68.7587 177.577L71.2714 180.649C65.5898 179.122 59.8992 177.007 54.8154 173.495C49.7316 169.983 45.376 165.137 43.187 158.926C42.2121 155.874 41.8322 152.663 42.0678 149.468C42.2495 146.418 42.8019 143.402 43.7129 140.486C44.5914 137.564 45.8535 134.772 47.4662 132.182C48.31 130.802 49.3165 129.527 50.4643 128.387C51.1343 127.73 51.8903 127.166 52.7118 126.712C53.8344 126.093 55.1322 125.869 56.3976 126.074C56.7037 126.133 56.9951 126.252 57.2553 126.423C57.5155 126.595 57.7393 126.816 57.914 127.074C58.0887 127.332 58.2108 127.621 58.2734 127.926C58.336 128.231 58.3378 128.546 58.2788 128.852C58.2197 129.158 58.101 129.449 57.9293 129.709C57.7577 129.969 57.5365 130.192 57.2783 130.367C57.0202 130.541 56.7301 130.663 56.4248 130.726C56.1194 130.788 55.8047 130.79 55.4987 130.731L55.4762 130.722Z" fill="#6A5D4A"/>
<path d="M179.279 105.297V105.342C179.287 105.466 179.254 105.59 179.184 105.693L178.535 106.655C176.215 110.104 173.083 112.77 168.959 114.906L168.126 108.472C174.367 109.618 180.815 109.784 187.278 109.91C190.518 109.91 193.767 109.829 197.016 109.636C200.265 109.443 203.514 109.186 206.884 109.677C207.42 109.753 207.916 110.004 208.295 110.389C208.674 110.775 208.915 111.275 208.982 111.811C209.048 112.347 208.935 112.89 208.661 113.356C208.387 113.822 207.967 114.185 207.466 114.389C204.239 115.684 200.873 116.138 197.498 116.408C194.123 116.677 190.738 116.893 187.323 116.965C180.437 117.158 173.552 116.554 166.805 115.167H166.769C166.327 115.08 165.906 114.908 165.53 114.659C165.155 114.411 164.832 114.09 164.581 113.717C164.33 113.343 164.155 112.924 164.067 112.483C163.978 112.042 163.978 111.588 164.066 111.147C164.173 110.628 164.399 110.141 164.726 109.723C165.053 109.305 165.471 108.968 165.949 108.737C168.865 107.356 171.771 104.861 175.286 103.112L174.543 104.42V104.38C174.781 103.894 175.172 103.5 175.657 103.259C176.141 103.017 176.692 102.942 177.224 103.045C177.756 103.147 178.239 103.421 178.599 103.825C178.959 104.229 179.176 104.74 179.216 105.279L179.279 105.297Z" fill="#6A5D4A"/>
<path d="M252.015 136.085C255.474 142.319 257.086 149.403 257.635 156.443C258.19 163.498 257.781 170.593 256.419 177.544L251.643 174.32L258.453 170.328L265.385 166.333C265.842 166.069 266.364 165.932 266.896 165.936H266.942C270.029 165.98 273.392 166.377 276.566 167.905L272.23 169.998L274.409 158.588C275.007 154.742 275.819 150.93 276.843 147.169L276.87 147.011V146.971C277.033 146.498 277.368 146.099 277.812 145.847C278.256 145.596 278.778 145.51 279.283 145.605C279.788 145.699 280.239 145.969 280.555 146.363C280.87 146.757 281.027 147.248 280.996 147.746V147.79V147.632C280.947 151.581 280.679 155.525 280.193 159.447C279.939 161.403 279.534 163.341 279.212 165.289L278.182 171.126C278.046 171.886 277.606 172.563 276.956 173.008C276.307 173.454 275.502 173.63 274.718 173.5C274.445 173.457 274.181 173.375 273.933 173.258L273.842 173.218C271.876 172.293 269.443 171.963 266.864 171.967L268.417 171.575L261.707 175.566L254.898 179.571C254.372 179.873 253.767 180.021 253.157 179.998C252.546 179.974 251.955 179.781 251.455 179.44C250.955 179.099 250.566 178.626 250.336 178.076C250.106 177.527 250.045 176.924 250.159 176.342C251.51 169.932 251.983 163.378 251.566 156.848C251.112 150.323 249.646 143.984 248.057 137.53C247.939 137.045 248.006 136.535 248.247 136.094C248.487 135.654 248.884 135.313 249.364 135.135C249.844 134.957 250.375 134.955 250.856 135.128C251.338 135.301 251.739 135.638 251.984 136.076L252.015 136.085Z" fill="#6A5D4A"/>
<path d="M63.4657 105.548C62.8274 109.535 61.9869 113.454 61.1643 117.369C60.3418 121.283 59.708 125.252 58.863 129.162L56.1661 125.615C59.0748 125.753 61.9422 126.366 64.6568 127.43C65.1208 127.617 65.5327 127.916 65.8569 128.3L65.8929 128.35L75.3725 139.799L70.0551 141.242C71.131 135.428 72.8187 129.747 75.0893 124.295C77.3851 118.807 80.3815 113.645 84.0026 108.94C84.2938 108.563 84.6667 108.257 85.0928 108.048C85.519 107.838 85.987 107.729 86.4612 107.729C96.0262 107.779 105.605 107.457 115.143 106.75C124.681 106.042 134.169 104.935 143.73 104.073C144.25 104.028 144.768 104.181 145.182 104.501C145.596 104.822 145.876 105.287 145.968 105.806C146.059 106.324 145.955 106.859 145.675 107.304C145.396 107.749 144.962 108.072 144.458 108.21C135.019 110.7 125.305 111.966 115.61 112.746C105.915 113.526 96.188 113.971 86.4522 114.007L88.9244 112.778C82.4338 121.397 78.1368 131.657 76.0557 142.426V142.521C75.9491 143.091 75.6836 143.618 75.2903 144.04C74.8971 144.463 74.3924 144.763 73.8358 144.906C73.2791 145.049 72.6936 145.028 72.1481 144.847C71.6025 144.666 71.1197 144.331 70.7563 143.882L61.2227 132.156L62.4543 133.063C60.3198 132.214 58.0621 131.722 55.7705 131.607H55.7301C54.9563 131.554 54.235 131.193 53.7245 130.604C53.2139 130.014 52.9557 129.245 53.0062 128.464C53.0166 128.327 53.0361 128.19 53.0647 128.056C53.4782 126.055 53.9232 124.059 54.3861 122.072C54.8491 120.086 55.2851 118.085 55.7885 116.108C56.9617 112.188 58.1213 108.269 59.4788 104.418C59.6488 103.918 59.9992 103.502 60.4601 103.251C60.921 103.001 61.4586 102.935 61.9656 103.066C62.4726 103.198 62.9118 103.518 63.1957 103.961C63.4795 104.405 63.5872 104.941 63.4972 105.461L63.4657 105.548Z" fill="#6A5D4A"/>
<path d="M43.5459 145.594C34.2359 140.955 25.0702 135.808 16.7562 129.152C12.6329 125.786 8.6449 122.115 5.35082 117.558C3.78714 115.218 2.23248 112.81 1.29518 109.953C0.174034 107.056 -0.228217 103.928 0.123505 100.839C0.463585 97.6994 1.62017 94.7059 3.4762 92.1616C5.17982 89.7494 7.27273 87.6424 9.6678 85.9283C14.2867 82.6027 19.3067 80.4084 24.3582 78.6592C34.5018 75.2109 44.9023 73.5254 55.2757 72.4078C76.0496 70.3134 96.8415 70.7722 117.462 72.3714C158.734 75.7863 199.507 83.7713 239.046 96.1823C258.77 102.493 278.219 109.916 296.726 119.698C305.928 124.645 314.945 130.147 323.074 137.162C327.103 140.701 330.947 144.626 333.997 149.428C335.589 151.917 336.753 154.659 337.44 157.538C338.217 160.597 338.185 163.809 337.345 166.852C336.529 169.849 335.001 172.602 332.893 174.87C330.951 177.142 328.612 178.818 326.296 180.399C321.578 183.407 316.49 185.297 311.425 186.864C301.232 189.899 290.832 191.217 280.476 191.994C279.856 192.039 279.243 191.838 278.767 191.434C278.292 191.029 277.993 190.453 277.934 189.828C277.875 189.204 278.061 188.581 278.452 188.094C278.843 187.606 279.408 187.292 280.026 187.219H280.053C290.142 185.974 300.164 184.138 309.65 181.09C314.293 179.611 318.737 177.559 322.88 174.979C326.738 172.376 330.126 169.073 331.014 165.134C332.105 161.277 330.744 156.957 328.31 153.031C325.877 149.106 322.407 145.53 318.699 142.282C311.209 135.799 302.517 130.47 293.608 125.69C275.668 116.19 256.512 108.858 237.072 102.647C198.021 90.3927 157.751 82.5067 116.989 79.1317C96.6568 77.5506 76.1713 77.1145 56.0102 79.1317C45.9703 80.2039 35.9348 81.8576 26.5798 85.0378C21.9384 86.6507 17.4411 88.6724 13.6829 91.3983C11.8804 92.7885 10.1364 94.2742 8.96029 96.0233C7.72276 97.6451 6.94414 99.5747 6.70715 101.607C6.07628 105.578 8.00949 109.935 10.6231 113.805C13.5126 117.759 16.8758 121.337 20.636 124.459C28.2967 130.86 36.9172 136.344 45.808 141.31C46.085 141.456 46.3307 141.655 46.5312 141.897C46.7317 142.138 46.8831 142.417 46.9766 142.718C47.0701 143.019 47.104 143.335 47.0763 143.649C47.0486 143.962 46.9599 144.268 46.8152 144.547C46.6705 144.826 46.4727 145.074 46.233 145.276C45.9934 145.478 45.7166 145.631 45.4184 145.725C45.1203 145.819 44.8067 145.853 44.4954 145.825C44.1842 145.798 43.8814 145.708 43.6045 145.562L43.5459 145.594Z" fill="#6A5D4A"/>
<path d="M55.9586 118.723C55.1953 117.499 54.6296 116.162 54.2823 114.761C53.9059 113.195 53.9059 111.562 54.2823 109.997C55.0664 106.733 57.3421 104.385 59.5637 102.785L58.347 104.646V104.606C58.4079 104.238 58.5428 103.886 58.7434 103.571C58.944 103.257 59.2062 102.986 59.5142 102.776L59.5547 102.749C65.4896 98.7188 71.9202 97.2132 78.2066 96.0233C84.4707 94.9384 90.8053 94.3103 97.1604 94.1437C109.778 93.6929 122.32 94.3465 134.793 95.4959C147.267 96.6453 159.65 98.4213 171.953 100.752C178.19 101.779 184.224 103.483 190.298 104.867L208.509 109.235L208.243 109.172H208.288L208.531 109.23C223.902 113.558 239.102 118.696 253.707 125.525C261.003 128.969 268.128 132.895 274.667 138.178C277.866 140.882 280.976 144.006 282.99 148.383C284.087 150.786 284.298 153.501 283.585 156.046C282.811 158.461 281.262 160.554 279.178 162L276.172 158.308C278.713 155.96 279.132 153.508 277.731 150.772C276.33 148.036 273.567 145.412 270.66 143.149C264.757 138.583 257.822 134.995 250.832 131.682C236.718 125.155 221.775 120.197 206.67 116.032L206.936 116.095H206.895L206.625 116.032L188.599 111.822C182.57 110.47 176.617 108.874 170.614 107.847C158.537 105.494 146.325 103.704 134.113 102.478C121.9 101.252 109.594 100.585 97.3947 100.959C91.3407 101.122 85.3019 101.648 79.3106 102.532C73.4524 103.474 67.513 104.894 62.93 107.594L64.1377 105.737V105.782L64.1016 105.953C63.9467 106.653 63.5204 107.263 62.9164 107.648C61.2491 108.721 60.0054 110.037 59.5142 111.444C59.023 112.85 59.2798 114.572 60.154 116.478L55.9586 118.723Z" fill="#6A5D4A"/>
<path d="M58.0936 75.1834C59.8044 68.2459 62.8164 62.3286 66.148 56.425C69.5533 50.6061 73.4596 45.0999 77.8222 39.9699C95.4379 19.1116 119.991 5.42577 146.895 1.46917L151.897 0.80712C153.554 0.533946 155.229 0.382403 156.908 0.353689L166.961 0C173.633 0.421691 180.355 0.530525 186.924 1.76839C193.565 2.54376 200.012 4.32578 206.504 5.88558C209.727 6.73803 212.856 7.9759 216.039 9.00519C217.615 9.56744 219.227 10.039 220.771 10.6783L225.368 12.7369C237.641 18.1282 249.185 25.4874 258.968 34.8417C278.591 53.7104 290.694 79.1495 293 106.375L292.608 105.305L292.644 105.359C292.961 105.886 293.064 106.515 292.933 107.117C292.802 107.718 292.446 108.245 291.939 108.59C291.432 108.934 290.813 109.069 290.21 108.967C289.607 108.864 289.067 108.532 288.7 108.039L288.664 107.985C288.481 107.739 288.359 107.453 288.309 107.15L288.273 106.915C287.195 100.589 285.703 94.3421 283.807 88.215C282.73 85.1997 281.785 82.1436 280.515 79.2099L278.715 74.7753L276.617 70.4768C270.944 59.0775 263.506 48.5625 254.254 39.8747C245.002 31.187 234.179 24.2903 222.541 19.2391L218.187 17.3075C216.719 16.7044 215.18 16.2737 213.685 15.7432C210.65 14.7819 207.688 13.6075 204.599 12.814C198.391 11.3584 192.223 9.67623 185.87 8.96434C179.59 7.74008 173.224 7.63129 166.88 7.18692L157.371 7.48161C155.788 7.49756 154.208 7.63246 152.644 7.88517L147.935 8.49281C135.402 10.2773 123.292 14.3264 112.187 20.4452C101.097 26.6428 91.1465 34.7134 82.7701 44.3048C78.5846 49.1157 74.7364 54.214 71.2535 59.5627C67.9174 64.9178 64.6308 70.6672 62.6993 76.3759L62.6498 76.5256C62.4707 77.1335 62.0591 77.6448 61.5057 77.9471C60.9522 78.2494 60.3022 78.3179 59.6986 78.1375C59.095 77.9571 58.5873 77.5426 58.2871 76.9852C57.987 76.4278 57.919 75.7732 58.0981 75.1653L58.0936 75.1834Z" fill="#6A5D4A"/>
<path d="M277.624 96.5827C263.594 87.5165 247.859 81.0171 231.791 75.6661C215.65 70.4214 199.033 66.5112 182.28 63.3192C165.514 60.2158 148.636 57.64 131.671 56.5805C114.761 55.5918 97.6218 55.9465 81.3958 59.6838H81.3283C80.6352 59.8321 79.9108 59.7104 79.3068 59.3443C78.7027 58.9783 78.266 58.3961 78.0879 57.7199C77.9099 57.0437 78.0044 56.3259 78.3517 55.7168C78.699 55.1077 79.2722 54.6546 79.951 54.4524C97.0547 49.6422 114.752 49.5757 132.045 50.3959C149.378 51.4156 166.549 53.7963 183.513 57.0459C200.455 60.3754 217.298 64.4364 233.758 69.9027C241.963 72.678 250.118 75.7104 257.959 79.5009C265.8 83.2915 273.42 87.6672 280.207 93.2443C280.636 93.5877 280.914 94.0806 280.983 94.6206C281.052 95.1605 280.907 95.706 280.579 96.1435C280.25 96.5809 279.763 96.8766 279.218 96.9692C278.674 97.0617 278.114 96.944 277.655 96.6403L277.624 96.5827Z" fill="#6A5D4A"/>
<path d="M137.946 118.156C137.398 120.743 135.579 122.502 133.774 124.261C131.875 126.09 129.671 127.577 127.259 128.657C124.914 129.68 122.44 130.383 119.905 130.746C117.381 131.062 114.638 131.351 112.227 129.855C111.824 129.608 111.498 129.257 111.283 128.839C111.068 128.421 110.972 127.953 111.007 127.485C111.042 127.017 111.205 126.567 111.48 126.185C111.754 125.803 112.129 125.503 112.563 125.317L112.846 125.192C114.939 124.302 116.784 124.426 118.728 123.972C120.664 123.544 122.55 122.917 124.354 122.101C126.097 121.345 127.722 120.343 129.177 119.126C130.761 117.888 131.965 116.263 134.178 115.279L134.3 115.225C134.742 115.03 135.23 114.96 135.709 115.022C136.189 115.084 136.642 115.276 137.019 115.577C137.396 115.878 137.682 116.277 137.845 116.728C138.009 117.18 138.043 117.668 137.946 118.138V118.156Z" fill="#6A5D4A"/>
<path d="M203.775 127.914C205.479 129.676 205.989 131.659 207.005 133.416C207.906 135.11 209.051 136.666 210.403 138.033C211.782 139.48 213.308 140.78 214.958 141.914C216.611 143.075 218.397 143.645 220.023 145.275L220.246 145.501C220.582 145.841 220.818 146.265 220.929 146.727C221.04 147.19 221.021 147.674 220.874 148.127C220.727 148.58 220.458 148.984 220.096 149.296C219.734 149.608 219.293 149.816 218.82 149.897C215.987 150.381 213.518 149.07 211.264 147.823C209.017 146.528 206.959 144.935 205.146 143.089C203.292 141.164 201.789 138.933 200.705 136.497C199.68 134.162 198.642 131.821 199.12 129.183C199.205 128.701 199.424 128.252 199.752 127.886C200.079 127.52 200.503 127.252 200.976 127.111C201.448 126.971 201.951 126.963 202.428 127.09C202.905 127.216 203.336 127.472 203.675 127.828L203.775 127.914Z" fill="#6A5D4A"/>
<path d="M180.309 201.663C186.887 205.35 187.432 208.68 186.801 211.793C186.17 214.907 184.364 217.795 176.823 218.858C169.281 219.92 160.726 214.743 151.473 213.02C142.219 211.297 132.268 213.02 125.691 209.332C119.113 205.644 118.568 202.315 119.199 199.201C119.83 196.088 121.636 193.199 129.177 192.141C136.719 191.083 145.274 196.265 154.523 197.992C163.771 199.72 173.728 197.992 180.309 201.663Z" fill="#FEFFF5"/>
<path d="M182.063 200.682C183.645 201.507 185.083 202.57 186.325 203.833C187.781 205.311 188.7 207.216 188.94 209.254C189.141 211.229 188.835 213.222 188.047 215.051C187.164 216.987 185.665 218.591 183.773 219.625C182.139 220.514 180.375 221.15 178.543 221.51C176.763 221.898 174.939 222.057 173.117 221.982C169.471 221.764 166.245 220.768 163.202 219.799C157.084 217.718 151.707 215.727 145.763 215.435C142.76 215.203 139.668 215.168 136.419 214.972C133.17 214.776 129.726 214.461 126.245 213.065C124.57 212.36 122.99 211.459 121.537 210.38C119.951 209.262 118.589 207.867 117.521 206.264C116.348 204.398 115.831 202.208 116.049 200.027C116.201 197.96 116.911 195.969 118.106 194.257C119.389 192.585 121.129 191.301 123.126 190.556C124.807 189.9 126.563 189.447 128.356 189.207C132.135 188.627 135.763 189.36 138.913 190.255C145.254 192.158 150.783 194.619 156.508 195.514C159.404 195.99 162.452 196.134 165.589 196.426C168.726 196.719 171.983 196.968 175.259 197.915C175.748 198.06 176.164 198.38 176.424 198.81C176.685 199.241 176.772 199.751 176.667 200.241C176.562 200.731 176.274 201.165 175.859 201.457C175.444 201.749 174.932 201.879 174.424 201.821H174.375C168.628 201.123 162.327 201.865 155.692 200.987C148.927 200.184 142.943 197.373 137.28 195.811C134.438 195.025 131.738 194.58 129.288 194.99C126.508 195.396 123.911 196.348 123.041 197.71C122.502 198.569 122.194 199.548 122.149 200.555C122.05 201.452 122.268 202.354 122.765 203.113C123.443 204.059 124.288 204.881 125.259 205.54C126.313 206.309 127.456 206.955 128.664 207.465C133.425 209.359 139.882 208.966 146.307 209.538C149.636 209.792 152.927 210.394 156.124 211.332C159.284 212.244 162.256 213.37 165.147 214.348C168.039 215.326 170.859 216.151 173.487 216.321C176.081 216.41 178.66 215.906 181.019 214.85C181.918 214.435 182.648 213.735 183.09 212.864C183.559 211.868 183.813 210.787 183.835 209.691C183.897 207.836 182.166 205.797 179.859 204.056C179.447 203.749 179.169 203.302 179.081 202.803C178.993 202.304 179.101 201.791 179.383 201.367C179.666 200.943 180.102 200.64 180.604 200.517C181.107 200.395 181.637 200.463 182.09 200.708L182.063 200.682Z" fill="#6A5D4A"/>
<path d="M127.899 253.916C127.801 254.604 127.538 255.259 127.133 255.822C126.728 256.386 126.193 256.842 125.574 257.151L121.197 258.634C118.703 259.059 116.173 259.24 113.644 259.175C109.003 259.112 104.368 258.811 99.7574 258.273C98.4713 258.132 97.2002 257.877 95.9586 257.512V257.557L63.3374 291.133C62.4227 292.191 61.3533 293.103 60.1658 293.837C57.7952 295.315 55.0473 296.065 52.2592 295.996L50.8705 295.95C47.9208 295.878 45.0667 294.884 42.7037 293.107C40.3408 291.329 38.586 288.856 37.6827 286.031C36.7794 283.205 36.7723 280.167 37.6624 277.337C38.5525 274.507 40.2956 272.026 42.6503 270.238L80.0064 242.637C79.0021 239.645 78.682 236.464 79.0701 233.331C79.5181 230.231 80.6336 227.081 82.9585 224.611C82.1074 210.317 82.7794 206.181 88.2311 205.685C93.6829 205.189 95.1119 218.722 95.1119 218.722C95.1119 218.722 100.743 202.359 107.489 205.37C113.658 208.073 107.624 220.745 106.907 222.183C107.982 220.745 118.106 207.213 122.953 212.071C128.002 217.194 117.053 229.014 115.889 230.276C117.143 229.69 131.487 223.129 132.912 229.194C133.225 230.677 132.688 232.209 131.568 233.701C127.052 239.856 113.335 245.701 113.335 245.701C113.335 245.701 128.392 250.094 127.899 253.916Z" fill="#FCECDD"/>
<path d="M98.4713 259.769C90.9557 269.014 82.585 277.408 74.3494 285.942L68.1658 292.326L66.6177 293.927C66.0281 294.595 65.392 295.22 64.714 295.797C61.8658 298.202 58.3329 299.65 54.6152 299.938C52.876 300.054 51.1298 300.007 49.3993 299.799C45.6864 299.309 42.2223 297.664 39.4984 295.096C34.0035 289.979 32.4059 281.297 35.7137 274.593C36.9143 272.074 38.6864 269.87 40.8891 268.155L42.7387 266.806L49.9393 261.563C59.5791 254.599 69.0884 247.454 79.3312 241.331C79.8416 241.03 80.4454 240.93 81.0256 241.049C81.6059 241.168 82.1211 241.498 82.4715 241.975C82.8218 242.453 82.9823 243.043 82.9218 243.631C82.8613 244.22 82.5841 244.765 82.144 245.161C73.2197 253.079 63.5665 259.999 54.0392 267.094L46.8836 272.399L45.1554 273.694C44.7213 274.041 44.315 274.421 43.9403 274.832C42.022 276.903 41.0002 279.647 41.0971 282.467C41.194 285.287 42.4019 287.955 44.4579 289.889C46.0726 291.45 48.1418 292.457 50.3668 292.767C51.5882 292.913 52.8193 292.959 54.0482 292.906C55.1746 292.83 56.2826 292.582 57.3334 292.169C58.3707 291.746 59.3385 291.17 60.2047 290.46C60.6643 290.081 61.0918 289.665 61.4828 289.215L63.0534 287.628L69.3269 281.275C77.7111 272.817 85.9783 264.221 95.0646 256.478C95.5174 256.091 96.0987 255.888 96.6941 255.908C97.2896 255.927 97.856 256.169 98.2821 256.585C98.7081 257.001 98.9629 257.562 98.9963 258.156C99.0296 258.75 98.8391 259.335 98.4623 259.796L98.4713 259.769Z" fill="#6A5D4A"/>
<path d="M116.139 228.574C115.842 228.566 115.545 228.618 115.269 228.727C114.992 228.835 114.741 228.998 114.53 229.205L115.219 228.736C116.948 227.668 118.768 226.753 120.659 226C122.611 225.173 124.654 224.572 126.747 224.21C127.962 224.006 129.199 223.95 130.428 224.044C131.179 224.115 131.921 224.265 132.64 224.492C133.488 224.94 134.322 225.195 135.061 226.027C135.746 226.711 136.273 227.534 136.603 228.44C136.934 229.345 137.06 230.311 136.974 231.269C136.835 232.769 136.326 234.212 135.491 235.472C132.617 239.595 129.145 241.739 125.745 243.955C122.323 246.038 118.762 247.891 115.087 249.501L114.684 242.786C119.217 244.152 123.356 245.548 127.862 248.292C128.973 249.129 130.228 249.635 131.488 252.119C131.788 252.567 131.942 253.731 131.942 254.536C131.916 255.08 131.814 255.618 131.638 256.135C131.322 257.116 130.801 258.022 130.11 258.793C129.498 259.473 128.781 260.051 127.984 260.508C127.339 260.888 126.661 261.212 125.958 261.475C124.704 261.934 123.407 262.27 122.087 262.477C119.702 262.854 117.289 263.027 114.874 262.996C112.608 262.929 110.341 262.737 108.075 262.549C105.808 262.361 103.541 262.142 101.325 261.824L99.6429 261.595C99.04 261.448 98.428 261.3 97.8296 261.112C96.6686 260.809 95.5309 260.424 94.4252 259.962L94.3074 259.899C93.8015 259.642 93.404 259.216 93.1853 258.697C92.9666 258.179 92.9406 257.6 93.1121 257.064C93.2835 256.529 93.6414 256.07 94.1222 255.77C94.6031 255.469 95.1761 255.346 95.7399 255.423C96.9049 255.593 97.8251 255.611 98.8134 255.691C99.3029 255.718 99.7698 255.794 100.255 255.843H101.887C104.067 255.803 106.23 255.843 108.392 255.955C110.554 256.067 112.717 256.237 114.856 256.251C116.871 256.252 118.882 256.081 120.867 255.741C121.733 255.598 122.582 255.37 123.401 255.06C123.915 254.885 124.387 254.608 124.788 254.246C124.835 254.197 124.866 254.136 124.879 254.071C124.879 254.102 124.924 253.865 124.879 254.071C124.734 254.353 125.038 254.908 124.983 254.904C124.943 254.975 125.169 255.141 125.042 255.042C124.97 254.988 124.908 254.923 124.856 254.85C124.548 254.648 124.349 254.434 123.95 254.205C120.913 252.343 116.565 250.915 112.676 249.662L112.59 249.635C111.892 249.408 111.281 248.977 110.837 248.399C110.393 247.821 110.138 247.124 110.104 246.4C110.07 245.675 110.259 244.958 110.647 244.342C111.036 243.727 111.604 243.242 112.277 242.952C115.644 241.529 118.911 239.884 122.055 238.028C125.101 236.238 128.175 234 129.675 231.838C129.903 231.513 130.058 231.143 130.129 230.754C130.129 230.477 130.088 230.642 130.237 230.808C130.41 230.83 130.237 230.88 130.278 230.808C130.056 230.808 129.997 230.701 129.675 230.692C128.99 230.607 128.297 230.607 127.613 230.692C124.439 231.005 120.754 232.061 117.254 233.064L117.939 232.589C117.446 233.045 116.8 233.303 116.126 233.315C115.491 233.315 114.882 233.066 114.433 232.622C113.984 232.179 113.732 231.578 113.732 230.951C113.732 230.324 113.984 229.723 114.433 229.28C114.882 228.837 115.491 228.588 116.126 228.588L116.139 228.574Z" fill="#6A5D4A"/>
<path d="M105.686 221.275C105.518 221.397 105.377 221.552 105.271 221.73C105.264 221.738 105.26 221.748 105.26 221.759C105.26 221.77 105.264 221.78 105.271 221.789C105.279 221.796 105.29 221.8 105.301 221.8C105.312 221.8 105.322 221.796 105.331 221.789L105.487 221.379C106.87 217.769 109.456 215.063 112.35 212.394C113.922 210.902 115.741 209.685 117.728 208.798C119.077 208.21 120.546 207.941 122.019 208.011C122.925 208.107 123.81 208.337 124.646 208.693C125.414 209.126 126.125 209.652 126.762 210.257C127.294 210.858 127.758 211.516 128.144 212.217C128.47 212.926 128.713 213.669 128.868 214.431C129.076 215.756 129.038 217.107 128.757 218.419C128.269 220.788 127.26 222.584 126.259 224.33C124.176 227.686 121.932 230.737 118.521 232.67C118.059 232.93 117.526 233.041 116.996 232.987C116.467 232.933 115.968 232.716 115.569 232.368C115.171 232.02 114.893 231.558 114.774 231.046C114.656 230.534 114.702 229.998 114.908 229.514L114.954 229.4C116.369 226.145 118.641 223.662 120.084 220.888C120.777 219.679 121.288 218.377 121.6 217.023C121.789 215.832 121.6 215.468 121.388 215.268C121.346 215.232 121.351 215.318 121.388 215.227C121.388 215.318 121.485 215.254 121.434 215.254C121.116 215.273 120.803 215.349 120.512 215.477C119.238 216.045 118.056 216.795 117.005 217.705C114.521 219.683 112.424 222.348 109.479 224.344L109.709 223.971C109.546 224.241 109.346 224.488 109.115 224.703C108.655 225.137 108.042 225.375 107.407 225.368C106.771 225.361 106.164 225.109 105.714 224.666C105.264 224.223 105.008 223.624 105 222.997C104.992 222.37 105.233 221.765 105.672 221.311L105.686 221.275Z" fill="#6A5D4A"/>
<path d="M81.4337 250.238C79.8075 248.449 78.5169 246.379 77.6247 244.128C76.685 241.849 76.1446 239.423 76.0275 236.958C75.8983 234.432 76.2252 231.904 76.9921 229.495C77.7638 226.947 79.0947 224.607 80.8864 222.646L79.9532 225.218C79.7557 222.036 79.5494 218.86 79.5988 215.494C79.5938 213.693 79.7605 211.897 80.0968 210.129C80.3038 209.031 80.6632 207.967 81.1645 206.97C81.8028 205.718 82.7574 204.657 83.9327 203.893C85.0108 203.211 86.2203 202.767 87.4815 202.589L88.2891 202.476C88.702 202.458 89.1156 202.468 89.5274 202.503C90.3568 202.557 91.167 202.778 91.9097 203.153C94.8034 204.705 95.6289 206.794 96.4993 208.482C97.9933 212.019 98.599 215.209 99.0432 218.729L92.2506 217.966C93.4333 214.676 94.9852 211.531 96.8762 208.595C97.9129 206.942 99.1978 205.461 100.685 204.204C101.118 203.83 101.587 203.5 102.085 203.22C102.618 202.87 103.2 202.602 103.812 202.426C104.467 202.166 105.164 202.031 105.867 202.029C106.59 201.953 107.321 202.025 108.016 202.241C109.411 202.559 110.683 203.279 111.677 204.312C112.625 205.298 113.301 206.516 113.638 207.845C114.121 209.89 114.121 212.019 113.638 214.063C112.842 217.479 111.448 220.726 109.524 223.652C109.212 224.138 108.736 224.494 108.184 224.654C107.631 224.815 107.04 224.769 106.519 224.526C105.997 224.282 105.581 223.857 105.347 223.329C105.112 222.801 105.076 222.206 105.243 221.653L105.284 221.522C106.181 218.67 107.078 215.656 107.348 212.985C107.515 211.884 107.477 210.76 107.236 209.673C106.993 209.005 106.841 208.983 106.459 208.861C106.253 208.798 105.876 208.861 105.024 209.524C104.094 210.362 103.294 211.336 102.65 212.412C101.122 214.889 99.8676 217.526 98.9086 220.277C98.6405 221.023 98.1315 221.657 97.4628 222.078C96.7942 222.498 96.0046 222.682 95.2202 222.598C94.4359 222.514 93.7021 222.169 93.1361 221.616C92.5701 221.064 92.2046 220.336 92.0981 219.55V219.496C91.7347 216.789 91.0483 213.734 90.0298 211.491C89.5812 210.404 88.7602 209.52 88.7916 209.65C88.8185 209.7 88.8723 209.65 88.9351 209.691C88.9979 209.732 89.0249 209.691 89.0024 209.655L88.648 209.705C88.3519 209.724 88.0632 209.806 87.8 209.944C87.6744 209.98 87.6385 210.079 87.4635 210.327C87.2553 210.741 87.1043 211.181 87.0149 211.636C86.7572 212.962 86.6221 214.309 86.6111 215.661C86.5214 218.589 86.6739 221.711 86.8265 224.811V224.87C86.8472 225.331 86.7753 225.792 86.6149 226.225C86.4546 226.657 86.2091 227.053 85.8933 227.388C84.7769 228.584 83.9441 230.019 83.4571 231.584C82.9134 233.265 82.6422 235.024 82.654 236.791C82.6568 238.617 82.8797 240.435 83.318 242.206C83.8047 244.034 84.483 245.805 85.3414 247.49L85.3684 247.539C85.6205 248.058 85.6784 248.651 85.5316 249.21C85.3847 249.768 85.0429 250.255 84.5686 250.581C84.0943 250.907 83.5192 251.05 82.9486 250.984C82.3779 250.919 81.8497 250.649 81.4606 250.224L81.4337 250.238Z" fill="#6A5D4A"/>
</svg>
