<svg width="342" height="549" viewBox="0 0 342 549" fill="none" xmlns="http://www.w3.org/2000/svg">
<path d="M4.15566 12.9832C10.3732 5.64659 15.1803 3.06277 21.3621 1.30415C37.1716 -3.142 50.4726 4.17205 54.0879 17.2895C56.9445 27.6609 52.6729 33.8702 47.0713 42.1763C41.8358 49.806 42.108 52.0065 42.8445 57.9587C43.1123 60.1638 43.5095 63.2436 38.3811 64.6866C32.9357 66.2152 31.4271 63.2211 30.7264 60.6823C27.8118 50.2073 32.6769 43.2495 35.3996 39.1911C42.2286 29.1805 43.9291 26.7635 42.3268 20.9466C40.0951 12.9065 31.8913 10.0882 23.7188 12.3789C18.5711 13.7887 14.1619 17.1541 11.4132 21.7718C9.37339 25.4243 8.99395 26.0962 7.11485 26.6283C4.28504 27.4219 1.16071 25.9113 0.138583 22.2047C-0.798734 18.8137 3.29422 14.0158 4.15566 12.9832ZM50.4546 78.6157C50.7398 79.652 50.8202 80.7349 50.6911 81.8026C50.562 82.8702 50.226 83.9017 49.7023 84.8382C49.1786 85.7747 48.4775 86.5978 47.639 87.2605C46.8004 87.9233 45.8409 88.4127 44.8151 88.7007C43.7894 88.9888 42.7176 89.07 41.6608 88.9396C40.604 88.8092 39.5829 88.4697 38.6559 87.9407C37.729 87.4116 36.9142 86.7033 36.2582 85.8561C35.6022 85.009 35.1179 84.0396 34.8327 83.0033C34.2568 80.9104 34.5274 78.6721 35.585 76.7808C36.6426 74.8895 38.4006 73.5001 40.4722 72.9183C42.5438 72.3364 44.7594 72.6098 46.6314 73.6783C48.5035 74.7468 49.8787 76.5229 50.4546 78.6157Z" fill="#F4A000"/>
<path d="M127.96 525.397L129 537.958C129 537.958 93.5055 550.461 87.8588 542.147C82.2121 533.832 106.259 522.052 106.259 522.052L104.817 509H127.278L127.96 525.397Z" fill="#796A56"/>
<path d="M178.2 522.058C178.2 522.058 201.668 533.731 196.164 542.112C190.66 550.493 156 537.966 156 537.966L157.011 525.4L156.746 509H178.814L178.2 522.058Z" fill="#796A56"/>
<path d="M181 484L179.747 509H157.258H156.466L156 484H181Z" fill="#FEFFF5"/>
<path d="M182 470L181.255 484H156.275L156 470H182Z" fill="#FCECDD"/>
<path d="M126.408 470L127 483.911H103.365L102.59 484L101 470H126.408Z" fill="#FCECDD"/>
<path d="M126.979 484L128 509H105.026H104.84L102 484.089L102.793 484H126.979Z" fill="#FEFFF5"/>
<path d="M132.685 456L133 470H126.083H100.643H94.7255L94 456H132.685Z" fill="#E6DAA2"/>
<path d="M188 456L187.282 470H181.469H156.414H149.61L148 456.182L149.386 456H188Z" fill="#E6DAA2"/>
<path d="M190 420.915L188.159 456.823H149.416L148.025 457L145.959 439.933L132.179 437.35L132.674 456.823H94.5156L92 410.547L127.508 413.943L138.282 399L146.184 415.663L190 420.915Z" fill="#E6DAA2"/>
<path d="M91.6185 369L126 372.034L124.9 384H124.854L89 380.833L91.6185 369Z" fill="#796A56"/>
<path d="M194.512 390.87V390.515L155.073 386.971L154.802 389.85L139.011 388.39L123.894 387.02L124.165 384.185H124.12L88.879 381L79 409.009L91.498 410.163L127.187 413.481L138.016 398.877L145.959 415.162L189.998 420.295L196 421V420.738L194.512 390.87Z" fill="#E6DAA2"/>
<path d="M194 391L155 387.364L156.118 375L193.687 378.544L194 391Z" fill="#796A56"/>
<path d="M156 370.935L155.694 374.29L154.585 386.972L154.318 390L138.829 388.463L124 387.019L124.266 384.033L125.327 371.355H125.371L125.637 368L156 370.935Z" fill="#FEFFF5"/>
<path d="M136 310.219L134.821 322.611L121.119 325L109 320.349L110.854 308L136 310.219Z" fill="#E6DAA2"/>
<path d="M134 323.262L132.52 339L106 336.651L108.38 321L120.405 325.65L134 323.262Z" fill="#E6DAA2"/>
<path d="M185 327.416L184.417 344L158 341.497L159.474 325L172.349 329.969L185 327.416Z" fill="#E6DAA2"/>
<path d="M186 314.327L185.507 327.44L172.866 330L160 325.017L161.164 312L186 314.327Z" fill="#E6DAA2"/>
<path d="M212.136 408.609C208.876 412.744 203.78 411.933 203.18 411.843C203.583 412.519 208.182 419.663 204.608 422.762C201.572 425.37 198.263 423.438 195.652 420.83H195.473L194 390.501H194.358L199.539 386.546L212.758 351.811L206.686 336.536L229.196 328L238 347.635L211.285 396.253C211.285 396.253 216.291 403.262 212.136 408.609Z" fill="#FCECDD"/>
<path d="M229.397 311.231L209.534 278.377L185.879 267.216L170.71 260L156.744 280.619L150.784 289.448L141.031 266.982C140.155 268.948 138.949 270.751 137.465 272.316C129.609 280.7 122.983 272.99 122.983 272.99C122.983 272.99 113.412 275.052 105.334 274.113C104.564 275.677 83.7516 322.559 83.7516 322.559C83.1313 324.187 82.1966 325.68 81 326.953L98.2469 316.061L91.617 368.591L125.432 371.683H125.477L125.749 368.452L156.717 371.278L156.4 374.504L194.415 378L197.528 345.146L199.338 326.095L199.746 326.009L203.221 338.424L207.557 336.811L230.307 328.296L238 325.425L229.397 311.231ZM134.641 322.976L133.148 339.201L106.447 336.78L108.841 320.644L110.692 307.915L135.791 310.198L134.641 322.976ZM160.509 325.349L161.681 312.575L186.78 314.862L186.282 327.726L185.707 344.041L159.007 341.574L160.509 325.349Z" fill="#E6DAA2"/>
<path d="M159.325 259.39C159.342 259.372 159.354 259.351 159.362 259.328C159.37 259.305 159.372 259.28 159.369 259.256H159.413L168.766 260.058L170 260.64L156.353 281.197L150.53 290L141 267.601C143.56 261.527 142.15 255.806 141.973 255C142.871 255.681 154.651 265.2 159.325 259.39Z" fill="#FAD6B5"/>
<path d="M92 410.282L92.6477 421.993L189.505 431L190 421.269L146.205 416.001L137.793 400L127.537 414.275L92 410.282Z" fill="#BAB162"/>
<path d="M91.1377 305.203C91.1377 305.203 82.6801 326.431 83.0094 326.217C83.3387 326.003 98.2305 317.787 98.2305 317.787L96.5536 330L107 302L91.1377 305.203Z" fill="#BAB162"/>
<path d="M195.643 357L191 315.684L195.643 313L200 329.728L195.643 357Z" fill="#BAB162"/>
<path d="M89.7139 381L87 388.696L117.887 391.221L122.187 393.883L156.075 396.629L159.189 394.981L195 398L194.331 389.793L156.075 386.937L155.302 388.696L124.721 386.188L124.896 382.715L89.7139 381Z" fill="#BAB162"/>
<path d="M101 470C101 470 101.624 476.96 101.756 476.988C101.889 477.015 127 476.988 127 476.988L126.408 470H101Z" fill="#FAD6B5"/>
<path d="M156 469V476.91L181.533 477L182 469.772L156 469Z" fill="#FAD6B5"/>
<path d="M229.208 328L207 334.943L210.108 345L233 336.679L229.208 328Z" fill="#FAD6B5"/>
<path d="M158.83 470.132C159.272 474.766 159.525 479.409 159.763 484.047C160.002 488.686 160.104 493.329 160.285 497.972L160.869 525.83V526.134V526.169L159.9 538.728L157.618 535.156C163.097 537.048 168.671 538.648 174.316 539.951C177.129 540.585 179.947 541.13 182.72 541.474C185.493 541.817 188.28 542.023 190.682 541.733C191.642 541.66 192.577 541.39 193.429 540.938C193.645 540.737 193.734 540.719 193.836 540.523C193.946 540.346 194.018 540.149 194.048 539.942C194.225 539.13 192.876 536.777 190.987 535.031C187.196 531.366 182.141 528.205 177.204 525.616L177.116 525.571C176.543 525.27 176.069 524.809 175.749 524.243C175.429 523.677 175.277 523.03 175.311 522.379C175.753 513.651 176.165 504.923 176.682 496.195C176.988 491.838 177.173 487.472 177.567 483.114C177.961 478.757 178.328 474.4 178.863 470.051C178.941 469.463 179.236 468.926 179.688 468.547C180.14 468.167 180.717 467.973 181.304 468.003C181.891 468.033 182.446 468.284 182.858 468.707C183.27 469.131 183.51 469.695 183.53 470.288C183.636 474.668 183.609 479.038 183.53 483.409C183.53 487.784 183.295 492.146 183.185 496.517C182.866 505.249 182.433 513.977 182.07 522.705L180.186 519.477C185.759 522.393 190.952 525.482 195.795 530.04C197.074 531.258 198.206 532.623 199.17 534.107C200.412 535.973 201.05 538.182 200.997 540.429C200.901 541.719 200.513 542.97 199.865 544.085C199.538 544.66 199.143 545.192 198.688 545.67C198.239 546.115 197.754 546.522 197.237 546.885C195.516 547.936 193.585 548.588 191.584 548.795C184.657 549.523 178.721 548.175 172.741 546.876C166.838 545.473 161.014 543.755 155.291 541.728C154.572 541.473 153.958 540.983 153.546 540.337C153.133 539.69 152.946 538.923 153.014 538.157L154.071 525.603V525.937L153.721 498.084C153.721 493.441 153.65 488.798 153.748 484.155C153.845 479.512 153.916 474.864 154.168 470.217C154.207 469.625 154.464 469.07 154.889 468.66C155.314 468.251 155.876 468.018 156.463 468.007C157.05 467.995 157.62 468.207 158.06 468.6C158.5 468.993 158.778 469.538 158.839 470.127L158.83 470.132Z" fill="#6A5D4A"/>
<path d="M181.819 458.145C179.083 458.949 176.384 458.813 173.666 458.879L165.513 459L157.36 458.879C154.624 458.813 151.924 458.953 149.207 458.145C148.996 458.083 148.799 457.978 148.627 457.838C148.456 457.697 148.313 457.524 148.207 457.327C148.101 457.129 148.034 456.913 148.01 456.689C147.986 456.466 148.005 456.239 148.067 456.023C148.147 455.747 148.293 455.495 148.492 455.291C148.691 455.087 148.937 454.937 149.207 454.855C151.942 454.047 154.642 454.187 157.36 454.121L165.513 454L173.666 454.121C176.402 454.187 179.101 454.056 181.819 454.855C182.161 454.962 182.46 455.179 182.673 455.473C182.885 455.768 183 456.124 183 456.491C183 456.857 182.885 457.213 182.673 457.508C182.46 457.802 182.161 458.019 181.819 458.126V458.145Z" fill="#6A5D4A"/>
<path d="M179.937 511.142C178.031 511.944 176.121 511.812 174.216 511.878L168.5 512L162.779 511.878C160.874 511.812 158.969 511.953 157.063 511.142C156.748 511.004 156.479 510.775 156.29 510.483C156.101 510.191 156 509.849 156 509.5C156 509.151 156.101 508.809 156.29 508.517C156.479 508.225 156.748 507.996 157.063 507.858C158.969 507.047 160.874 507.188 162.779 507.122L168.5 507L174.216 507.122C176.121 507.188 178.031 507.056 179.937 507.858C180.252 507.996 180.521 508.225 180.71 508.517C180.899 508.809 181 509.151 181 509.5C181 509.849 180.899 510.191 180.71 510.483C180.521 510.775 180.252 511.004 179.937 511.142Z" fill="#6A5D4A"/>
<path d="M180.945 486.142C178.955 486.944 176.965 486.812 174.975 486.878L169 487L163.025 486.878C161.035 486.812 159.045 486.953 157.055 486.142C156.743 486.01 156.476 485.784 156.288 485.491C156.1 485.199 156 484.853 156 484.5C156 484.147 156.1 483.801 156.288 483.509C156.476 483.216 156.743 482.99 157.055 482.858C159.045 482.047 161.035 482.188 163.025 482.122L169 482L174.975 482.122C176.965 482.188 178.955 482.052 180.945 482.858C181.257 482.99 181.524 483.216 181.712 483.509C181.9 483.801 182 484.147 182 484.5C182 484.853 181.9 485.199 181.712 485.491C181.524 485.784 181.257 486.01 180.945 486.142Z" fill="#6A5D4A"/>
<path d="M128.575 470.125C129.884 481.458 130.444 492.818 130.963 504.177L131.713 521.179C131.853 526.843 132.575 532.458 132.991 538.099V538.153C133.047 538.91 132.849 539.665 132.429 540.3C132.008 540.935 131.389 541.414 130.665 541.665C124.823 543.704 118.875 545.434 112.847 546.846C109.818 547.544 106.752 548.157 103.586 548.569C100.282 549.058 96.9295 549.131 93.607 548.788C91.5581 548.583 89.5815 547.925 87.8227 546.864C87.2957 546.5 86.8018 546.091 86.3463 545.643C85.881 545.163 85.4775 544.628 85.1451 544.05C84.4876 542.931 84.0968 541.677 84.0027 540.386C83.9526 538.136 84.6073 535.926 85.8767 534.059C86.8576 532.57 88.0124 531.2 89.3174 529.979C94.2618 525.407 99.5584 522.302 105.248 519.371L103.333 522.821C102.43 514.114 101.446 505.412 100.592 496.697C100.213 492.334 99.712 487.986 99.4365 483.615C99.1611 479.243 98.8044 474.877 98.6418 470.492C98.6253 469.897 98.8351 469.318 99.2296 468.869C99.6241 468.421 100.174 468.136 100.771 468.07C101.368 468.005 101.968 468.164 102.452 468.517C102.936 468.869 103.268 469.389 103.383 469.973C104.191 474.286 104.873 478.617 105.501 482.948C106.128 487.279 106.639 491.628 107.217 495.972C108.273 504.665 109.217 513.371 110.224 522.069C110.302 522.75 110.172 523.438 109.85 524.045C109.527 524.651 109.028 525.148 108.418 525.469L108.318 525.518C103.306 528.122 98.1226 531.299 94.2528 534.981C92.3247 536.735 90.9474 539.097 91.1235 539.902C91.1913 540.095 91.1596 540.265 91.3358 540.484C91.5119 540.703 91.53 540.699 91.7467 540.905C92.6156 541.355 93.5683 541.625 94.5463 541.696C96.9936 541.987 99.8474 541.786 102.674 541.428C105.501 541.07 108.391 540.533 111.253 539.893C117.017 538.584 122.707 536.974 128.299 535.07L125.978 538.65C125.599 532.95 124.913 527.254 124.813 521.545L124.181 504.446C123.942 498.764 123.874 493.073 123.73 487.391C123.693 481.7 123.63 476.013 123.82 470.313C123.834 469.712 124.078 469.138 124.504 468.708C124.929 468.279 125.504 468.026 126.111 468.002C126.717 467.977 127.311 468.183 127.77 468.577C128.23 468.97 128.521 469.522 128.584 470.121L128.575 470.125Z" fill="#6A5D4A"/>
<path d="M147.717 439.724C150.087 449.707 151.153 459.842 152.453 469.974L149.039 466.935C161.631 466.908 174.223 466.673 186.814 466.822L183.266 470.2L184.701 445.576C185.15 437.363 185.645 429.155 186.999 420.992C187.098 420.413 187.406 419.891 187.863 419.525C188.321 419.158 188.896 418.973 189.48 419.003C190.065 419.034 190.618 419.278 191.035 419.691C191.452 420.103 191.704 420.654 191.743 421.241C192.251 429.503 191.918 437.72 191.5 445.932L190.362 470.579C190.32 471.479 189.937 472.329 189.292 472.956C188.647 473.583 187.788 473.939 186.891 473.951H186.814C174.223 474.1 161.631 473.861 149.039 473.839H149.003C148.167 473.837 147.359 473.527 146.736 472.966C146.112 472.406 145.716 471.635 145.622 470.8C144.484 460.669 143.09 450.574 143 440.316C142.997 439.727 143.21 439.158 143.597 438.716C143.985 438.275 144.521 437.991 145.103 437.92C145.685 437.849 146.272 437.994 146.754 438.33C147.236 438.665 147.579 439.166 147.717 439.738V439.724Z" fill="#6A5D4A"/>
<path d="M93.8936 410.042C95.3502 420.019 95.9906 430.041 96.5543 440.073L98.3085 470.168L94.7549 466.757C107.382 466.634 119.973 466.793 132.586 466.83L129.1 470.441L128.789 453.816C128.649 448.276 128.613 442.736 128.649 437.191V436.945C128.652 436.545 128.732 436.15 128.885 435.781C129.039 435.413 129.263 435.079 129.544 434.798C129.826 434.517 130.159 434.295 130.526 434.145C130.892 433.995 131.284 433.919 131.68 433.922C131.904 433.924 132.128 433.95 132.347 433.999C136.004 434.866 139.657 435.736 143.274 436.817C143.844 436.985 144.333 437.361 144.644 437.872C144.956 438.384 145.068 438.994 144.96 439.584C144.851 440.175 144.53 440.704 144.057 441.068C143.585 441.432 142.995 441.605 142.403 441.555C138.647 441.249 134.927 440.734 131.206 440.214L134.899 437.022C135.215 442.563 135.459 448.103 135.598 453.643L136.072 470.273C136.097 471.202 135.757 472.104 135.125 472.781C134.494 473.457 133.623 473.852 132.703 473.879H132.586C119.959 473.916 107.364 474.075 94.7549 473.957H94.7053C93.8014 473.945 92.9358 473.586 92.2842 472.953C91.6325 472.319 91.2437 471.459 91.1968 470.546L89.7357 440.451C89.2126 430.42 88.7661 420.388 89.1359 410.306C89.1641 409.707 89.4111 409.14 89.8291 408.715C90.2471 408.289 90.8064 408.036 91.3987 408.004C91.9909 407.971 92.5739 408.162 93.0348 408.54C93.4957 408.917 93.8018 409.454 93.8936 410.046V410.042Z" fill="#6A5D4A"/>
<path d="M102.135 454.855C104.611 454.056 107.091 454.187 109.567 454.122L117 454L124.436 454.122C126.912 454.187 129.388 454.047 131.869 454.855C132.274 454.988 132.613 455.288 132.812 455.691C133.011 456.093 133.054 456.564 132.931 457C132.853 457.269 132.716 457.514 132.531 457.713C132.346 457.913 132.119 458.061 131.869 458.145C129.388 458.953 126.912 458.813 124.436 458.878L117 459L109.567 458.878C107.091 458.813 104.611 458.949 102.135 458.145C101.934 458.081 101.748 457.974 101.585 457.832C101.423 457.69 101.289 457.515 101.19 457.316C101.09 457.118 101.029 456.9 101.008 456.676C100.987 456.451 101.008 456.225 101.068 456.009C101.145 455.737 101.282 455.49 101.468 455.289C101.654 455.088 101.883 454.939 102.135 454.855Z" fill="#6A5D4A"/>
<path d="M105.021 507.858C106.85 507.056 108.68 507.188 110.509 507.122L116.002 507L121.491 507.122C123.32 507.188 125.15 507.047 126.979 507.858C127.282 507.996 127.54 508.225 127.722 508.517C127.903 508.809 128 509.151 128 509.5C128 509.849 127.903 510.191 127.722 510.483C127.54 510.775 127.282 511.004 126.979 511.142C125.15 511.953 123.32 511.812 121.491 511.878L116.002 512L110.509 511.878C108.68 511.812 106.85 511.948 105.021 511.142C104.718 511.004 104.46 510.775 104.278 510.483C104.097 510.191 104 509.849 104 509.5C104 509.151 104.097 508.809 104.278 508.517C104.46 508.225 104.718 507.996 105.021 507.858Z" fill="#6A5D4A"/>
<path d="M103.074 482.03C105.064 481.068 107.05 481.225 109.04 481.146L115.001 481L120.968 481.146C122.958 481.225 124.943 481.056 126.934 482.03C127.249 482.192 127.519 482.465 127.709 482.816C127.899 483.166 128 483.578 128 484C128 484.421 127.899 484.834 127.709 485.184C127.519 485.535 127.249 485.808 126.934 485.97C124.943 486.944 122.958 486.775 120.968 486.854L115.001 487L109.04 486.854C107.05 486.775 105.064 486.932 103.074 485.97C102.756 485.81 102.485 485.538 102.293 485.187C102.102 484.836 102 484.423 102 484C102 483.577 102.102 483.164 102.293 482.813C102.485 482.462 102.756 482.19 103.074 482.03Z" fill="#6A5D4A"/>
<path d="M91.8404 365.613C94.7616 364.603 97.5606 365.108 100.387 365.27C103.213 365.432 106.026 365.725 108.847 365.977C111.669 366.23 114.473 366.604 117.277 366.988C120.08 367.372 122.915 367.493 125.624 369.075C126.076 369.342 126.447 369.753 126.69 370.256C126.933 370.759 127.037 371.331 126.988 371.9C126.94 372.468 126.741 373.008 126.418 373.451C126.095 373.894 125.661 374.219 125.172 374.386C122.251 375.397 119.451 374.891 116.625 374.735C113.799 374.578 110.986 374.28 108.165 374.027C105.343 373.775 102.539 373.401 99.7357 373.017C96.9321 372.633 94.0968 372.511 91.3882 370.93C91.0874 370.755 90.8204 370.515 90.6026 370.225C90.3847 369.935 90.2202 369.599 90.1186 369.238C90.0169 368.876 89.9801 368.496 90.0102 368.119C90.0402 367.741 90.1366 367.374 90.2938 367.039C90.4548 366.699 90.6743 366.398 90.9397 366.153C91.2051 365.909 91.5113 365.725 91.8404 365.613Z" fill="#6A5D4A"/>
<path d="M79.7613 324.51C84.6289 319.739 90.3607 316.375 95.8307 312.58C96.5636 312.072 97.4606 311.887 98.3242 312.067C99.1878 312.247 99.9475 312.776 100.436 313.537C100.877 314.215 101.069 315.035 100.978 315.848V315.962L99.5719 328.604C99.1354 332.822 98.5068 337.016 97.9786 341.224L96.3328 353.835C95.7827 358.039 95.1191 362.233 93.8095 366.319C93.6395 366.858 93.2946 367.318 92.8339 367.621C92.3731 367.925 91.8254 368.052 91.2844 367.981C90.7435 367.91 90.2431 367.646 89.869 367.233C89.495 366.821 89.2707 366.286 89.2345 365.72C88.9463 361.407 89.3087 357.181 89.7845 352.968L91.1902 340.326C91.6791 336.113 92.0633 331.886 92.6396 327.687L94.281 315.076L99.4148 318.454C93.7921 321.995 88.4355 325.971 82.2147 328.536C81.7071 328.747 81.1445 328.767 80.6242 328.593C80.1039 328.418 79.6587 328.06 79.3655 327.58C79.0723 327.1 78.9497 326.529 79.0188 325.965C79.0879 325.401 79.3444 324.88 79.7439 324.491L79.7613 324.51Z" fill="#6A5D4A"/>
<path d="M88.8811 378.531C91.9653 377.634 94.9212 378.114 97.9091 378.257C100.897 378.401 103.867 378.679 106.85 378.917C109.833 379.154 112.807 379.495 115.759 379.868C118.71 380.24 121.716 380.316 124.585 381.752C125.049 381.985 125.43 382.349 125.68 382.797C125.93 383.244 126.038 383.755 125.988 384.263C125.939 384.771 125.735 385.253 125.403 385.646C125.072 386.04 124.627 386.327 124.127 386.471C121.043 387.368 118.087 386.883 115.099 386.744C112.111 386.605 109.141 386.318 106.158 386.085C103.188 385.78 100.2 385.502 97.2491 385.129C94.2979 384.757 91.2916 384.681 88.4229 383.25C87.9573 383.018 87.5737 382.655 87.322 382.207C87.0704 381.758 86.9623 381.247 87.0117 380.738C87.0611 380.229 87.2659 379.746 87.5993 379.352C87.9327 378.959 88.3793 378.673 88.8811 378.531Z" fill="#6A5D4A"/>
<path d="M141.257 283.603C138.129 285.775 134.617 286.707 131.244 288.085C127.845 289.383 124.454 290.7 121.011 291.86L120.933 291.888C120.649 291.985 120.351 292.019 120.055 291.99C119.759 291.96 119.471 291.868 119.208 291.717C118.945 291.567 118.712 291.361 118.522 291.112C118.332 290.863 118.189 290.576 118.102 290.267C118.013 289.949 117.982 289.615 118.01 289.283L118.683 282.181C118.83 279.785 119.248 277.417 119.928 275.131C120.049 274.775 120.275 274.471 120.57 274.268C120.865 274.065 121.214 273.973 121.562 274.007C121.911 274.041 122.239 274.199 122.496 274.456C122.753 274.714 122.926 275.056 122.986 275.431C123.279 277.812 123.301 280.222 123.052 282.609L122.549 289.74L119.548 287.163C122.934 285.827 126.368 284.644 129.802 283.45C133.236 282.257 136.569 280.765 140.288 280.437C140.64 280.406 140.993 280.504 141.288 280.717C141.583 280.929 141.805 281.243 141.918 281.608C142.03 281.973 142.027 282.369 141.909 282.732C141.791 283.095 141.565 283.405 141.266 283.612L141.257 283.603Z" fill="#6A5D4A"/>
<path d="M107.07 320.743C107.32 318.598 107.641 316.463 107.796 314.304C107.95 312.146 108.149 309.997 108.371 307.848C108.427 307.324 108.682 306.841 109.083 306.498C109.484 306.155 110.001 305.977 110.529 306.002H110.701C114.908 306.229 119.092 306.663 123.285 307.011L135.86 308.111C136.167 308.137 136.466 308.223 136.739 308.365C137.012 308.506 137.255 308.701 137.453 308.936C137.651 309.171 137.8 309.443 137.892 309.737C137.985 310.03 138.018 310.338 137.991 310.644C137.148 320.381 136.304 330.099 135.343 339.844V339.872C135.314 340.179 135.224 340.478 135.078 340.752C134.933 341.025 134.735 341.266 134.496 341.463C134.257 341.66 133.981 341.807 133.685 341.898C133.388 341.988 133.077 342.019 132.769 341.989L106.055 339.433H106.005C105.715 339.405 105.434 339.321 105.176 339.185C104.919 339.049 104.691 338.864 104.506 338.64C104.321 338.416 104.182 338.158 104.097 337.88C104.012 337.602 103.982 337.31 104.01 337.021V336.867C104.464 334.153 104.967 331.479 105.556 328.796C106.146 326.113 106.635 323.444 107.07 320.743ZM110.243 321.195C109.885 323.91 109.563 326.624 109.337 329.366C109.11 332.108 108.834 334.827 108.485 337.542L106.458 334.976L133.204 337.293L130.624 339.437C131.44 329.696 132.374 319.983 133.313 310.237L135.443 312.789L122.877 311.585C118.689 311.165 114.496 310.834 110.316 310.291L112.646 308.459C112.252 310.581 111.789 312.698 111.372 314.816C110.955 316.933 110.602 319.073 110.23 321.2L110.243 321.195Z" fill="#6A5D4A"/>
<path d="M109.755 320C112.047 320.095 114.018 320.92 116.048 321.612L122.12 323.725L120.798 323.601L127.632 322.561C129.919 322.246 132.143 321.732 134.579 322.068C134.924 322.117 135.243 322.265 135.493 322.489C135.743 322.713 135.91 323.003 135.973 323.318C136.035 323.634 135.989 323.959 135.841 324.25C135.693 324.54 135.451 324.781 135.147 324.939C133.018 326.041 130.713 326.273 128.457 326.717L121.655 327.96C121.211 328.041 120.75 327.998 120.333 327.836L114.347 325.528C112.358 324.744 110.31 324.094 108.578 322.718C108.315 322.508 108.129 322.227 108.047 321.916C107.965 321.604 107.99 321.277 108.12 320.98C108.249 320.682 108.476 320.429 108.769 320.255C109.062 320.08 109.407 319.994 109.755 320.008V320Z" fill="#6A5D4A"/>
<path d="M194.11 380.517C190.867 381.356 187.745 380.882 184.592 380.719C181.439 380.557 178.313 380.258 175.173 380.008C172.033 379.692 168.893 379.398 165.754 379.012C162.614 378.626 159.474 378.52 156.433 377.102C155.967 376.884 155.581 376.53 155.327 376.09C155.073 375.65 154.962 375.144 155.011 374.641C155.06 374.137 155.266 373.661 155.6 373.275C155.935 372.89 156.382 372.614 156.881 372.485C160.124 371.638 163.246 372.125 166.399 372.283C169.553 372.441 172.679 372.722 175.819 372.994C178.958 373.315 182.098 373.609 185.238 373.99C188.378 374.372 191.517 374.495 194.559 375.9C195.027 376.117 195.415 376.47 195.671 376.91C195.927 377.351 196.038 377.858 195.989 378.362C195.94 378.867 195.733 379.344 195.397 379.73C195.061 380.116 194.611 380.39 194.11 380.517Z" fill="#6A5D4A"/>
<path d="M200.634 326.053C201.378 330.359 200.805 334.539 200.51 338.746L199.528 351.349L198.206 363.926C197.726 368.115 197.541 372.331 196.004 376.416C195.813 376.92 195.467 377.346 195.019 377.63C194.571 377.914 194.044 378.04 193.52 377.989C192.995 377.938 192.501 377.712 192.113 377.347C191.725 376.981 191.464 376.496 191.369 375.964C190.616 371.657 191.202 367.482 191.493 363.275L192.479 350.667L193.801 338.091C194.277 333.907 194.475 329.69 196.004 325.601C196.19 325.093 196.534 324.662 196.983 324.375C197.432 324.088 197.96 323.96 198.487 324.011C199.014 324.063 199.509 324.29 199.897 324.659C200.285 325.028 200.544 325.518 200.634 326.053Z" fill="#6A5D4A"/>
<path d="M126.724 415.898C118.557 416.316 110.518 415.354 102.456 414.681L90.3647 413.628C86.3359 413.26 82.298 412.978 78.2783 412.543H78.1966C77.2514 412.437 76.3865 411.962 75.7912 411.219C75.1959 410.477 74.9188 409.529 75.0207 408.583C75.0537 408.303 75.1161 408.028 75.2068 407.761L85.3604 379.152L85.247 379.556C86.1766 375.493 87.3555 371.491 88.7767 367.572C88.9805 367.029 89.3722 366.577 89.8805 366.298C90.3889 366.02 90.9802 365.932 91.5473 366.053C92.1144 366.173 92.6195 366.493 92.9711 366.954C93.3227 367.416 93.4974 367.988 93.4634 368.567C93.1741 372.724 92.6286 376.86 91.8301 380.95C91.8119 381.051 91.7862 381.149 91.753 381.246L91.7167 381.355L82.0484 410.113L78.9679 405.322C83.0013 405.645 87.0209 406.117 91.0452 406.508L103.123 407.747C111.171 408.605 119.247 409.169 127.168 411.117C127.73 411.258 128.222 411.596 128.556 412.07C128.89 412.543 129.044 413.121 128.989 413.698C128.934 414.275 128.675 414.813 128.257 415.215C127.84 415.617 127.293 415.856 126.715 415.889L126.724 415.898Z" fill="#6A5D4A"/>
<path d="M196.079 378.062C196.577 381.672 196.847 385.283 197.126 388.921L197.831 399.722L198.995 421.463C199.043 422.349 198.738 423.219 198.149 423.879C197.559 424.54 196.732 424.939 195.849 424.988C195.669 425.004 195.487 425.004 195.306 424.988H195.09L170.226 422.104L145.389 418.999H145.344C144.775 418.923 144.233 418.707 143.769 418.368C143.304 418.029 142.931 417.578 142.684 417.058L134.914 400.435L140.585 400.958C137.264 405.337 133.844 409.647 130.155 413.754C129.76 414.192 129.217 414.469 128.632 414.529C128.046 414.59 127.459 414.432 126.983 414.084C126.507 413.736 126.175 413.224 126.053 412.646C125.93 412.067 126.024 411.464 126.317 410.951C129.072 406.158 132.101 401.563 135.224 397.041C135.719 396.325 136.476 395.836 137.33 395.681C138.184 395.526 139.063 395.718 139.776 396.215C140.234 396.53 140.603 396.959 140.846 397.461L140.895 397.564L148.903 414.075L146.207 412.129L171.08 414.959C179.371 415.907 187.644 416.995 195.93 418.028L192.021 421.508L191.122 399.92C190.983 396.31 190.807 392.726 190.875 389.043C190.969 385.432 191.055 381.821 191.369 378.211C191.415 377.62 191.677 377.067 192.105 376.658C192.534 376.25 193.097 376.016 193.687 376.001C194.277 375.986 194.852 376.191 195.3 376.576C195.749 376.962 196.039 377.501 196.115 378.089L196.079 378.062Z" fill="#6A5D4A"/>
<path d="M194.113 392.529C190.785 393.356 187.577 392.877 184.351 392.707C181.125 392.538 177.895 392.237 174.665 391.98C171.435 391.723 168.222 391.362 165.01 390.97C161.797 390.578 158.554 390.469 155.435 389.053C154.969 388.84 154.583 388.49 154.328 388.053C154.073 387.615 153.963 387.111 154.011 386.609C154.06 386.107 154.265 385.632 154.6 385.25C154.934 384.867 155.38 384.595 155.878 384.472C159.206 383.64 162.41 384.128 165.64 384.293C168.87 384.459 172.1 384.763 175.326 385.02C178.552 385.277 181.769 385.643 184.981 386.035C188.194 386.427 191.437 386.545 194.557 387.947C195.024 388.159 195.413 388.508 195.669 388.946C195.926 389.384 196.038 389.889 195.989 390.392C195.94 390.895 195.734 391.371 195.397 391.754C195.061 392.136 194.613 392.407 194.113 392.529Z" fill="#6A5D4A"/>
<path d="M170.828 260.348C168.368 265.864 165.028 270.746 161.958 275.821C158.888 280.897 155.776 285.935 152.56 290.918L152.534 290.964C152.305 291.318 151.991 291.6 151.625 291.78C151.26 291.96 150.856 292.031 150.455 291.987C150.055 291.943 149.673 291.785 149.349 291.529C149.025 291.273 148.772 290.928 148.614 290.532L144.072 279.007C142.47 275.194 141.126 271.263 140.049 267.244C139.957 266.865 139.995 266.464 140.155 266.113C140.315 265.762 140.587 265.484 140.922 265.329C141.257 265.174 141.633 265.153 141.982 265.268C142.33 265.384 142.629 265.63 142.823 265.961C144.814 269.558 146.562 273.303 148.052 277.168L152.775 288.619L148.829 288.229C151.903 283.172 155.136 278.193 158.313 273.192C161.49 268.19 164.5 263.079 168.338 258.546C168.583 258.252 168.919 258.062 169.285 258.013C169.65 257.963 170.02 258.057 170.325 258.277C170.631 258.497 170.852 258.827 170.948 259.208C171.043 259.589 171.007 259.994 170.845 260.348H170.828Z" fill="#6A5D4A"/>
<path d="M161.148 282.098C164.855 283.234 168.087 285.199 171.435 286.977L181.418 292.388L177.781 294.298L178.884 283.683C179.27 280.146 179.482 276.596 180.586 273.146C180.701 272.788 180.935 272.48 181.249 272.273C181.564 272.066 181.94 271.972 182.315 272.007C182.69 272.042 183.042 272.203 183.313 272.464C183.584 272.725 183.757 273.071 183.804 273.444C184.264 277.058 183.804 280.586 183.533 284.137L182.664 294.77C182.631 295.177 182.495 295.569 182.269 295.91C182.043 296.251 181.734 296.529 181.372 296.72C181.009 296.91 180.604 297.007 180.194 297C179.784 296.993 179.383 296.883 179.027 296.681L169.149 291.077C165.871 289.181 162.486 287.481 159.571 284.943C159.284 284.695 159.091 284.356 159.025 283.984C158.959 283.611 159.024 283.227 159.208 282.896C159.392 282.565 159.685 282.308 160.038 282.166C160.39 282.025 160.781 282.009 161.144 282.121L161.148 282.098Z" fill="#6A5D4A"/>
<path d="M185.082 315.717C180.757 315.684 176.673 315.661 172.72 315.449C168.766 315.236 164.863 314.987 160.933 314.627L163.426 312.507L160.883 342.33L158.698 339.646L185.413 342.288L182.883 344.556C183.096 339.554 183.251 334.556 183.5 329.559L183.713 326.044C183.781 324.949 183.908 323.85 184.053 322.732C184.298 320.506 184.688 318.201 185.082 315.717ZM187.48 313.573C187.684 316.086 187.866 318.779 187.934 321.555C187.984 322.94 188.015 324.326 187.993 325.739L187.929 329.725C187.834 334.727 187.634 339.725 187.476 344.722C187.458 345.344 187.199 345.933 186.755 346.359C186.311 346.786 185.719 347.016 185.109 346.999H184.978H184.946L158.199 344.574C157.883 344.546 157.577 344.454 157.296 344.305C157.015 344.156 156.766 343.951 156.562 343.704C156.359 343.456 156.206 343.171 156.111 342.863C156.016 342.555 155.981 342.231 156.009 341.909L158.797 312.109C158.824 311.804 158.909 311.507 159.049 311.235C159.189 310.964 159.381 310.724 159.613 310.528C159.845 310.333 160.113 310.187 160.401 310.098C160.689 310.01 160.992 309.981 161.291 310.012C165.738 310.447 170.24 310.908 174.642 311.537C179.044 312.165 183.418 312.821 187.471 313.573H187.48Z" fill="#6A5D4A"/>
<path d="M186.188 329.554C184.212 330.744 182.069 331.072 179.958 331.558L173.612 332.947C173.172 333.045 172.713 333.007 172.295 332.835L165.831 330.248C163.697 329.323 161.482 328.656 159.606 327.046C159.337 326.817 159.145 326.507 159.056 326.161C158.966 325.814 158.985 325.448 159.109 325.112C159.232 324.777 159.455 324.49 159.745 324.29C160.036 324.091 160.38 323.99 160.729 324.001C163.174 324.07 165.276 325.065 167.464 325.852L173.977 328.268L172.66 328.152L179.047 326.977C181.181 326.597 183.283 326.051 185.552 326.389C185.898 326.439 186.22 326.598 186.473 326.844C186.727 327.09 186.9 327.411 186.968 327.763C187.036 328.114 186.995 328.478 186.852 328.805C186.709 329.132 186.471 329.405 186.17 329.587L186.188 329.554Z" fill="#6A5D4A"/>
<path d="M139.477 385.789C140.78 385.897 142.078 385.982 143.385 386.018H147.316C149.93 385.964 152.546 386.049 155.151 386.274L151.506 389.315L153.072 370.962L156.195 374.78L140.94 373.477L125.685 371.959L129.456 368.77L129.17 371.995V372.044C129.092 372.905 128.696 373.705 128.061 374.287C127.426 374.869 126.598 375.191 125.739 375.188H125.694L129.125 372.044L127.684 387.105L124.668 383.444C127.149 383.687 129.616 384.154 132.075 384.648C134.52 385.159 136.991 385.54 139.477 385.789ZM139.031 390.51C136.537 390.305 134.035 390.233 131.535 390.294C129.033 390.359 126.53 390.298 124.035 390.11C123.163 390.031 122.356 389.61 121.79 388.938C121.224 388.265 120.944 387.396 121.009 386.517V386.463L122.236 371.42C122.305 370.564 122.689 369.764 123.313 369.178C123.937 368.592 124.756 368.262 125.609 368.253H125.717L122.281 371.433L122.526 368.208C122.56 367.754 122.682 367.311 122.885 366.904C123.089 366.498 123.37 366.136 123.713 365.839C124.055 365.542 124.453 365.316 124.882 365.173C125.312 365.031 125.765 364.976 126.216 365.01H126.297L141.569 366.312L156.829 367.831H156.86C157.314 367.873 157.756 368.006 158.159 368.221C158.562 368.436 158.919 368.729 159.209 369.084C159.499 369.438 159.717 369.847 159.85 370.286C159.983 370.726 160.028 371.187 159.983 371.644L158.167 389.944V389.971C158.079 390.856 157.647 391.669 156.965 392.234C156.282 392.799 155.406 393.069 154.526 392.985C151.926 392.714 149.342 392.305 146.785 391.759L142.926 391.026C141.632 390.806 140.338 390.649 139.04 390.51H139.031Z" fill="#6A5D4A"/>
<path d="M159.146 256H159.191H159.392C162.569 256 165.745 256.086 168.912 256.244C169.17 256.257 169.425 256.314 169.665 256.411L169.902 256.506C173.329 257.924 176.622 259.447 179.977 261.001C183.333 262.555 186.643 264.091 189.949 265.672L209.849 275.081C210.462 275.375 210.973 275.847 211.318 276.436L225.493 300.035L239.506 323.733C239.741 324.13 239.896 324.57 239.963 325.027C240.03 325.485 240.006 325.952 239.894 326.4C239.781 326.849 239.582 327.27 239.308 327.641C239.034 328.012 238.69 328.325 238.296 328.562C238.115 328.67 237.924 328.762 237.727 328.837L203.259 341.766L203.183 341.793C202.365 342.099 201.461 342.065 200.668 341.699C199.875 341.333 199.259 340.665 198.954 339.842C198.914 339.729 198.882 339.616 198.851 339.503C197.785 335.288 196.651 331.091 195.648 326.854C194.644 322.617 193.677 318.38 192.875 314.088C192.761 313.497 192.873 312.885 193.187 312.373C193.501 311.862 193.995 311.488 194.57 311.327C195.145 311.166 195.759 311.229 196.29 311.504C196.821 311.778 197.23 312.245 197.435 312.81C198.945 316.903 200.28 321.045 201.584 325.192C202.887 329.339 204.07 333.522 205.311 337.687L200.907 335.428L235.259 322.219L233.498 327.374L219.364 303.753L205.369 280.032L206.852 281.387L187.046 271.811C183.731 270.23 180.446 268.602 177.191 266.927C173.912 265.306 170.641 263.589 167.434 261.877L168.419 262.139C165.283 261.755 162.147 261.281 159.011 260.784H159.213H159.168C158.576 260.732 158.025 260.458 157.624 260.017C157.223 259.575 157 258.998 157 258.399C157 257.8 157.223 257.222 157.624 256.781C158.025 256.339 158.576 256.066 159.168 256.014L159.146 256Z" fill="#6A5D4A"/>
<path d="M229.501 313C228.104 314.449 226.426 314.954 224.779 315.69L219.846 317.792L214.834 319.677C213.156 320.279 211.548 321.057 209.62 320.997C209.29 320.984 208.971 320.87 208.703 320.669C208.435 320.468 208.229 320.189 208.111 319.867C207.993 319.544 207.969 319.193 208.04 318.856C208.111 318.519 208.276 318.211 208.513 317.971C209.892 316.564 211.587 316.03 213.221 315.309L218.137 313.212L223.136 311.336C224.8 310.724 226.443 309.956 228.323 310.002H228.363C228.691 310.009 229.011 310.117 229.281 310.312C229.551 310.508 229.76 310.783 229.882 311.103C230.003 311.423 230.032 311.773 229.964 312.11C229.896 312.446 229.735 312.754 229.501 312.996V313Z" fill="#6A5D4A"/>
<path d="M205.608 410.355C207.641 411.446 208.531 413.572 209.307 415.816C209.758 417.075 209.993 418.406 210 419.748C210.015 421.509 209.492 423.231 208.504 424.673C207.466 426.017 206.072 427.027 204.488 427.58C202.909 428.118 201.206 428.14 199.615 427.641C196.77 426.7 194.806 425.134 194.108 422.772C193.98 422.318 193.966 421.839 194.065 421.378C194.165 420.917 194.377 420.488 194.68 420.133C194.983 419.777 195.369 419.505 195.801 419.341C196.234 419.178 196.699 419.129 197.155 419.197L197.531 419.259C199.505 419.583 200.574 420.566 201.391 420.632C201.619 420.68 201.855 420.65 202.065 420.547C202.263 420.445 202.441 420.308 202.593 420.143C202.593 420.303 202.91 419.343 202.524 417.88C202.23 416.422 201.363 415.096 201.432 412.909V412.815C201.447 412.322 201.585 411.841 201.831 411.418C202.077 410.994 202.425 410.642 202.841 410.394C203.256 410.146 203.727 410.011 204.208 410.001C204.689 409.99 205.164 410.106 205.59 410.336L205.608 410.355Z" fill="#6A5D4A"/>
<path d="M231.79 327.149C235.648 333.325 238.7 339.857 241.692 346.417C241.911 346.894 242.016 347.416 241.998 347.94C241.981 348.464 241.842 348.977 241.592 349.439V349.48L228.178 373.956L214.433 398.247L214.214 394.579C215.594 396.592 216.562 398.854 217.061 401.238C217.662 403.888 217.319 406.662 216.09 409.089C214.812 411.495 212.677 413.342 210.101 414.271C207.763 415.122 205.217 415.231 202.814 414.583C202.248 414.438 201.755 414.095 201.424 413.617C201.094 413.14 200.949 412.56 201.016 411.984C201.083 411.409 201.358 410.877 201.79 410.487C202.222 410.097 202.781 409.875 203.365 409.862H203.492C204.97 409.845 206.423 409.483 207.733 408.805C208.802 408.197 209.648 407.266 210.147 406.149C210.607 405.024 210.687 403.781 210.375 402.607C210.037 401.172 209.439 399.811 208.607 398.591V398.559C208.245 398.032 208.035 397.416 208 396.779C207.966 396.142 208.108 395.508 208.411 394.945L221.77 370.441L235.525 346.155L235.402 349.218C232.428 342.649 229.513 336.054 227.404 329.101C227.235 328.542 227.276 327.941 227.52 327.41C227.763 326.879 228.193 326.454 228.73 326.213C229.266 325.973 229.872 325.934 230.435 326.104C230.998 326.274 231.48 326.64 231.79 327.136V327.149Z" fill="#6A5D4A"/>
<path d="M208.926 336.065C211.989 340.69 213.679 345.895 215.749 350.925C216.065 351.696 216.083 352.564 215.8 353.348L215.766 353.447C213.666 359.243 211.73 365.11 209.479 370.843L206.191 379.484C205.072 382.357 204.061 385.271 202.838 388.099L202.686 388.446C202.499 388.884 202.2 389.261 201.822 389.536C200.073 390.774 198.229 391.86 196.309 392.782C195.825 393.011 195.282 393.061 194.767 392.925C194.252 392.79 193.797 392.476 193.476 392.035C193.155 391.594 192.988 391.053 193.001 390.5C193.014 389.947 193.207 389.414 193.548 388.991C194.919 387.313 196.42 385.755 198.037 384.334L197.005 385.766C197.908 382.808 199.022 379.912 200.029 377.021L203.123 368.299C205.119 362.444 207.444 356.752 209.604 350.975V353.492C207.768 348.354 205.547 343.374 204.704 337.821C204.62 337.275 204.717 336.716 204.979 336.235C205.241 335.754 205.652 335.38 206.144 335.174C206.637 334.969 207.182 334.944 207.69 335.105C208.198 335.265 208.638 335.6 208.939 336.056L208.926 336.065Z" fill="#6A5D4A"/>
<path d="M65 132C63.8267 136.148 62.7652 140.499 61.7341 145C60.3119 142.681 59.7277 140.546 60.1188 138.415C60.5607 136.012 62.242 133.848 65 132Z" fill="#BAB162"/>
<path d="M285.889 176.828C285.494 178.753 284.184 180.457 282 182C282.642 177.867 283.2 173.855 283.626 170C285.51 172.338 286.315 174.65 285.889 176.828Z" fill="#BAB162"/>
<path d="M180.362 130C191.068 131.769 201.352 133.865 211 136.154C198.505 137.924 183.858 138.907 171 136.833C173.765 135.497 176.961 133.058 180.362 130Z" fill="#CD804D"/>
<path d="M62.1039 144.709C63.003 140.319 63.956 136.076 64.9945 132.031V131.985C77.9368 122.307 117.645 120.165 165 126.94C136.877 135.196 106.002 137.03 90.1149 137.352C83.8888 146.016 79.5012 156.487 77.4153 169C73.3919 164.491 67.6422 157.506 67.6422 157.506C65.1904 156.595 62.6087 156.101 60 156.042C60.6743 152.167 61.3532 148.387 62.1039 144.709Z" fill="#CD804D"/>
<path d="M279.885 193.052C283.39 195.196 285.059 202.754 283.282 210.771C280.623 222.872 270.054 235.985 246.113 233.001C241.497 242.438 235.697 250.553 227.612 256.045C214.564 264.92 197.467 268.056 182.619 268.807C182.066 268.847 181.512 268.892 180.968 268.887C175.699 269.081 170.745 269.013 166.417 268.775C161.773 268.524 157.145 268.04 152.55 267.324C148.254 266.546 144.002 265.549 139.808 264.335C135.691 263.136 130.989 261.608 125.986 259.711C125.298 259.455 124.637 259.159 123.899 258.853H123.854C110.063 253.232 94.8736 244.595 85.4836 231.855C79.8954 224.315 77.5332 214.68 76.6514 204.116C62.3346 200.768 54.6047 194.23 51.0053 186.923C48.6971 182.304 48.6026 176.466 49.6105 171.092C51.2707 162.415 55.9635 154.937 59.3245 155.512C61.9354 155.569 64.5194 156.053 66.9733 156.946C66.9733 156.946 72.728 163.79 76.7548 168.207C78.8425 155.966 83.2338 145.707 89.4654 137.201C105.366 136.864 136.258 135.075 164.415 127C168.64 127.58 172.941 128.267 177.278 129.004C178.25 129.17 179.222 129.337 180.19 129.548C176.82 132.747 173.652 135.3 170.912 136.697C183.654 138.868 198.169 137.839 210.551 135.987H210.596C224.652 139.515 237.353 143.541 248.147 147.792C257.443 162.149 261.735 179.935 258.307 200.04C260.606 198.566 267.958 193.906 270.666 192.185C271.278 191.79 271.634 191.578 271.634 191.578C275.273 191.538 277.861 192.118 279.885 193.052Z" fill="#FCECDD"/>
<path d="M271.889 191.579C271.889 191.579 271.542 191.789 270.946 192.182C268.315 193.895 261.142 198.533 258.901 200C262.242 179.991 258.059 162.289 249 148C266.298 154.941 278.488 162.446 283 169.431C282.645 173.398 282.18 177.526 281.645 181.78C281.172 185.407 280.593 189.155 279.944 193.023C277.971 192.093 275.449 191.516 271.889 191.579Z" fill="#CD804D"/>
<path d="M338.795 186.302C336.547 199.488 316.314 208.353 285.291 212L283.753 211.689C285.529 203.636 283.861 196.043 280.359 193.89C281.024 189.986 281.618 186.217 282.103 182.542C283.969 180.94 285.089 179.171 285.426 177.171C285.812 174.914 285.125 172.508 283.492 170.08C278.866 163.029 266.367 155.455 248.63 148.449C237.839 144.179 225.151 140.134 211.105 136.591H211.06C201.506 134.181 191.322 131.982 180.72 130.123C179.753 129.91 178.782 129.743 177.811 129.576C173.477 128.836 169.178 128.146 164.956 127.563C117.594 120.874 77.8799 122.982 64.9355 132.529V132.574C62.4941 134.348 61.0059 136.424 60.6147 138.731C60.2685 140.775 60.7856 142.825 62.0446 145.05C61.2937 148.661 60.6147 152.39 59.9673 156.208C56.6087 155.631 51.9192 163.142 50.2601 171.858L49.2485 171.637C21.1926 157.883 4.96606 142.775 7.20513 129.595C9.50265 116.053 30.8234 107.052 63.2585 103.604C94.5785 100.281 136.276 102.028 181.197 109.715C226.117 117.403 266.034 129.622 294.499 143.172C323.949 157.179 341.092 172.765 338.795 186.302Z" fill="#BAB162"/>
<path d="M293.22 128.872L293.184 128.818C289.27 100.168 269.014 44.1161 193.99 31.2258C118.966 18.3356 81.389 64.529 68.2649 90.2598C65.4058 95.8939 63.6643 100.534 63 103.394C94.2663 100.069 135.892 101.817 180.735 109.512C225.579 117.206 265.427 129.437 293.844 143C294.135 140.095 294.068 135.143 293.22 128.872Z" fill="#E6DAA2"/>
<path d="M283.983 127.281L284.019 127.335C284.569 131.164 284.821 135.029 284.773 138.897C287.895 140.247 290.937 141.596 293.832 143C294.14 140.094 294.073 135.163 293.23 128.919L293.194 128.865C289.304 100.339 269.175 44.5276 194.621 31.6928C193.055 31.4229 191.53 31.2429 190 31C260.79 45.3014 280.179 99.3535 283.983 127.281Z" fill="#FEFFF5"/>
<path d="M187.321 258.192C181.391 258.274 175.811 258.098 170.929 257.742C163.915 257.228 158.38 256.506 155.278 255.979C152.329 255.474 147.208 254.419 140.864 252.692C136.197 251.393 130.87 249.752 125.196 247.732C124.418 247.462 123.644 247.151 122.826 246.83H122.777C108.03 241.217 91.8983 232.853 81 221C82.2675 224.836 84.1127 228.455 86.4716 231.731C95.8547 244.513 111.033 253.179 124.818 258.819H124.858C125.582 259.126 126.257 259.423 126.945 259.68C131.944 261.583 136.642 263.116 140.756 264.32C144.947 265.536 149.196 266.537 153.489 267.318C158.08 268.036 162.705 268.522 167.346 268.774C171.671 269.013 176.621 269.081 181.886 268.887C182.43 268.887 182.983 268.847 183.536 268.806C198.372 268.053 215.457 264.906 228.496 256.001C232.069 253.499 235.27 250.499 238 247.092C223.707 255.054 205.301 257.719 189.191 258.138C188.549 258.174 187.928 258.206 187.321 258.192Z" fill="#FAD6B5"/>
<path d="M130.673 187.833C129.432 195.251 124.985 200.668 120.75 199.933C116.515 199.199 114.083 192.59 115.324 185.172C116.566 177.753 121.012 172.332 125.252 173.067C129.492 173.801 131.919 180.415 130.673 187.833Z" fill="#6A5D4A"/>
<path d="M197.324 198.805C196.165 205.953 198.213 212.281 201.9 212.944C205.588 213.606 209.516 208.342 210.675 201.194C211.835 194.046 209.791 187.714 206.103 187.056C202.416 186.398 198.488 191.657 197.324 198.805Z" fill="#6A5D4A"/>
<path d="M122.881 212.612C121.734 219.294 112.576 223.323 102.425 221.603C92.2744 219.883 84.9716 213.074 86.1186 206.388C87.2656 199.702 96.4242 195.677 106.579 197.397C116.734 199.117 124.028 205.948 122.881 212.612Z" fill="#F9D3BF"/>
<path d="M234.878 231.237C233.7 238.186 224.294 242.376 213.869 240.587C203.444 238.798 195.944 231.712 197.122 224.763C198.3 217.815 207.71 213.624 218.135 215.413C228.56 217.202 236.056 224.283 234.878 231.237Z" fill="#F9D3BF"/>
<path fill-rule="evenodd" clip-rule="evenodd" d="M60.1002 169.519C60.4539 168.372 61.6402 167.738 62.7499 168.104L62.1095 170.182C62.7499 168.104 62.751 168.104 62.7521 168.104L62.7547 168.105L62.7607 168.107L62.7765 168.113C62.7886 168.117 62.8041 168.122 62.8226 168.128C62.8598 168.141 62.9095 168.159 62.9709 168.182C63.0938 168.227 63.2636 168.293 63.4728 168.38C63.8905 168.554 64.4688 168.817 65.1454 169.181C66.4918 169.905 68.2662 171.054 69.9408 172.75C73.3695 176.22 76.2462 181.875 74.4468 190.289C74.1952 191.466 73.0694 192.208 71.9322 191.948C70.795 191.688 70.077 190.523 70.3285 189.347C71.7748 182.584 69.5124 178.42 66.9906 175.867C65.6899 174.551 64.2862 173.636 63.1983 173.051C62.6578 172.76 62.2048 172.555 61.8957 172.426C61.7414 172.362 61.6238 172.317 61.5501 172.29C61.5133 172.276 61.4875 172.267 61.4737 172.262L61.4624 172.258C60.3569 171.889 59.7472 170.665 60.1002 169.519Z" fill="#E6C099"/>
<path d="M59.0515 157.713C59.1505 157.767 58.9929 157.794 58.7049 157.973C58.3314 158.266 57.9877 158.595 57.6787 158.955C56.9132 159.872 56.2576 160.876 55.7253 161.944C54.5737 164.248 53.6946 166.677 53.1057 169.183C51.895 174.172 51.7871 179.6 53.4029 183.93C55.1582 188.282 58.7363 192.146 63.0256 194.808C67.3329 197.542 72.3694 199.344 77.5679 200.568C78.2656 200.734 78.8933 201.114 79.3625 201.655C79.8317 202.195 80.1187 202.868 80.1829 203.58C80.7185 209.743 81.7761 215.817 83.9455 221.33C84.9984 224.055 86.388 226.638 88.0819 229.021C89.8654 231.441 91.8335 233.72 93.9689 235.839C102.683 244.355 113.8 250.473 125.358 255.184L124.615 254.973H124.66H124.728C124.974 255.017 125.215 255.091 125.443 255.193C127.829 256.264 130.682 257.017 133.288 257.936C135.894 258.855 138.608 259.729 141.282 260.558L149.383 262.432L153.434 263.364L157.584 263.812L165.874 264.709C168.651 264.915 171.483 264.807 174.287 264.875C177.032 264.875 180.043 265.023 182.577 264.875C185.431 264.731 188.185 264.512 190.953 264.216C201.976 262.965 212.917 260.289 222.315 254.991C231.803 249.949 238.406 241.096 243.244 231.209C243.556 230.575 244.058 230.055 244.681 229.72C245.304 229.385 246.016 229.252 246.719 229.339C251.944 229.998 257.219 229.927 262.085 228.649C264.5 228.061 266.821 227.139 268.98 225.911C271.089 224.65 273.001 223.088 274.655 221.276C277.967 217.498 280.163 212.881 281.002 207.937C281.442 205.481 281.517 202.974 281.222 200.496C280.943 198.134 279.984 195.709 278.837 194.862L278.67 194.737C278.188 194.371 277.865 193.836 277.767 193.241C277.669 192.645 277.803 192.035 278.142 191.535C278.481 191.036 278.999 190.684 279.59 190.552C280.182 190.421 280.801 190.519 281.321 190.828C282.914 191.839 284.181 193.284 284.971 194.992C285.675 196.453 286.184 197.999 286.488 199.591C287.076 202.618 287.158 205.721 286.731 208.775C285.981 214.918 283.461 220.714 279.476 225.462C277.412 227.816 275.008 229.851 272.342 231.5C269.673 233.086 266.795 234.293 263.79 235.086C257.836 236.726 251.715 236.74 245.872 236.04L249.343 234.167C246.777 239.574 243.57 244.655 239.792 249.303C235.877 254.021 231.115 257.973 225.749 260.957C215.177 266.954 203.398 269.805 191.754 271.181C188.838 271.508 185.903 271.75 183.023 271.907C179.841 272.096 177.122 271.934 174.147 271.961C171.231 271.903 168.323 272.019 165.402 271.813L156.616 270.917L152.223 270.469L147.916 269.473L139.306 267.439C136.52 266.569 133.77 265.601 131.002 264.686C128.225 263.691 125.515 262.988 122.671 261.719L123.458 261.948H123.414H123.387C123.14 261.906 122.898 261.836 122.666 261.742C110.559 256.735 98.7354 250.249 89.0676 240.76C86.659 238.355 84.4438 235.765 82.4423 233.015C80.432 230.166 78.7841 227.079 77.5364 223.826C75.0429 217.394 73.9357 210.716 73.4046 204.154L76.0151 207.166C70.29 205.772 64.5425 203.791 59.362 200.407C54.1815 197.022 49.7391 192.285 47.3807 186.135C46.3308 183.112 45.8724 179.917 46.0304 176.722C46.1399 173.676 46.6237 170.655 47.4708 167.727C48.2827 164.792 49.4797 161.977 51.0309 159.354C51.8455 157.958 52.8246 156.664 53.9475 155.499C54.5969 154.828 55.3342 154.248 56.1394 153.773C57.2494 153.13 58.5447 152.877 59.8166 153.056C60.4379 153.162 60.9915 153.509 61.3557 154.022C61.7199 154.534 61.8649 155.169 61.7587 155.788C61.6524 156.407 61.3037 156.958 60.7893 157.321C60.2748 157.684 59.6367 157.828 59.0154 157.722L59.0515 157.713Z" fill="#6A5D4A"/>
<path d="M183.113 130.236V130.282C183.126 130.406 183.098 130.532 183.032 130.638L182.405 131.627C180.151 135.185 177.09 137.958 173.014 140.22L172.031 133.716C178.302 134.733 184.759 134.752 191.225 134.729C194.462 134.67 197.713 134.492 200.959 134.223C204.205 133.954 207.447 133.634 210.829 134.031C211.367 134.097 211.868 134.34 212.256 134.722C212.644 135.105 212.896 135.606 212.974 136.149C213.052 136.691 212.952 137.245 212.688 137.723C212.424 138.202 212.011 138.579 211.514 138.797C208.317 140.166 204.963 140.726 201.595 141.078C198.227 141.429 194.832 141.73 191.427 141.88C184.545 142.239 177.644 141.792 170.863 140.549H170.827C170.119 140.422 169.469 140.074 168.968 139.552C168.467 139.031 168.141 138.363 168.037 137.644C167.932 136.925 168.054 136.191 168.384 135.546C168.715 134.9 169.239 134.377 169.88 134.049C172.766 132.576 175.615 129.985 179.087 128.12L178.379 129.488V129.447C178.607 128.95 178.99 128.542 179.47 128.287C179.949 128.031 180.499 127.943 181.033 128.036C181.567 128.128 182.057 128.396 182.425 128.798C182.794 129.2 183.021 129.713 183.073 130.259L183.113 130.236Z" fill="#6A5D4A"/>
<path d="M256.085 158.995C259.795 165.174 261.589 172.235 262.322 179.257C263.062 186.318 262.816 193.441 261.589 200.44L256.651 197.329L263.518 193.176L270.501 189.019C270.961 188.74 271.492 188.587 272.036 188.577H272.083C275.236 188.555 278.681 188.878 281.959 190.343L277.582 192.549L279.529 181.075C280.047 177.215 280.784 173.385 281.737 169.6L281.76 169.442V169.402C281.914 168.924 282.246 168.516 282.694 168.253C283.141 167.991 283.674 167.893 284.192 167.976C284.71 168.06 285.178 168.32 285.51 168.708C285.841 169.096 286.013 169.586 285.993 170.086V170.13V169.971C286.038 173.927 285.861 177.883 285.465 181.821C285.251 183.789 284.88 185.735 284.598 187.695L283.67 193.564C283.612 193.943 283.476 194.307 283.269 194.635C283.063 194.963 282.791 195.25 282.469 195.478C282.146 195.706 281.78 195.872 281.39 195.965C281 196.059 280.595 196.078 280.197 196.023C279.916 195.983 279.641 195.907 279.381 195.798L279.293 195.758C277.262 194.875 274.767 194.597 272.134 194.659L273.715 194.218L266.954 198.366L260.096 202.532H260.073C259.543 202.847 258.93 203.009 258.306 203C257.681 202.99 257.073 202.81 256.554 202.48C256.035 202.151 255.627 201.685 255.378 201.14C255.13 200.595 255.052 199.994 255.153 199.408C256.379 192.957 256.703 186.38 256.118 179.848C255.482 173.325 253.846 167.01 252.07 160.58C251.938 160.097 251.994 159.584 252.229 159.138C252.464 158.692 252.861 158.342 253.347 158.153C253.832 157.964 254.373 157.95 254.869 158.112C255.365 158.274 255.783 158.602 256.044 159.035L256.085 158.995Z" fill="#6A5D4A"/>
<path d="M67.0168 133.329C66.4652 137.277 65.7102 141.162 64.9733 145.043C64.2364 148.924 63.6939 152.854 62.9343 156.73L60.1268 153.288C63.0573 153.354 65.9577 153.888 68.7167 154.868C69.1879 155.042 69.6086 155.328 69.9419 155.701L69.9826 155.75L79.775 166.829L74.4629 168.369C75.4134 162.61 76.9805 156.968 79.1376 151.538C81.3135 146.072 84.2012 140.91 87.7275 136.184C88.0123 135.806 88.3807 135.496 88.8045 135.28C89.2284 135.063 89.6965 134.946 90.1733 134.936C99.7895 134.765 109.415 134.228 118.99 133.311C128.566 132.393 138.078 131.073 147.676 130.012C148.197 129.957 148.72 130.097 149.142 130.404C149.565 130.711 149.856 131.164 149.959 131.672C150.062 132.181 149.969 132.71 149.699 133.154C149.429 133.599 149.001 133.928 148.499 134.076C139.054 136.762 129.33 138.221 119.596 139.224C109.862 140.226 100.097 140.875 90.3044 141.131L92.7638 139.868C86.4344 148.539 82.3656 158.74 80.503 169.412V169.506C80.4046 170.068 80.1468 170.59 79.7597 171.013C79.3726 171.435 78.8721 171.74 78.3166 171.892C77.7612 172.043 77.1737 172.036 76.6226 171.869C76.0715 171.702 75.5797 171.384 75.2044 170.951L65.3486 159.604L66.61 160.499C64.4441 159.711 62.1624 159.278 59.8555 159.219H59.8104C59.4247 159.202 59.0462 159.111 58.6963 158.949C58.3465 158.788 58.0323 158.559 57.7716 158.278C57.5109 157.996 57.3088 157.666 57.1769 157.307C57.045 156.947 56.9859 156.566 57.0028 156.184C57.0125 156.049 57.029 155.915 57.0525 155.781C57.4232 153.8 57.8211 151.821 58.2461 149.846C58.6711 147.876 59.0372 145.893 59.5164 143.933C60.606 140.038 61.682 136.144 62.957 132.295C63.1226 131.805 63.4664 131.394 63.9215 131.142C64.3766 130.889 64.9103 130.814 65.4185 130.93C65.9266 131.047 66.3727 131.346 66.6699 131.771C66.9671 132.195 67.094 132.714 67.0259 133.226L67.0168 133.329Z" fill="#6A5D4A"/>
<path d="M48.3585 172.625C38.9855 168.267 29.747 163.399 21.3077 157.024C17.1239 153.796 13.0478 150.268 9.68554 145.847C8.07399 143.574 6.46695 141.234 5.45243 138.437C4.26978 135.604 3.79819 132.526 4.07876 129.471C4.3468 126.365 5.43073 123.385 7.22108 120.832C8.86629 118.418 10.904 116.297 13.2499 114.555C17.7704 111.17 22.7217 108.893 27.7135 107.037C37.7375 103.401 48.0578 101.5 58.3601 100.16C79.0096 97.6135 99.7174 97.5911 120.309 98.694C161.497 101.114 202.294 108.056 241.961 119.392C261.749 125.158 281.289 132.035 299.923 141.266C309.202 145.933 318.306 151.128 326.561 157.885C330.655 161.287 334.574 165.057 337.721 169.76C339.364 172.177 340.586 174.854 341.335 177.677C342.179 180.678 342.22 183.846 341.456 186.868C340.711 189.846 339.25 192.597 337.2 194.884C335.319 197.192 333.03 198.874 330.758 200.488C326.126 203.563 321.107 205.544 316.093 207.212C306.01 210.44 295.681 211.978 285.388 212.982C284.764 213.059 284.135 212.886 283.639 212.5C283.143 212.114 282.821 211.547 282.744 210.924C282.666 210.301 282.84 209.673 283.226 209.178C283.613 208.683 284.18 208.361 284.804 208.284H284.836C294.851 206.822 304.794 204.782 314.167 201.559C318.753 199.997 323.126 197.871 327.185 195.229C330.974 192.575 334.269 189.221 335.063 185.33C336.06 181.502 334.615 177.261 332.087 173.45C329.56 169.639 326.036 166.192 322.27 163.071C314.661 156.844 305.885 151.792 296.902 147.277C278.82 138.311 259.571 131.528 240.071 125.848C200.901 114.655 160.616 107.8 119.945 105.405C99.6591 104.311 79.243 104.356 59.213 106.826C49.2384 108.117 39.2817 109.965 30.0343 113.345C25.4465 115.039 21.0159 117.133 17.3349 119.899C15.5392 121.311 13.8693 122.818 12.7381 124.57C11.5342 126.195 10.7969 128.117 10.6058 130.13C10.0671 134.061 12.0917 138.316 14.7806 142.073C17.7493 145.906 21.181 149.359 24.9976 152.352C32.7771 158.494 41.4813 163.708 50.4504 168.397C51.0141 168.676 51.4441 169.166 51.6457 169.761C51.8474 170.356 51.8041 171.006 51.5255 171.569C51.2469 172.132 50.7558 172.562 50.1602 172.763C49.5646 172.964 48.9133 172.921 48.3495 172.643L48.3585 172.625Z" fill="#6A5D4A"/>
<path d="M60.0992 145.922C59.3082 144.717 58.7127 143.394 58.3351 142.002C57.9282 140.445 57.8913 138.813 58.2274 137.239C58.9321 133.964 61.1451 131.562 63.3222 129.904L62.1507 131.796V131.751C62.2037 131.383 62.3303 131.029 62.5232 130.71C62.716 130.392 62.9711 130.116 63.2729 129.899L63.3132 129.868C69.1489 125.705 75.4962 124.055 81.7179 122.717C87.9311 121.491 94.2247 120.717 100.549 120.401C113.118 119.658 125.611 120.023 138.059 120.879C150.506 121.735 162.882 123.231 175.182 125.277C181.422 126.178 187.468 127.723 193.546 128.967L211.785 132.909L211.516 132.851H211.561H211.587L211.83 132.905C227.24 136.874 242.494 141.637 257.195 148.143C264.539 151.414 271.739 155.172 278.356 160.309C281.606 162.94 284.771 165.991 286.885 170.316C288.03 172.69 288.304 175.393 287.657 177.949C286.941 180.381 285.445 182.508 283.402 184L280.322 180.395C282.8 177.994 283.159 175.529 281.7 172.826C280.241 170.122 277.431 167.568 274.487 165.373C268.503 160.949 261.514 157.52 254.47 154.375C240.263 148.175 225.265 143.561 210.12 139.754L210.384 139.812H210.344L210.075 139.758L192.034 135.964C186.001 134.748 180.035 133.292 174.033 132.405C161.953 130.332 149.752 128.827 137.547 127.899C125.341 126.971 113.082 126.574 100.944 127.228C94.9248 127.53 88.9288 128.194 82.9883 129.215C77.1751 130.291 71.317 131.85 66.7967 134.653L67.9549 132.77V132.815L67.9189 132.986C67.7821 133.688 67.3737 134.307 66.7832 134.707C65.1447 135.815 63.9328 137.163 63.4794 138.582C63.026 140.001 63.3178 141.714 64.2335 143.597L60.0992 145.922Z" fill="#6A5D4A"/>
<path d="M60.0648 102.87C61.6159 95.9653 64.4973 90.0432 67.6942 84.1257C70.9721 78.2935 74.7576 72.7585 79.0074 67.5844C96.1723 46.545 120.449 32.4439 147.302 27.9157L152.289 27.144C153.942 26.8389 155.614 26.6515 157.294 26.5832L167.358 26C174.05 26.2647 180.782 26.2198 187.383 27.2921C194.052 27.9067 200.549 29.5353 207.083 30.9171C210.334 31.6798 213.495 32.8373 216.701 33.7839C218.293 34.3043 219.916 34.7305 221.481 35.3272L226.129 37.2564C238.538 42.308 250.271 49.3203 260.277 58.3424C280.364 76.5565 293.068 101.447 295.998 128.33L295.583 127.285L295.614 127.339C295.95 127.852 296.073 128.474 295.958 129.075C295.842 129.677 295.498 130.21 294.996 130.564C294.493 130.918 293.873 131.065 293.265 130.974C292.656 130.882 292.107 130.561 291.732 130.075L291.691 130.026C291.503 129.787 291.375 129.507 291.317 129.209L291.272 128.976C290.052 122.743 288.416 116.598 286.375 110.582C285.23 107.621 284.211 104.62 282.872 101.748L280.964 97.4054L278.764 93.2017C272.825 82.0575 265.133 71.824 255.668 63.4479C246.204 55.0718 235.211 48.4903 223.442 43.7661L219.041 41.9716C217.558 41.4108 216.007 41.016 214.492 40.5269C211.434 39.6297 208.436 38.5529 205.329 37.8351C199.075 36.5385 192.862 35.0132 186.486 34.4569C180.173 33.3891 173.793 33.4295 167.43 33.1109L157.916 33.6269C156.331 33.6789 154.751 33.8483 153.191 34.1338L148.492 34.8382C135.985 36.8949 123.953 41.1792 112.974 47.4853C102.013 53.8655 92.2345 62.0724 84.0666 71.7477C79.9861 76.6029 76.2497 81.7342 72.8842 87.1047C69.6692 92.4883 66.5083 98.2444 64.7001 103.933L64.6506 104.086C64.4715 104.674 64.0691 105.17 63.5287 105.468C62.9883 105.766 62.3525 105.843 61.756 105.683C61.1596 105.522 60.6494 105.137 60.3337 104.608C60.018 104.08 59.9215 103.45 60.0648 102.852V102.87Z" fill="#6A5D4A"/>
<path d="M280.708 118.69C266.522 110.004 250.703 103.907 234.575 98.9583C218.375 94.1157 201.736 90.5938 184.98 87.8159C168.211 85.0953 151.352 82.9425 134.422 82.2733C117.558 81.6746 100.493 82.4098 84.428 86.4908H84.3607C83.6761 86.6488 82.9559 86.5417 82.3496 86.192C81.7433 85.8422 81.2975 85.2766 81.1047 84.6126C80.912 83.9486 80.9871 83.2372 81.3146 82.6261C81.642 82.0151 82.1967 81.5513 82.8632 81.3312C99.7938 76.1629 117.41 75.6918 134.646 76.1232C151.935 76.7484 169.094 78.7206 186.061 81.5514C203.014 84.4745 219.877 88.1241 236.4 93.1604C244.636 95.7314 252.833 98.5577 260.729 102.141C268.624 105.725 276.318 109.898 283.205 115.26C283.628 115.596 283.904 116.077 283.979 116.605C284.054 117.134 283.922 117.671 283.609 118.107C283.297 118.543 282.827 118.847 282.295 118.956C281.763 119.065 281.208 118.971 280.744 118.694L280.708 118.69Z" fill="#6A5D4A"/>
<path d="M162.47 202.157C161.662 203.419 160.611 203.755 159.568 204.113C158.526 204.472 157.493 204.863 156.437 205.175L158.871 200.494C159.383 202.008 159.781 203.559 160.165 205.115L160.712 207.444C160.9 208.316 160.818 209.228 160.478 210.047C160.315 210.44 160.081 210.795 159.787 211.092C159.494 211.388 159.148 211.621 158.77 211.777C158.391 211.933 157.987 212.008 157.581 211.999C157.174 211.99 156.774 211.897 156.402 211.724C156.272 211.664 156.147 211.596 156.026 211.519C155.303 211.053 154.742 210.352 154.427 209.521L153.601 207.267C153.076 205.758 152.568 204.244 152.166 202.688L152.122 202.521C152.002 202.055 151.97 201.57 152.028 201.092C152.086 200.614 152.233 200.152 152.46 199.734C152.688 199.316 152.991 198.949 153.353 198.654C153.714 198.359 154.127 198.143 154.569 198.016H154.599C155.66 197.723 156.737 197.499 157.811 197.267C158.884 197.034 159.948 196.75 161.251 197.402C161.984 197.774 162.548 198.437 162.821 199.245C163.094 200.053 163.054 200.942 162.709 201.719C162.639 201.871 162.56 202.017 162.47 202.157Z" fill="#6A5D4A"/>
<path d="M222.05 170.696C219.9 169.72 218.797 168.144 217.308 166.924C215.944 165.732 214.41 164.736 212.752 163.969C211.041 163.137 209.246 162.479 207.394 162.008C205.531 161.509 203.75 161.567 201.759 160.608L201.454 160.462C201.144 160.311 200.867 160.102 200.641 159.847C200.414 159.592 200.242 159.297 200.133 158.977C200.024 158.658 199.982 158.321 200.007 157.985C200.033 157.649 200.127 157.322 200.283 157.022C200.509 156.581 200.864 156.214 201.303 155.966C203.704 154.597 206.374 154.972 208.829 155.352C211.294 155.78 213.687 156.533 215.941 157.591C218.258 158.703 220.358 160.198 222.146 162.008C223.845 163.753 225.567 165.485 225.968 167.993C226.077 168.675 225.903 169.372 225.484 169.93C225.065 170.487 224.435 170.862 223.731 170.97C223.201 171.048 222.66 170.973 222.173 170.754L222.05 170.696Z" fill="#6A5D4A"/>
<path d="M116.392 149.003C117.784 146.799 120.104 145.828 122.425 144.838C124.841 143.813 127.422 143.204 130.054 143.039C132.6 142.907 135.153 143.112 137.642 143.651C140.101 144.231 142.747 144.892 144.464 147.096C144.753 147.472 144.933 147.916 144.985 148.382C145.036 148.848 144.957 149.319 144.756 149.745C144.554 150.171 144.238 150.537 143.841 150.804C143.443 151.071 142.978 151.229 142.496 151.262H142.148C139.883 151.415 138.24 150.668 136.291 150.429C134.359 150.166 132.405 150.097 130.458 150.222C128.59 150.314 126.746 150.665 124.982 151.266C123.088 151.837 121.413 152.903 118.995 152.998H118.847C118.122 153.026 117.415 152.774 116.882 152.298C116.348 151.821 116.032 151.159 116.002 150.456C115.983 149.946 116.118 149.441 116.392 149.003Z" fill="#6A5D4A"/>
<path d="M167.805 234.236C166.863 239.714 162.828 243.606 158.792 242.922C154.757 242.238 152.257 237.245 153.198 231.767C154.14 226.289 158.175 222.397 162.206 223.077C163.57 223.336 164.799 224.061 165.68 225.125C167.54 227.191 168.422 230.607 167.805 234.236Z" fill="#FEFFF5"/>
<path d="M166.284 224.21C168.513 225.98 169.608 228.69 169.923 231.293C170.177 233.923 169.799 236.577 168.824 239.025C167.821 241.675 166.034 243.94 163.714 245.503C162.348 246.389 160.783 246.901 159.168 246.99C157.463 247.073 155.772 246.648 154.298 245.767C151.421 243.935 150.05 241.086 149.415 238.456C148.825 235.848 148.864 233.133 149.529 230.545C150.212 228.027 151.342 225.523 153.379 223.57C154.432 222.544 155.701 221.778 157.088 221.33C158.56 220.863 160.14 220.892 161.594 221.415C162.037 221.587 162.417 221.894 162.683 222.295C162.948 222.696 163.086 223.171 163.078 223.655C163.07 224.139 162.916 224.609 162.637 225C162.358 225.391 161.968 225.685 161.52 225.841L160.815 226.083C159.637 226.486 158.861 227.163 157.955 228.202C157.008 229.347 156.344 230.708 156.019 232.171C155.677 233.67 155.694 235.231 156.067 236.722C156.418 238.12 157.206 239.226 157.894 239.576C158.581 239.925 159.177 240.024 160.149 239.5C161.278 238.739 162.155 237.646 162.663 236.364C163.88 233.457 163.674 230.092 162.807 227.301L162.649 226.791C162.501 226.307 162.507 225.788 162.667 225.308C162.827 224.828 163.132 224.413 163.538 224.123C163.945 223.833 164.431 223.682 164.926 223.694C165.422 223.706 165.9 223.879 166.293 224.188L166.284 224.21Z" fill="#6A5D4A"/>
<path d="M135.961 269.534C136.141 270.333 137.576 275.999 134.975 282.016C134.102 283.957 132.902 285.738 131.424 287.283C123.616 295.563 117.023 287.949 117.023 287.949C117.023 287.949 107.509 289.985 99.4711 289.054C98.7061 290.607 83.9581 322.612 83.9581 322.612C83.337 324.218 82.4062 325.69 81.2173 326.947L81.1724 326.991C79.5323 328.76 77.461 330.085 75.1552 330.843L73.8051 331.286C70.9873 332.205 67.9496 332.238 65.1124 331.379C62.2752 330.52 59.7788 328.814 57.9689 326.494C56.1591 324.175 55.1253 321.359 55.0107 318.435C54.896 315.511 55.7062 312.624 57.329 310.174L88.2425 270.821C90.7133 269.49 114.102 254 114.102 254L141.847 258.118C141.847 258.118 156.249 270.098 153.697 273.741H153.652C153.655 273.765 153.652 273.789 153.645 273.812C153.637 273.835 153.624 273.857 153.607 273.874C148.845 279.611 136.861 270.182 135.961 269.534Z" fill="#FCECDD"/>
<path d="M155.982 273.357C155.997 274.067 155.756 274.758 155.304 275.3L155.474 275.114C155.229 275.759 154.89 276.362 154.467 276.904C153.972 277.412 153.404 277.841 152.783 278.177C151.587 278.711 150.296 278.991 148.99 279C146.854 278.976 144.744 278.526 142.78 277.675C141.055 276.926 139.41 276.001 137.87 274.914C136.41 273.85 134.749 272.911 134.131 270.917V270.856C133.902 270.104 133.975 269.29 134.336 268.593C134.696 267.896 135.313 267.373 136.053 267.137C136.375 267.034 136.713 266.988 137.051 267.003C139.092 267.086 140.185 268.109 141.585 268.862C142.882 269.595 144.22 270.249 145.594 270.819C146.717 271.33 147.902 271.685 149.118 271.874C149.328 271.874 149.575 271.921 149.763 271.902C149.925 271.865 150.091 271.851 150.257 271.86C150.371 271.795 150.55 271.86 150.765 271.883C151.04 271.862 151.316 271.873 151.589 271.916H151.831C151.847 271.917 151.863 271.915 151.878 271.91C151.892 271.905 151.906 271.898 151.918 271.887C151.93 271.877 151.94 271.864 151.947 271.85C151.954 271.836 151.958 271.82 151.959 271.804C151.961 271.773 151.95 271.741 151.93 271.717C151.909 271.693 151.881 271.678 151.85 271.674C151.833 271.672 151.816 271.674 151.8 271.68C151.784 271.685 151.77 271.695 151.758 271.707C151.55 271.927 151.39 272.19 151.288 272.477C151.187 272.765 151.146 273.071 151.168 273.375C151.168 272.725 151.422 272.1 151.875 271.64C152.329 271.18 152.943 270.921 153.584 270.921C154.225 270.921 154.839 271.18 155.292 271.64C155.745 272.1 156 272.725 156 273.375L155.982 273.357Z" fill="#6A5D4A"/>
<path d="M137.575 267.927L137.624 268.017C137.673 268.099 137.711 268.187 137.737 268.278L137.822 268.566C138.734 271.806 138.928 275.206 138.389 278.528C138.108 280.245 137.611 281.918 136.909 283.509C136.201 285.087 135.31 286.576 134.255 287.946C133.726 288.637 133.147 289.288 132.523 289.894C131.909 290.562 131.229 291.165 130.494 291.694C128.918 292.92 127.063 293.736 125.095 294.07C123.019 294.4 120.892 294.147 118.95 293.341C117.085 292.575 115.411 291.409 114.046 289.926L117.281 291.015C115.679 291.361 114.222 291.622 112.683 291.834C111.145 292.045 109.633 292.212 108.09 292.333C104.946 292.604 101.783 292.582 98.6425 292.266L102.102 290.371L93.2216 310.003L88.7768 319.817L86.5679 324.767C85.6842 326.855 84.3952 328.746 82.7755 330.333C81.1822 331.93 79.2997 333.21 77.2285 334.103C76.7247 334.328 76.1309 334.553 75.681 334.684L74.3763 335.134C73.3018 335.478 72.198 335.722 71.0788 335.863C67.6984 336.284 64.2679 335.73 61.1917 334.266C58.1156 332.802 55.522 330.49 53.7164 327.6C51.9109 324.711 50.9686 321.366 51.0008 317.959C51.033 314.551 52.0382 311.225 53.898 308.37L54.0645 308.136L85.0698 268.309C85.331 267.971 85.653 267.684 86.0191 267.464L86.1496 267.387C87.9896 266.289 90.3424 264.732 92.4478 263.373L98.9035 259.126L111.783 250.576L111.815 250.554C112.51 250.094 113.353 249.911 114.177 250.041L128.028 252.214C132.644 252.984 137.264 253.677 141.867 254.5L142.06 254.536C142.563 254.624 143.031 254.854 143.41 255.197C146.055 257.575 148.559 260.105 150.909 262.775C152.117 264.179 153.223 265.668 154.22 267.23C154.782 268.119 155.247 269.066 155.606 270.055C155.826 270.693 155.958 271.357 155.997 272.031C156.032 273.002 155.756 273.958 155.21 274.762C155.041 275.038 154.818 275.276 154.554 275.462C154.29 275.648 153.991 275.779 153.675 275.845C153.359 275.912 153.032 275.914 152.715 275.85C152.399 275.786 152.098 275.658 151.833 275.474C151.567 275.29 151.342 275.054 151.17 274.78C150.999 274.506 150.886 274.2 150.837 273.881C150.788 273.562 150.804 273.236 150.886 272.923C150.967 272.61 151.111 272.317 151.309 272.062C151.143 272.229 151.13 272.391 151.116 272.341C151.055 272.166 150.984 271.995 150.905 271.828C150.611 271.233 150.263 270.667 149.865 270.136C148.899 268.883 147.847 267.698 146.716 266.591C144.405 264.234 141.96 262.014 139.392 259.94L140.926 260.633C136.288 260.066 131.663 259.369 127.03 258.743L113.151 256.745L115.544 256.21L102.678 264.858L96.2177 269.097C93.9684 270.555 92.0564 271.887 89.4696 273.439L90.5493 272.539L59.7508 312.523L59.9264 312.276C58.4534 314.583 57.8936 317.357 58.3563 320.056C58.8288 322.75 60.3267 325.156 62.5355 326.769C64.7291 328.405 67.4661 329.138 70.1834 328.816C70.8559 328.734 71.5199 328.593 72.1674 328.393L73.4361 327.979C73.841 327.84 74.1019 327.754 74.4258 327.615C75.6783 327.074 76.8182 326.304 77.7864 325.343C78.7657 324.407 79.546 323.284 80.0807 322.04L82.33 317.09L86.8738 307.191L95.9568 287.393C96.2467 286.761 96.7283 286.236 97.3332 285.894C97.9381 285.551 98.6355 285.408 99.3263 285.485H99.4164C102.13 285.764 104.863 285.792 107.582 285.57C108.973 285.465 110.366 285.315 111.761 285.12C113.111 284.931 114.586 284.72 115.859 284.472C116.447 284.359 117.054 284.4 117.622 284.591C118.189 284.781 118.698 285.116 119.098 285.561C119.772 286.281 120.58 286.86 121.478 287.267C122.298 287.642 123.206 287.781 124.101 287.667C125.838 287.537 127.812 285.917 129.531 284.067C130.358 283.104 131.069 282.046 131.65 280.918C132.206 279.791 132.636 278.606 132.932 277.385C133.549 274.815 133.633 272.146 133.179 269.542L133.377 270.091L133.337 270.001C133.101 269.444 133.086 268.818 133.295 268.25C133.504 267.682 133.921 267.215 134.462 266.944C135.003 266.673 135.627 266.618 136.207 266.791C136.786 266.963 137.279 267.35 137.584 267.873L137.575 267.927Z" fill="#6A5D4A"/>
</svg>
