<svg width="251" height="237" viewBox="0 0 251 237" fill="none" xmlns="http://www.w3.org/2000/svg">
<path fill-rule="evenodd" clip-rule="evenodd" d="M119.606 209.556C115.196 207.333 110.051 191.494 109.683 186.77C107.11 187.974 102.296 190.271 103.619 189.826C105.273 189.27 111.613 206.499 112.44 212.613C112.63 214.022 112.129 215.616 111.496 217.63C110.81 219.811 109.97 222.485 109.683 225.951C109.47 228.529 110.328 228.159 112.289 227.312C113.432 226.819 114.95 226.163 116.85 225.836C115.968 224.188 117.585 220.409 118.504 218.726C121.15 218.504 123.035 223.45 123.31 225.836C125.67 226.229 129.926 226.507 132.682 227.896C131.399 222.339 129.031 220.949 129.609 219.004C126.144 217.67 125.54 215.484 125.67 214.558C127.214 212.557 130.741 214.65 132.311 215.947C132.871 215.661 133.5 215.401 134.191 215.115C135.105 214.736 136.129 214.312 137.248 213.724C134.191 210.668 127.326 210.109 122.532 209.795C121.327 209.716 120.307 209.649 119.606 209.556Z" fill="#59563A"/>
<path d="M125.67 214.558C127.214 212.557 130.741 214.65 132.311 215.947C131.009 216.612 130.081 217.415 129.609 219.004C126.144 217.67 125.54 215.484 125.67 214.558Z" fill="#48452F"/>
<path d="M118.504 218.726C121.15 218.504 123.035 223.45 123.31 225.836C121.381 225.515 118.493 225.553 116.85 225.836C115.968 224.188 117.585 220.409 118.504 218.726Z" fill="#48452F"/>
<path fill-rule="evenodd" clip-rule="evenodd" d="M110.103 185.855L109.167 186.299C107.882 186.906 106.036 187.791 104.673 188.469C103.997 188.805 103.423 189.099 103.099 189.283C103.018 189.329 102.941 189.375 102.878 189.417C102.847 189.437 102.807 189.465 102.767 189.498C102.748 189.514 102.717 189.54 102.685 189.574C102.662 189.6 102.593 189.674 102.542 189.79C102.49 189.909 102.398 190.227 102.621 190.533C102.8 190.777 103.049 190.815 103.102 190.823C103.236 190.843 103.352 190.819 103.379 190.814L103.382 190.813C103.401 190.809 103.421 190.805 103.441 190.799C103.497 190.853 103.575 190.939 103.673 191.067C103.965 191.446 104.326 192.055 104.738 192.866C105.558 194.477 106.518 196.759 107.459 199.269C109.346 204.306 111.107 210.122 111.507 213.115C111.671 214.337 111.243 215.765 110.593 217.854L110.589 217.867C109.905 220.067 109.047 222.827 108.754 226.403C108.7 227.071 108.703 227.637 108.816 228.079C108.938 228.559 109.223 228.993 109.759 229.148C110.195 229.274 110.658 229.163 111.025 229.044C111.41 228.919 111.856 228.724 112.324 228.52L112.35 228.508C113.489 228.011 114.935 227.383 116.738 227.069C118.299 226.797 121.099 226.759 122.943 227.069C123.47 227.158 124.088 227.241 124.746 227.329C124.841 227.342 124.937 227.354 125.033 227.367C125.804 227.471 126.63 227.586 127.465 227.731C129.148 228.022 130.81 228.429 132.087 229.079L133.452 229.775L133.106 228.26C132.445 225.364 131.499 223.546 130.812 222.233C130.462 221.565 130.216 221.093 130.079 220.671C129.953 220.28 129.938 219.982 130.029 219.67C130.426 218.319 131.176 217.642 132.361 217.03C132.889 216.758 133.488 216.507 134.185 216.215L134.193 216.212C135.102 215.831 136.148 215.393 137.292 214.785L138.163 214.322L137.466 213.618C135.787 211.921 133.137 210.975 130.417 210.404C127.672 209.826 124.719 209.604 122.33 209.446C121.192 209.371 120.25 209.308 119.585 209.226C118.709 208.728 117.691 207.503 116.631 205.695C115.553 203.854 114.504 201.539 113.573 199.126C111.702 194.278 110.359 189.176 110.184 186.904L110.103 185.855ZM103.352 190.728C103.352 190.728 103.354 190.729 103.358 190.731C103.354 190.729 103.352 190.728 103.352 190.728ZM108.877 188.049C109.296 190.789 110.582 195.37 112.238 199.661C113.185 202.116 114.267 204.511 115.4 206.444C116.51 208.339 117.745 209.926 119.045 210.588L119.153 210.643L119.272 210.659C119.995 210.756 121.03 210.825 122.209 210.903L122.237 210.905C124.629 211.063 127.491 211.281 130.127 211.835C132.324 212.297 134.274 212.975 135.658 213.977C134.944 214.317 134.273 214.598 133.64 214.863L133.623 214.87C133.102 215.088 132.598 215.299 132.128 215.522C131.302 214.886 130.135 214.151 128.946 213.739C127.613 213.277 125.918 213.127 124.848 214.529L124.731 214.682L124.704 214.874C124.524 216.161 125.315 218.458 128.54 219.914C128.517 220.333 128.589 220.734 128.717 221.13C128.895 221.677 129.195 222.251 129.512 222.855L129.546 222.921C130.091 223.962 130.773 225.272 131.341 227.185C130.182 226.776 128.914 226.499 127.706 226.289C126.842 226.14 125.994 226.022 125.221 225.918C125.123 225.905 125.027 225.892 124.932 225.879C124.484 225.819 124.068 225.764 123.69 225.708C123.466 224.449 122.937 222.808 122.176 221.421C121.735 220.618 121.194 219.859 120.552 219.308C119.906 218.753 119.112 218.375 118.207 218.451L117.823 218.484L117.638 218.827C117.162 219.709 116.507 221.133 116.082 222.565C115.869 223.281 115.706 224.024 115.659 224.715C115.635 225.072 115.64 225.437 115.695 225.79C114.088 226.16 112.781 226.73 111.799 227.158L111.785 227.165C111.285 227.383 110.901 227.55 110.589 227.651C110.393 227.715 110.276 227.735 110.212 227.741C110.21 227.732 110.207 227.722 110.204 227.711C110.155 227.519 110.132 227.157 110.184 226.525C110.462 223.119 111.278 220.491 111.96 218.296C111.974 218.254 111.987 218.212 112 218.17C112.598 216.246 113.141 214.503 112.929 212.918C112.504 209.747 110.691 203.797 108.799 198.748C107.849 196.215 106.868 193.874 106.012 192.193C105.587 191.358 105.177 190.654 104.804 190.167C104.779 190.134 104.754 190.102 104.728 190.071C104.905 189.981 105.097 189.885 105.302 189.783C106.362 189.255 107.722 188.6 108.877 188.049ZM117.109 225.538C117.079 225.339 117.071 225.099 117.09 224.816C117.127 224.273 117.259 223.645 117.454 222.989C117.786 221.872 118.278 220.742 118.689 219.928C118.991 219.985 119.303 220.147 119.628 220.426C120.09 220.822 120.531 221.418 120.924 222.135C121.515 223.212 121.949 224.469 122.183 225.497C120.533 225.333 118.551 225.362 117.109 225.538ZM128.931 218.489C126.603 217.377 126.142 215.91 126.117 215.272C126.604 214.796 127.392 214.745 128.485 215.123C129.27 215.395 130.073 215.85 130.739 216.307C129.98 216.84 129.359 217.515 128.931 218.489Z" fill="#59563A"/>
<path fill-rule="evenodd" clip-rule="evenodd" d="M71.3292 208.878C70.2793 204.054 76.8622 196.391 80.2848 193.162C77.7382 191.907 72.9387 189.584 74.1133 190.338C75.5815 191.282 68.6741 200.741 64.4654 205.194C63.2775 206.45 61.7846 207.089 59.3076 208.148C57.5723 208.891 55.3539 209.839 52.4191 211.352C49.6612 212.774 50.3284 213.094 52.3101 214.048C53.265 214.507 54.5253 215.113 55.8546 216.06C58.9186 213.264 61.8601 213.649 62.9551 214.196C64.4294 216.513 61.8344 219.349 60.1551 220.643C61.5821 222.935 62.7404 226.011 63.231 230.2C66.3133 226.277 68.3849 224.112 70.0314 223.075C68.431 219.256 70.1505 217.407 71.2331 216.955C73.7483 217.165 74.3065 220.708 74.2777 222.719C74.8725 222.973 75.4969 223.32 76.1978 223.709C77.0512 224.182 78.0179 224.719 79.1822 225.228C80.2035 221.574 75.7482 215.24 72.9814 211.307C72.2862 210.319 71.6975 209.482 71.3292 208.878Z" fill="#59563A"/>
<path d="M74.2777 222.719C72.8974 222.13 71.6767 222.039 70.0314 223.075C68.431 219.256 70.1505 217.407 71.2331 216.955C73.7483 217.165 74.3065 220.708 74.2777 222.719Z" fill="#48452F"/>
<path d="M60.1551 220.643C58.845 218.538 57.3085 217.095 55.8546 216.06C58.9186 213.264 61.8601 213.649 62.9551 214.196C64.4294 216.513 61.8344 219.349 60.1551 220.643Z" fill="#48452F"/>
<path fill-rule="evenodd" clip-rule="evenodd" d="M81.5325 192.978L80.6031 192.519C79.3283 191.891 77.4869 190.994 76.1093 190.347C75.4255 190.026 74.8391 189.759 74.4938 189.62C74.4075 189.585 74.3238 189.553 74.252 189.529C74.2174 189.518 74.1708 189.504 74.1204 189.493C74.0955 189.488 74.0565 189.48 74.0098 189.476C73.9756 189.473 73.875 189.466 73.7538 189.498C73.6302 189.53 73.3282 189.655 73.2344 190.018C73.1594 190.309 73.287 190.527 73.3142 190.573C73.3837 190.691 73.4751 190.767 73.4958 190.784L73.4981 190.786C73.5273 190.81 73.5598 190.835 73.5935 190.859C73.5915 190.884 73.5879 190.916 73.5817 190.955C73.5409 191.213 73.4086 191.605 73.1643 192.13C72.6821 193.166 71.8505 194.539 70.823 196.048C68.7724 199.059 66.017 202.507 63.9421 204.702C62.8774 205.828 61.5408 206.413 59.0244 207.489L59.0226 207.49C57.2843 208.233 55.0469 209.19 52.0892 210.715C51.3935 211.073 50.8581 211.39 50.4994 211.688C50.179 211.955 49.7667 212.401 49.8793 213.009C49.9313 213.29 50.0833 213.503 50.229 213.654C50.3742 213.804 50.5496 213.93 50.7216 214.037C51.0538 214.245 51.4968 214.458 51.9659 214.684L51.9979 214.699C52.9522 215.158 54.1626 215.741 55.4369 216.649C56.8258 217.638 58.2915 219.014 59.5439 221.026C60.908 223.217 62.0361 226.19 62.5159 230.287L62.7189 232.02L63.797 230.648C66.8832 226.72 68.8866 224.649 70.415 223.687C71.1594 223.218 71.7572 223.035 72.2888 223.009C72.8244 222.983 73.3616 223.113 73.9949 223.384C74.5487 223.62 75.1387 223.947 75.8483 224.341L75.8561 224.345C76.7068 224.817 77.6982 225.368 78.8939 225.89L79.6526 226.221L79.8754 225.424C80.1799 224.335 80.0621 223.109 79.728 221.878C79.3917 220.639 78.8185 219.33 78.1394 218.04C76.7857 215.467 74.9586 212.869 73.5812 210.911L73.5701 210.896C72.9103 209.958 72.3654 209.182 72.0093 208.612C71.8237 207.614 72.0004 206.419 72.4813 205.089C72.978 203.714 73.7769 202.256 74.7293 200.823C76.6344 197.957 79.097 195.275 80.7787 193.689L81.5325 192.978ZM73.5925 190.775C73.592 190.776 73.5923 190.782 73.5952 190.792C73.5944 190.78 73.593 190.775 73.5925 190.775ZM79.0503 193.361C77.3784 195.029 75.2442 197.447 73.5302 200.026C72.5403 201.516 71.6764 203.079 71.1272 204.599C70.5807 206.111 70.3229 207.642 70.6257 209.033L70.6514 209.151L70.7143 209.255C71.0951 209.88 71.6942 210.731 72.3763 211.701L72.3925 211.724C73.7807 213.697 75.5584 216.226 76.8652 218.71C77.518 219.951 78.0401 221.156 78.3384 222.255C78.5318 222.968 78.624 223.61 78.6101 224.174C77.8487 223.804 77.1749 223.43 76.5471 223.082L76.5254 223.07C75.9972 222.777 75.4882 222.494 74.9941 222.257C74.9666 221.255 74.8057 220.003 74.3806 218.904C73.888 217.632 72.9538 216.379 71.2928 216.241L71.118 216.226L70.9561 216.294C70.2373 216.593 69.3872 217.315 68.9501 218.507C68.5489 219.601 68.5174 221.028 69.1526 222.804C67.6979 223.853 65.9758 225.651 63.7073 228.451C63.1697 225.293 62.2341 222.797 61.0921 220.81C61.8761 220.135 62.7553 219.208 63.36 218.167C64.0944 216.904 64.5097 215.301 63.5624 213.812L63.4553 213.644L63.2769 213.555C61.9677 212.9 58.9307 212.571 55.8035 215.153C54.5994 214.352 53.478 213.813 52.6321 213.406L52.622 213.401C52.1121 213.156 51.7412 212.977 51.4847 212.816C51.4665 212.805 51.4496 212.794 51.4339 212.784C51.6664 212.594 52.0789 212.34 52.7489 211.995C55.6597 210.494 57.8585 209.554 59.5906 208.813L59.7013 208.766C62.0783 207.749 63.6974 207.057 64.9885 205.691C67.1224 203.433 69.925 199.925 72.0132 196.858C73.0552 195.327 73.9382 193.88 74.4696 192.738C74.691 192.262 74.8674 191.806 74.9607 191.401C75.1278 191.478 75.3076 191.562 75.4977 191.651C76.5606 192.149 77.9062 192.801 79.0503 193.361ZM51.2718 212.943C51.2722 212.943 51.2745 212.94 51.2777 212.934C51.2731 212.94 51.2715 212.943 51.2718 212.943ZM57.011 216.033C59.4106 214.202 61.5515 214.42 62.4492 214.763C62.8518 215.551 62.6863 216.461 62.1152 217.444C61.6504 218.244 60.9659 218.993 60.3147 219.576C59.2798 218.077 58.1359 216.929 57.011 216.033ZM70.4153 222.045C69.9718 220.662 70.0562 219.673 70.302 219.002C70.5556 218.311 71.0021 217.897 71.3534 217.699C72.113 217.838 72.6591 218.446 73.0379 219.424C73.3125 220.133 73.4599 220.953 73.5221 221.704C73.1023 221.601 72.6706 221.549 72.2189 221.571C71.6256 221.6 71.0322 221.754 70.4153 222.045Z" fill="#59563A"/>
<path d="M167.339 41.8226C147.536 19.0594 94.7891 37.4109 118.789 86.491C120.742 90.4854 108.03 105.516 102.789 104.689C82.3472 101.463 65.5485 115.718 50.1006 116.546C37.6871 116.546 30.7907 108.825 13.9636 108.825C-2.86363 108.825 0.998352 117.924 13.9636 127.023C1.38454 136.067 17.3658 146.692 23.8943 149.358C15.5083 159.284 20.8599 170.022 31.6183 171.14C67.4795 204.228 120.579 200.092 132.581 158.457C158.622 175.221 200.993 167.005 190.787 146.325C210.924 147.979 226.924 130.332 205.959 119.579C226.096 111.031 211.752 95.7026 197.959 99.4504C169.546 107.171 177.546 116.27 134.512 116.27C134.512 101.381 135.248 98.6401 148.857 96.1416C189.407 88.6969 178.373 54.5063 167.339 41.8226Z" fill="url(#paint0_linear_2577_7456)"/>
<path fill-rule="evenodd" clip-rule="evenodd" d="M116.378 87.4922C110.232 74.9685 108.889 64.1698 110.904 55.3527C112.925 46.5092 118.275 39.8859 125.058 35.6876C138.463 27.3907 157.845 28.4134 168.581 40.6909C174.381 47.3236 180.212 59.5481 179.219 71.2904C178.716 77.2387 176.453 83.0872 171.539 87.9273C166.646 92.7462 159.282 96.4118 148.836 98.3197C141.919 99.5832 139.277 100.799 137.96 102.785C137.282 103.807 136.823 105.236 136.559 107.466C136.348 109.249 136.274 111.409 136.253 114.097C156.055 113.948 164.112 111.747 170.418 108.814C172.154 108.007 173.82 107.106 175.596 106.145C180.562 103.459 186.391 100.305 197.039 97.4269C204.742 95.3446 212.813 98.4741 216.178 103.787C217.928 106.549 218.394 109.932 216.75 113.25C215.564 115.646 213.367 117.83 210.132 119.712C213.624 122.088 215.901 124.801 216.965 127.733C218.382 131.638 217.498 135.514 215.221 138.739C211.243 144.375 202.924 148.294 193.609 148.443C194.096 150.187 194.251 151.891 194.074 153.537C193.788 156.186 192.658 158.53 190.935 160.519C187.543 164.435 181.845 167.013 175.326 168.325C163.006 170.805 146.582 169.003 133.386 161.531C126.518 181.516 110.015 192.551 90.8024 194.638C71.0189 196.787 48.3877 189.477 30.1179 172.956C24.4007 172.144 19.9073 168.848 18.0092 164.151C16.2843 159.883 16.8481 154.834 20.0195 150.035C16.615 148.266 12.2929 145.344 9.49124 141.799C7.70082 139.533 6.33501 136.761 6.55887 133.712C6.73325 131.336 7.84555 129.11 9.89781 127.084C7.54378 125.293 5.52452 123.495 3.94226 121.748C1.92694 119.524 0.400803 117.146 0.0677795 114.804C-0.106705 113.577 0.0441589 112.329 0.657333 111.178C1.26436 110.039 2.23427 109.164 3.41516 108.515C5.70421 107.257 9.06793 106.689 13.3934 106.689C22.1906 106.689 28.4074 108.71 33.8707 110.661C34.2658 110.802 34.6555 110.942 35.0409 111.08C39.9817 112.855 44.1934 114.368 49.5151 114.379C53.0699 114.182 56.782 113.216 60.7571 111.852C63.2577 110.994 65.7527 110.02 68.3477 109.008C69.9559 108.38 71.6026 107.737 73.3127 107.098C82.0756 103.822 91.8441 100.898 102.661 102.596C102.777 102.614 103.131 102.61 103.792 102.346C104.429 102.091 105.196 101.658 106.059 101.045C107.783 99.8203 109.68 98.0301 111.398 96.0522C113.117 94.0727 114.577 91.9972 115.476 90.2431C115.928 89.3619 116.2 88.6368 116.317 88.0947C116.402 87.7037 116.382 87.5274 116.378 87.4922ZM134.655 157.29C136.304 150.76 137.008 142.544 137.171 135.093C137.313 128.572 137.044 122.465 136.574 118.393C156.488 118.224 165.191 115.991 172.25 112.709C174.266 111.771 176.08 110.79 177.945 109.78C182.822 107.141 188.052 104.311 198.173 101.576C204.279 99.9249 210.293 102.563 212.52 106.079C213.567 107.732 213.774 109.529 212.872 111.351C211.917 113.278 209.56 115.549 204.77 117.571L200.52 119.366L204.628 121.462C209.601 124 212.017 126.762 212.899 129.192C213.752 131.545 213.307 133.968 211.682 136.27C208.331 141.018 200.128 144.826 190.602 144.048L186.798 143.737L188.487 147.141C189.619 149.423 189.956 151.396 189.775 153.079C189.595 154.755 188.884 156.3 187.659 157.713C185.156 160.603 180.536 162.89 174.468 164.111C162.8 166.46 146.993 164.622 134.655 157.29ZM127.343 39.3375C139.292 31.9417 156.228 33.1162 165.318 43.5119C170.566 49.5127 175.782 60.6325 174.911 70.9301C174.482 76.0017 172.584 80.847 168.497 84.8727C164.388 88.9195 157.909 92.2915 148.055 94.0913C141.347 95.3165 136.809 96.7099 134.351 100.419C133.141 102.243 132.565 104.433 132.265 106.964C131.966 109.488 131.923 112.561 131.923 116.254V116.448L131.958 116.639C132.564 119.956 133.022 127.055 132.848 135C132.675 142.942 131.874 151.465 130.074 157.679C124.336 177.482 108.845 188.354 90.333 190.364C71.7417 192.384 50.0804 185.433 32.5352 169.328L32.0072 168.843L31.2926 168.77C26.5838 168.283 23.3154 165.752 22.0206 162.548C20.7403 159.38 21.198 155.06 24.9875 150.598L26.9057 148.339L24.1533 147.221C21.0874 145.976 15.8215 142.851 12.8905 139.142C11.4382 137.305 10.7568 135.576 10.8707 134.025C10.9788 132.552 11.8456 130.72 14.6557 128.71L17.125 126.944L14.6356 125.206C11.4754 122.999 8.93669 120.838 7.15414 118.871C5.32018 116.846 4.49878 115.259 4.34848 114.202C4.28133 113.73 4.35484 113.421 4.47743 113.191C4.60619 112.949 4.88341 112.62 5.5063 112.278C6.82487 111.553 9.29546 110.989 13.3934 110.989C21.4433 110.989 27.1023 112.812 32.41 114.707C32.8279 114.856 33.2453 115.007 33.663 115.157C38.5335 116.912 43.436 118.678 49.5731 118.678H49.631L49.6887 118.675C53.8495 118.454 58.0209 117.339 62.1671 115.916C64.7319 115.036 67.3969 113.997 70.0695 112.955C71.6615 112.334 73.2563 111.712 74.8341 111.122C83.4635 107.896 92.3371 105.328 101.986 106.843C103.181 107.03 104.374 106.747 105.405 106.335C106.461 105.913 107.534 105.28 108.572 104.543C110.648 103.068 112.794 101.022 114.67 98.8622C116.544 96.7045 118.227 94.3426 119.328 92.1962C119.876 91.1273 120.319 90.0364 120.543 89.0014C120.758 88.0124 120.838 86.7765 120.284 85.6492C114.435 73.749 113.374 63.9458 115.12 56.3055C116.862 48.6811 121.449 42.9855 127.343 39.3375Z" fill="#746049"/>
<path fill-rule="evenodd" clip-rule="evenodd" d="M180.846 120.4C179.643 120.108 178.1 119.976 176.39 119.976V122.905C177.987 122.905 179.283 123.032 180.181 123.25C180.4 123.303 180.581 123.358 180.728 123.411C180.654 123.477 180.565 123.55 180.459 123.631C179.652 124.245 178.194 125.034 175.861 125.974L174.19 126.646L175.201 128.16C175.492 128.595 175.785 129.236 175.948 129.93C176.112 130.63 176.116 131.267 175.963 131.757C175.827 132.193 175.55 132.587 174.941 132.87C174.28 133.179 173.153 133.387 171.312 133.179L169.329 132.954L169.747 134.942C169.836 135.362 169.948 135.812 170.056 136.245C170.083 136.352 170.11 136.459 170.135 136.563C170.27 137.108 170.396 137.64 170.487 138.169C170.673 139.239 170.697 140.172 170.449 140.976C170.017 142.379 168.453 144.205 162.431 144.972L162.788 147.879C169.113 147.074 172.234 144.97 173.194 141.853C173.642 140.397 173.539 138.923 173.32 137.659C173.231 137.149 173.12 136.652 173.008 136.189C174.23 136.157 175.272 135.938 176.138 135.534C177.5 134.899 178.328 133.851 178.705 132.642C179.064 131.488 178.986 130.278 178.746 129.25C178.651 128.847 178.528 128.453 178.383 128.08C180.047 127.342 181.306 126.643 182.181 125.977C182.734 125.556 183.223 125.082 183.539 124.538C183.874 123.96 184.052 123.22 183.776 122.453C183.523 121.748 182.983 121.303 182.51 121.027C182.023 120.744 181.445 120.545 180.846 120.4ZM181.177 123.635C181.177 123.635 181.176 123.634 181.172 123.63C181.175 123.634 181.177 123.635 181.177 123.635ZM63.2322 124.148C63.5725 123.508 64.0648 122.962 64.5215 122.618L62.8094 120.263C62.0258 120.855 61.2504 121.724 60.7036 122.751C60.1557 123.781 59.791 125.061 59.9898 126.428C60.3592 128.967 62.4757 130.992 66.5333 132.231C66.051 133.3 65.6213 134.463 65.3229 135.64C64.8662 137.439 64.6732 139.439 65.241 141.204C65.8464 143.086 67.259 144.513 69.5636 145.115C71.7629 145.69 74.7359 145.511 78.6358 144.474L77.9098 141.639C74.2028 142.624 71.7876 142.672 70.2783 142.278C68.8742 141.911 68.2577 141.173 67.9742 140.292C67.6532 139.294 67.7116 137.933 68.1076 136.373C68.4963 134.841 69.1689 133.279 69.8816 131.981L70.8295 130.255L68.9319 129.835C64.0185 128.747 62.9796 126.993 62.8349 125.998C62.7512 125.423 62.893 124.785 63.2322 124.148ZM39.197 126.215C39.6468 125.682 40.2512 125.262 40.7799 125.043L39.6973 122.329C38.756 122.719 37.7711 123.41 37.0151 124.307C36.2595 125.203 35.6384 126.423 35.687 127.843C35.7368 129.304 36.4841 130.677 37.8864 131.856C38.8776 132.69 40.2264 133.457 41.9872 134.146C41.5465 134.653 41.13 135.19 40.7657 135.742C39.9756 136.94 39.2844 138.431 39.3971 139.946C39.5246 141.659 40.6258 142.953 42.4567 143.697C43.6248 144.172 45.149 144.457 47.0751 144.542C45.9032 146.638 45.4447 149.294 46.5431 151.755C48.2321 155.54 53.1369 157.889 62.0836 157.434L61.94 154.508C53.2476 154.95 50.0679 152.574 49.1615 150.543C48.2156 148.423 49.2481 145.653 51.0501 144.208L54.5865 141.372L50.091 141.594C46.7439 141.759 44.6951 141.452 43.5223 140.976C42.4352 140.534 42.2893 140.049 42.2652 139.725C42.2263 139.203 42.4791 138.398 43.1531 137.376C43.7979 136.398 44.6983 135.419 45.599 134.611L47.5551 132.856L45.0541 132.107C42.3397 131.293 40.6795 130.406 39.7175 129.597C38.7795 128.808 38.5759 128.163 38.5614 127.741C38.5457 127.278 38.7468 126.749 39.197 126.215ZM156.412 126.388C156.227 126.277 156.075 126.187 155.936 126.097L154.4 128.574C154.585 128.693 154.8 128.821 154.999 128.94C155.063 128.978 155.124 129.014 155.183 129.05C155.446 129.207 155.694 129.361 155.922 129.522C156.409 129.866 156.659 130.143 156.757 130.353C156.805 130.456 156.878 130.636 156.651 131.077C156.382 131.599 155.728 132.389 154.312 133.458L153.323 134.204L153.894 135.315C155.377 138.198 155.15 139.413 154.771 139.96C154.549 140.281 154.129 140.617 153.359 140.918C152.589 141.218 151.575 141.442 150.304 141.603L150.661 144.51C152.036 144.335 153.309 144.075 154.388 143.654C155.466 143.233 156.455 142.612 157.122 141.648C158.348 139.876 158.092 137.615 156.968 135.055C158.017 134.156 158.758 133.293 159.198 132.437C159.802 131.265 159.83 130.111 159.353 129.091C158.925 128.178 158.168 127.543 157.56 127.114C157.242 126.89 156.921 126.692 156.643 126.526C156.56 126.476 156.484 126.43 156.412 126.388Z" fill="#B69D80"/>
<path fill-rule="evenodd" clip-rule="evenodd" d="M70.8392 162.735C60.7175 168.558 47.6482 170.722 31.5591 169.041L31.1095 173.384C47.7884 175.127 61.8498 172.939 72.9995 166.525C84.1832 160.091 92.1877 149.549 96.9883 135.082L92.8644 133.701C88.3344 147.352 80.9269 156.932 70.8392 162.735Z" fill="#746049"/>
<path d="M194.414 78.9838C193.21 77.3731 184.714 68.1556 177.009 62.332C173.528 68.4468 167.218 68.7016 164.499 68.0646C165.858 74.3432 164.589 78.2559 162.867 81.7136C170.482 88.9203 185.258 93.0878 192.238 94.8167C206.108 98.252 196.046 81.1677 194.414 78.9838Z" fill="#BAB162"/>
<path fill-rule="evenodd" clip-rule="evenodd" d="M176.518 59.5869L175.298 61.7028C172.402 66.7235 167.161 66.9529 164.935 66.4381L161.596 65.6664L162.325 68.9853C163.58 74.7059 162.432 78.1357 160.843 81.2858L160.122 82.7134L161.294 83.8084C165.477 87.7156 171.488 90.694 177.188 92.8953C182.932 95.1132 188.572 96.6205 192.166 97.499C195.831 98.3952 199.006 98.248 200.87 96.0884C201.764 95.0521 202.111 93.7955 202.192 92.6211C202.272 91.4517 202.099 90.2301 201.818 89.0741C201.257 86.7636 200.173 84.3437 199.166 82.4137C198.16 80.4872 197.146 78.8907 196.634 78.2144L194.9 79.5027L196.634 78.2144C195.918 77.2684 193.348 74.4518 190.051 71.201C186.722 67.9194 182.519 64.0634 178.483 61.0527L176.518 59.5869ZM177.664 65.8651C180.923 68.4638 184.236 71.5272 186.994 74.2452C190.289 77.4939 192.657 80.1183 193.166 80.7911C193.485 81.2121 194.375 82.5848 195.316 84.3869C196.255 86.1855 197.161 88.2536 197.604 90.0783C197.825 90.9898 197.907 91.7475 197.867 92.3302C197.828 92.9078 197.68 93.176 197.575 93.2981C197.439 93.4553 196.599 94.1596 193.204 93.3296C189.691 92.4707 184.255 91.0151 178.762 88.8939C173.799 86.9773 168.955 84.5791 165.432 81.6998C166.706 78.7966 167.558 75.4332 167.038 70.9069C170.268 70.84 174.523 69.7089 177.664 65.8651Z" fill="#BAB162"/>
<g filter="url(#filter0_f_2577_7456)">
<path d="M124.438 68.737C124.438 71.769 126.896 74.2269 129.928 74.2269C132.96 74.2269 135.417 71.769 135.417 68.737C135.417 65.705 132.96 63.2471 129.928 63.2471C126.896 63.2471 124.438 65.705 124.438 68.737Z" fill="#FDD2DC" fill-opacity="0.47"/>
</g>
<path d="M144.568 56.8434C144.568 59.8754 147.025 62.3333 150.057 62.3333C153.089 62.3333 155.547 59.8754 155.547 56.8434C155.547 53.8114 153.089 51.3535 150.057 51.3535C147.025 51.3535 144.568 53.8114 144.568 56.8434Z" fill="url(#paint1_linear_2577_7456)"/>
<path d="M147.177 54.5378C146.854 55.0543 146.905 55.6698 147.292 55.9127C147.68 56.1556 148.256 55.9339 148.58 55.4175C148.904 54.9011 148.853 54.2855 148.465 54.0426C148.078 53.7997 147.501 54.0214 147.177 54.5378Z" fill="#FDF8F3"/>
<path d="M187.217 115.454L245.399 104.132L249.791 126.703L191.609 138.025L187.217 115.454Z" fill="#27741A"/>
<path fill-rule="evenodd" clip-rule="evenodd" d="M215.766 115.899C216.051 115.753 216.399 115.597 216.841 115.528C217.466 115.429 218.079 115.521 218.586 115.613C218.697 115.634 218.803 115.654 218.903 115.673C219.3 115.748 219.625 115.81 219.946 115.818C220.369 115.829 220.703 116.181 220.692 116.605C220.681 117.028 220.329 117.362 219.906 117.35C219.447 117.338 218.969 117.247 218.563 117.169C218.476 117.152 218.391 117.136 218.311 117.121C217.819 117.032 217.429 116.987 217.079 117.042C216.871 117.075 216.689 117.149 216.461 117.265C216.413 117.289 216.359 117.318 216.301 117.349C216.105 117.453 215.854 117.586 215.592 117.688C215.397 117.764 215.112 118.006 214.88 118.383C214.646 118.762 214.571 119.106 214.597 119.292C214.602 119.336 214.608 119.38 214.612 119.417C214.613 119.422 214.613 119.426 214.614 119.431C214.618 119.464 214.622 119.492 214.625 119.519C214.995 119.584 215.381 119.568 215.795 119.487C216.431 119.363 217.051 119.139 217.74 118.89C217.943 118.816 218.152 118.741 218.37 118.665C219.28 118.347 220.301 118.041 221.386 118.07C222.043 118.087 222.733 118.293 223.325 118.636C223.915 118.979 224.464 119.492 224.759 120.169C224.951 120.61 225.033 121.045 224.994 121.471C224.955 121.898 224.798 122.267 224.586 122.582C224.181 123.181 223.537 123.625 223.005 123.971C221.169 125.164 219.005 126.163 216.604 125.998C216.138 125.966 215.487 125.862 214.87 125.668C214.291 125.487 213.574 125.178 213.157 124.636C212.899 124.301 212.961 123.819 213.297 123.561C213.632 123.303 214.113 123.366 214.372 123.701C214.482 123.845 214.798 124.04 215.328 124.206C215.819 124.359 216.351 124.444 216.709 124.469C218.618 124.6 220.438 123.811 222.17 122.686C222.717 122.33 223.106 122.033 223.316 121.724C223.41 121.584 223.456 121.458 223.467 121.331C223.479 121.203 223.461 121.027 223.354 120.782C223.223 120.481 222.945 120.188 222.556 119.962C222.168 119.737 221.726 119.612 221.345 119.602C220.557 119.581 219.761 119.803 218.875 120.112C218.698 120.174 218.516 120.24 218.329 120.308C217.623 120.564 216.852 120.843 216.088 120.992C215.44 121.118 214.757 121.142 214.058 120.964C213.548 120.833 213.304 120.455 213.199 120.144C213.128 119.937 213.099 119.682 213.085 119.557C213.082 119.533 213.08 119.514 213.078 119.501C212.985 118.825 213.243 118.116 213.575 117.578C213.908 117.037 214.421 116.5 215.035 116.26C215.207 116.193 215.345 116.12 215.518 116.028C215.592 115.989 215.673 115.946 215.766 115.899ZM214.651 119.654C214.651 119.654 214.651 119.653 214.651 119.653L214.651 119.654Z" fill="#FEFFF5"/>
<path fill-rule="evenodd" clip-rule="evenodd" d="M214.845 114.299C215.242 114.151 215.683 114.353 215.831 114.749C215.941 115.042 216.146 115.36 216.422 115.733C216.498 115.835 216.583 115.946 216.671 116.062C216.874 116.326 217.096 116.616 217.271 116.883C217.384 117.057 217.513 117.243 217.649 117.439C218.057 118.027 218.527 118.704 218.833 119.414C219.449 120.847 220.379 122.166 221.349 123.487C221.684 123.943 221.938 124.454 222.159 124.897C222.169 124.917 222.179 124.937 222.189 124.957C222.429 125.437 222.635 125.839 222.894 126.175C222.938 126.232 223.025 126.351 223.124 126.485C223.232 126.632 223.354 126.796 223.444 126.916C223.532 127.031 223.606 127.127 223.661 127.192C223.933 127.37 224.072 127.71 223.98 128.04C223.938 128.19 223.82 128.421 223.546 128.541C223.304 128.648 223.09 128.599 223.003 128.572C222.844 128.523 222.736 128.433 222.713 128.413C222.712 128.412 222.711 128.411 222.71 128.411C222.637 128.35 222.572 128.277 222.532 128.231C222.44 128.124 222.328 127.981 222.222 127.842C222.09 127.667 221.977 127.513 221.882 127.384C221.802 127.274 221.734 127.182 221.679 127.11C221.316 126.638 221.048 126.103 220.818 125.641L220.813 125.631C220.572 125.15 220.369 124.742 220.113 124.394C219.146 123.077 218.118 121.632 217.424 120.02C217.185 119.463 216.848 118.977 216.469 118.431C216.314 118.208 216.153 117.975 215.988 117.722C215.844 117.502 215.683 117.293 215.501 117.056C215.404 116.929 215.301 116.794 215.191 116.646C214.902 116.256 214.585 115.793 214.395 115.285C214.247 114.889 214.449 114.447 214.845 114.299Z" fill="#FEFFF5"/>
<path fill-rule="evenodd" clip-rule="evenodd" d="M114.431 103.19C113.634 101.961 112.798 100.755 111.849 99.8428L109.798 101.813C110.488 102.476 111.173 103.435 111.969 104.663C112.188 105.001 112.416 105.359 112.652 105.732C113.244 106.662 113.89 107.68 114.593 108.677C116.458 111.321 118.903 114.098 122.599 115.797L123.231 120.887L126.111 120.558L125.652 116.858C127.93 117.418 130.549 117.588 133.587 117.243L133.246 114.476C129.572 114.894 126.744 114.456 124.498 113.561C121.124 112.216 118.861 109.761 116.995 107.115C116.332 106.175 115.744 105.25 115.167 104.341C114.921 103.954 114.678 103.57 114.431 103.19Z" fill="#BAB162"/>
<path fill-rule="evenodd" clip-rule="evenodd" d="M120.438 115.201L120.42 121.987L120.386 125.178L117.507 125.148L117.53 122.946L117.128 122.787L115.608 124.409L113.506 122.441L115.704 120.094L120.438 115.201ZM125.126 119.233L125.454 119.486C125.891 119.824 126.346 120.259 126.572 120.821C126.697 121.132 126.761 121.511 126.676 121.916C126.591 122.32 126.383 122.63 126.164 122.847C125.778 123.23 125.295 123.393 124.996 123.47L123.596 127.005L120.919 125.944L122.312 122.428C122.174 122.22 122.059 122 121.982 121.767C121.886 121.475 121.835 121.118 121.917 120.735C122.002 120.339 122.206 120.021 122.452 119.789C122.891 119.374 123.434 119.255 123.736 119.21C124.085 119.159 124.432 119.166 124.713 119.193L125.126 119.233ZM110.666 113.592L112.139 114.538C112.857 114.999 113.558 115.608 114.089 116.305C114.603 116.981 115.068 117.889 115.029 118.912C114.986 120.04 114.349 120.967 113.328 121.595C112.365 122.188 111.022 122.551 109.309 122.722L106.957 122.958L110.666 113.592ZM124.474 121.655L124.455 121.857C124.56 121.749 124.658 121.6 124.713 121.416L124.474 121.655ZM123.942 121.444L123.836 121.582C123.833 121.504 123.838 121.418 123.858 121.325C123.875 121.241 123.901 121.166 123.932 121.099L123.942 121.444ZM111.926 118.232L111.5 119.308C111.625 119.253 111.731 119.197 111.819 119.143C112.022 119.018 112.1 118.921 112.125 118.881C112.146 118.848 112.15 118.829 112.151 118.803C112.154 118.729 112.121 118.534 111.926 118.232ZM131.301 127.193L131.113 123.867L133.988 123.704L134.019 124.242L134.409 123.871L136.393 125.958L133.979 128.253L132.998 130.729L130.321 129.668L131.301 127.193ZM125.67 127.826L127.986 121.977L130.663 123.038L128.347 128.886L125.67 127.826Z" fill="#BAB162"/>
<path d="M141.172 15.2073L141.817 6.33408C142.672 5.96766 144.76 5.50375 146.265 6.57943L145.923 14.9486C164.338 16.5425 176.421 29.248 160.745 36.4012C156.474 37.1776 149.965 36.0303 142.706 36.0302C135.201 36.3247 130.076 37.6853 125.426 37.0564C111.551 28.9942 120.716 17.8003 141.172 15.2073Z" fill="url(#paint2_linear_2577_7456)"/>
<defs>
<filter id="filter0_f_2577_7456" x="120.438" y="59.2471" width="18.98" height="18.9795" filterUnits="userSpaceOnUse" color-interpolation-filters="sRGB">
<feFlood flood-opacity="0" result="BackgroundImageFix"/>
<feBlend mode="normal" in="SourceGraphic" in2="BackgroundImageFix" result="shape"/>
<feGaussianBlur stdDeviation="2" result="effect1_foregroundBlur_2577_7456"/>
</filter>
<linearGradient id="paint0_linear_2577_7456" x1="123.599" y1="108.825" x2="66.2558" y2="191.293" gradientUnits="userSpaceOnUse">
<stop stop-color="#FEFFF5"/>
<stop offset="1" stop-color="#F0F2D7"/>
</linearGradient>
<linearGradient id="paint1_linear_2577_7456" x1="152.374" y1="51.9026" x2="146.609" y2="61.2355" gradientUnits="userSpaceOnUse">
<stop stop-color="#7B6348"/>
<stop offset="1" stop-color="#564531"/>
</linearGradient>
<linearGradient id="paint2_linear_2577_7456" x1="143.594" y1="15.4281" x2="141.839" y2="35.8778" gradientUnits="userSpaceOnUse">
<stop stop-color="#303981"/>
<stop offset="1" stop-color="#252B60"/>
</linearGradient>
</defs>
</svg>
