<svg width="158" height="143" viewBox="0 0 158 143" fill="none" xmlns="http://www.w3.org/2000/svg">
<path fill-rule="evenodd" clip-rule="evenodd" d="M86.3513 111.417C84.0066 111.103 78.9726 104.54 77.9897 102.39C77.0559 103.378 75.316 105.245 75.8265 104.819C76.4647 104.287 82.2702 111.304 83.6984 114.028C84.0276 114.656 84.0816 115.484 84.1498 116.531C84.2237 117.664 84.3143 119.054 84.7885 120.723C85.1412 121.964 85.4581 121.649 86.1821 120.93C86.6043 120.511 87.165 119.954 87.9519 119.488C87.2741 118.863 87.3367 116.828 87.4528 115.889C88.5896 115.349 90.285 117.353 90.8215 118.424C91.938 118.219 93.8763 117.648 95.3417 117.844C93.8076 115.455 92.5146 115.195 92.4336 114.19C90.6632 114.137 90.0154 113.213 89.9128 112.758C90.2512 111.568 92.1809 111.967 93.1035 112.315C93.3025 112.089 93.5366 111.863 93.794 111.615C94.1345 111.288 94.5157 110.921 94.9104 110.461C93.0223 109.535 89.8759 110.404 87.6922 111.047C87.1434 111.208 86.6788 111.345 86.3513 111.417Z" fill="#59563A"/>
<path d="M89.9128 112.758C90.2512 111.568 92.1809 111.967 93.1035 112.315C92.6404 112.84 92.3675 113.369 92.4336 114.19C90.6632 114.137 90.0154 113.213 89.9128 112.758Z" fill="#48452F"/>
<path d="M87.4528 115.889C88.5896 115.349 90.285 117.353 90.8215 118.424C89.9087 118.592 88.6325 119.085 87.9519 119.488C87.2741 118.863 87.3367 116.828 87.4528 115.889Z" fill="#48452F"/>
<path d="M90.8215 118.424C91.938 118.219 93.8763 117.648 95.3417 117.844C93.8076 115.455 92.5146 115.195 92.4336 114.19M90.8215 118.424C90.285 117.353 88.5896 115.349 87.4528 115.889C87.3367 116.828 87.2741 118.863 87.9519 119.488M90.8215 118.424C89.9087 118.592 88.6325 119.085 87.9519 119.488M87.9519 119.488C87.165 119.954 86.6043 120.511 86.1821 120.93C85.4581 121.649 85.1412 121.964 84.7885 120.723C84.3143 119.054 84.2237 117.664 84.1498 116.531C84.0816 115.484 84.0276 114.656 83.6984 114.028C82.2702 111.304 76.4647 104.287 75.8265 104.819C75.316 105.245 77.0559 103.378 77.9897 102.39C78.9726 104.54 84.0066 111.103 86.3513 111.417C86.6788 111.345 87.1434 111.208 87.6922 111.047C89.8759 110.404 93.0223 109.535 94.9104 110.461C94.5157 110.921 94.1345 111.288 93.794 111.615C93.5366 111.863 93.3025 112.089 93.1035 112.315M93.1035 112.315C92.1809 111.967 90.2512 111.568 89.9128 112.758C90.0154 113.213 90.6632 114.137 92.4336 114.19M93.1035 112.315C92.6404 112.84 92.3675 113.369 92.4336 114.19" stroke="#59563A"/>
<path fill-rule="evenodd" clip-rule="evenodd" d="M64.9322 118.882C63.6235 116.782 65.2052 112.088 66.1597 110.003C64.8103 109.831 62.2747 109.526 62.9278 109.688C63.7441 109.891 62.3323 115.485 61.2428 118.276C60.9354 119.063 60.3845 119.61 59.4706 120.517C58.8303 121.152 58.0118 121.964 56.9739 123.16C55.9986 124.283 56.3507 124.325 57.3965 124.448C57.9005 124.507 58.5656 124.585 59.321 124.813C60.192 122.991 61.5644 122.688 62.1459 122.766C63.2049 123.615 62.549 125.378 62.03 126.264C63.0637 127.11 64.1153 128.369 65.065 130.262C65.7471 127.906 66.288 126.545 66.8373 125.785C65.4597 124.249 65.8996 123.095 66.3011 122.704C67.4538 122.389 68.3206 123.967 68.6592 124.919C68.9675 124.941 69.3052 125.001 69.6841 125.069C70.1456 125.152 70.6683 125.246 71.2738 125.294C71.0885 123.404 68.0048 121.153 66.0899 119.755C65.6087 119.404 65.2012 119.106 64.9322 118.882Z" fill="#59563A"/>
<path d="M68.6592 124.919C67.9438 124.868 67.3863 125.026 66.8373 125.785C65.4597 124.249 65.8996 123.095 66.3011 122.704C67.4538 122.389 68.3206 123.967 68.6592 124.919Z" fill="#48452F"/>
<path d="M62.03 126.264C61.081 125.488 60.147 125.061 59.321 124.813C60.192 122.991 61.5644 122.688 62.1459 122.766C63.2049 123.615 62.549 125.378 62.03 126.264Z" fill="#48452F"/>
<path d="M68.7087 125.065C68.6937 125.018 68.6772 124.969 68.6592 124.919M66.9204 125.876C66.892 125.846 66.8643 125.815 66.8373 125.785M61.9563 126.386C61.9804 126.348 62.0051 126.307 62.03 126.264M59.3001 124.857C59.307 124.842 59.314 124.827 59.321 124.813M59.321 124.813C60.147 125.061 61.081 125.488 62.03 126.264M59.321 124.813C58.5656 124.585 57.9005 124.507 57.3965 124.448C56.3507 124.325 55.9986 124.283 56.9739 123.16C58.0118 121.964 58.8303 121.152 59.4706 120.517C60.3845 119.61 60.9354 119.063 61.2428 118.276C62.3323 115.485 63.7441 109.891 62.9278 109.688C62.2747 109.526 64.8103 109.831 66.1597 110.003C65.2052 112.088 63.6235 116.782 64.9322 118.882C65.2012 119.106 65.6087 119.404 66.0899 119.755C68.0048 121.153 71.0885 123.404 71.2738 125.294C70.6683 125.246 70.1456 125.152 69.6841 125.069C69.3052 125.001 68.9675 124.941 68.6592 124.919M59.321 124.813C60.192 122.991 61.5644 122.688 62.1459 122.766C63.2049 123.615 62.549 125.378 62.03 126.264M62.03 126.264C63.0637 127.11 64.1153 128.369 65.065 130.262C65.7471 127.906 66.288 126.545 66.8373 125.785M66.8373 125.785C67.3863 125.026 67.9438 124.868 68.6592 124.919M66.8373 125.785C65.4597 124.249 65.8996 123.095 66.3011 122.704C67.4538 122.389 68.3206 123.967 68.6592 124.919" stroke="#59563A"/>
<path d="M78.3032 24.3551C65.533 16.8812 45.3313 34.2169 64.5661 53.4095C66.1315 54.9715 63.1182 64.1515 60.6473 64.6242C51.0103 66.4678 46.0474 75.9548 39.3356 78.8876C33.8261 80.931 29.4151 78.4257 21.9465 81.1955C14.478 83.9653 17.7833 87.6202 25.129 89.7766C21.1275 96.1117 30.0786 98.4911 33.4424 98.6733C31.4562 104.734 35.7093 108.917 40.6798 107.673C62.3827 117.372 85.227 106.682 83.273 85.0735C97.7626 88.6921 115.132 77.8431 106.985 69.7719C116.212 67.2373 120.227 56.2826 109.042 54.6629C116.485 47.3177 107.438 42.4509 101.971 46.4885C90.7106 54.8059 95.8524 57.7796 76.7525 64.8631C74.1487 57.8422 73.9958 56.429 79.5992 53.0107C96.2952 42.8254 85.4187 28.5196 78.3032 24.3551Z" fill="url(#paint0_linear_3479_11122)"/>
<path d="M76.7525 64.8631C74.1487 57.8422 73.9958 56.429 79.5992 53.0107C96.2952 42.8254 85.4187 28.5196 78.3032 24.3551C65.533 16.8812 45.3313 34.2169 64.5661 53.4095C66.1315 54.9715 63.1182 64.1515 60.6473 64.6242C51.0103 66.4678 46.0474 75.9548 39.3356 78.8876C33.8261 80.931 29.4151 78.4257 21.9465 81.1955C14.478 83.9653 17.7833 87.6202 25.129 89.7766C21.1275 96.1117 30.0786 98.4911 33.4424 98.6733C31.4562 104.734 35.7093 108.917 40.6798 107.673C62.3827 117.372 85.227 106.682 83.273 85.0735M76.7525 64.8631C95.8524 57.7796 90.7106 54.8059 101.971 46.4885C107.438 42.4509 116.485 47.3177 109.042 54.6629C120.227 56.2826 116.212 67.2373 106.985 69.7719C115.132 77.8431 97.7626 88.6921 83.273 85.0735M76.7525 64.8631C78.5616 67.9883 82.6622 78.3192 83.273 85.0735" stroke="#746049" stroke-width="3"/>
<path d="M46.2442 79.1088C45.4638 80.3843 45.2444 83.4729 50.1357 82.8421C49.7373 85.8986 50.3821 91.0923 56.4462 86.7135M36.223 84.0086C35.126 85.0563 34.2956 88.125 39.8696 87.8326C38.7502 90.0719 38.0007 93.9093 43.9578 91.3451C42.6343 93.66 43.759 98.6955 51.4406 95.3733M96.3202 60.5373C99.2586 59.4476 100.889 59.9375 97.3328 63.2677C98.4284 64.0939 99.9406 66.6192 96.2602 67.5108C97.3026 69.1948 99.705 71.6168 94.4899 74.3792M87.9053 66.764C88.8736 66.9965 91.032 67.0834 89.159 70.1444C91.5183 72.3753 90.7592 73.6331 88.5241 74.8169" stroke="#B69D80" stroke-width="2"/>
<path d="M40.6752 107.654C55.7143 103.892 63.0945 94.7251 62.3479 80.0938" stroke="#746049" stroke-width="3"/>
<path d="M97.0356 37.55C96.2093 36.9838 90.7561 34.0122 86.2585 32.525C85.7714 36.0186 82.9759 37.1934 81.639 37.3441C83.3602 40.1074 83.48 42.1829 83.3154 44.1174C88.0165 46.2784 95.4049 45.7963 98.8528 45.4542C105.704 44.7747 98.156 38.3177 97.0356 37.55Z" fill="#BAB162" stroke="#BAB162" stroke-width="3"/>
<g filter="url(#filter0_f_3479_11122)">
<ellipse cx="2.61168" cy="2.77341" rx="2.61168" ry="2.77341" transform="matrix(-0.937597 0.347723 0.347723 0.937597 67.9202 39.9316)" fill="#FDD2DC" fill-opacity="0.47"/>
</g>
<ellipse cx="2.61168" cy="2.77341" rx="2.61168" ry="2.77341" transform="matrix(-0.937597 0.347723 0.347723 0.937597 74.8457 30.8105)" fill="url(#paint1_linear_3479_11122)"/>
<ellipse cx="0.39875" cy="0.545745" rx="0.39875" ry="0.545745" transform="matrix(-0.973118 -0.230308 -0.177382 0.984142 72.5002 33.3379)" fill="#FDF8F3"/>
<path d="M54.4157 21.3708L50.7004 18.4882C50.2675 18.6981 49.381 19.3621 49.2978 20.3395L52.7128 23.1633C47.1351 31.0309 48.0718 40.317 56.1748 36.6292C57.9202 35.2098 59.6615 32.2225 62.1078 29.3434C64.7531 26.4709 67.0167 24.9193 68.3357 22.8528C69.8334 14.4984 62.3317 14.1746 54.4157 21.3708Z" fill="url(#paint2_linear_3479_11122)"/>
<path d="M121.272 42.1133C121.789 41.0465 121.343 39.7623 120.277 39.2449V39.2449C119.21 38.7276 117.926 39.173 117.408 40.2398L105.522 64.7498C105.005 65.8166 105.451 67.1008 106.517 67.6182V67.6182C107.584 68.1355 108.868 67.6901 109.386 66.6233L121.272 42.1133Z" fill="#EF8A76"/>
<path d="M152.888 30.8216C154.43 27.6409 153.102 23.8121 149.921 22.2697L115.038 5.35328C111.857 3.81086 108.028 5.1389 106.486 8.31954L97.2696 27.3245C95.7272 30.5051 97.0553 34.3339 100.236 35.8763L135.12 52.7927C138.3 54.3352 142.129 53.0071 143.671 49.8265L152.888 30.8216Z" fill="#EF8A76"/>
<path d="M112.69 18.4972C111.19 17.7694 110.491 16.1022 111.452 14.1198C112.402 12.1614 114.219 11.6247 115.72 12.3526C116.474 12.7184 116.901 13.3715 117.092 13.9597L116.108 14.4144C115.943 13.9776 115.699 13.6015 115.25 13.3836C114.351 12.9477 113.303 13.3912 112.684 14.6674C112.057 15.9596 112.29 17.0339 113.229 17.4893C113.742 17.7384 114.252 17.6883 114.741 17.4989L115.009 18.5409C114.243 18.8733 113.461 18.8708 112.69 18.4972Z" fill="#FEFFF5"/>
<path d="M115.837 19.8842L118.721 13.9368L119.909 14.5129L118.772 16.8565L121.02 17.9463L122.156 15.6027L123.336 16.1748L120.452 22.1222L119.272 21.5501L120.517 18.9817L118.27 17.8919L117.025 20.4602L115.837 19.8842Z" fill="#FEFFF5"/>
<path d="M124.457 24.2034C122.884 23.4405 122.373 21.7352 123.307 19.8089C124.245 17.8747 125.873 17.2764 127.446 18.0393C129.02 18.8022 129.554 20.4593 128.62 22.3856C127.686 24.3118 126.03 24.9662 124.457 24.2034ZM124.955 23.176C125.838 23.6042 126.793 23.066 127.408 21.7979C128.027 20.5217 127.835 19.4868 126.952 19.0586C126.069 18.6305 125.138 19.1205 124.519 20.3967C123.904 21.6648 124.073 22.7479 124.955 23.176Z" fill="#FEFFF5"/>
<path d="M130.874 27.3153C129.301 26.5524 128.79 24.8471 129.724 22.9209C130.662 20.9866 132.29 20.3884 133.864 21.1512C135.437 21.9141 135.971 23.5712 135.037 25.4975C134.103 27.4238 132.447 28.0782 130.874 27.3153ZM131.373 26.288C132.255 26.7161 133.21 26.1779 133.825 24.9098C134.444 23.6336 134.252 22.5987 133.369 22.1705C132.486 21.7424 131.555 22.2324 130.936 23.5086C130.321 24.7767 130.49 25.8598 131.373 26.288Z" fill="#FEFFF5"/>
<path d="M136.706 30.1431C135.911 29.7578 135.268 29.0594 134.959 28.2254L136.038 27.7375C136.273 28.3371 136.706 28.8744 137.228 29.1274C137.846 29.4271 138.303 29.3218 138.506 28.9045C138.72 28.463 138.425 28.1514 138.004 27.6698L137.373 26.9474C136.892 26.4067 136.523 25.6332 136.944 24.7664C137.415 23.7952 138.627 23.4614 139.831 24.0452C140.521 24.3799 141.079 24.9875 141.324 25.7107L140.36 26.1652C140.134 25.6692 139.827 25.3019 139.337 25.0645C138.815 24.8115 138.373 24.8847 138.183 25.278C137.976 25.7034 138.32 26.0582 138.728 26.5041L139.347 27.2107C139.925 27.858 140.177 28.5451 139.761 29.4039C139.29 30.3751 138.078 30.8087 136.706 30.1431Z" fill="#FEFFF5"/>
<path d="M140.236 31.7161L143.12 25.7688L146.764 27.5358L146.281 28.5311L143.825 27.34L143.159 28.7125L145.246 29.7245L144.764 30.7197L142.677 29.7078L141.906 31.2969L144.45 32.5308L143.968 33.526L140.236 31.7161Z" fill="#FEFFF5"/>
<path d="M116.368 36.4284L119.252 30.4811L120.568 31.1194L120.229 34.3949C120.178 34.8264 120.1 35.2741 120.038 35.7097L120.078 35.7292C120.389 35.4142 120.684 35.0716 120.992 34.7646L123.329 32.4583L124.646 33.0966L121.762 39.044L120.678 38.5185L121.881 36.0385C122.153 35.4766 122.642 34.6928 122.979 34.1621L122.939 34.1426L121.78 35.3056L119.655 37.358L118.972 37.0272L119.26 34.0835L119.464 32.4573L119.431 32.4417C119.215 33.0308 118.911 33.9042 118.638 34.466L117.435 36.9461L116.368 36.4284Z" fill="#FEFFF5"/>
<path d="M123.459 39.8672L126.343 33.9199L129.987 35.6869L129.505 36.6822L127.049 35.4912L126.383 36.8636L128.47 37.8756L127.987 38.8708L125.9 37.8589L125.13 39.448L127.674 40.6819L127.191 41.6771L123.459 39.8672Z" fill="#FEFFF5"/>
<defs>
<filter id="filter0_f_3479_11122" x="59.8035" y="36.6855" width="13.2649" height="13.5098" filterUnits="userSpaceOnUse" color-interpolation-filters="sRGB">
<feFlood flood-opacity="0" result="BackgroundImageFix"/>
<feBlend mode="normal" in="SourceGraphic" in2="BackgroundImageFix" result="shape"/>
<feGaussianBlur stdDeviation="2" result="effect1_foregroundBlur_3479_11122"/>
</filter>
<linearGradient id="paint0_linear_3479_11122" x1="70.6068" y1="63.1491" x2="56.8778" y2="110.695" gradientUnits="userSpaceOnUse">
<stop stop-color="#FEFFF5"/>
<stop offset="1" stop-color="#F0F2D7"/>
</linearGradient>
<linearGradient id="paint1_linear_3479_11122" x1="1.50987" y1="0.277409" x2="4.49697" y2="4.83162" gradientUnits="userSpaceOnUse">
<stop stop-color="#7B6348"/>
<stop offset="1" stop-color="#564531"/>
</linearGradient>
<linearGradient id="paint2_linear_3479_11122" x1="53.6866" y1="22.4093" x2="62.525" y2="28.6849" gradientUnits="userSpaceOnUse">
<stop stop-color="#303981"/>
<stop offset="1" stop-color="#252B60"/>
</linearGradient>
</defs>
</svg>
