<svg width="40" height="40" viewBox="0 0 40 40" fill="none" xmlns="http://www.w3.org/2000/svg">
<g filter="url(#filter0_d_3826_10882)">
<path fill-rule="evenodd" clip-rule="evenodd" d="M8.6035 5.83736C12.0748 2.05421 17.703 2.05421 21.1743 5.83736L22 6.73725L22.8257 5.83736C26.297 2.05421 31.9252 2.05421 35.3965 5.83736C38.8678 9.62051 38.8678 15.7542 35.3965 19.5374L22 34.1372L8.6035 19.5374C5.13217 15.7542 5.13217 9.62051 8.6035 5.83736Z" fill="#F15C3E"/>
<path fill-rule="evenodd" clip-rule="evenodd" d="M8.6035 5.83736C12.0748 2.05421 17.703 2.05421 21.1743 5.83736L22 6.73725L22.8257 5.83736C26.297 2.05421 31.9252 2.05421 35.3965 5.83736C38.8678 9.62051 38.8678 15.7542 35.3965 19.5374L22 34.1372L8.6035 19.5374C5.13217 15.7542 5.13217 9.62051 8.6035 5.83736Z" stroke="#6A5D4A" stroke-width="3" stroke-linecap="round"/>
</g>
<defs>
<filter id="filter0_d_3826_10882" x="0.5" y="0.5" width="39" height="38.8559" filterUnits="userSpaceOnUse" color-interpolation-filters="sRGB">
<feFlood flood-opacity="0" result="BackgroundImageFix"/>
<feColorMatrix in="SourceAlpha" type="matrix" values="0 0 0 0 0 0 0 0 0 0 0 0 0 0 0 0 0 0 127 0" result="hardAlpha"/>
<feOffset dx="-2" dy="1"/>
<feGaussianBlur stdDeviation="1"/>
<feComposite in2="hardAlpha" operator="out"/>
<feColorMatrix type="matrix" values="0 0 0 0 0.415278 0 0 0 0 0.364752 0 0 0 0 0.288964 0 0 0 0.5 0"/>
<feBlend mode="normal" in2="BackgroundImageFix" result="effect1_dropShadow_3826_10882"/>
<feBlend mode="normal" in="SourceGraphic" in2="effect1_dropShadow_3826_10882" result="shape"/>
</filter>
</defs>
</svg>
