<svg width="32" height="32" viewBox="0 0 32 32" fill="none" xmlns="http://www.w3.org/2000/svg">
<path d="M32 16C32 24.8366 24.8366 32 16 32C7.16344 32 0 24.8366 0 16C0 7.16344 7.16344 0 16 0C24.8366 0 32 7.16344 32 16Z" fill="#BAB162"/>
<path fill-rule="evenodd" clip-rule="evenodd" d="M8.66502 24.0054H22.8566C22.755 22.2308 22.1431 20.9014 21.1214 19.9849C19.9674 18.9496 18.1943 18.3542 15.7632 18.3542C13.3315 18.3542 11.5572 18.9476 10.4021 19.982C9.37956 20.8977 8.76663 22.2271 8.66502 24.0054ZM9.53491 19.0135C11.0089 17.6936 13.1391 17.0542 15.7632 17.0542C18.3877 17.0542 20.5169 17.6961 21.9895 19.0172C23.4746 20.3495 24.1958 22.2856 24.1711 24.6622L24.1644 25.3054H7.35726L7.35059 24.6622C7.3259 22.2812 8.04824 20.3448 9.53491 19.0135Z" fill="#FEFFF5"/>
<path fill-rule="evenodd" clip-rule="evenodd" d="M15.8015 7.99666C14.7184 7.97512 13.6771 8.35749 12.9035 9.04951C12.1326 9.73908 11.6909 10.6779 11.6598 11.6585C11.6478 12.6546 12.056 13.6231 12.8092 14.3493C13.5651 15.0782 14.6063 15.5017 15.7059 15.5148C16.8055 15.528 17.8585 15.1295 18.6346 14.4184C19.4075 13.7101 19.8418 12.7518 19.8573 11.7563C19.8471 10.7756 19.4284 9.82897 18.6769 9.12252C17.9222 8.41313 16.893 8.00475 15.8096 7.99677L15.8015 7.99671L15.8015 7.99666ZM15.8233 6.69684C14.4235 6.67001 13.0622 7.1634 12.0368 8.08057C11.0091 8.99982 10.4011 10.2726 10.3602 11.6246L10.3601 11.6246L10.3599 11.6355C10.3414 13.0052 10.903 14.3172 11.9068 15.2851C12.9093 16.2518 14.2711 16.7977 15.6904 16.8147C17.1096 16.8317 18.4852 16.3185 19.5128 15.3768C20.5419 14.4339 21.1387 13.1364 21.1573 11.7668L21.1574 11.7597L21.1573 11.7526C21.1461 10.4016 20.5698 9.11769 19.5672 8.17528C18.5669 7.23502 17.2217 6.70814 15.8233 6.69684Z" fill="#FEFFF5"/>
</svg>
