<svg width="32" height="32" viewBox="0 0 32 32" fill="none" xmlns="http://www.w3.org/2000/svg">
<path d="M32 16C32 24.8366 24.8366 32 16 32C7.16344 32 0 24.8366 0 16C0 7.16344 7.16344 0 16 0C24.8366 0 32 7.16344 32 16Z" fill="#BAB162"/>
<path fill-rule="evenodd" clip-rule="evenodd" d="M8.89744 10.9067C9.25642 10.9067 9.54744 11.1978 9.54744 11.5567V25.3858H22.7285V11.5567C22.7285 11.1978 23.0195 10.9067 23.3785 10.9067C23.7375 10.9067 24.0285 11.1978 24.0285 11.5567V26.0358C24.0285 26.3947 23.7375 26.6858 23.3785 26.6858H8.89744C8.53845 26.6858 8.24744 26.3947 8.24744 26.0358V11.5567C8.24744 11.1978 8.53845 10.9067 8.89744 10.9067Z" fill="#FEFFF5"/>
<path fill-rule="evenodd" clip-rule="evenodd" d="M11.6639 5.35525C12.6531 5.30154 13.5555 5.66818 14.2203 6.44659L14.2223 6.44893C15.1358 7.52877 15.7182 7.84997 16.1481 7.85142C16.5717 7.85285 17.1442 7.54272 18.0379 6.45588L18.0387 6.45493C18.4836 5.91596 18.9746 5.52094 19.6053 5.39529C20.2169 5.27346 20.8359 5.4314 21.4775 5.69851C22.7221 6.18037 23.8566 6.91801 24.8118 7.86522L24.816 7.86946L24.816 7.86948C25.7668 8.83001 26.6658 9.84312 27.5089 10.9043C27.7322 11.1853 27.6854 11.5942 27.4043 11.8175C27.1232 12.0409 26.7144 11.994 26.491 11.713C25.6779 10.6895 24.811 9.71248 23.8943 8.78626C23.0637 7.96306 22.0789 7.32423 21.001 6.90809L20.9846 6.9015C20.417 6.66442 20.0901 6.62426 19.8593 6.67024C19.6451 6.71291 19.3947 6.85445 19.0416 7.28212C18.137 8.38204 17.2191 9.15504 16.1437 9.15141C15.075 9.1478 14.15 8.37608 13.2309 7.2898C12.8365 6.82862 12.33 6.621 11.7344 6.65333C11.1189 6.68674 10.3686 6.98187 9.562 7.61977C9.32975 7.82684 9.11075 8.04934 8.90644 8.28588C8.89782 8.29586 8.8889 8.30558 8.87968 8.31502L5.9296 11.3374L8.85785 14.0683C9.12039 14.3131 9.13473 14.7244 8.8899 14.9869C8.64506 15.2495 8.23375 15.2638 7.97122 15.019L4.55666 11.8346C4.42871 11.7153 4.35426 11.5494 4.35016 11.3745C4.34605 11.1996 4.41262 11.0304 4.53483 10.9052L7.93584 7.42085C8.17771 7.14217 8.4371 6.87986 8.71239 6.63563C8.72114 6.62786 8.7301 6.62034 8.73926 6.61306C9.69134 5.85615 10.6975 5.40771 11.6639 5.35525Z" fill="#FEFFF5"/>
<path fill-rule="evenodd" clip-rule="evenodd" d="M27.4089 10.8035C27.6879 11.0294 27.731 11.4387 27.5051 11.7177C27.3868 11.8638 27.2676 12.0136 27.1467 12.1656C26.3331 13.1882 25.4392 14.3116 24.2049 15.0803C23.9001 15.2701 23.4993 15.1768 23.3095 14.8721C23.1197 14.5674 23.2129 14.1665 23.5177 13.9768C24.5473 13.3356 25.2906 12.4051 26.1171 11.3703C26.2407 11.2156 26.3662 11.0585 26.4947 10.8997C26.7206 10.6207 27.1299 10.5776 27.4089 10.8035Z" fill="#FEFFF5"/>
</svg>
