<svg width="32" height="32" viewBox="0 0 32 32" fill="none" xmlns="http://www.w3.org/2000/svg">
<path d="M32 16C32 24.8366 24.8366 32 16 32C7.16344 32 0 24.8366 0 16C0 7.16344 7.16344 0 16 0C24.8366 0 32 7.16344 32 16Z" fill="#BAB162"/>
<path fill-rule="evenodd" clip-rule="evenodd" d="M24.0834 9.38753C24.4355 9.74092 24.629 10.2198 24.6802 10.8001L24.6803 10.8011C24.7438 11.5343 24.8085 12.2679 24.8732 13.0018C25.1584 16.2387 25.4443 19.482 25.6402 22.7306L25.6405 22.7356C25.7041 23.9476 25.4129 24.9761 24.6608 25.6908C23.9222 26.3925 22.8557 26.6787 21.6127 26.679C18.2023 26.6981 14.7937 26.698 11.3866 26.679L11.3863 26.679C10.1456 26.6713 9.10194 26.3948 8.37387 25.6946C7.63964 24.9884 7.34998 23.9714 7.34998 22.765V22.7603H7.34999C7.35513 22.0447 7.45603 19.4463 7.66384 16.658C7.86988 13.8933 8.18713 10.8434 8.6443 9.27878C8.72529 9.0016 8.97944 8.81109 9.26821 8.81109H20.1481C20.2324 8.81109 20.313 8.82714 20.3869 8.85635C20.4599 8.82584 20.5398 8.80824 20.6237 8.80647C20.817 8.80239 20.9972 8.79101 21.1938 8.7786C21.3444 8.7691 21.5046 8.75899 21.6876 8.75109C22.0679 8.73466 22.4939 8.7325 22.8974 8.80617C23.3048 8.88054 23.738 9.0408 24.0834 9.38753ZM21.3269 10.0731C21.097 10.0871 20.8545 10.1019 20.6512 10.1062C20.562 10.1081 20.4767 10.0919 20.3986 10.0611C20.3215 10.0933 20.2369 10.1111 20.1481 10.1111H9.77123C9.41895 11.6343 9.14772 14.239 8.96024 16.7546C8.75387 19.5238 8.65504 22.0879 8.64998 22.7673C8.65035 23.7847 8.89485 24.3919 9.27504 24.7576C9.66167 25.1295 10.3132 25.3723 11.3943 25.379C14.797 25.398 18.2014 25.398 21.6074 25.379L21.6111 25.379C22.6841 25.379 23.3646 25.1291 23.7654 24.7483C24.1526 24.3804 24.3931 23.78 24.3424 22.8063C24.1477 19.5783 23.8639 16.3578 23.5788 13.1228C23.514 12.3874 23.4491 11.6513 23.3852 10.9142C23.354 10.5607 23.251 10.3939 23.1625 10.3051C23.0673 10.2096 22.9157 10.131 22.664 10.085C22.4084 10.0384 22.1011 10.0344 21.7437 10.0499C21.6195 10.0552 21.4758 10.064 21.3269 10.0731Z" fill="#FEFFF5"/>
<path fill-rule="evenodd" clip-rule="evenodd" d="M16.4877 4.35669C19.1076 4.21366 20.7305 6.25901 21.0365 8.44156C21.0385 8.45593 21.0401 8.47037 21.0411 8.48484C21.1109 9.44736 21.1109 10.4133 21.0411 11.3759C21.0152 11.7339 20.7039 12.0031 20.3458 11.9772C19.9878 11.9512 19.7186 11.6399 19.7445 11.2819C19.8092 10.3894 19.8097 9.49365 19.7461 8.60106C19.4962 6.87709 18.2956 5.55993 16.5586 5.65476C15.5761 5.7084 14.8086 6.00279 14.2724 6.47551C13.743 6.94218 13.3829 7.63147 13.2959 8.59055L13.2958 8.59126C13.2427 9.17004 13.2598 9.72354 13.2783 10.3199C13.2883 10.6403 13.2986 10.9731 13.2986 11.3289C13.2986 11.6879 13.0075 11.9789 12.6486 11.9789C12.2896 11.9789 11.9986 11.6879 11.9986 11.3289C11.9986 11.0589 11.99 10.7691 11.981 10.4685C11.9618 9.82264 11.9412 9.12716 12.0012 8.47278C12.114 7.23058 12.6003 6.2165 13.4127 5.50032C14.2183 4.79012 15.2883 4.42218 16.4877 4.35669Z" fill="#FEFFF5"/>
<path fill-rule="evenodd" clip-rule="evenodd" d="M19.6614 15.3347C19.8992 15.6036 19.874 16.0144 19.605 16.2522C19.201 16.6094 18.8297 16.982 18.4395 17.3736C18.2537 17.56 18.0636 17.7507 17.8638 17.9461C17.2597 18.5364 16.5976 19.1357 15.801 19.6476C15.5567 19.8046 15.2379 19.7805 15.02 19.5885L13.3972 18.159C13.1279 17.9217 13.1019 17.511 13.3391 17.2416C13.5764 16.9722 13.9872 16.9462 14.2565 17.1835L15.4998 18.2787C16.0203 17.8997 16.4898 17.4712 16.9551 17.0164C17.1283 16.847 17.3044 16.6705 17.4832 16.4911C17.8888 16.0843 18.3088 15.663 18.7439 15.2783C19.0128 15.0405 19.4236 15.0657 19.6614 15.3347Z" fill="#FEFFF5"/>
</svg>
