<svg width="32" height="32" viewBox="0 0 32 32" fill="none" xmlns="http://www.w3.org/2000/svg">
<path d="M32 16C32 24.8366 24.8366 32 16 32C7.16344 32 0 24.8366 0 16C0 7.16344 7.16344 0 16 0C24.8366 0 32 7.16344 32 16Z" fill="#BAB162"/>
<path fill-rule="evenodd" clip-rule="evenodd" d="M16.9045 9.98183C16.733 10.125 16.5686 10.2837 16.4128 10.4582L16 10.9206L15.5871 10.4582C15.4313 10.2837 15.2669 10.125 15.0954 9.98183C13.3551 8.52985 10.8816 8.68864 9.3017 10.4582C7.56604 12.4022 7.56604 15.554 9.3017 17.498L15.627 24.5825C15.8258 24.8051 16.1741 24.8051 16.3729 24.5825L22.6982 17.498C24.4339 15.554 24.4339 12.4022 22.6982 10.4582C21.1183 8.68864 18.6448 8.52985 16.9045 9.98183ZM8.33197 9.59238C10.4075 7.26775 13.7286 7.08505 16 9.04428C18.2713 7.08505 21.5924 7.26775 23.6679 9.59238C25.844 12.0296 25.844 15.9266 23.6679 18.3638L17.3427 25.4483C16.627 26.2499 15.3729 26.2498 14.6572 25.4483L8.33197 18.3638C6.15594 15.9266 6.15594 12.0296 8.33197 9.59238Z" fill="#FEFFF5"/>
</svg>
