<svg width="200" height="50" viewBox="0 0 200 50" fill="none" xmlns="http://www.w3.org/2000/svg">
<mask id="path-1-outside-1_2703_14304" maskUnits="userSpaceOnUse" x="64.412" y="-0.206055" width="78" height="46" fill="black">
<rect fill="white" x="64.412" y="-0.206055" width="78" height="46"/>
<path d="M81.174 13.2368C81.174 13.0508 81.9302 11.0421 83.4427 7.21067C84.995 3.37924 85.8508 1.38912 86.01 1.24033C86.1692 1.05433 86.3085 0.942739 86.428 0.905541C86.5872 0.831144 86.8061 0.793945 87.0847 0.793945C87.2439 0.793945 87.5225 0.831144 87.9206 0.905541C88.3584 1.31472 88.5773 1.9099 88.5773 2.69107C88.5773 3.02585 88.5375 3.52803 88.4579 4.1976C88.3385 4.68118 88.2788 5.18336 88.2788 5.70414C88.2788 6.07612 88.3783 6.26211 88.5773 6.26211C88.8161 6.26211 89.3336 6.05752 90.1296 5.64834C90.9655 5.23916 91.6819 4.92297 92.279 4.69978C92.876 4.43939 93.5129 4.3092 94.1895 4.3092C94.7468 4.3092 95.2443 4.45799 95.6821 4.75558C96.12 5.01597 96.3389 5.38795 96.3389 5.87153C96.3389 6.42951 95.7816 7.06188 94.6672 7.76865C93.5527 8.43822 92.0203 9.23799 90.0699 10.168C89.8311 10.2795 89.3137 10.5399 88.5176 10.9491C87.7215 11.3211 87.1842 11.6187 86.9056 11.8419C86.6668 12.0279 86.4479 12.2883 86.2488 12.623C86.0498 12.9578 85.9105 13.181 85.8309 13.2926C85.4727 13.925 85.1344 14.4086 84.8159 14.7434C84.4975 15.0781 84.1194 15.2455 83.6815 15.2455C83.0447 15.2455 82.4676 15.0595 81.9501 14.6876C81.4327 14.2784 81.174 13.7948 81.174 13.2368ZM69.8898 6.6527C69.8898 6.09472 70.1087 5.61114 70.5466 5.20196C71.0242 4.79278 71.5615 4.58819 72.1586 4.58819C73.0343 4.58819 73.8502 5.07177 74.6065 6.03892C75.4025 7.00608 75.8603 7.93604 75.9797 8.82881C76.0593 9.34958 76.1389 9.72157 76.2185 9.94476C76.2981 10.1308 76.5369 10.3725 76.9349 10.6701C77.6116 11.1165 77.9499 11.5257 77.9499 11.8977C77.9499 12.4557 77.7907 12.8462 77.4723 13.0694C77.1937 13.2926 76.716 13.4972 76.0394 13.6832C75.2433 13.9064 74.706 14.1668 74.4274 14.4644C74.1885 14.6876 73.8502 15.8035 73.4124 17.8122C73.0144 19.8209 72.8153 21.1043 72.8153 21.6623C73.1736 21.6623 73.6313 21.5879 74.1885 21.4391C74.3478 21.4019 74.5269 21.3647 74.7259 21.3275C74.9647 21.2903 75.2433 21.2717 75.5617 21.2717C76.5568 21.2717 77.1539 21.9599 77.3529 23.3362C77.5519 24.6753 77.6514 26.2749 77.6514 28.1348C77.6514 29.6599 77.5917 30.9991 77.4723 32.1522C77.3529 33.3054 77.1141 34.4213 76.7558 35.5001C76.6762 35.7233 76.4374 36.4486 76.0394 37.6762C75.6812 38.8665 75.1637 39.8709 74.4871 40.6893C73.8104 41.5076 73.0741 41.9168 72.278 41.9168C71.1635 41.9168 70.3476 41.6936 69.8301 41.2472C69.3525 40.8381 69.1137 40.1313 69.1137 39.1269C69.1137 38.7549 69.1933 38.4946 69.3525 38.3458C69.5117 38.197 69.7903 38.1226 70.1883 38.1226C70.5864 38.1226 70.865 38.197 71.0242 38.3458C71.1834 38.4946 71.2829 38.569 71.3227 38.569C71.4819 38.569 71.6213 38.4574 71.7407 38.2342C71.8999 37.9738 71.9795 37.825 71.9795 37.7878C73.5716 34.6631 74.3677 31.1107 74.3677 27.1304C74.3677 25.1217 74.1089 24.1174 73.5915 24.1174C73.3527 24.1174 73.0144 24.322 72.5765 24.7311C72.1785 25.0659 71.8402 25.5495 71.5615 26.1819C71.2829 26.8142 70.9844 27.6512 70.666 28.6928C70.1485 30.1807 69.6709 31.3897 69.2331 32.3196C68.835 33.2124 68.2778 33.9935 67.5613 34.6631C67.1235 35.0723 66.7454 35.2769 66.427 35.2769C65.9891 35.2769 65.7105 35.1839 65.5911 34.9979C65.4717 34.7747 65.412 34.4399 65.412 33.9935C65.412 32.5056 66.009 29.8087 67.2031 25.9029C68.437 21.9599 69.5714 18.612 70.6063 15.8593H70.666L70.6063 15.5245C69.4918 15.5245 68.238 15.8965 66.8449 16.6405C66.4071 16.6405 66.0488 16.4731 65.7702 16.1383C65.5314 15.8035 65.412 15.4315 65.412 15.0223C65.412 14.5388 65.8299 14.0552 66.6658 13.5716C67.5016 13.088 68.6559 12.5301 70.1286 11.8977C70.3277 11.8233 70.666 11.6745 71.1436 11.4513C71.6213 11.2281 71.9596 11.0421 72.1586 10.8933C72.3974 10.7445 72.5168 10.6329 72.5168 10.5585C72.5168 10.1494 72.4173 9.83316 72.2183 9.60997C72.0193 9.34958 71.681 9.0148 71.2033 8.60562C70.7655 8.23363 70.4272 7.91745 70.1883 7.65706C69.9893 7.35947 69.8898 7.02468 69.8898 6.6527ZM81.5322 21.3833C81.5322 20.3417 82.2884 19.077 83.801 17.589C85.3533 16.1011 87.1245 14.7992 89.1146 13.6832C91.1048 12.5672 92.6571 12.0093 93.7716 12.0093C94.4483 12.0093 94.9657 12.1953 95.3239 12.5672C95.6821 12.902 95.8613 13.3856 95.8613 14.018C95.8613 14.6876 95.4433 15.3571 94.6075 16.0267C93.7716 16.6963 92.6173 17.4588 91.1446 18.3144C90.5078 18.6864 89.8908 19.077 89.2938 19.4862C88.6967 19.8581 88.2788 20.1929 88.04 20.4905L88.5773 20.2115C88.6967 21.1043 88.7564 21.9971 88.7564 22.8898C88.7564 26.4609 88.2987 29.8273 87.3832 32.9892C87.3434 33.1752 87.2439 33.4728 87.0847 33.882C86.9653 34.2911 86.9056 34.6631 86.9056 34.9979L87.025 35.2769C87.2638 35.1653 87.6818 34.9235 88.2788 34.5515C88.8758 34.1795 89.3933 33.9935 89.8311 33.9935C90.3087 33.9935 90.7068 34.1795 91.0252 34.5515C91.3436 34.8863 91.5028 35.2769 91.5028 35.7233C91.5028 36.1325 91.2242 36.5788 90.667 37.0624C90.1495 37.5088 89.4331 37.9924 88.5176 38.5132C87.5623 39.1083 86.9852 39.5175 86.7862 39.7407C86.5872 39.9267 86.3882 40.1685 86.1891 40.4661C86.0299 40.7637 85.9105 40.9683 85.8309 41.0798C85.5921 41.5262 85.3931 41.861 85.2339 42.0842C84.6766 42.791 84.199 43.3304 83.801 43.7023C83.4029 44.1115 83.0049 44.3161 82.6069 44.3161C81.771 44.3161 81.2337 43.9813 80.9948 43.3118C80.756 42.6794 80.6366 41.8796 80.6366 40.9125C80.6366 40.0569 80.7361 39.2385 80.9351 38.4574C81.174 37.639 81.5123 36.6346 81.9501 35.4443L82.6666 33.2682C83.1044 31.8918 83.6417 29.9947 84.2786 27.5768C84.9552 25.1217 85.2936 23.5594 85.2936 22.8898L85.1742 22.555L84.9353 22.4992C84.7363 22.4992 84.4378 22.6108 84.0398 22.834C83.6417 23.02 83.3034 23.113 83.0248 23.113C82.587 23.113 82.2287 22.927 81.9501 22.555C81.6715 22.183 81.5322 21.7925 81.5322 21.3833ZM89.2341 29.5855C89.2341 29.2879 89.453 28.9532 89.8908 28.5812C90.3684 28.172 90.6471 27.9302 90.7267 27.8558C91.1247 27.5582 91.9009 26.6469 93.0551 25.1217C94.6473 23.1874 95.8812 21.7739 96.7568 20.8811C97.6325 19.9511 98.3489 19.4862 98.9062 19.4862C99.5032 19.4862 100.06 19.7465 100.578 20.2673C101.135 20.7509 101.414 21.2717 101.414 21.8297C101.414 22.09 100.916 22.7038 99.9212 23.671C98.9659 24.6009 97.6325 25.8099 95.921 27.2978C94.4483 28.5254 93.7119 29.1949 93.7119 29.3065C93.7119 29.4553 93.8313 29.5669 94.0701 29.6413C94.3089 29.7157 94.4482 29.7529 94.488 29.7529C95.4035 30.0505 97.0553 30.8317 99.4435 32.0964C101.832 33.3612 104.061 34.6631 106.13 36.0023C108.24 37.3414 109.494 38.3272 109.892 38.9595C110.21 39.4431 110.369 40.0569 110.369 40.8009C110.369 41.0612 110.29 41.3402 110.131 41.6378C110.011 41.9354 109.832 42.0842 109.593 42.0842C109.394 42.0842 109.136 42.047 108.817 41.9726C108.419 41.8982 107.524 41.396 106.13 40.4661C104.777 39.5733 103.862 38.9781 103.384 38.6805C101.075 37.081 99.5231 36.0953 98.7271 35.7233L97.2345 34.9421C95.3637 34.0493 93.7915 33.2496 92.5178 32.5428C91.2839 31.836 90.4082 31.2037 89.8908 30.6457C89.851 30.6085 89.7316 30.4783 89.5326 30.2551C89.3336 30.0319 89.2341 29.8087 89.2341 29.5855Z"/>
<path d="M126.908 10.2795C126.908 10.4655 126.908 10.8933 126.908 11.5629C126.947 12.2325 126.808 12.7346 126.49 13.0694C126.171 13.4042 125.634 13.5716 124.878 13.5716C124.281 13.5716 123.843 13.3112 123.564 12.7904C123.325 12.2325 123.126 11.6559 122.967 11.0607C122.848 10.4283 122.748 9.98196 122.669 9.72157L120.937 9.55418C119.663 9.40538 118.668 9.33099 117.952 9.33099L116.638 9.38678C115.723 9.38678 115.265 9.052 115.265 8.38243C115.265 7.63846 115.623 7.15488 116.34 6.93169C117.096 6.6713 118.171 6.48531 119.564 6.37371C120.201 6.33651 120.798 6.28071 121.355 6.20632C121.952 6.09472 122.39 5.94593 122.669 5.75994C122.907 5.61114 123.067 5.38795 123.146 5.09036C123.266 4.79278 123.365 4.38359 123.445 3.86282C123.564 3.08165 123.703 2.52367 123.863 2.18889C124.062 1.8169 124.46 1.63091 125.057 1.63091C125.335 1.63091 125.594 1.68671 125.833 1.7983C126.032 2.05869 126.211 2.78406 126.37 3.97441C126.45 4.75558 126.529 5.27636 126.609 5.53674C129.594 5.53674 131.405 5.42515 132.042 5.20196C132.361 5.09036 132.599 4.90437 132.759 4.64398C132.958 4.3464 133.216 3.88142 133.535 3.24904C133.813 2.57947 134.092 2.07729 134.371 1.74251C134.649 1.37052 135.027 1.18453 135.505 1.18453C135.704 1.18453 135.863 1.27752 135.983 1.46352C136.102 2.24468 136.162 3.41643 136.162 4.97877L137.953 4.92297C140.102 4.92297 141.177 5.40655 141.177 6.37371C141.177 7.08048 140.839 7.54546 140.162 7.76865C139.525 7.99184 138.59 8.15923 137.356 8.27083C136.401 8.34523 135.764 8.43822 135.445 8.54982C135.087 8.69861 134.789 8.9404 134.55 9.27519C134.311 9.60997 134.032 10.0564 133.714 10.6143C133.276 11.3211 132.918 11.8419 132.639 12.1767C132.4 12.4743 132.062 12.623 131.624 12.623C131.346 12.623 131.007 12.5487 130.609 12.3999C130.251 11.9907 130.072 11.5443 130.072 11.0607C130.072 10.8747 130.132 10.6329 130.251 10.3353C130.41 10.0006 130.49 9.75877 130.49 9.60997C130.49 9.34958 130.39 9.20079 130.191 9.16359C130.032 9.0892 129.793 9.052 129.475 9.052C128.719 9.052 128.102 9.12639 127.624 9.27519C127.146 9.42398 126.908 9.75877 126.908 10.2795ZM131.445 45.2647C130.171 45.2647 129.037 45.0787 128.042 44.7067C127.047 44.3347 126.549 43.6465 126.549 42.6422C126.549 40.2243 126.808 37.918 127.326 35.7233C127.445 35.2025 127.544 34.4957 127.624 33.603C127.704 32.2266 127.903 31.2037 128.221 30.5341C128.38 30.2365 128.46 29.9947 128.46 29.8087L128.34 29.6413C127.982 29.7529 127.186 30.4039 125.952 31.5942C124.718 32.7474 123.883 33.5286 123.445 33.9377C121.375 35.9093 119.723 37.4344 118.489 38.5132C117.295 39.5547 116.479 40.0755 116.041 40.0755C115.683 40.0755 115.365 39.9639 115.086 39.7407C114.807 39.5175 114.668 39.2385 114.668 38.9037C114.668 38.0854 115.783 36.3928 118.012 33.8262C120.28 31.2223 122.072 29.3251 123.385 28.1348C124.101 27.4652 124.599 26.9444 124.878 26.5725C124.48 26.1261 123.922 25.8099 123.206 25.6239C123.086 25.6611 122.609 25.8099 121.773 26.0703C120.977 26.3307 120.161 26.4609 119.325 26.4609C118.211 26.4609 117.653 26.1261 117.653 25.4565C117.653 24.6381 117.952 24.043 118.549 23.671C119.186 23.299 120.101 22.9456 121.295 22.6108C122.37 22.3132 123.166 22.0343 123.684 21.7739C124.201 21.4763 124.46 21.0113 124.46 20.3789C124.46 20.1185 124.221 19.9883 123.743 19.9883C123.305 19.9883 122.688 20.0627 121.892 20.2115C121.096 20.3603 120.479 20.4347 120.042 20.4347C119.723 20.4347 119.405 20.2673 119.086 19.9325C118.768 19.5606 118.609 19.2258 118.609 18.9282C118.609 18.0726 118.947 17.4774 119.624 17.1427C120.3 16.8079 121.295 16.5475 122.609 16.3615C123.365 16.2499 123.982 16.1383 124.46 16.0267C124.937 15.9151 125.315 15.7477 125.594 15.5245C125.674 15.3757 125.833 15.0781 126.072 14.6318C126.35 14.1482 126.649 13.7948 126.967 13.5716C127.325 13.3484 127.743 13.2368 128.221 13.2368C128.699 13.2368 129.037 13.4228 129.236 13.7948C129.435 14.1296 129.535 14.5388 129.535 15.0223C129.933 15.3571 131.007 15.5245 132.759 15.5245C133.873 15.5245 134.57 15.5617 134.848 15.6361C135.167 15.7105 135.386 15.8593 135.505 16.0825C135.704 16.4545 136.003 16.7707 136.401 17.0311L137.714 16.9753C138.431 16.9753 138.968 17.2729 139.326 17.868C139.286 18.1284 138.968 18.5004 138.371 18.984C138.092 19.2444 137.833 19.5048 137.595 19.7651C137.396 20.0255 137.296 20.2673 137.296 20.4905C137.296 20.6765 137.356 20.8253 137.475 20.9369C137.634 21.0113 137.814 21.0857 138.013 21.1601C138.212 21.1973 138.331 21.2159 138.371 21.2159C138.769 21.2903 139.067 21.4019 139.266 21.5507C139.505 21.6623 139.625 21.8669 139.625 22.1644C139.625 22.7596 139.426 23.2432 139.028 23.6152C138.63 23.95 138.112 24.1174 137.475 24.1174C136.202 24.1174 135.127 24.2848 134.251 24.6195C133.415 24.9543 132.679 25.4193 132.042 26.0145C131.445 26.5725 130.689 27.4094 129.773 28.5254L129.833 28.5812H132.759H133.833C134.51 28.5812 135.007 28.6556 135.326 28.8044C136.162 29.102 136.699 29.8273 136.938 30.9805C137.177 32.1336 137.296 33.4356 137.296 34.8863C137.296 36.7462 137.077 38.6619 136.639 40.6335C136.6 40.7823 136.58 40.9869 136.58 41.2472C136.58 41.4704 136.619 41.768 136.699 42.14C136.819 42.512 136.878 42.791 136.878 42.977C136.878 43.8697 136.281 44.4649 135.087 44.7625C133.933 45.0973 132.719 45.2647 131.445 45.2647ZM130.012 20.1557C130.012 20.3417 130.052 20.5463 130.132 20.7695C130.211 20.9555 130.351 21.0485 130.55 21.0485C130.788 21.0485 131.266 20.7695 131.982 20.2115C132.739 19.6164 133.196 19.1886 133.356 18.9282C133.316 18.7794 133.137 18.705 132.818 18.705C130.948 18.705 130.012 19.1886 130.012 20.1557ZM131.744 34.4399C132.221 34.4399 132.699 34.3655 133.177 34.2167C133.694 34.0679 133.953 33.8262 133.953 33.4914C133.953 33.2682 133.893 33.0636 133.774 32.8776C133.654 32.6544 133.475 32.5428 133.236 32.5428C132.878 32.5428 132.42 32.7288 131.863 33.1008C131.346 33.4356 131.087 33.7518 131.087 34.0493C131.087 34.3097 131.306 34.4399 131.744 34.4399ZM130.072 41.303C130.51 41.303 131.127 41.21 131.923 41.024C132.759 40.8753 133.256 40.6893 133.415 40.4661C133.535 40.2801 133.594 40.0383 133.594 39.7407C133.594 39.4059 133.594 39.2199 133.594 39.1827C133.594 38.6991 133.515 38.3644 133.356 38.1784C133.236 37.9552 132.938 37.8436 132.46 37.8436C131.385 37.8436 130.709 38.0668 130.43 38.5132C130.191 38.9223 130.072 39.6849 130.072 40.8009V41.303Z"/>
</mask>
<path d="M81.174 13.2368C81.174 13.0508 81.9302 11.0421 83.4427 7.21067C84.995 3.37924 85.8508 1.38912 86.01 1.24033C86.1692 1.05433 86.3085 0.942739 86.428 0.905541C86.5872 0.831144 86.8061 0.793945 87.0847 0.793945C87.2439 0.793945 87.5225 0.831144 87.9206 0.905541C88.3584 1.31472 88.5773 1.9099 88.5773 2.69107C88.5773 3.02585 88.5375 3.52803 88.4579 4.1976C88.3385 4.68118 88.2788 5.18336 88.2788 5.70414C88.2788 6.07612 88.3783 6.26211 88.5773 6.26211C88.8161 6.26211 89.3336 6.05752 90.1296 5.64834C90.9655 5.23916 91.6819 4.92297 92.279 4.69978C92.876 4.43939 93.5129 4.3092 94.1895 4.3092C94.7468 4.3092 95.2443 4.45799 95.6821 4.75558C96.12 5.01597 96.3389 5.38795 96.3389 5.87153C96.3389 6.42951 95.7816 7.06188 94.6672 7.76865C93.5527 8.43822 92.0203 9.23799 90.0699 10.168C89.8311 10.2795 89.3137 10.5399 88.5176 10.9491C87.7215 11.3211 87.1842 11.6187 86.9056 11.8419C86.6668 12.0279 86.4479 12.2883 86.2488 12.623C86.0498 12.9578 85.9105 13.181 85.8309 13.2926C85.4727 13.925 85.1344 14.4086 84.8159 14.7434C84.4975 15.0781 84.1194 15.2455 83.6815 15.2455C83.0447 15.2455 82.4676 15.0595 81.9501 14.6876C81.4327 14.2784 81.174 13.7948 81.174 13.2368ZM69.8898 6.6527C69.8898 6.09472 70.1087 5.61114 70.5466 5.20196C71.0242 4.79278 71.5615 4.58819 72.1586 4.58819C73.0343 4.58819 73.8502 5.07177 74.6065 6.03892C75.4025 7.00608 75.8603 7.93604 75.9797 8.82881C76.0593 9.34958 76.1389 9.72157 76.2185 9.94476C76.2981 10.1308 76.5369 10.3725 76.9349 10.6701C77.6116 11.1165 77.9499 11.5257 77.9499 11.8977C77.9499 12.4557 77.7907 12.8462 77.4723 13.0694C77.1937 13.2926 76.716 13.4972 76.0394 13.6832C75.2433 13.9064 74.706 14.1668 74.4274 14.4644C74.1885 14.6876 73.8502 15.8035 73.4124 17.8122C73.0144 19.8209 72.8153 21.1043 72.8153 21.6623C73.1736 21.6623 73.6313 21.5879 74.1885 21.4391C74.3478 21.4019 74.5269 21.3647 74.7259 21.3275C74.9647 21.2903 75.2433 21.2717 75.5617 21.2717C76.5568 21.2717 77.1539 21.9599 77.3529 23.3362C77.5519 24.6753 77.6514 26.2749 77.6514 28.1348C77.6514 29.6599 77.5917 30.9991 77.4723 32.1522C77.3529 33.3054 77.1141 34.4213 76.7558 35.5001C76.6762 35.7233 76.4374 36.4486 76.0394 37.6762C75.6812 38.8665 75.1637 39.8709 74.4871 40.6893C73.8104 41.5076 73.0741 41.9168 72.278 41.9168C71.1635 41.9168 70.3476 41.6936 69.8301 41.2472C69.3525 40.8381 69.1137 40.1313 69.1137 39.1269C69.1137 38.7549 69.1933 38.4946 69.3525 38.3458C69.5117 38.197 69.7903 38.1226 70.1883 38.1226C70.5864 38.1226 70.865 38.197 71.0242 38.3458C71.1834 38.4946 71.2829 38.569 71.3227 38.569C71.4819 38.569 71.6213 38.4574 71.7407 38.2342C71.8999 37.9738 71.9795 37.825 71.9795 37.7878C73.5716 34.6631 74.3677 31.1107 74.3677 27.1304C74.3677 25.1217 74.1089 24.1174 73.5915 24.1174C73.3527 24.1174 73.0144 24.322 72.5765 24.7311C72.1785 25.0659 71.8402 25.5495 71.5615 26.1819C71.2829 26.8142 70.9844 27.6512 70.666 28.6928C70.1485 30.1807 69.6709 31.3897 69.2331 32.3196C68.835 33.2124 68.2778 33.9935 67.5613 34.6631C67.1235 35.0723 66.7454 35.2769 66.427 35.2769C65.9891 35.2769 65.7105 35.1839 65.5911 34.9979C65.4717 34.7747 65.412 34.4399 65.412 33.9935C65.412 32.5056 66.009 29.8087 67.2031 25.9029C68.437 21.9599 69.5714 18.612 70.6063 15.8593H70.666L70.6063 15.5245C69.4918 15.5245 68.238 15.8965 66.8449 16.6405C66.4071 16.6405 66.0488 16.4731 65.7702 16.1383C65.5314 15.8035 65.412 15.4315 65.412 15.0223C65.412 14.5388 65.8299 14.0552 66.6658 13.5716C67.5016 13.088 68.6559 12.5301 70.1286 11.8977C70.3277 11.8233 70.666 11.6745 71.1436 11.4513C71.6213 11.2281 71.9596 11.0421 72.1586 10.8933C72.3974 10.7445 72.5168 10.6329 72.5168 10.5585C72.5168 10.1494 72.4173 9.83316 72.2183 9.60997C72.0193 9.34958 71.681 9.0148 71.2033 8.60562C70.7655 8.23363 70.4272 7.91745 70.1883 7.65706C69.9893 7.35947 69.8898 7.02468 69.8898 6.6527ZM81.5322 21.3833C81.5322 20.3417 82.2884 19.077 83.801 17.589C85.3533 16.1011 87.1245 14.7992 89.1146 13.6832C91.1048 12.5672 92.6571 12.0093 93.7716 12.0093C94.4483 12.0093 94.9657 12.1953 95.3239 12.5672C95.6821 12.902 95.8613 13.3856 95.8613 14.018C95.8613 14.6876 95.4433 15.3571 94.6075 16.0267C93.7716 16.6963 92.6173 17.4588 91.1446 18.3144C90.5078 18.6864 89.8908 19.077 89.2938 19.4862C88.6967 19.8581 88.2788 20.1929 88.04 20.4905L88.5773 20.2115C88.6967 21.1043 88.7564 21.9971 88.7564 22.8898C88.7564 26.4609 88.2987 29.8273 87.3832 32.9892C87.3434 33.1752 87.2439 33.4728 87.0847 33.882C86.9653 34.2911 86.9056 34.6631 86.9056 34.9979L87.025 35.2769C87.2638 35.1653 87.6818 34.9235 88.2788 34.5515C88.8758 34.1795 89.3933 33.9935 89.8311 33.9935C90.3087 33.9935 90.7068 34.1795 91.0252 34.5515C91.3436 34.8863 91.5028 35.2769 91.5028 35.7233C91.5028 36.1325 91.2242 36.5788 90.667 37.0624C90.1495 37.5088 89.4331 37.9924 88.5176 38.5132C87.5623 39.1083 86.9852 39.5175 86.7862 39.7407C86.5872 39.9267 86.3882 40.1685 86.1891 40.4661C86.0299 40.7637 85.9105 40.9683 85.8309 41.0798C85.5921 41.5262 85.3931 41.861 85.2339 42.0842C84.6766 42.791 84.199 43.3304 83.801 43.7023C83.4029 44.1115 83.0049 44.3161 82.6069 44.3161C81.771 44.3161 81.2337 43.9813 80.9948 43.3118C80.756 42.6794 80.6366 41.8796 80.6366 40.9125C80.6366 40.0569 80.7361 39.2385 80.9351 38.4574C81.174 37.639 81.5123 36.6346 81.9501 35.4443L82.6666 33.2682C83.1044 31.8918 83.6417 29.9947 84.2786 27.5768C84.9552 25.1217 85.2936 23.5594 85.2936 22.8898L85.1742 22.555L84.9353 22.4992C84.7363 22.4992 84.4378 22.6108 84.0398 22.834C83.6417 23.02 83.3034 23.113 83.0248 23.113C82.587 23.113 82.2287 22.927 81.9501 22.555C81.6715 22.183 81.5322 21.7925 81.5322 21.3833ZM89.2341 29.5855C89.2341 29.2879 89.453 28.9532 89.8908 28.5812C90.3684 28.172 90.6471 27.9302 90.7267 27.8558C91.1247 27.5582 91.9009 26.6469 93.0551 25.1217C94.6473 23.1874 95.8812 21.7739 96.7568 20.8811C97.6325 19.9511 98.3489 19.4862 98.9062 19.4862C99.5032 19.4862 100.06 19.7465 100.578 20.2673C101.135 20.7509 101.414 21.2717 101.414 21.8297C101.414 22.09 100.916 22.7038 99.9212 23.671C98.9659 24.6009 97.6325 25.8099 95.921 27.2978C94.4483 28.5254 93.7119 29.1949 93.7119 29.3065C93.7119 29.4553 93.8313 29.5669 94.0701 29.6413C94.3089 29.7157 94.4482 29.7529 94.488 29.7529C95.4035 30.0505 97.0553 30.8317 99.4435 32.0964C101.832 33.3612 104.061 34.6631 106.13 36.0023C108.24 37.3414 109.494 38.3272 109.892 38.9595C110.21 39.4431 110.369 40.0569 110.369 40.8009C110.369 41.0612 110.29 41.3402 110.131 41.6378C110.011 41.9354 109.832 42.0842 109.593 42.0842C109.394 42.0842 109.136 42.047 108.817 41.9726C108.419 41.8982 107.524 41.396 106.13 40.4661C104.777 39.5733 103.862 38.9781 103.384 38.6805C101.075 37.081 99.5231 36.0953 98.7271 35.7233L97.2345 34.9421C95.3637 34.0493 93.7915 33.2496 92.5178 32.5428C91.2839 31.836 90.4082 31.2037 89.8908 30.6457C89.851 30.6085 89.7316 30.4783 89.5326 30.2551C89.3336 30.0319 89.2341 29.8087 89.2341 29.5855Z" fill="#6A5D4A"/>
<path d="M126.908 10.2795C126.908 10.4655 126.908 10.8933 126.908 11.5629C126.947 12.2325 126.808 12.7346 126.49 13.0694C126.171 13.4042 125.634 13.5716 124.878 13.5716C124.281 13.5716 123.843 13.3112 123.564 12.7904C123.325 12.2325 123.126 11.6559 122.967 11.0607C122.848 10.4283 122.748 9.98196 122.669 9.72157L120.937 9.55418C119.663 9.40538 118.668 9.33099 117.952 9.33099L116.638 9.38678C115.723 9.38678 115.265 9.052 115.265 8.38243C115.265 7.63846 115.623 7.15488 116.34 6.93169C117.096 6.6713 118.171 6.48531 119.564 6.37371C120.201 6.33651 120.798 6.28071 121.355 6.20632C121.952 6.09472 122.39 5.94593 122.669 5.75994C122.907 5.61114 123.067 5.38795 123.146 5.09036C123.266 4.79278 123.365 4.38359 123.445 3.86282C123.564 3.08165 123.703 2.52367 123.863 2.18889C124.062 1.8169 124.46 1.63091 125.057 1.63091C125.335 1.63091 125.594 1.68671 125.833 1.7983C126.032 2.05869 126.211 2.78406 126.37 3.97441C126.45 4.75558 126.529 5.27636 126.609 5.53674C129.594 5.53674 131.405 5.42515 132.042 5.20196C132.361 5.09036 132.599 4.90437 132.759 4.64398C132.958 4.3464 133.216 3.88142 133.535 3.24904C133.813 2.57947 134.092 2.07729 134.371 1.74251C134.649 1.37052 135.027 1.18453 135.505 1.18453C135.704 1.18453 135.863 1.27752 135.983 1.46352C136.102 2.24468 136.162 3.41643 136.162 4.97877L137.953 4.92297C140.102 4.92297 141.177 5.40655 141.177 6.37371C141.177 7.08048 140.839 7.54546 140.162 7.76865C139.525 7.99184 138.59 8.15923 137.356 8.27083C136.401 8.34523 135.764 8.43822 135.445 8.54982C135.087 8.69861 134.789 8.9404 134.55 9.27519C134.311 9.60997 134.032 10.0564 133.714 10.6143C133.276 11.3211 132.918 11.8419 132.639 12.1767C132.4 12.4743 132.062 12.623 131.624 12.623C131.346 12.623 131.007 12.5487 130.609 12.3999C130.251 11.9907 130.072 11.5443 130.072 11.0607C130.072 10.8747 130.132 10.6329 130.251 10.3353C130.41 10.0006 130.49 9.75877 130.49 9.60997C130.49 9.34958 130.39 9.20079 130.191 9.16359C130.032 9.0892 129.793 9.052 129.475 9.052C128.719 9.052 128.102 9.12639 127.624 9.27519C127.146 9.42398 126.908 9.75877 126.908 10.2795ZM131.445 45.2647C130.171 45.2647 129.037 45.0787 128.042 44.7067C127.047 44.3347 126.549 43.6465 126.549 42.6422C126.549 40.2243 126.808 37.918 127.326 35.7233C127.445 35.2025 127.544 34.4957 127.624 33.603C127.704 32.2266 127.903 31.2037 128.221 30.5341C128.38 30.2365 128.46 29.9947 128.46 29.8087L128.34 29.6413C127.982 29.7529 127.186 30.4039 125.952 31.5942C124.718 32.7474 123.883 33.5286 123.445 33.9377C121.375 35.9093 119.723 37.4344 118.489 38.5132C117.295 39.5547 116.479 40.0755 116.041 40.0755C115.683 40.0755 115.365 39.9639 115.086 39.7407C114.807 39.5175 114.668 39.2385 114.668 38.9037C114.668 38.0854 115.783 36.3928 118.012 33.8262C120.28 31.2223 122.072 29.3251 123.385 28.1348C124.101 27.4652 124.599 26.9444 124.878 26.5725C124.48 26.1261 123.922 25.8099 123.206 25.6239C123.086 25.6611 122.609 25.8099 121.773 26.0703C120.977 26.3307 120.161 26.4609 119.325 26.4609C118.211 26.4609 117.653 26.1261 117.653 25.4565C117.653 24.6381 117.952 24.043 118.549 23.671C119.186 23.299 120.101 22.9456 121.295 22.6108C122.37 22.3132 123.166 22.0343 123.684 21.7739C124.201 21.4763 124.46 21.0113 124.46 20.3789C124.46 20.1185 124.221 19.9883 123.743 19.9883C123.305 19.9883 122.688 20.0627 121.892 20.2115C121.096 20.3603 120.479 20.4347 120.042 20.4347C119.723 20.4347 119.405 20.2673 119.086 19.9325C118.768 19.5606 118.609 19.2258 118.609 18.9282C118.609 18.0726 118.947 17.4774 119.624 17.1427C120.3 16.8079 121.295 16.5475 122.609 16.3615C123.365 16.2499 123.982 16.1383 124.46 16.0267C124.937 15.9151 125.315 15.7477 125.594 15.5245C125.674 15.3757 125.833 15.0781 126.072 14.6318C126.35 14.1482 126.649 13.7948 126.967 13.5716C127.325 13.3484 127.743 13.2368 128.221 13.2368C128.699 13.2368 129.037 13.4228 129.236 13.7948C129.435 14.1296 129.535 14.5388 129.535 15.0223C129.933 15.3571 131.007 15.5245 132.759 15.5245C133.873 15.5245 134.57 15.5617 134.848 15.6361C135.167 15.7105 135.386 15.8593 135.505 16.0825C135.704 16.4545 136.003 16.7707 136.401 17.0311L137.714 16.9753C138.431 16.9753 138.968 17.2729 139.326 17.868C139.286 18.1284 138.968 18.5004 138.371 18.984C138.092 19.2444 137.833 19.5048 137.595 19.7651C137.396 20.0255 137.296 20.2673 137.296 20.4905C137.296 20.6765 137.356 20.8253 137.475 20.9369C137.634 21.0113 137.814 21.0857 138.013 21.1601C138.212 21.1973 138.331 21.2159 138.371 21.2159C138.769 21.2903 139.067 21.4019 139.266 21.5507C139.505 21.6623 139.625 21.8669 139.625 22.1644C139.625 22.7596 139.426 23.2432 139.028 23.6152C138.63 23.95 138.112 24.1174 137.475 24.1174C136.202 24.1174 135.127 24.2848 134.251 24.6195C133.415 24.9543 132.679 25.4193 132.042 26.0145C131.445 26.5725 130.689 27.4094 129.773 28.5254L129.833 28.5812H132.759H133.833C134.51 28.5812 135.007 28.6556 135.326 28.8044C136.162 29.102 136.699 29.8273 136.938 30.9805C137.177 32.1336 137.296 33.4356 137.296 34.8863C137.296 36.7462 137.077 38.6619 136.639 40.6335C136.6 40.7823 136.58 40.9869 136.58 41.2472C136.58 41.4704 136.619 41.768 136.699 42.14C136.819 42.512 136.878 42.791 136.878 42.977C136.878 43.8697 136.281 44.4649 135.087 44.7625C133.933 45.0973 132.719 45.2647 131.445 45.2647ZM130.012 20.1557C130.012 20.3417 130.052 20.5463 130.132 20.7695C130.211 20.9555 130.351 21.0485 130.55 21.0485C130.788 21.0485 131.266 20.7695 131.982 20.2115C132.739 19.6164 133.196 19.1886 133.356 18.9282C133.316 18.7794 133.137 18.705 132.818 18.705C130.948 18.705 130.012 19.1886 130.012 20.1557ZM131.744 34.4399C132.221 34.4399 132.699 34.3655 133.177 34.2167C133.694 34.0679 133.953 33.8262 133.953 33.4914C133.953 33.2682 133.893 33.0636 133.774 32.8776C133.654 32.6544 133.475 32.5428 133.236 32.5428C132.878 32.5428 132.42 32.7288 131.863 33.1008C131.346 33.4356 131.087 33.7518 131.087 34.0493C131.087 34.3097 131.306 34.4399 131.744 34.4399ZM130.072 41.303C130.51 41.303 131.127 41.21 131.923 41.024C132.759 40.8753 133.256 40.6893 133.415 40.4661C133.535 40.2801 133.594 40.0383 133.594 39.7407C133.594 39.4059 133.594 39.2199 133.594 39.1827C133.594 38.6991 133.515 38.3644 133.356 38.1784C133.236 37.9552 132.938 37.8436 132.46 37.8436C131.385 37.8436 130.709 38.0668 130.43 38.5132C130.191 38.9223 130.072 39.6849 130.072 40.8009V41.303Z" fill="#6A5D4A"/>
<path d="M81.174 13.2368C81.174 13.0508 81.9302 11.0421 83.4427 7.21067C84.995 3.37924 85.8508 1.38912 86.01 1.24033C86.1692 1.05433 86.3085 0.942739 86.428 0.905541C86.5872 0.831144 86.8061 0.793945 87.0847 0.793945C87.2439 0.793945 87.5225 0.831144 87.9206 0.905541C88.3584 1.31472 88.5773 1.9099 88.5773 2.69107C88.5773 3.02585 88.5375 3.52803 88.4579 4.1976C88.3385 4.68118 88.2788 5.18336 88.2788 5.70414C88.2788 6.07612 88.3783 6.26211 88.5773 6.26211C88.8161 6.26211 89.3336 6.05752 90.1296 5.64834C90.9655 5.23916 91.6819 4.92297 92.279 4.69978C92.876 4.43939 93.5129 4.3092 94.1895 4.3092C94.7468 4.3092 95.2443 4.45799 95.6821 4.75558C96.12 5.01597 96.3389 5.38795 96.3389 5.87153C96.3389 6.42951 95.7816 7.06188 94.6672 7.76865C93.5527 8.43822 92.0203 9.23799 90.0699 10.168C89.8311 10.2795 89.3137 10.5399 88.5176 10.9491C87.7215 11.3211 87.1842 11.6187 86.9056 11.8419C86.6668 12.0279 86.4479 12.2883 86.2488 12.623C86.0498 12.9578 85.9105 13.181 85.8309 13.2926C85.4727 13.925 85.1344 14.4086 84.8159 14.7434C84.4975 15.0781 84.1194 15.2455 83.6815 15.2455C83.0447 15.2455 82.4676 15.0595 81.9501 14.6876C81.4327 14.2784 81.174 13.7948 81.174 13.2368ZM69.8898 6.6527C69.8898 6.09472 70.1087 5.61114 70.5466 5.20196C71.0242 4.79278 71.5615 4.58819 72.1586 4.58819C73.0343 4.58819 73.8502 5.07177 74.6065 6.03892C75.4025 7.00608 75.8603 7.93604 75.9797 8.82881C76.0593 9.34958 76.1389 9.72157 76.2185 9.94476C76.2981 10.1308 76.5369 10.3725 76.9349 10.6701C77.6116 11.1165 77.9499 11.5257 77.9499 11.8977C77.9499 12.4557 77.7907 12.8462 77.4723 13.0694C77.1937 13.2926 76.716 13.4972 76.0394 13.6832C75.2433 13.9064 74.706 14.1668 74.4274 14.4644C74.1885 14.6876 73.8502 15.8035 73.4124 17.8122C73.0144 19.8209 72.8153 21.1043 72.8153 21.6623C73.1736 21.6623 73.6313 21.5879 74.1885 21.4391C74.3478 21.4019 74.5269 21.3647 74.7259 21.3275C74.9647 21.2903 75.2433 21.2717 75.5617 21.2717C76.5568 21.2717 77.1539 21.9599 77.3529 23.3362C77.5519 24.6753 77.6514 26.2749 77.6514 28.1348C77.6514 29.6599 77.5917 30.9991 77.4723 32.1522C77.3529 33.3054 77.1141 34.4213 76.7558 35.5001C76.6762 35.7233 76.4374 36.4486 76.0394 37.6762C75.6812 38.8665 75.1637 39.8709 74.4871 40.6893C73.8104 41.5076 73.0741 41.9168 72.278 41.9168C71.1635 41.9168 70.3476 41.6936 69.8301 41.2472C69.3525 40.8381 69.1137 40.1313 69.1137 39.1269C69.1137 38.7549 69.1933 38.4946 69.3525 38.3458C69.5117 38.197 69.7903 38.1226 70.1883 38.1226C70.5864 38.1226 70.865 38.197 71.0242 38.3458C71.1834 38.4946 71.2829 38.569 71.3227 38.569C71.4819 38.569 71.6213 38.4574 71.7407 38.2342C71.8999 37.9738 71.9795 37.825 71.9795 37.7878C73.5716 34.6631 74.3677 31.1107 74.3677 27.1304C74.3677 25.1217 74.1089 24.1174 73.5915 24.1174C73.3527 24.1174 73.0144 24.322 72.5765 24.7311C72.1785 25.0659 71.8402 25.5495 71.5615 26.1819C71.2829 26.8142 70.9844 27.6512 70.666 28.6928C70.1485 30.1807 69.6709 31.3897 69.2331 32.3196C68.835 33.2124 68.2778 33.9935 67.5613 34.6631C67.1235 35.0723 66.7454 35.2769 66.427 35.2769C65.9891 35.2769 65.7105 35.1839 65.5911 34.9979C65.4717 34.7747 65.412 34.4399 65.412 33.9935C65.412 32.5056 66.009 29.8087 67.2031 25.9029C68.437 21.9599 69.5714 18.612 70.6063 15.8593H70.666L70.6063 15.5245C69.4918 15.5245 68.238 15.8965 66.8449 16.6405C66.4071 16.6405 66.0488 16.4731 65.7702 16.1383C65.5314 15.8035 65.412 15.4315 65.412 15.0223C65.412 14.5388 65.8299 14.0552 66.6658 13.5716C67.5016 13.088 68.6559 12.5301 70.1286 11.8977C70.3277 11.8233 70.666 11.6745 71.1436 11.4513C71.6213 11.2281 71.9596 11.0421 72.1586 10.8933C72.3974 10.7445 72.5168 10.6329 72.5168 10.5585C72.5168 10.1494 72.4173 9.83316 72.2183 9.60997C72.0193 9.34958 71.681 9.0148 71.2033 8.60562C70.7655 8.23363 70.4272 7.91745 70.1883 7.65706C69.9893 7.35947 69.8898 7.02468 69.8898 6.6527ZM81.5322 21.3833C81.5322 20.3417 82.2884 19.077 83.801 17.589C85.3533 16.1011 87.1245 14.7992 89.1146 13.6832C91.1048 12.5672 92.6571 12.0093 93.7716 12.0093C94.4483 12.0093 94.9657 12.1953 95.3239 12.5672C95.6821 12.902 95.8613 13.3856 95.8613 14.018C95.8613 14.6876 95.4433 15.3571 94.6075 16.0267C93.7716 16.6963 92.6173 17.4588 91.1446 18.3144C90.5078 18.6864 89.8908 19.077 89.2938 19.4862C88.6967 19.8581 88.2788 20.1929 88.04 20.4905L88.5773 20.2115C88.6967 21.1043 88.7564 21.9971 88.7564 22.8898C88.7564 26.4609 88.2987 29.8273 87.3832 32.9892C87.3434 33.1752 87.2439 33.4728 87.0847 33.882C86.9653 34.2911 86.9056 34.6631 86.9056 34.9979L87.025 35.2769C87.2638 35.1653 87.6818 34.9235 88.2788 34.5515C88.8758 34.1795 89.3933 33.9935 89.8311 33.9935C90.3087 33.9935 90.7068 34.1795 91.0252 34.5515C91.3436 34.8863 91.5028 35.2769 91.5028 35.7233C91.5028 36.1325 91.2242 36.5788 90.667 37.0624C90.1495 37.5088 89.4331 37.9924 88.5176 38.5132C87.5623 39.1083 86.9852 39.5175 86.7862 39.7407C86.5872 39.9267 86.3882 40.1685 86.1891 40.4661C86.0299 40.7637 85.9105 40.9683 85.8309 41.0798C85.5921 41.5262 85.3931 41.861 85.2339 42.0842C84.6766 42.791 84.199 43.3304 83.801 43.7023C83.4029 44.1115 83.0049 44.3161 82.6069 44.3161C81.771 44.3161 81.2337 43.9813 80.9948 43.3118C80.756 42.6794 80.6366 41.8796 80.6366 40.9125C80.6366 40.0569 80.7361 39.2385 80.9351 38.4574C81.174 37.639 81.5123 36.6346 81.9501 35.4443L82.6666 33.2682C83.1044 31.8918 83.6417 29.9947 84.2786 27.5768C84.9552 25.1217 85.2936 23.5594 85.2936 22.8898L85.1742 22.555L84.9353 22.4992C84.7363 22.4992 84.4378 22.6108 84.0398 22.834C83.6417 23.02 83.3034 23.113 83.0248 23.113C82.587 23.113 82.2287 22.927 81.9501 22.555C81.6715 22.183 81.5322 21.7925 81.5322 21.3833ZM89.2341 29.5855C89.2341 29.2879 89.453 28.9532 89.8908 28.5812C90.3684 28.172 90.6471 27.9302 90.7267 27.8558C91.1247 27.5582 91.9009 26.6469 93.0551 25.1217C94.6473 23.1874 95.8812 21.7739 96.7568 20.8811C97.6325 19.9511 98.3489 19.4862 98.9062 19.4862C99.5032 19.4862 100.06 19.7465 100.578 20.2673C101.135 20.7509 101.414 21.2717 101.414 21.8297C101.414 22.09 100.916 22.7038 99.9212 23.671C98.9659 24.6009 97.6325 25.8099 95.921 27.2978C94.4483 28.5254 93.7119 29.1949 93.7119 29.3065C93.7119 29.4553 93.8313 29.5669 94.0701 29.6413C94.3089 29.7157 94.4482 29.7529 94.488 29.7529C95.4035 30.0505 97.0553 30.8317 99.4435 32.0964C101.832 33.3612 104.061 34.6631 106.13 36.0023C108.24 37.3414 109.494 38.3272 109.892 38.9595C110.21 39.4431 110.369 40.0569 110.369 40.8009C110.369 41.0612 110.29 41.3402 110.131 41.6378C110.011 41.9354 109.832 42.0842 109.593 42.0842C109.394 42.0842 109.136 42.047 108.817 41.9726C108.419 41.8982 107.524 41.396 106.13 40.4661C104.777 39.5733 103.862 38.9781 103.384 38.6805C101.075 37.081 99.5231 36.0953 98.7271 35.7233L97.2345 34.9421C95.3637 34.0493 93.7915 33.2496 92.5178 32.5428C91.2839 31.836 90.4082 31.2037 89.8908 30.6457C89.851 30.6085 89.7316 30.4783 89.5326 30.2551C89.3336 30.0319 89.2341 29.8087 89.2341 29.5855Z" stroke="#6A5D4A" mask="url(#path-1-outside-1_2703_14304)"/>
<path d="M126.908 10.2795C126.908 10.4655 126.908 10.8933 126.908 11.5629C126.947 12.2325 126.808 12.7346 126.49 13.0694C126.171 13.4042 125.634 13.5716 124.878 13.5716C124.281 13.5716 123.843 13.3112 123.564 12.7904C123.325 12.2325 123.126 11.6559 122.967 11.0607C122.848 10.4283 122.748 9.98196 122.669 9.72157L120.937 9.55418C119.663 9.40538 118.668 9.33099 117.952 9.33099L116.638 9.38678C115.723 9.38678 115.265 9.052 115.265 8.38243C115.265 7.63846 115.623 7.15488 116.34 6.93169C117.096 6.6713 118.171 6.48531 119.564 6.37371C120.201 6.33651 120.798 6.28071 121.355 6.20632C121.952 6.09472 122.39 5.94593 122.669 5.75994C122.907 5.61114 123.067 5.38795 123.146 5.09036C123.266 4.79278 123.365 4.38359 123.445 3.86282C123.564 3.08165 123.703 2.52367 123.863 2.18889C124.062 1.8169 124.46 1.63091 125.057 1.63091C125.335 1.63091 125.594 1.68671 125.833 1.7983C126.032 2.05869 126.211 2.78406 126.37 3.97441C126.45 4.75558 126.529 5.27636 126.609 5.53674C129.594 5.53674 131.405 5.42515 132.042 5.20196C132.361 5.09036 132.599 4.90437 132.759 4.64398C132.958 4.3464 133.216 3.88142 133.535 3.24904C133.813 2.57947 134.092 2.07729 134.371 1.74251C134.649 1.37052 135.027 1.18453 135.505 1.18453C135.704 1.18453 135.863 1.27752 135.983 1.46352C136.102 2.24468 136.162 3.41643 136.162 4.97877L137.953 4.92297C140.102 4.92297 141.177 5.40655 141.177 6.37371C141.177 7.08048 140.839 7.54546 140.162 7.76865C139.525 7.99184 138.59 8.15923 137.356 8.27083C136.401 8.34523 135.764 8.43822 135.445 8.54982C135.087 8.69861 134.789 8.9404 134.55 9.27519C134.311 9.60997 134.032 10.0564 133.714 10.6143C133.276 11.3211 132.918 11.8419 132.639 12.1767C132.4 12.4743 132.062 12.623 131.624 12.623C131.346 12.623 131.007 12.5487 130.609 12.3999C130.251 11.9907 130.072 11.5443 130.072 11.0607C130.072 10.8747 130.132 10.6329 130.251 10.3353C130.41 10.0006 130.49 9.75877 130.49 9.60997C130.49 9.34958 130.39 9.20079 130.191 9.16359C130.032 9.0892 129.793 9.052 129.475 9.052C128.719 9.052 128.102 9.12639 127.624 9.27519C127.146 9.42398 126.908 9.75877 126.908 10.2795ZM131.445 45.2647C130.171 45.2647 129.037 45.0787 128.042 44.7067C127.047 44.3347 126.549 43.6465 126.549 42.6422C126.549 40.2243 126.808 37.918 127.326 35.7233C127.445 35.2025 127.544 34.4957 127.624 33.603C127.704 32.2266 127.903 31.2037 128.221 30.5341C128.38 30.2365 128.46 29.9947 128.46 29.8087L128.34 29.6413C127.982 29.7529 127.186 30.4039 125.952 31.5942C124.718 32.7474 123.883 33.5286 123.445 33.9377C121.375 35.9093 119.723 37.4344 118.489 38.5132C117.295 39.5547 116.479 40.0755 116.041 40.0755C115.683 40.0755 115.365 39.9639 115.086 39.7407C114.807 39.5175 114.668 39.2385 114.668 38.9037C114.668 38.0854 115.783 36.3928 118.012 33.8262C120.28 31.2223 122.072 29.3251 123.385 28.1348C124.101 27.4652 124.599 26.9444 124.878 26.5725C124.48 26.1261 123.922 25.8099 123.206 25.6239C123.086 25.6611 122.609 25.8099 121.773 26.0703C120.977 26.3307 120.161 26.4609 119.325 26.4609C118.211 26.4609 117.653 26.1261 117.653 25.4565C117.653 24.6381 117.952 24.043 118.549 23.671C119.186 23.299 120.101 22.9456 121.295 22.6108C122.37 22.3132 123.166 22.0343 123.684 21.7739C124.201 21.4763 124.46 21.0113 124.46 20.3789C124.46 20.1185 124.221 19.9883 123.743 19.9883C123.305 19.9883 122.688 20.0627 121.892 20.2115C121.096 20.3603 120.479 20.4347 120.042 20.4347C119.723 20.4347 119.405 20.2673 119.086 19.9325C118.768 19.5606 118.609 19.2258 118.609 18.9282C118.609 18.0726 118.947 17.4774 119.624 17.1427C120.3 16.8079 121.295 16.5475 122.609 16.3615C123.365 16.2499 123.982 16.1383 124.46 16.0267C124.937 15.9151 125.315 15.7477 125.594 15.5245C125.674 15.3757 125.833 15.0781 126.072 14.6318C126.35 14.1482 126.649 13.7948 126.967 13.5716C127.325 13.3484 127.743 13.2368 128.221 13.2368C128.699 13.2368 129.037 13.4228 129.236 13.7948C129.435 14.1296 129.535 14.5388 129.535 15.0223C129.933 15.3571 131.007 15.5245 132.759 15.5245C133.873 15.5245 134.57 15.5617 134.848 15.6361C135.167 15.7105 135.386 15.8593 135.505 16.0825C135.704 16.4545 136.003 16.7707 136.401 17.0311L137.714 16.9753C138.431 16.9753 138.968 17.2729 139.326 17.868C139.286 18.1284 138.968 18.5004 138.371 18.984C138.092 19.2444 137.833 19.5048 137.595 19.7651C137.396 20.0255 137.296 20.2673 137.296 20.4905C137.296 20.6765 137.356 20.8253 137.475 20.9369C137.634 21.0113 137.814 21.0857 138.013 21.1601C138.212 21.1973 138.331 21.2159 138.371 21.2159C138.769 21.2903 139.067 21.4019 139.266 21.5507C139.505 21.6623 139.625 21.8669 139.625 22.1644C139.625 22.7596 139.426 23.2432 139.028 23.6152C138.63 23.95 138.112 24.1174 137.475 24.1174C136.202 24.1174 135.127 24.2848 134.251 24.6195C133.415 24.9543 132.679 25.4193 132.042 26.0145C131.445 26.5725 130.689 27.4094 129.773 28.5254L129.833 28.5812H132.759H133.833C134.51 28.5812 135.007 28.6556 135.326 28.8044C136.162 29.102 136.699 29.8273 136.938 30.9805C137.177 32.1336 137.296 33.4356 137.296 34.8863C137.296 36.7462 137.077 38.6619 136.639 40.6335C136.6 40.7823 136.58 40.9869 136.58 41.2472C136.58 41.4704 136.619 41.768 136.699 42.14C136.819 42.512 136.878 42.791 136.878 42.977C136.878 43.8697 136.281 44.4649 135.087 44.7625C133.933 45.0973 132.719 45.2647 131.445 45.2647ZM130.012 20.1557C130.012 20.3417 130.052 20.5463 130.132 20.7695C130.211 20.9555 130.351 21.0485 130.55 21.0485C130.788 21.0485 131.266 20.7695 131.982 20.2115C132.739 19.6164 133.196 19.1886 133.356 18.9282C133.316 18.7794 133.137 18.705 132.818 18.705C130.948 18.705 130.012 19.1886 130.012 20.1557ZM131.744 34.4399C132.221 34.4399 132.699 34.3655 133.177 34.2167C133.694 34.0679 133.953 33.8262 133.953 33.4914C133.953 33.2682 133.893 33.0636 133.774 32.8776C133.654 32.6544 133.475 32.5428 133.236 32.5428C132.878 32.5428 132.42 32.7288 131.863 33.1008C131.346 33.4356 131.087 33.7518 131.087 34.0493C131.087 34.3097 131.306 34.4399 131.744 34.4399ZM130.072 41.303C130.51 41.303 131.127 41.21 131.923 41.024C132.759 40.8753 133.256 40.6893 133.415 40.4661C133.535 40.2801 133.594 40.0383 133.594 39.7407C133.594 39.4059 133.594 39.2199 133.594 39.1827C133.594 38.6991 133.515 38.3644 133.356 38.1784C133.236 37.9552 132.938 37.8436 132.46 37.8436C131.385 37.8436 130.709 38.0668 130.43 38.5132C130.191 38.9223 130.072 39.6849 130.072 40.8009V41.303Z" stroke="#6A5D4A" mask="url(#path-1-outside-1_2703_14304)"/>
<g clip-path="url(#clip0_2703_14304)">
<path d="M21.427 48.0936C20.819 45.814 20.6042 44.9793 20.5069 44.6644L20.4907 44.5679C20.288 43.3159 19.3233 41.3946 18.0587 41.0382C17.4041 40.8552 16.7697 41.0934 16.1719 41.7469L16.1577 41.7647C15.3673 42.873 15.0552 44.1762 14.7553 45.438C14.5722 46.3398 14.3008 47.2224 13.9446 48.0739C13.8636 48.2783 13.8695 48.5056 13.9608 48.7059C14.0057 48.8043 14.0704 48.893 14.1512 48.9667C14.2319 49.0404 14.3271 49.0976 14.431 49.135C14.5262 49.1784 14.6299 49.2012 14.735 49.2019C14.8403 49.2031 14.9445 49.1802 15.039 49.135C15.6936 48.82 16.0199 47.4755 16.2834 46.3947C16.3644 46.0601 16.4354 45.7648 16.5002 45.5758H19.0011L19.7854 48.5444C19.8132 48.6496 19.8621 48.7485 19.9292 48.8354C19.9964 48.9222 20.0805 48.9954 20.1768 49.0507C20.273 49.106 20.3795 49.1424 20.4903 49.1577C20.601 49.173 20.7137 49.1669 20.822 49.1399C20.9304 49.1129 21.0321 49.0654 21.1216 49.0002C21.211 48.935 21.2863 48.8533 21.3433 48.7598C21.4002 48.6663 21.4376 48.5628 21.4534 48.4553C21.4691 48.3477 21.4629 48.2382 21.4351 48.133L21.427 48.0936ZM18.5066 43.9202H16.944C17.3109 42.7962 17.5946 42.6997 17.6797 42.6978C17.7648 42.6958 18.0526 42.7667 18.5066 43.9202Z" fill="#695C4A"/>
<path d="M7.35812 40.3847C7.1414 40.3671 6.92594 40.4307 6.75597 40.5625C6.586 40.6942 6.47441 40.8842 6.4441 41.0934V41.1131C6.4441 41.3001 6.40154 41.6663 6.35898 42.0974C6.06917 44.9794 5.85029 48.1055 6.9082 48.7394C7.02678 48.796 7.15708 48.8256 7.28921 48.826C7.41165 48.8227 7.53192 48.7938 7.64185 48.7413C10.7264 47.3633 12.2545 45.4676 11.835 43.5266C11.4682 41.8356 9.6685 40.5717 7.35812 40.3847ZM7.88099 46.7728C7.83989 45.2435 7.89133 43.7133 8.03502 42.1899C9.35234 42.5836 10.1225 43.2215 10.2137 43.9813C10.317 44.8534 9.46989 45.8672 7.88099 46.7728Z" fill="#695C4A"/>
<path d="M25.2128 39.9493C24.9212 39.9076 24.6235 39.938 24.3474 40.0379C23.4678 40.3549 22.9125 40.973 22.8983 41.6521C22.8841 42.2978 23.3563 42.8845 24.2015 43.2743C24.1163 43.7073 24.1244 44.7763 24.1711 46.7606C24.1852 47.3512 24.2055 48.1721 24.1852 48.2666V48.2941V48.3099C24.1803 48.422 24.1989 48.5339 24.2399 48.6388C24.2808 48.7437 24.3433 48.8395 24.4235 48.9203C24.5037 49.001 24.5999 49.0652 24.7063 49.1087C24.8128 49.1523 24.9272 49.1745 25.0428 49.1738C25.1583 49.1731 25.2725 49.1497 25.3784 49.1049C25.4843 49.0601 25.5797 48.9948 25.6589 48.9131C25.7381 48.8314 25.7994 48.735 25.839 48.6296C25.8787 48.5242 25.8959 48.4121 25.8897 48.3V48.2744V48.2528C25.8755 48.174 25.8795 47.4791 25.8897 46.8512C25.9079 44.5715 25.8897 43.6365 25.8106 43.2585C26.7064 42.8156 27.1766 42.1325 27.0732 41.4159C26.9516 40.6698 26.2261 40.093 25.2128 39.9493ZM25.1965 41.66C25.1236 41.7092 25.0466 41.7565 24.9817 41.7939C24.8966 41.7525 24.8297 41.7132 24.7791 41.6797C24.848 41.6462 24.9229 41.6147 25.002 41.5852C25.0749 41.6128 25.1418 41.6364 25.1965 41.6541V41.66Z" fill="#695C4A"/>
<path d="M39.7986 39.8686C39.5932 39.7777 39.3591 39.7695 39.1475 39.8459C38.936 39.9222 38.7642 40.0769 38.6698 40.2761L37.5551 42.6561L36.408 40.2938C36.3052 40.1058 36.1319 39.9635 35.924 39.8963C35.7161 39.8291 35.4896 39.8421 35.2913 39.9327C35.0931 40.0233 34.9383 40.1845 34.8591 40.3829C34.7798 40.5814 34.7822 40.8018 34.8657 40.9985L36.7242 44.8156L36.7465 48.2252C36.7389 48.3637 36.7707 48.5015 36.8382 48.6237C36.9057 48.7459 37.0065 48.8477 37.1295 48.9181C37.2707 48.9948 37.4298 49.0351 37.5916 49.0351C37.7534 49.0351 37.9125 48.9948 38.0537 48.9181C38.1775 48.848 38.279 48.746 38.347 48.6234C38.4149 48.5007 38.4467 48.3623 38.4387 48.2232L38.4225 44.8038L40.2201 40.9631C40.3136 40.7634 40.3217 40.5358 40.2427 40.3302C40.1637 40.1247 40.004 39.958 39.7986 39.8666V39.8686Z" fill="#695C4A"/>
<path d="M31.3272 39.8472C31.2154 39.8479 31.1049 39.8701 31.0019 39.9124C30.8989 39.9546 30.8056 40.0162 30.7271 40.0935C30.6486 40.1708 30.5866 40.2624 30.5445 40.363C30.5025 40.4636 30.4813 40.5713 30.4821 40.6799L30.5327 48.2687C30.5359 48.4881 30.6279 48.6973 30.7887 48.8513C30.9495 49.0053 31.1662 49.0916 31.392 49.0916C31.6178 49.089 31.8334 48.9998 31.9917 48.8434C32.15 48.6871 32.2382 48.4762 32.2372 48.2569L32.1804 40.67C32.1783 40.4514 32.0875 40.2424 31.9278 40.0884C31.7681 39.9343 31.5523 39.8477 31.3272 39.8472Z" fill="#695C4A"/>
<path d="M44.2333 44.9655C44.0105 44.8531 43.7576 44.7939 43.5 44.7939C43.2424 44.7939 42.9895 44.8531 42.7667 44.9655C42.2727 45.2158 41.9924 45.7002 42.0002 46.2923C42.0079 46.8844 42.2727 47.3688 42.7667 47.6218C42.9893 47.7345 43.2423 47.7939 43.5 47.7939C43.7577 47.7939 44.0107 47.7345 44.2333 47.6218C44.7288 47.3715 45.0076 46.887 44.9998 46.295C44.9921 45.7029 44.7288 45.2158 44.2333 44.9655Z" fill="#695C4A"/>
<path d="M62.3896 41.467L62.3673 41.2957C62.3718 41.1423 62.3429 40.9898 62.2824 40.848C62.222 40.7062 62.1315 40.5784 62.0167 40.4729C61.9244 40.3967 61.8157 40.3416 61.6985 40.3116C61.5814 40.2817 61.4588 40.2776 61.3398 40.2996C60.5008 40.4867 60.6183 41.2012 60.7035 41.721C60.7257 41.8627 60.7501 42.0084 60.7582 42.1462V42.1698C60.8433 43.0478 60.9973 44.6502 60.7278 45.5164C60.3832 45.2585 60.1785 44.7427 59.9962 44.284C59.759 43.6935 59.5138 43.0694 58.9484 43.0694C58.3647 43.0379 58.1033 43.6108 57.8114 44.2388C57.5824 44.7348 57.323 45.29 56.9015 45.5164C56.6279 44.5459 56.9217 42.9572 57.1203 41.8883V41.8627C57.1426 41.7465 57.1629 41.6363 57.173 41.5654C57.2276 41.4267 57.2522 41.2786 57.2452 41.1302C57.2383 40.9819 57.1999 40.8365 57.1325 40.7032C57.0764 40.6032 56.9985 40.5162 56.9044 40.4482C56.8103 40.3802 56.7021 40.3329 56.5873 40.3095C56.473 40.2831 56.3543 40.2807 56.2389 40.3025C56.1236 40.3242 56.0144 40.3695 55.9185 40.4355C55.8199 40.5011 55.7363 40.5859 55.6732 40.6845C55.6101 40.7831 55.5687 40.8934 55.5517 41.0083C55.3365 41.9664 55.1909 42.938 55.116 43.9159C54.8789 45.5183 55.3653 46.8196 56.332 47.1542C57.1426 47.4357 58.0789 46.9574 58.8511 45.8687C59.2686 46.5676 60.1036 47.2586 60.9629 47.2586C61.3864 47.2586 61.96 47.0617 62.2903 46.2093C62.7828 44.8175 62.5558 42.8804 62.3896 41.467Z" fill="#695C4A"/>
<path d="M52.5928 40.5991H46.7298C46.6143 40.5937 46.499 40.611 46.3907 40.6501C46.2824 40.6893 46.1834 40.7494 46.0997 40.8268C46.0161 40.9042 45.9495 40.9973 45.9039 41.1004C45.8584 41.2036 45.835 41.3147 45.835 41.4269C45.835 41.5391 45.8584 41.6502 45.9039 41.7534C45.9495 41.8565 46.0161 41.9496 46.0997 42.0271C46.1834 42.1045 46.2824 42.1645 46.3907 42.2037C46.499 42.2428 46.6143 42.2602 46.7298 42.2547H48.8091V47.2824C48.8035 47.3945 48.8213 47.5066 48.8616 47.6118C48.9019 47.717 48.9638 47.8131 49.0435 47.8944C49.1231 47.9757 49.219 48.0404 49.3252 48.0846C49.4314 48.1288 49.5458 48.1516 49.6613 48.1516C49.7768 48.1516 49.8912 48.1288 49.9974 48.0846C50.1036 48.0404 50.1995 47.9757 50.2791 47.8944C50.3588 47.8131 50.4207 47.717 50.461 47.6118C50.5013 47.5066 50.5191 47.3945 50.5135 47.2824V42.2547H52.5928C52.8117 42.2443 53.018 42.1526 53.1691 41.9985C53.3202 41.8444 53.4045 41.6397 53.4045 41.4269C53.4045 41.2141 53.3202 41.0094 53.1691 40.8553C53.018 40.7012 52.8117 40.6095 52.5928 40.5991Z" fill="#695C4A"/>
</g>
<path d="M186.886 40.8657C187.708 40.044 189.368 39.967 190.095 40.0312C190.673 40.0822 191.187 40.7373 191.251 41.0583C191.314 41.373 191.251 43.1765 190.416 44.011C189.582 44.8454 189.004 44.3961 189.582 43.4974C190.16 42.5988 189.454 42.638 189.197 42.7914C189.065 42.8704 188.427 43.3263 188.041 43.4974C187.592 44.011 186.039 43.5623 187.271 42.638C188.504 41.7137 188.041 41.4826 187.656 41.4826C186.993 41.6324 186.064 41.6873 186.886 40.8657Z" fill="#6A5D4A"/>
<path d="M190.482 35.8764C191.304 35.0548 192.964 34.9778 193.692 35.0419C194.269 35.0929 194.783 35.748 194.847 36.069C194.91 36.3837 194.847 38.1872 194.013 39.0217C193.178 39.8562 192.6 39.4068 193.178 38.5082C193.756 37.6095 193.05 37.6487 192.793 37.8021C192.661 37.8811 192.023 38.337 191.638 38.5082C191.188 39.0217 189.635 38.5731 190.867 37.6487C192.1 36.7244 191.638 36.4933 191.253 36.4933C190.589 36.6431 189.661 36.698 190.482 35.8764Z" fill="#6A5D4A"/>
<path d="M195.618 39.5991C196.439 38.7774 198.1 38.7004 198.827 38.7646C199.405 38.8156 199.918 39.4707 199.982 39.7917C200.045 40.1064 199.982 41.9099 199.148 42.7444C198.314 43.5788 197.736 43.1295 198.314 42.2308C198.891 41.3322 198.185 41.3714 197.928 41.5248C197.796 41.6038 197.158 42.0597 196.773 42.2308C196.324 42.7444 194.77 42.2957 196.003 41.3714C197.235 40.4471 196.773 40.216 196.388 40.216C195.725 40.3658 194.796 40.4207 195.618 39.5991Z" fill="#6A5D4A"/>
<path fill-rule="evenodd" clip-rule="evenodd" d="M170.383 26.0187C170.383 26.0188 170.383 26.0215 170.384 26.0264C170.383 26.0211 170.382 26.0187 170.383 26.0187ZM170.41 26.1031C171.255 24.3083 171.457 22.7086 171.15 21.3574C170.832 19.9609 169.989 18.9134 168.929 18.2537C166.868 16.9708 163.85 17.0994 162.146 19.0593C161.527 19.7707 160.975 20.9261 160.702 22.0622C160.184 22.4725 159.658 22.9517 159.232 23.3633C158.759 23.8208 158.35 24.2505 158.22 24.4241C158.126 24.5492 157.969 24.802 157.82 25.0906C157.67 25.3806 157.497 25.7652 157.405 26.1492C157.358 26.3415 157.324 26.5678 157.34 26.8005C157.342 26.8365 157.346 26.8739 157.351 26.9122C156.517 27.0257 155.765 27.4629 155.359 28.1065C155.033 28.6242 154.938 29.2838 155.254 29.9245C155.387 30.1963 155.583 30.4404 155.832 30.6579C155.543 30.942 155.329 31.2598 155.202 31.6108C154.939 32.3411 155.113 33.056 155.508 33.6192C156.094 34.4538 157.185 35.021 158.408 35.1688C158.403 35.2798 158.407 35.3907 158.419 35.5014C158.471 35.9879 158.678 36.4113 158.978 36.7593C159.557 37.4321 160.484 37.832 161.458 38.0291C163.155 38.3725 165.356 38.1748 167.237 37.268C167.912 38.8764 169.024 40.061 170.385 40.8207C170.312 41.109 170.202 41.4743 170.062 41.844C169.942 42.1618 169.813 42.4473 169.689 42.6598C169.642 42.74 169.604 42.7961 169.576 42.8343C169.534 42.8372 169.486 42.8403 169.433 42.8437C169.38 42.8472 169.316 42.8509 169.244 42.8551C168.748 42.8838 167.851 42.9358 167.196 43.0963C167.011 43.1417 166.793 43.2331 166.617 43.4156C166.427 43.6129 166.303 43.9078 166.361 44.2371C166.468 44.8448 167.038 45.047 167.341 45.0908C167.429 45.1035 167.5 45.1141 167.553 45.1234C167.562 45.1249 167.569 45.1263 167.576 45.1275C167.599 45.137 167.619 45.1455 167.637 45.1533C167.619 45.205 167.597 45.2644 167.57 45.3322C167.372 45.8484 167.458 46.4757 167.968 46.8375C168.45 47.1785 169.047 47.093 169.48 46.8033C169.559 46.7501 169.621 46.7121 169.665 46.6878C169.673 46.6834 169.68 46.6799 169.685 46.6772C169.872 46.6382 170.027 46.6436 170.158 46.666C170.327 46.6948 170.466 46.7524 170.628 46.8214L170.64 46.8268C170.699 46.8518 170.79 46.8912 170.878 46.9192L170.88 46.9197C170.948 46.9416 171.184 47.0168 171.454 46.9401C171.836 46.8316 172.008 46.523 172.065 46.3032C172.112 46.1246 172.103 45.9496 172.094 45.8395C172.046 45.263 171.904 44.8172 171.806 44.507L171.802 44.4954C171.754 44.3442 171.726 44.2535 171.71 44.1788C171.703 44.147 171.7 44.1287 171.7 44.1209C171.75 43.7756 171.975 43.0089 172.238 42.2952C172.333 42.0392 172.425 41.8084 172.508 41.6239C172.824 41.6948 173.147 41.7482 173.474 41.784C174.435 41.8889 175.436 41.8437 176.442 41.6511C176.611 41.8407 176.799 42.0768 176.959 42.3203C177.088 42.5166 177.183 42.694 177.236 42.8377C177.249 42.8704 177.257 42.898 177.264 42.9207C177.238 42.9574 177.209 42.9992 177.175 43.0466C177.097 43.1577 176.984 43.2992 176.841 43.4786C176.767 43.5714 176.685 43.6744 176.596 43.7885C176.355 44.0952 176.075 44.4657 175.874 44.8154C175.773 44.9906 175.689 45.2239 175.711 45.4894C175.734 45.7751 175.879 46.0428 176.129 46.2132C176.593 46.5294 177.114 46.3579 177.403 46.1699C177.43 46.1526 177.455 46.1358 177.48 46.1196C177.541 46.0799 177.596 46.0439 177.644 46.0132C177.678 45.9916 177.705 45.9743 177.725 45.9614C177.743 45.9506 177.75 45.9463 177.75 45.9461C177.797 45.9203 177.832 45.9006 177.861 45.8852C177.882 45.9055 177.905 45.9292 177.931 45.9565C178.035 46.0661 178.166 46.2121 178.31 46.3785C178.625 46.7411 179.184 47.0407 179.768 46.7882C180.383 46.5222 180.515 45.8744 180.423 45.3874C180.41 45.3165 180.4 45.2542 180.392 45.1998C180.388 45.173 180.386 45.1498 180.384 45.1297C180.487 44.9925 180.598 44.8931 180.706 44.8163C180.834 44.725 180.958 44.664 181.093 44.5993C181.097 44.5973 181.101 44.5951 181.106 44.5928C181.163 44.5655 181.259 44.5196 181.34 44.469C181.386 44.4401 181.464 44.3881 181.539 44.3098C181.616 44.231 181.73 44.0841 181.771 43.8661C181.861 43.3793 181.517 43.0848 181.447 43.0263C181.334 42.9329 181.201 42.8598 181.097 42.8058C180.655 42.5784 180.32 42.4349 180.071 42.3283L180.069 42.3275C179.883 42.2479 179.779 42.2027 179.7 42.1598C179.633 42.1238 179.612 42.104 179.601 42.0919C179.394 41.8731 179.161 41.4426 178.899 40.9455L178.892 40.9323C178.885 40.9204 178.879 40.9085 178.873 40.8965C180.088 40.3703 181.266 39.6258 182.341 38.6683C183.23 38.4962 183.961 37.9477 184.285 37.1417C184.541 36.5058 184.507 35.8019 184.203 35.1329C184.632 34.8625 185.089 34.5016 185.424 34.0759C185.715 33.7052 185.985 33.1932 185.941 32.5909C185.919 32.2874 185.821 32.0085 185.662 31.7551C185.858 31.586 186.035 31.4152 186.189 31.2447C186.494 30.9054 186.789 30.478 186.857 30.0003C186.893 29.7409 186.863 29.4576 186.722 29.1904C186.582 28.9275 186.368 28.7417 186.138 28.6149C185.706 28.3759 185.13 28.2946 184.492 28.2946C183.162 28.2946 182.219 28.6046 181.428 28.8887C181.377 28.907 181.327 28.9251 181.278 28.9428C180.568 29.1987 180.048 29.386 179.388 29.3899C178.953 29.3637 178.481 29.2429 177.94 29.0564C177.593 28.9366 177.257 28.8049 176.899 28.6641C176.67 28.5741 176.431 28.4804 176.174 28.3837C174.938 27.9192 173.483 27.4699 171.853 27.7051C171.809 27.6855 171.739 27.6469 171.646 27.5804C171.441 27.434 171.2 27.2078 170.974 26.9464C170.748 26.6845 170.566 26.421 170.461 26.2151C170.438 26.1699 170.422 26.1326 170.41 26.1031ZM171.889 27.7184C171.889 27.7185 171.887 27.7181 171.884 27.717C171.887 27.7178 171.889 27.7183 171.889 27.7184ZM178.795 43.4553L178.728 43.566C178.662 43.6744 178.566 43.8111 178.477 43.9367L178.465 43.9539C178.396 44.0525 178.302 44.1741 178.2 44.3035C178.367 44.3434 178.52 44.4141 178.659 44.5015C178.725 44.5435 178.793 44.5987 178.858 44.6565C178.882 44.5741 178.918 44.4893 178.969 44.4072C179.125 44.1566 179.3 43.954 179.476 43.789C179.467 43.7851 179.458 43.7812 179.449 43.7773C179.429 43.769 179.409 43.7605 179.389 43.752C179.203 43.6729 178.995 43.5844 178.795 43.4553ZM177.399 39.7739C178.803 39.3063 180.202 38.5003 181.453 37.345L181.646 37.1673L181.906 37.1401C182.422 37.0865 182.715 36.8205 182.822 36.5537C182.924 36.3001 182.927 35.8702 182.481 35.3425L181.781 34.514L182.785 34.1039C183.174 33.945 183.838 33.5414 184.184 33.1016C184.352 32.8878 184.372 32.7587 184.368 32.7057C184.366 32.6815 184.354 32.5371 184.031 32.3051L183.131 31.6572L184.039 31.0198C184.467 30.7188 184.796 30.4342 185.017 30.1892C185.104 30.0923 185.169 30.0083 185.214 29.9384C185.073 29.9037 184.844 29.8715 184.492 29.8715C183.435 29.8715 182.695 30.1091 181.961 30.3728C181.901 30.3944 181.84 30.4165 181.778 30.4389C181.095 30.6871 180.325 30.9668 179.367 30.9668H179.346L179.325 30.9657C178.67 30.9306 178.03 30.7554 177.426 30.547C177.055 30.4192 176.658 30.2635 176.271 30.1119C176.048 30.0244 175.828 29.9383 175.619 29.8597C174.411 29.4057 173.254 29.0798 172.018 29.275C171.728 29.3207 171.466 29.249 171.278 29.1738C171.082 29.0948 170.896 28.9824 170.729 28.8636C170.396 28.6254 170.064 28.305 169.781 27.9771C169.498 27.6498 169.235 27.2812 169.056 26.9315C168.968 26.7581 168.886 26.5617 168.843 26.359C168.802 26.1732 168.77 25.87 168.917 25.568C169.711 23.945 169.829 22.662 169.612 21.7068C169.396 20.7575 168.832 20.0503 168.096 19.5924C166.566 18.64 164.44 18.8243 163.335 20.094C162.928 20.5629 162.489 21.434 162.258 22.3388C162.363 22.4464 162.472 22.5032 162.571 22.5358C162.742 22.5925 162.904 22.581 162.975 22.5645L164.19 22.2811L163.925 23.4998C163.776 24.1832 163.906 24.5595 164.094 24.9357L164.356 25.4599L163.93 25.862C163.889 25.9002 163.848 25.9377 163.805 25.9746C164.263 26.1947 164.831 26.3843 165.504 26.508C166.431 26.6783 167.285 26.8967 167.761 27.6182C167.991 27.9681 168.086 28.3653 168.132 28.7595C168.179 29.1513 168.184 29.6163 168.184 30.1393V30.2104L168.172 30.2804C168.094 30.7064 168.029 31.6804 168.053 32.799C168.077 33.9166 168.19 35.0815 168.427 35.9065C168.94 37.6847 170.037 38.9155 171.46 39.6044L171.601 39.67C171.744 39.7366 171.983 39.8252 172.186 39.8957C172.263 39.9229 172.33 39.9453 172.375 39.9601C172.389 39.964 172.403 39.9684 172.417 39.9731C172.811 40.0891 173.222 40.1702 173.646 40.2165C174.56 40.3164 175.537 40.2526 176.525 40.0213C176.893 39.9275 177.184 39.8425 177.399 39.7739ZM170.141 44.3575L170.134 44.3613L170.002 44.3786C169.876 44.3951 169.71 44.406 169.556 44.4159L169.536 44.4173C169.466 44.4218 169.39 44.4263 169.31 44.4312C169.253 44.4346 169.193 44.4382 169.132 44.442C169.172 44.5202 169.207 44.6062 169.235 44.7009C169.288 44.8778 169.278 45.038 169.268 45.128C169.267 45.1374 169.266 45.1468 169.264 45.1562C169.273 45.1541 169.281 45.152 169.289 45.1501C169.679 45.0584 170.031 45.0555 170.339 45.0985C170.326 45.0561 170.312 45.014 170.299 44.9718C170.294 44.9553 170.288 44.9377 170.282 44.9191C170.237 44.7777 170.172 44.5785 170.141 44.3575ZM170.524 46.0057C170.524 46.0055 170.524 46.0036 170.524 46.0003C170.524 46.0041 170.524 46.0059 170.524 46.0057ZM162.436 25.0413C162.347 24.7604 162.288 24.4483 162.284 24.0903C161.959 24.016 161.617 23.8681 161.306 23.6068C160.965 23.8966 160.626 24.2094 160.328 24.4973C160.095 24.7221 159.892 24.9273 159.739 25.0883C159.662 25.1689 159.599 25.2366 159.552 25.289C159.505 25.3418 159.485 25.3665 159.482 25.3698C159.482 25.3701 159.482 25.3702 159.482 25.3702C159.482 25.3701 159.479 25.3737 159.474 25.3817C159.468 25.3894 159.461 25.3997 159.453 25.4126C159.436 25.4387 159.414 25.4725 159.389 25.5133C159.34 25.595 159.281 25.699 159.221 25.8152C159.118 26.0132 159.027 26.2204 158.97 26.4019C158.972 26.4015 158.973 26.4011 158.975 26.4007C159.463 26.2804 160.208 26.0786 160.956 25.787C161.326 25.6428 161.679 25.4834 161.994 25.3105C162.004 25.3047 162.014 25.2992 162.024 25.2939C162.171 25.2126 162.309 25.1283 162.436 25.0413ZM158.674 26.4415C158.674 26.4411 158.679 26.4415 158.687 26.4435C158.678 26.4429 158.674 26.4419 158.674 26.4415ZM166.765 35.7405C166.577 34.8309 166.497 33.7781 166.477 32.8333C166.461 32.1392 166.478 31.4687 166.516 30.9181C164.018 30.8604 162.804 30.5474 161.785 30.0711C161.467 29.9221 161.194 29.7735 160.921 29.6251C160.244 29.2563 159.567 28.8879 158.191 28.5138C157.504 28.327 156.882 28.6477 156.693 28.9469C156.623 29.058 156.623 29.1362 156.668 29.2278C156.732 29.3582 156.949 29.6186 157.572 29.8831L159.122 30.5413L157.623 31.3102C156.98 31.6402 156.754 31.9563 156.685 32.1459C156.627 32.3068 156.642 32.4893 156.799 32.7133C157.151 33.2149 158.125 33.7184 159.351 33.6177L160.738 33.5036L160.122 34.7523C159.994 35.0116 159.973 35.201 159.987 35.3334C160.001 35.4629 160.055 35.5934 160.172 35.7302C160.428 36.0268 160.962 36.3198 161.771 36.4836C163.224 36.7777 165.178 36.5757 166.765 35.7405ZM166.596 29.3426C164.191 29.2902 163.209 28.9961 162.453 28.6427C162.237 28.5415 162.018 28.4225 161.778 28.2918C161.409 28.0908 160.989 27.8623 160.45 27.6293C160.789 27.525 161.157 27.4011 161.529 27.2562C161.781 27.1577 162.043 27.0469 162.303 26.9227C163.047 27.4384 164.04 27.8423 165.219 28.0589C166.222 28.2432 166.385 28.3964 166.444 28.486C166.481 28.5418 166.533 28.66 166.566 28.9439C166.58 29.0605 166.589 29.1918 166.596 29.3426Z" fill="#6A5D4A"/>
<path d="M178.055 43.1557C178.203 42.4719 177.192 41.2465 176.707 40.7887C177.098 40.6891 177.411 40.5979 177.646 40.5227C177.881 40.4472 178.431 42.0022 179.028 42.6335C179.196 42.8116 179.408 42.9021 179.759 43.0523L179.759 43.0524C180.005 43.1576 180.319 43.2921 180.736 43.5066C181.127 43.7081 181.032 43.7536 180.751 43.8887C180.616 43.9538 180.437 44.0398 180.249 44.174C180.042 44.3208 179.825 44.5254 179.639 44.8238C179.533 44.9935 179.623 45.4286 179.722 45.8901C179.813 46.3093 179.419 46.4659 179.143 46.1383C178.759 45.6839 178.374 45.254 178.239 45.1686C178.126 45.0781 177.793 44.9693 177.364 45.2584C177.299 45.2945 177.061 45.4529 176.828 45.6029C176.583 45.7612 176.345 45.6219 176.475 45.3605C176.78 44.7479 177.529 43.915 177.82 43.5002C177.919 43.3601 178.002 43.2414 178.055 43.1557Z" fill="#6A5D4A"/>
<path fill-rule="evenodd" clip-rule="evenodd" d="M178.898 40.9455C179.16 41.4425 179.394 41.873 179.6 42.0919C179.612 42.1039 179.633 42.1237 179.699 42.1597C179.779 42.2027 179.883 42.2478 180.069 42.3275L180.069 42.3275L180.071 42.3282C180.072 42.3287 180.073 42.3292 180.074 42.3297L180.09 42.3367L180.09 42.3367C180.338 42.4425 180.667 42.5843 181.097 42.8058C181.201 42.8597 181.334 42.9328 181.447 43.0262C181.517 43.0847 181.86 43.3793 181.77 43.866C181.73 44.084 181.615 44.2309 181.539 44.3098C181.463 44.3881 181.386 44.44 181.34 44.469C181.259 44.5196 181.163 44.5654 181.106 44.5928C181.101 44.5951 181.097 44.5972 181.093 44.5993C180.958 44.664 180.834 44.7249 180.706 44.8162C180.598 44.893 180.487 44.9924 180.384 45.1296C180.384 45.1382 180.385 45.1474 180.387 45.1573C180.403 45.2996 180.441 45.4849 180.493 45.7237C180.592 46.1815 180.451 46.7818 179.873 47.0223C179.338 47.2446 178.825 46.9844 178.54 46.6473C178.352 46.4241 178.167 46.2124 178.017 46.0491C177.954 45.9803 177.9 45.924 177.857 45.881C177.842 45.8884 177.825 45.8985 177.805 45.9122L177.777 45.9312L177.747 45.9478C177.748 45.9471 177.749 45.9467 177.749 45.9467C177.749 45.9468 177.737 45.9536 177.708 45.9724C177.676 45.9922 177.636 46.0182 177.588 46.0493C177.556 46.0704 177.519 46.094 177.481 46.119C177.41 46.1653 177.331 46.2165 177.255 46.2654L176.834 45.6122L177.255 46.2654C176.978 46.4445 176.508 46.5763 176.083 46.3011C175.859 46.1562 175.707 45.9251 175.663 45.6592C175.622 45.4071 175.684 45.1805 175.769 45.0095C175.961 44.6248 176.269 44.208 176.53 43.8723C176.647 43.7223 176.752 43.5906 176.844 43.4745C176.984 43.2996 177.095 43.1601 177.175 43.0466C177.209 42.9991 177.238 42.9573 177.264 42.9206C177.257 42.8979 177.248 42.8704 177.236 42.8376C177.183 42.6939 177.088 42.5166 176.959 42.3203C176.701 41.9264 176.367 41.5523 176.165 41.3622L175.122 40.3784L176.512 40.0247C176.889 39.9285 177.187 39.8417 177.405 39.7719C177.888 39.6171 178.23 39.9369 178.289 39.9921C178.398 40.0952 178.482 40.2168 178.538 40.303C178.654 40.481 178.779 40.7183 178.892 40.9323L178.898 40.9455ZM179.449 43.7772C179.429 43.7688 179.409 43.7604 179.389 43.7519C179.203 43.6729 178.995 43.5843 178.795 43.4553L178.728 43.5659C178.662 43.6744 178.565 43.811 178.477 43.9366C178.473 43.9424 178.469 43.9481 178.465 43.9538C178.396 44.0522 178.3 44.1765 178.195 44.31C178.387 44.3481 178.558 44.4243 178.698 44.5278C178.757 44.5684 178.811 44.6145 178.857 44.6562C178.882 44.5762 178.917 44.491 178.969 44.4071C179.125 44.1565 179.299 43.9539 179.476 43.7889C179.467 43.785 179.458 43.7811 179.449 43.7773L179.449 43.7773C179.449 43.7772 179.449 43.7772 179.449 43.7772Z" fill="#6A5D4A"/>
<path d="M170.06 43.5232C170.686 43.2103 171.177 41.2168 171.229 40.5518C171.49 40.6729 171.964 40.7756 172.146 40.8015C172.162 40.791 172.177 40.7877 172.19 40.7921C172.244 40.8099 172.218 40.8118 172.146 40.8015C171.872 40.9766 171.188 43.1413 171.077 43.9536C171.05 44.1519 171.121 44.3763 171.211 44.66C171.308 44.967 171.428 45.3434 171.468 45.8314C171.499 46.1943 171.377 46.1422 171.098 46.023L171.098 46.023C170.936 45.9535 170.721 45.8612 170.451 45.8152C170.218 45.7753 169.944 45.77 169.63 45.844C169.534 45.8664 169.38 45.9548 169.202 46.0744C168.737 46.3856 168.266 46.0637 168.467 45.5417C168.588 45.2255 168.675 44.9689 168.64 44.8533C168.641 44.7073 168.511 44.3933 167.99 44.3058C167.94 44.2852 167.789 44.2621 167.614 44.2368C167.235 44.1819 167.172 43.8796 167.544 43.7884C168.208 43.6258 169.178 43.5872 169.645 43.5569C169.816 43.5457 169.96 43.5363 170.06 43.5232Z" fill="#6A5D4A"/>
<path fill-rule="evenodd" clip-rule="evenodd" d="M170.531 39.3589L171.561 39.8368C171.623 39.8656 171.749 39.9072 171.911 39.9482C172 39.9708 172.083 39.989 172.148 40.0019C172.238 39.9985 172.335 40.0096 172.439 40.0442L172.19 40.7922L172.439 40.0442C172.439 40.0443 172.44 40.0444 172.44 40.0445C172.451 40.0479 172.544 40.0775 172.637 40.1359C172.664 40.1529 172.737 40.2004 172.809 40.283C172.866 40.3476 173.062 40.5931 172.993 40.9549C172.939 41.2351 172.763 41.3917 172.647 41.4676C172.633 41.4967 172.618 41.5301 172.602 41.5679C172.511 41.7779 172.404 42.0655 172.299 42.3856C172.086 43.0308 171.908 43.7102 171.86 44.0473C171.861 44.0551 171.863 44.0734 171.87 44.1053C171.886 44.18 171.915 44.2707 171.962 44.4219L171.966 44.4335C172.064 44.7436 172.206 45.1895 172.254 45.766C172.263 45.8761 172.272 46.0511 172.225 46.2296C172.168 46.4495 171.997 46.758 171.614 46.8666C171.344 46.9433 171.108 46.8681 171.04 46.8462L171.038 46.8456C170.951 46.8177 170.859 46.7783 170.8 46.7533C170.796 46.7514 170.792 46.7496 170.788 46.7479L170.788 46.7479C170.627 46.6788 170.487 46.6213 170.318 46.5925C170.187 46.5701 170.032 46.5647 169.846 46.6037C169.84 46.6064 169.834 46.6099 169.826 46.6142C169.781 46.6386 169.719 46.6766 169.64 46.7297C169.207 47.0195 168.61 47.105 168.129 46.7639C167.618 46.4022 167.532 45.7749 167.731 45.2587C167.758 45.1881 167.781 45.1267 167.8 45.0735L167.772 45.0689L167.736 45.054C167.73 45.0528 167.722 45.0514 167.713 45.0498C167.66 45.0406 167.589 45.03 167.501 45.0172C167.198 44.9734 166.628 44.7712 166.521 44.1635C166.463 43.8343 166.587 43.5394 166.777 43.3421C166.953 43.1596 167.171 43.0681 167.357 43.0227C168.012 42.8622 168.908 42.8103 169.404 42.7816C169.476 42.7774 169.54 42.7737 169.593 42.7702C169.646 42.7668 169.692 42.7637 169.734 42.7609C169.755 42.731 169.781 42.6903 169.811 42.6359C169.913 42.4536 170.016 42.2047 170.112 41.9197C170.305 41.3414 170.423 40.7417 170.443 40.4902L170.531 39.3589ZM167.952 45.1101C167.952 45.1101 167.952 45.1096 167.95 45.1086C167.952 45.1095 167.953 45.11 167.952 45.1101ZM170.301 44.284L170.294 44.2878L170.163 44.305C170.037 44.3216 169.87 44.3324 169.717 44.3424C169.71 44.3428 169.703 44.3433 169.696 44.3437C169.626 44.3483 169.551 44.3528 169.47 44.3577C169.422 44.3605 169.372 44.3635 169.32 44.3667C169.378 44.4927 169.413 44.6245 169.424 44.7564C169.443 44.8801 169.436 44.987 169.428 45.0545C169.427 45.0639 169.426 45.0733 169.425 45.0826C169.433 45.0805 169.441 45.0785 169.449 45.0766L169.629 45.8441L169.449 45.0766C169.84 44.9848 170.192 44.982 170.499 45.025C170.486 44.9826 170.473 44.9405 170.459 44.8983C170.454 44.8818 170.448 44.8642 170.442 44.8455C170.397 44.7042 170.333 44.505 170.301 44.284ZM170.684 45.9321C170.684 45.9321 170.684 45.9302 170.684 45.9267C170.684 45.9305 170.684 45.9322 170.684 45.9321Z" fill="#6A5D4A"/>
<path fill-rule="evenodd" clip-rule="evenodd" d="M171.938 32.9672C172.278 32.6952 172.774 32.7503 173.046 33.0904C173.084 33.1374 173.123 33.1869 173.164 33.2386C173.657 33.8611 174.408 34.8089 175.679 35.6224C177.042 36.495 179.046 37.2348 182.013 37.1207L182.073 38.6964C178.792 38.8226 176.469 38.0004 174.829 36.9505C173.328 35.99 172.433 34.8569 171.933 34.2243C171.891 34.171 171.851 34.1212 171.815 34.0754C171.543 33.7354 171.598 33.2392 171.938 32.9672Z" fill="#6A5D4A"/>
<path d="M158.851 24.8971C159.024 24.6663 160.302 23.3453 161.41 22.5107C161.911 23.387 162.763 23.4236 163.154 23.3323C162.959 24.2321 163.141 24.7928 163.389 25.2883C162.294 26.3211 160.168 26.9184 159.164 27.1661C157.169 27.6584 158.616 25.2101 158.851 24.8971Z" fill="#6A5D4A"/>
<path fill-rule="evenodd" clip-rule="evenodd" d="M161.651 21.3428L162.095 22.1197C162.243 22.3789 162.42 22.486 162.571 22.5359C162.742 22.5926 162.904 22.5811 162.975 22.5646L164.19 22.2812L163.925 23.4999C163.776 24.1833 163.906 24.5596 164.094 24.9358L164.356 25.46L163.93 25.8621C163.271 26.4835 162.352 26.9353 161.529 27.2563C160.689 27.5835 159.869 27.8042 159.353 27.9317C158.805 28.0669 158.096 28.1085 157.641 27.5757C157.427 27.3253 157.356 27.0351 157.34 26.8006C157.324 26.5679 157.358 26.3417 157.405 26.1494C157.497 25.7653 157.67 25.3808 157.82 25.0908C157.969 24.8021 158.126 24.5493 158.22 24.4242C158.35 24.2506 158.759 23.8209 159.232 23.3634C159.723 22.8895 160.345 22.3258 160.936 21.881L161.651 21.3428ZM159.482 25.3699C159.485 25.3666 159.505 25.3419 159.552 25.2891ZM159.552 25.2891C159.599 25.2368 159.662 25.169 159.739 25.0884ZM159.739 25.0884C159.892 24.9274 160.095 24.7222 160.328 24.4975ZM160.328 24.4975C160.626 24.2095 160.965 23.8967 161.306 23.6069ZM161.306 23.6069C161.617 23.8682 161.959 24.0161 162.284 24.0904C162.288 24.4484 162.347 24.7606 162.436 25.0414C162.028 25.3201 161.511 25.5709 160.956 25.7871C160.208 26.0787 159.463 26.2805 158.975 26.4008C158.973 26.4012 158.972 26.4016 158.97 26.402C159.027 26.2205 159.118 26.0133 159.221 25.8153C159.281 25.6991 159.34 25.5951 159.389 25.5134C159.414 25.4727 159.436 25.4388 159.453 25.4128C159.461 25.3998 159.468 25.3895 159.474 25.3818M158.674 26.4416C158.674 26.4413 158.679 26.4416 158.687 26.4436C158.678 26.443 158.674 26.442 158.674 26.4416Z" fill="#6A5D4A"/>
<path d="M165.245 22.2285C165.395 22.6673 165.873 22.9014 166.311 22.7512C166.75 22.6011 166.984 22.1236 166.834 21.6848C166.684 21.2459 166.207 21.0119 165.768 21.162C165.329 21.3121 165.095 21.7896 165.245 22.2285Z" fill="#6A5D4A"/>
<path fill-rule="evenodd" clip-rule="evenodd" d="M2.2268 34.5005C1.97364 34.1651 1.61029 33.8007 1.15121 33.4082C0.76719 33.0024 0.478384 32.6276 0.276666 32.284C0.0937677 31.9724 0 31.6245 0 31.2297C0.000119984 31.2277 0.00159895 31.2036 0.0189362 31.1511C0.0369236 31.0967 0.0676862 31.0244 0.116203 30.9326C0.213695 30.7481 0.368138 30.5119 0.587886 30.2208L0.610684 30.1906L0.628363 30.1571C0.71316 29.9966 0.844334 29.7686 1.02485 29.4697C1.21528 29.1543 1.35615 28.8513 1.41943 28.5687C1.6187 27.896 1.70719 26.8966 1.70719 25.6075C1.70719 20.3258 1.84309 15.9299 2.11389 12.417C2.16459 12.1043 2.20934 11.3645 2.25313 10.2456C2.29744 9.11346 2.45211 8.12021 2.71142 7.26131C2.83658 6.84677 2.98466 6.58501 3.13029 6.43268C3.26347 6.29339 3.39898 6.2388 3.55839 6.2388C3.79472 6.2388 4.11341 6.33846 4.52769 6.61289L4.549 6.62701L4.57172 6.63874C4.96642 6.84247 5.20911 7.03875 5.34558 7.21259C5.3556 7.38084 5.38518 7.54992 5.45423 7.69693C5.50207 7.7988 5.57687 7.90714 5.69317 7.98969C5.81391 8.07539 5.95088 8.11287 6.08504 8.11287C6.17363 8.11287 6.24389 8.08618 6.2532 8.08264C6.27543 8.07453 6.2939 8.06609 6.30499 8.06084C6.32821 8.04985 6.35149 8.03734 6.37117 8.02641C6.41209 8.00367 6.4646 7.97259 6.52595 7.93527C6.64996 7.85983 6.827 7.74855 7.05539 7.60266C7.513 7.31035 8.18637 6.87299 9.07449 6.29114L9.08102 6.2867C10.769 5.13984 12.7684 4.55859 15.099 4.55859C16.9101 4.55859 18.2428 4.92548 19.1564 5.59791C20.056 6.26008 20.608 7.26197 20.7778 8.66805C21.2324 12.4542 21.4573 15.3182 21.4573 17.2711C21.4573 18.3809 21.4121 19.9676 21.3211 22.0334C21.23 24.189 21.1841 25.8126 21.1841 26.9C21.1841 28.7299 20.811 30.3565 20.0751 31.7903L20.0724 31.7957C19.7436 32.4569 19.308 32.9328 18.7709 33.2469C18.2316 33.5625 17.5608 33.7318 16.738 33.7318C16.4744 33.7318 16.1958 33.6558 15.8968 33.4813C15.5986 33.2788 15.2519 33.0124 14.8557 32.6791C14.4378 32.3276 14.0601 32.0367 13.7237 31.8092L13.4109 31.5978L13.1539 31.841L8.07762 33.2315L8.07041 33.2336C7.35917 33.4407 6.73792 33.9219 6.19745 34.6168C5.85888 35.0161 5.53562 35.2974 5.23088 35.4776L5.21867 35.4848L5.20692 35.4928C5.00595 35.6286 4.62081 35.7352 3.96812 35.7352C3.57381 35.7352 3.26934 35.661 3.03544 35.5357C2.88395 35.4488 2.73265 35.3119 2.5865 35.1075C2.40782 34.8114 2.30459 34.6348 2.26727 34.5642L2.24959 34.5307L2.2268 34.5005ZM6.16076 15.5704L7.36231 15.6738H7.38251C7.66001 15.6738 8.04045 15.5912 8.48718 15.4612C8.94657 15.3274 9.52113 15.1294 10.2077 14.8696C11.3153 14.4766 11.9312 14.2784 12.1136 14.2439L12.1241 14.2419L12.1344 14.2394C12.4673 14.1607 13.0334 14.0769 13.8508 13.991L13.8629 13.9897L13.8749 13.9878C14.2918 13.9221 14.6384 13.8547 14.9094 13.7848C15.1587 13.7204 15.4029 13.6401 15.571 13.5227C15.9505 13.2652 16.2525 12.9041 16.2525 12.4244C16.2525 11.727 16.2296 11.13 16.1823 10.6365C16.1364 10.1164 16.09 9.69667 16.0424 9.38149L16.0161 9.20754L15.8822 9.09348C15.5729 8.83008 15.1537 8.66136 14.6702 8.55578C14.1822 8.4492 13.594 8.39954 12.9138 8.39954C10.4517 8.39954 8.21764 9.09603 6.2253 10.4877L6.01626 10.6337L6.09319 13.0361L6.09463 13.051C6.13792 13.5017 6.16076 14.1942 6.16076 15.1386V15.5704ZM6.60762 28.0526L6.68606 28.2381L7.29643 28.4692H7.38251C7.6514 28.4692 8.13294 28.3787 8.76945 28.2308C9.42698 28.078 10.3042 27.85 11.3987 27.5479C12.5159 27.2458 13.3832 26.9959 13.9968 26.7987C14.3029 26.7003 14.5528 26.6129 14.7416 26.5367C14.8358 26.4987 14.9212 26.461 14.9937 26.4235C15.0576 26.3906 15.145 26.3412 15.2176 26.2725L15.2367 26.2545L15.2536 26.2345C15.353 26.1168 15.4187 25.9712 15.4661 25.8366C15.5159 25.6951 15.5581 25.5288 15.5948 25.3436C15.6679 24.9749 15.7263 24.4941 15.7724 23.9086C15.9091 22.742 15.9794 21.798 15.9794 21.0839C15.9794 20.3937 15.8994 19.8082 15.6945 19.3787C15.589 19.1578 15.4423 18.961 15.2405 18.82C15.0346 18.6762 14.7991 18.61 14.5527 18.61C14.2343 18.61 13.7179 18.7126 13.0529 18.8833C12.3702 19.0585 11.4799 19.3195 10.385 19.6649C9.31192 19.989 8.45334 20.2723 7.81344 20.5146C7.49337 20.6357 7.22238 20.7487 7.00395 20.8535C6.7923 20.9551 6.604 21.061 6.46779 21.1738L6.36738 21.257L6.32406 21.3799C6.2306 21.6453 6.16076 21.9034 6.16076 22.1179C6.16076 22.9085 6.20704 24.0188 6.2983 25.4438C6.34401 26.1575 6.39008 26.7259 6.43679 27.1459C6.46012 27.3556 6.48416 27.5334 6.50933 27.6763C6.53257 27.8083 6.56244 27.9457 6.60762 28.0526ZM35.005 34.5005C34.7518 34.1651 34.3885 33.8007 33.9294 33.4082C33.5454 33.0024 33.2566 32.6276 33.0549 32.284C32.872 31.9724 32.7782 31.6245 32.7782 31.2297C32.7783 31.2277 32.7798 31.2036 32.7971 31.1511C32.8151 31.0967 32.8459 31.0244 32.8944 30.9326C32.9919 30.7481 33.1463 30.5119 33.3661 30.2208L33.3889 30.1906L33.4066 30.1571C33.4914 29.9966 33.6225 29.7686 33.8031 29.4697C33.9935 29.1543 34.1343 28.8513 34.1976 28.5687C34.3969 27.896 34.4854 26.8966 34.4854 25.6075C34.4854 20.3258 34.6213 15.9299 34.8921 12.4171C34.9428 12.1043 34.9875 11.3646 35.0313 10.2456C35.0756 9.11346 35.2303 8.12021 35.4896 7.26131C35.6148 6.84677 35.7629 6.58501 35.9085 6.43268C36.0417 6.29339 36.1772 6.2388 36.3366 6.2388C36.5729 6.2388 36.8916 6.33846 37.3059 6.61289L37.3272 6.62701L37.3499 6.63874C37.7446 6.84247 37.9873 7.03875 38.1238 7.21259C38.1338 7.38084 38.1634 7.54992 38.2324 7.69693C38.2803 7.7988 38.3551 7.90714 38.4714 7.98969C38.5921 8.07539 38.7291 8.11287 38.8632 8.11287C38.9518 8.11287 39.0221 8.08618 39.0314 8.08264C39.0536 8.07453 39.0721 8.06609 39.0832 8.06084C39.1064 8.04985 39.1297 8.03734 39.1494 8.02641C39.1903 8.00367 39.2428 7.97259 39.3042 7.93527C39.4282 7.85983 39.6052 7.74855 39.8336 7.60266C40.2912 7.31035 40.9646 6.87299 41.8527 6.29114L41.8592 6.2867C43.5472 5.13984 45.5466 4.55859 47.8773 4.55859C49.6883 4.55859 51.021 4.92548 51.9346 5.59791C52.8342 6.26003 53.3861 7.26182 53.5559 8.66774C54.0106 12.454 54.2355 15.3181 54.2355 17.2711C54.2355 18.3809 54.1903 19.9676 54.0993 22.0334C54.0082 24.189 53.9623 25.8126 53.9623 26.9C53.9623 28.7299 53.5892 30.3565 52.8533 31.7903L52.8506 31.7957C52.5218 32.4569 52.0862 32.9328 51.5491 33.2469C51.0098 33.5625 50.339 33.7318 49.5162 33.7318C49.2526 33.7318 48.9741 33.6558 48.675 33.4813C48.3768 33.2788 48.0301 33.0124 47.6339 32.6791C47.216 32.3276 46.8383 32.0367 46.5019 31.8092L46.1891 31.5978L45.9321 31.841L40.8558 33.2315L40.8486 33.2336C40.1374 33.4407 39.5161 33.9219 38.9757 34.6168C38.6371 35.0161 38.3138 35.2974 38.0091 35.4776L37.9969 35.4848L37.9851 35.4928C37.7842 35.6286 37.399 35.7352 36.7463 35.7352C36.352 35.7352 36.0476 35.6611 35.8137 35.5357C35.6622 35.4488 35.5109 35.3119 35.3647 35.1076C35.186 34.8115 35.0828 34.6348 35.0455 34.5642L35.0278 34.5307L35.005 34.5005ZM38.939 15.5704L40.1405 15.6738H40.1607C40.4382 15.6738 40.8187 15.5912 41.2654 15.4612C41.7248 15.3274 42.2993 15.1294 42.9859 14.8696C44.0935 14.4766 44.7094 14.2784 44.8918 14.2439L44.9023 14.2419L44.9126 14.2394C45.2455 14.1607 45.8117 14.0769 46.629 13.991L46.6411 13.9897L46.6531 13.9878C47.07 13.9221 47.4166 13.8547 47.6876 13.7848C47.9369 13.7204 48.1813 13.6401 48.3494 13.5226C48.7288 13.2651 49.0307 12.904 49.0307 12.4244C49.0307 11.7269 49.0078 11.1298 48.9604 10.6363C48.9146 10.1162 48.8682 9.69663 48.8206 9.38149L48.7943 9.20754L48.6604 9.09348C48.3511 8.83008 47.9319 8.66136 47.4484 8.55578C46.9604 8.4492 46.3722 8.39954 45.692 8.39954C43.2299 8.39954 40.9958 9.09603 39.0035 10.4877L38.7945 10.6337L38.8714 13.0361L38.8728 13.051C38.9161 13.5017 38.939 14.1942 38.939 15.1386V15.5704ZM39.3858 28.0526L39.4643 28.2381L40.0746 28.4692H40.1607C40.4296 28.4692 40.9111 28.3787 41.5477 28.2308C42.2052 28.078 43.0824 27.85 44.1769 27.5479C45.2942 27.2458 46.1615 26.9959 46.775 26.7987C47.0811 26.7003 47.331 26.6129 47.5198 26.5367C47.614 26.4987 47.6994 26.461 47.7719 26.4235C47.8358 26.3906 47.9232 26.3412 47.9959 26.2725L48.0149 26.2545L48.0318 26.2345C48.1312 26.1168 48.1969 25.9712 48.2443 25.8366C48.2941 25.6951 48.3363 25.5288 48.373 25.3436C48.4461 24.9749 48.5045 24.4941 48.5506 23.9085C48.6873 22.742 48.7576 21.798 48.7576 21.0839C48.7576 20.3937 48.6776 19.8082 48.4727 19.3787C48.3672 19.1578 48.2205 18.961 48.0187 18.82C47.8128 18.6762 47.5773 18.61 47.331 18.61C47.0125 18.61 46.4961 18.7126 45.8311 18.8833C45.1484 19.0585 44.2581 19.3195 43.1632 19.6649C42.0901 19.989 41.2315 20.2723 40.5916 20.5146C40.2716 20.6357 40.0006 20.7487 39.7822 20.8535C39.5705 20.9551 39.3822 21.061 39.246 21.1738L39.1456 21.257L39.1023 21.3799C39.0088 21.6453 38.939 21.9034 38.939 22.1179C38.939 22.9085 38.9852 24.0188 39.0765 25.4438C39.1222 26.1575 39.1683 26.7259 39.215 27.1459C39.2383 27.3556 39.2624 27.5334 39.2875 27.6763C39.3108 27.8083 39.3406 27.9457 39.3858 28.0526Z" fill="#6A5D4A"/>
<defs>
<clipPath id="clip0_2703_14304">
<rect width="56.4706" height="9.41177" fill="white" transform="translate(6.11768 39.7939)"/>
</clipPath>
</defs>
</svg>
