<svg width="24" height="16" viewBox="0 0 24 16" fill="none" xmlns="http://www.w3.org/2000/svg">
<path d="M1.24512 9.91306C2.63954 8.51865 5.45742 8.38792 6.69206 8.49686C7.67252 8.58337 8.54403 9.69522 8.65297 10.2399C8.75979 10.774 8.65297 13.8349 7.23676 15.2511C5.82056 16.6673 4.84011 15.9047 5.82056 14.3796C6.80101 12.8544 5.60268 12.921 5.16692 13.1813C4.94246 13.3153 3.85966 14.0891 3.20602 14.3796C2.44345 15.2511 -0.192868 14.4897 1.89876 12.921C3.99038 11.3523 3.20602 10.9601 2.55239 10.9601C1.42669 11.2143 -0.149297 11.3075 1.24512 9.91306Z" fill="#6A5D4A"/>
<path d="M7.34865 1.44596C8.74307 0.0515448 11.561 -0.0791817 12.7956 0.0297571C13.776 0.116268 14.6476 1.22811 14.7565 1.77281C14.8633 2.30694 14.7565 5.36779 13.3403 6.78399C11.9241 8.2002 10.9436 7.43763 11.9241 5.91248C12.9045 4.38734 11.7062 4.45388 11.2705 4.71416C11.046 4.84823 9.96319 5.62198 9.30955 5.91248C8.54698 6.78399 5.91066 6.0226 8.00229 4.45388C10.0939 2.88516 9.30955 2.49298 8.65592 2.49298C7.53022 2.74716 5.95423 2.84038 7.34865 1.44596Z" fill="#6A5D4A"/>
<path d="M16.0642 7.76414C17.4586 6.36972 20.2765 6.23899 21.5111 6.34793C22.4915 6.43444 23.3631 7.54629 23.472 8.09099C23.5788 8.62512 23.472 11.686 22.0558 13.1022C20.6396 14.5184 19.6591 13.7558 20.6396 12.2307C21.62 10.7055 20.4217 10.7721 19.986 11.0323C19.7615 11.1664 18.6787 11.9402 18.0251 12.2307C17.2625 13.1022 14.6262 12.3408 16.7178 10.7721C18.8094 9.20334 18.0251 8.81116 17.3714 8.81116C16.2457 9.06534 14.6697 9.15856 16.0642 7.76414Z" fill="#6A5D4A"/>
</svg>
