<svg width="31" height="22" viewBox="0 0 31 22" fill="none" xmlns="http://www.w3.org/2000/svg">
<path d="M1.01866 13.7097C2.89291 11.8355 6.68045 11.6598 8.33994 11.8062C9.65777 11.9225 10.8292 13.4169 10.9756 14.149C11.1192 14.867 10.9756 18.9811 9.07207 20.8846C7.16854 22.7881 5.85071 21.7632 7.16854 19.7132C8.48637 17.6633 6.87569 17.7527 6.28999 18.1025C5.98829 18.2827 4.53288 19.3227 3.65433 19.7132C2.62935 20.8846 -0.914149 19.8612 1.89722 17.7527C4.70859 15.6442 3.65433 15.117 2.77577 15.117C1.26271 15.4587 -0.855585 15.584 1.01866 13.7097Z" fill="#FEFFF5"/>
<path d="M9.22246 2.32903C11.0967 0.45478 14.8842 0.279069 16.5437 0.425495C17.8616 0.541774 19.033 2.03622 19.1794 2.76834C19.323 3.48628 19.1794 7.60038 17.2759 9.50391C15.3723 11.4074 14.0545 10.3825 15.3723 8.33251C16.6902 6.28255 15.0795 6.37199 14.4938 6.72183C14.1921 6.90204 12.7367 7.94204 11.8581 8.33251C10.8331 9.50391 7.28965 8.48052 10.101 6.37199C12.9124 4.26346 11.8581 3.73633 10.9796 3.73633C9.4665 4.07798 7.34821 4.20327 9.22246 2.32903Z" fill="#FEFFF5"/>
<path d="M20.9371 10.8213C22.8113 8.94709 26.5988 8.77138 28.2583 8.9178C29.5762 9.03408 30.7476 10.5285 30.894 11.2607C31.0376 11.9786 30.894 16.0927 28.9905 17.9962C27.0869 19.8998 25.7691 18.8748 27.0869 16.8248C28.4048 14.7749 26.7941 14.8643 26.2084 15.2141C25.9067 15.3943 24.4513 16.4344 23.5727 16.8248C22.5477 17.9962 19.0042 16.9728 21.8156 14.8643C24.627 12.7558 23.5727 12.2286 22.6942 12.2286C21.1811 12.5703 19.0628 12.6956 20.9371 10.8213Z" fill="#FEFFF5"/>
</svg>
