<svg width="187" height="138" viewBox="0 0 187 138" fill="none" xmlns="http://www.w3.org/2000/svg">
<mask id="path-1-outside-1_2720_4374" maskUnits="userSpaceOnUse" x="28" y="69.5" width="117" height="69" fill="black">
<rect fill="white" x="28" y="69.5" width="117" height="69"/>
<path d="M52.9244 89.2465C52.9244 88.9663 54.0722 85.94 56.368 80.1675C58.7242 74.395 60.0231 71.3967 60.2648 71.1725C60.5064 70.8923 60.7179 70.7242 60.8991 70.6681C61.1408 70.556 61.4731 70.5 61.896 70.5C62.1376 70.5 62.5605 70.556 63.1647 70.6681C63.8293 71.2846 64.1615 72.1813 64.1615 73.3582C64.1615 73.8626 64.1011 74.6192 63.9803 75.628C63.7991 76.3565 63.7084 77.1131 63.7084 77.8977C63.7084 78.4582 63.8595 78.7384 64.1615 78.7384C64.524 78.7384 65.3094 78.4302 66.5177 77.8137C67.7864 77.1972 68.8739 76.7208 69.7801 76.3846C70.6864 75.9923 71.653 75.7961 72.6801 75.7961C73.5259 75.7961 74.2811 76.0203 74.9456 76.4686C75.6102 76.8609 75.9425 77.4214 75.9425 78.1499C75.9425 78.9906 75.0967 79.9433 73.405 81.0082C71.7134 82.0169 69.3874 83.2219 66.4271 84.623C66.0646 84.7911 65.2792 85.1834 64.0709 85.7999C62.8626 86.3603 62.047 86.8087 61.6241 87.1449C61.2616 87.4251 60.9293 87.8174 60.6273 88.3218C60.3252 88.8262 60.1137 89.1625 59.9929 89.3306C59.4492 90.2834 58.9356 91.0119 58.4523 91.5163C57.969 92.0207 57.3951 92.2729 56.7305 92.2729C55.7639 92.2729 54.8878 91.9927 54.1024 91.4322C53.3171 90.8158 52.9244 90.0872 52.9244 89.2465ZM35.7967 79.3269C35.7967 78.4862 36.129 77.7576 36.7935 77.1412C37.5185 76.5247 38.3341 76.2164 39.2403 76.2164C40.5695 76.2164 41.808 76.945 42.9559 78.4021C44.1642 79.8593 44.8589 81.2604 45.0402 82.6054C45.161 83.39 45.2819 83.9504 45.4027 84.2867C45.5235 84.5669 45.886 84.9312 46.4901 85.3795C47.5172 86.0521 48.0307 86.6685 48.0307 87.229C48.0307 88.0696 47.7891 88.6581 47.3058 88.9944C46.8829 89.3306 46.1579 89.6389 45.1308 89.9191C43.9225 90.2553 43.1069 90.6476 42.684 91.096C42.3215 91.4322 41.808 93.1136 41.1434 96.1399C40.5393 99.1662 40.2372 101.1 40.2372 101.94C40.7809 101.94 41.4757 101.828 42.3215 101.604C42.5632 101.548 42.835 101.492 43.1371 101.436C43.4996 101.38 43.9225 101.352 44.4058 101.352C45.9162 101.352 46.8224 102.389 47.1245 104.462C47.4266 106.48 47.5776 108.89 47.5776 111.692C47.5776 113.99 47.487 116.007 47.3058 117.745C47.1245 119.482 46.762 121.163 46.2183 122.789C46.0975 123.125 45.735 124.218 45.1308 126.067C44.5871 127.861 43.8017 129.374 42.7746 130.607C41.7476 131.84 40.6299 132.456 39.4216 132.456C37.73 132.456 36.4915 132.12 35.7061 131.447C34.9811 130.831 34.6186 129.766 34.6186 128.253C34.6186 127.692 34.7394 127.3 34.9811 127.076C35.2227 126.852 35.6457 126.74 36.2498 126.74C36.854 126.74 37.2769 126.852 37.5185 127.076C37.7602 127.3 37.9112 127.412 37.9716 127.412C38.2133 127.412 38.4247 127.244 38.606 126.908C38.8477 126.515 38.9685 126.291 38.9685 126.235C41.3851 121.528 42.5934 116.175 42.5934 110.179C42.5934 107.152 42.2007 105.639 41.4153 105.639C41.0528 105.639 40.5393 105.948 39.8747 106.564C39.2706 107.068 38.757 107.797 38.3341 108.75C37.9112 109.702 37.4581 110.963 36.9748 112.533C36.1894 114.774 35.4644 116.596 34.7998 117.997C34.1957 119.342 33.3499 120.519 32.2624 121.528C31.5978 122.144 31.0239 122.452 30.5406 122.452C29.876 122.452 29.4531 122.312 29.2719 122.032C29.0906 121.696 29 121.191 29 120.519C29 118.277 29.9062 114.214 31.7187 108.329C33.5915 102.389 35.3134 97.3448 36.8842 93.1976H36.9748L36.8842 92.6932C35.1925 92.6932 33.2895 93.2537 31.1749 94.3745C30.5104 94.3745 29.9666 94.1223 29.5437 93.6179C29.1812 93.1136 29 92.5531 29 91.9366C29 91.2081 29.6344 90.4795 30.9031 89.7509C32.1718 89.0224 33.9238 88.1817 36.1592 87.229C36.4613 87.1169 36.9748 86.8927 37.6998 86.5565C38.4247 86.2202 38.9383 85.94 39.2403 85.7158C39.6028 85.4916 39.7841 85.3235 39.7841 85.2114C39.7841 84.5949 39.633 84.1186 39.331 83.7823C39.0289 83.39 38.5154 82.8856 37.7904 82.2691C37.1258 81.7087 36.6123 81.2323 36.2498 80.84C35.9477 80.3917 35.7967 79.8873 35.7967 79.3269ZM53.4681 101.52C53.4681 99.9509 54.616 98.0454 56.9117 95.8036C59.2679 93.5619 61.9564 91.6004 64.9771 89.9191C67.9979 88.2378 70.3541 87.3971 72.0457 87.3971C73.0728 87.3971 73.8582 87.6773 74.4019 88.2378C74.9456 88.7422 75.2175 89.4707 75.2175 90.4235C75.2175 91.4322 74.5831 92.441 73.3144 93.4498C72.0457 94.4586 70.2937 95.6075 68.0583 96.8965C67.0917 97.4569 66.1552 98.0454 65.249 98.6619C64.3428 99.2223 63.7084 99.7267 63.3459 100.175L64.1615 99.7547C64.3428 101.1 64.4334 102.445 64.4334 103.79C64.4334 109.17 63.7386 114.242 62.3491 119.006C62.2887 119.286 62.1376 119.734 61.896 120.351C61.7147 120.967 61.6241 121.528 61.6241 122.032L61.8054 122.452C62.1678 122.284 62.8022 121.92 63.7084 121.359C64.6147 120.799 65.4001 120.519 66.0646 120.519C66.7896 120.519 67.3937 120.799 67.8771 121.359C68.3604 121.864 68.6021 122.452 68.6021 123.125C68.6021 123.741 68.1791 124.414 67.3333 125.142C66.5479 125.815 65.4605 126.543 64.0709 127.328C62.621 128.225 61.7449 128.841 61.4429 129.178C61.1408 129.458 60.8387 129.822 60.5366 130.27C60.295 130.719 60.1137 131.027 59.9929 131.195C59.6304 131.868 59.3283 132.372 59.0867 132.708C58.2409 133.773 57.5159 134.586 56.9117 135.146C56.3076 135.763 55.7034 136.071 55.0993 136.071C53.8306 136.071 53.015 135.566 52.6525 134.558C52.29 133.605 52.1088 132.4 52.1088 130.943C52.1088 129.654 52.2598 128.421 52.5619 127.244C52.9244 126.011 53.4379 124.498 54.1024 122.705L55.1899 119.426C55.8545 117.352 56.6701 114.494 57.6367 110.851C58.6638 107.152 59.1773 104.799 59.1773 103.79L58.9961 103.285L58.6336 103.201C58.3315 103.201 57.8784 103.37 57.2742 103.706C56.6701 103.986 56.1566 104.126 55.7337 104.126C55.0691 104.126 54.5254 103.846 54.1024 103.285C53.6795 102.725 53.4681 102.137 53.4681 101.52ZM65.1584 113.878C65.1584 113.429 65.4907 112.925 66.1552 112.364C66.8802 111.748 67.3031 111.384 67.424 111.272C68.0281 110.823 69.2062 109.45 70.9582 107.152C73.3748 104.238 75.2477 102.109 76.5768 100.763C77.906 99.3624 78.9934 98.6619 79.8392 98.6619C80.7455 98.6619 81.5913 99.0542 82.3767 99.8388C83.2225 100.567 83.6454 101.352 83.6454 102.193C83.6454 102.585 82.8902 103.51 81.3798 104.967C79.9299 106.368 77.906 108.189 75.3081 110.431C73.0728 112.28 71.9551 113.289 71.9551 113.457C71.9551 113.682 72.1363 113.85 72.4988 113.962C72.8613 114.074 73.0728 114.13 73.1332 114.13C74.5227 114.578 77.0299 115.755 80.6549 117.661C84.2798 119.566 87.663 121.528 90.8046 123.545C94.0066 125.563 95.9096 127.048 96.5138 128.001C96.9971 128.729 97.2388 129.654 97.2388 130.775C97.2388 131.167 97.118 131.587 96.8763 132.036C96.695 132.484 96.4232 132.708 96.0607 132.708C95.7586 132.708 95.3659 132.652 94.8826 132.54C94.2784 132.428 92.9191 131.671 90.8046 130.27C88.7505 128.925 87.3609 128.029 86.6359 127.58C83.1319 125.17 80.7757 123.685 79.5674 123.125L77.3018 121.948C74.4623 120.603 72.0759 119.398 70.1426 118.333C68.2698 117.268 66.9406 116.316 66.1552 115.475C66.0948 115.419 65.9136 115.223 65.6115 114.886C65.3094 114.55 65.1584 114.214 65.1584 113.878Z"/>
<path d="M122.341 84.7911C122.341 85.0713 122.341 85.7158 122.341 86.7246C122.402 87.7334 122.19 88.49 121.707 88.9944C121.224 89.4987 120.408 89.7509 119.26 89.7509C118.354 89.7509 117.689 89.3586 117.266 88.574C116.904 87.7334 116.602 86.8647 116.36 85.968C116.179 85.0153 116.028 84.3427 115.907 83.9504L113.279 83.6982C111.346 83.4741 109.835 83.362 108.748 83.362L106.754 83.446C105.365 83.446 104.67 82.9417 104.67 81.9329C104.67 80.812 105.214 80.0834 106.301 79.7472C107.449 79.3549 109.08 79.0747 111.195 78.9065C112.161 78.8505 113.068 78.7664 113.913 78.6543C114.82 78.4862 115.484 78.262 115.907 77.9818C116.27 77.7576 116.511 77.4214 116.632 76.973C116.813 76.5247 116.964 75.9082 117.085 75.1236C117.266 73.9467 117.478 73.106 117.719 72.6016C118.022 72.0412 118.626 71.761 119.532 71.761C119.955 71.761 120.348 71.845 120.71 72.0132C121.012 72.4055 121.284 73.4983 121.526 75.2917C121.646 76.4686 121.767 77.2532 121.888 77.6455C126.419 77.6455 129.168 77.4774 130.135 77.1412C130.618 76.973 130.981 76.6928 131.222 76.3005C131.524 75.8522 131.917 75.1516 132.4 74.1989C132.823 73.1901 133.246 72.4335 133.669 71.9291C134.092 71.3687 134.666 71.0885 135.391 71.0885C135.693 71.0885 135.935 71.2286 136.116 71.5088C136.297 72.6857 136.388 74.4511 136.388 76.8049L139.106 76.7208C142.369 76.7208 144 77.4494 144 78.9065C144 79.9714 143.486 80.6719 142.459 81.0082C141.493 81.3444 140.073 81.5966 138.2 81.7647C136.75 81.8768 135.784 82.0169 135.3 82.1851C134.757 82.4092 134.303 82.7735 133.941 83.2779C133.578 83.7823 133.156 84.4548 132.672 85.2955C132.008 86.3603 131.464 87.1449 131.041 87.6493C130.678 88.0977 130.165 88.3218 129.5 88.3218C129.077 88.3218 128.564 88.2097 127.96 87.9856C127.416 87.3691 127.144 86.6966 127.144 85.968C127.144 85.6878 127.235 85.3235 127.416 84.8752C127.658 84.3708 127.779 84.0065 127.779 83.7823C127.779 83.39 127.628 83.1658 127.325 83.1098C127.084 82.9977 126.721 82.9417 126.238 82.9417C125.09 82.9417 124.154 83.0537 123.429 83.2779C122.704 83.5021 122.341 84.0065 122.341 84.7911ZM129.229 137.5C127.295 137.5 125.573 137.22 124.063 136.659C122.553 136.099 121.797 135.062 121.797 133.549C121.797 129.906 122.19 126.431 122.976 123.125C123.157 122.34 123.308 121.275 123.429 119.93C123.55 117.857 123.852 116.316 124.335 115.307C124.577 114.858 124.697 114.494 124.697 114.214L124.516 113.962C123.972 114.13 122.764 115.111 120.891 116.904C119.018 118.641 117.75 119.818 117.085 120.435C113.944 123.405 111.436 125.703 109.563 127.328C107.751 128.897 106.512 129.682 105.848 129.682C105.304 129.682 104.821 129.514 104.398 129.178C103.975 128.841 103.764 128.421 103.764 127.917C103.764 126.684 105.455 124.134 108.838 120.267C112.282 116.344 115.001 113.485 116.994 111.692C118.082 110.683 118.837 109.899 119.26 109.338C118.656 108.666 117.81 108.189 116.723 107.909C116.541 107.965 115.816 108.189 114.548 108.582C113.339 108.974 112.101 109.17 110.832 109.17C109.141 109.17 108.295 108.666 108.295 107.657C108.295 106.424 108.748 105.527 109.654 104.967C110.621 104.406 112.01 103.874 113.823 103.37C115.454 102.921 116.662 102.501 117.448 102.109C118.233 101.66 118.626 100.96 118.626 100.007C118.626 99.6146 118.263 99.4184 117.538 99.4184C116.874 99.4184 115.937 99.5305 114.729 99.7547C113.521 99.9789 112.584 100.091 111.92 100.091C111.436 100.091 110.953 99.8388 110.47 99.3344C109.986 98.7739 109.745 98.2696 109.745 97.8212C109.745 96.5322 110.258 95.6355 111.285 95.1311C112.312 94.6267 113.823 94.2344 115.816 93.9542C116.964 93.7861 117.901 93.6179 118.626 93.4498C119.351 93.2817 119.925 93.0295 120.348 92.6932C120.468 92.469 120.71 92.0207 121.072 91.3482C121.495 90.6196 121.949 90.0872 122.432 89.7509C122.976 89.4147 123.61 89.2465 124.335 89.2465C125.06 89.2465 125.573 89.5268 125.875 90.0872C126.178 90.5916 126.329 91.2081 126.329 91.9366C126.933 92.441 128.564 92.6932 131.222 92.6932C132.914 92.6932 133.971 92.7493 134.394 92.8614C134.877 92.9734 135.21 93.1976 135.391 93.5339C135.693 94.0943 136.146 94.5707 136.75 94.963L138.744 94.8789C139.831 94.8789 140.647 95.3273 141.191 96.224C141.13 96.6163 140.647 97.1767 139.741 97.9053C139.318 98.2976 138.925 98.6899 138.563 99.0822C138.261 99.4745 138.11 99.8388 138.11 100.175C138.11 100.455 138.2 100.679 138.381 100.848C138.623 100.96 138.895 101.072 139.197 101.184C139.499 101.24 139.68 101.268 139.741 101.268C140.345 101.38 140.798 101.548 141.1 101.772C141.463 101.94 141.644 102.249 141.644 102.697C141.644 103.594 141.342 104.322 140.738 104.883C140.133 105.387 139.348 105.639 138.381 105.639C136.448 105.639 134.817 105.891 133.488 106.396C132.219 106.9 131.101 107.601 130.135 108.497C129.229 109.338 128.081 110.599 126.691 112.28L126.782 112.364H131.222H132.853C133.88 112.364 134.636 112.477 135.119 112.701C136.388 113.149 137.203 114.242 137.566 115.979C137.928 117.717 138.11 119.678 138.11 121.864C138.11 124.666 137.777 127.552 137.113 130.523C137.052 130.747 137.022 131.055 137.022 131.447C137.022 131.784 137.082 132.232 137.203 132.792C137.385 133.353 137.475 133.773 137.475 134.053C137.475 135.398 136.569 136.295 134.757 136.743C133.004 137.248 131.162 137.5 129.229 137.5ZM127.054 99.6706C127.054 99.9509 127.114 100.259 127.235 100.595C127.356 100.876 127.567 101.016 127.869 101.016C128.232 101.016 128.957 100.595 130.044 99.7547C131.192 98.858 131.887 98.2135 132.128 97.8212C132.068 97.597 131.796 97.4849 131.313 97.4849C128.473 97.4849 127.054 98.2135 127.054 99.6706ZM129.682 121.191C130.407 121.191 131.132 121.079 131.857 120.855C132.642 120.631 133.035 120.267 133.035 119.762C133.035 119.426 132.944 119.118 132.763 118.838C132.582 118.501 132.31 118.333 131.947 118.333C131.403 118.333 130.709 118.613 129.863 119.174C129.077 119.678 128.685 120.155 128.685 120.603C128.685 120.995 129.017 121.191 129.682 121.191ZM127.144 131.531C127.809 131.531 128.745 131.391 129.954 131.111C131.222 130.887 131.977 130.607 132.219 130.27C132.4 129.99 132.491 129.626 132.491 129.178C132.491 128.673 132.491 128.393 132.491 128.337C132.491 127.608 132.37 127.104 132.128 126.824C131.947 126.487 131.494 126.319 130.769 126.319C129.138 126.319 128.111 126.656 127.688 127.328C127.325 127.945 127.144 129.093 127.144 130.775V131.531Z"/>
</mask>
<path d="M52.9244 89.2465C52.9244 88.9663 54.0722 85.94 56.368 80.1675C58.7242 74.395 60.0231 71.3967 60.2648 71.1725C60.5064 70.8923 60.7179 70.7242 60.8991 70.6681C61.1408 70.556 61.4731 70.5 61.896 70.5C62.1376 70.5 62.5605 70.556 63.1647 70.6681C63.8293 71.2846 64.1615 72.1813 64.1615 73.3582C64.1615 73.8626 64.1011 74.6192 63.9803 75.628C63.7991 76.3565 63.7084 77.1131 63.7084 77.8977C63.7084 78.4582 63.8595 78.7384 64.1615 78.7384C64.524 78.7384 65.3094 78.4302 66.5177 77.8137C67.7864 77.1972 68.8739 76.7208 69.7801 76.3846C70.6864 75.9923 71.653 75.7961 72.6801 75.7961C73.5259 75.7961 74.2811 76.0203 74.9456 76.4686C75.6102 76.8609 75.9425 77.4214 75.9425 78.1499C75.9425 78.9906 75.0967 79.9433 73.405 81.0082C71.7134 82.0169 69.3874 83.2219 66.4271 84.623C66.0646 84.7911 65.2792 85.1834 64.0709 85.7999C62.8626 86.3603 62.047 86.8087 61.6241 87.1449C61.2616 87.4251 60.9293 87.8174 60.6273 88.3218C60.3252 88.8262 60.1137 89.1625 59.9929 89.3306C59.4492 90.2834 58.9356 91.0119 58.4523 91.5163C57.969 92.0207 57.3951 92.2729 56.7305 92.2729C55.7639 92.2729 54.8878 91.9927 54.1024 91.4322C53.3171 90.8158 52.9244 90.0872 52.9244 89.2465ZM35.7967 79.3269C35.7967 78.4862 36.129 77.7576 36.7935 77.1412C37.5185 76.5247 38.3341 76.2164 39.2403 76.2164C40.5695 76.2164 41.808 76.945 42.9559 78.4021C44.1642 79.8593 44.8589 81.2604 45.0402 82.6054C45.161 83.39 45.2819 83.9504 45.4027 84.2867C45.5235 84.5669 45.886 84.9312 46.4901 85.3795C47.5172 86.0521 48.0307 86.6685 48.0307 87.229C48.0307 88.0696 47.7891 88.6581 47.3058 88.9944C46.8829 89.3306 46.1579 89.6389 45.1308 89.9191C43.9225 90.2553 43.1069 90.6476 42.684 91.096C42.3215 91.4322 41.808 93.1136 41.1434 96.1399C40.5393 99.1662 40.2372 101.1 40.2372 101.94C40.7809 101.94 41.4757 101.828 42.3215 101.604C42.5632 101.548 42.835 101.492 43.1371 101.436C43.4996 101.38 43.9225 101.352 44.4058 101.352C45.9162 101.352 46.8224 102.389 47.1245 104.462C47.4266 106.48 47.5776 108.89 47.5776 111.692C47.5776 113.99 47.487 116.007 47.3058 117.745C47.1245 119.482 46.762 121.163 46.2183 122.789C46.0975 123.125 45.735 124.218 45.1308 126.067C44.5871 127.861 43.8017 129.374 42.7746 130.607C41.7476 131.84 40.6299 132.456 39.4216 132.456C37.73 132.456 36.4915 132.12 35.7061 131.447C34.9811 130.831 34.6186 129.766 34.6186 128.253C34.6186 127.692 34.7394 127.3 34.9811 127.076C35.2227 126.852 35.6457 126.74 36.2498 126.74C36.854 126.74 37.2769 126.852 37.5185 127.076C37.7602 127.3 37.9112 127.412 37.9716 127.412C38.2133 127.412 38.4247 127.244 38.606 126.908C38.8477 126.515 38.9685 126.291 38.9685 126.235C41.3851 121.528 42.5934 116.175 42.5934 110.179C42.5934 107.152 42.2007 105.639 41.4153 105.639C41.0528 105.639 40.5393 105.948 39.8747 106.564C39.2706 107.068 38.757 107.797 38.3341 108.75C37.9112 109.702 37.4581 110.963 36.9748 112.533C36.1894 114.774 35.4644 116.596 34.7998 117.997C34.1957 119.342 33.3499 120.519 32.2624 121.528C31.5978 122.144 31.0239 122.452 30.5406 122.452C29.876 122.452 29.4531 122.312 29.2719 122.032C29.0906 121.696 29 121.191 29 120.519C29 118.277 29.9062 114.214 31.7187 108.329C33.5915 102.389 35.3134 97.3448 36.8842 93.1976H36.9748L36.8842 92.6932C35.1925 92.6932 33.2895 93.2537 31.1749 94.3745C30.5104 94.3745 29.9666 94.1223 29.5437 93.6179C29.1812 93.1136 29 92.5531 29 91.9366C29 91.2081 29.6344 90.4795 30.9031 89.7509C32.1718 89.0224 33.9238 88.1817 36.1592 87.229C36.4613 87.1169 36.9748 86.8927 37.6998 86.5565C38.4247 86.2202 38.9383 85.94 39.2403 85.7158C39.6028 85.4916 39.7841 85.3235 39.7841 85.2114C39.7841 84.5949 39.633 84.1186 39.331 83.7823C39.0289 83.39 38.5154 82.8856 37.7904 82.2691C37.1258 81.7087 36.6123 81.2323 36.2498 80.84C35.9477 80.3917 35.7967 79.8873 35.7967 79.3269ZM53.4681 101.52C53.4681 99.9509 54.616 98.0454 56.9117 95.8036C59.2679 93.5619 61.9564 91.6004 64.9771 89.9191C67.9979 88.2378 70.3541 87.3971 72.0457 87.3971C73.0728 87.3971 73.8582 87.6773 74.4019 88.2378C74.9456 88.7422 75.2175 89.4707 75.2175 90.4235C75.2175 91.4322 74.5831 92.441 73.3144 93.4498C72.0457 94.4586 70.2937 95.6075 68.0583 96.8965C67.0917 97.4569 66.1552 98.0454 65.249 98.6619C64.3428 99.2223 63.7084 99.7267 63.3459 100.175L64.1615 99.7547C64.3428 101.1 64.4334 102.445 64.4334 103.79C64.4334 109.17 63.7386 114.242 62.3491 119.006C62.2887 119.286 62.1376 119.734 61.896 120.351C61.7147 120.967 61.6241 121.528 61.6241 122.032L61.8054 122.452C62.1678 122.284 62.8022 121.92 63.7084 121.359C64.6147 120.799 65.4001 120.519 66.0646 120.519C66.7896 120.519 67.3937 120.799 67.8771 121.359C68.3604 121.864 68.6021 122.452 68.6021 123.125C68.6021 123.741 68.1791 124.414 67.3333 125.142C66.5479 125.815 65.4605 126.543 64.0709 127.328C62.621 128.225 61.7449 128.841 61.4429 129.178C61.1408 129.458 60.8387 129.822 60.5366 130.27C60.295 130.719 60.1137 131.027 59.9929 131.195C59.6304 131.868 59.3283 132.372 59.0867 132.708C58.2409 133.773 57.5159 134.586 56.9117 135.146C56.3076 135.763 55.7034 136.071 55.0993 136.071C53.8306 136.071 53.015 135.566 52.6525 134.558C52.29 133.605 52.1088 132.4 52.1088 130.943C52.1088 129.654 52.2598 128.421 52.5619 127.244C52.9244 126.011 53.4379 124.498 54.1024 122.705L55.1899 119.426C55.8545 117.352 56.6701 114.494 57.6367 110.851C58.6638 107.152 59.1773 104.799 59.1773 103.79L58.9961 103.285L58.6336 103.201C58.3315 103.201 57.8784 103.37 57.2742 103.706C56.6701 103.986 56.1566 104.126 55.7337 104.126C55.0691 104.126 54.5254 103.846 54.1024 103.285C53.6795 102.725 53.4681 102.137 53.4681 101.52ZM65.1584 113.878C65.1584 113.429 65.4907 112.925 66.1552 112.364C66.8802 111.748 67.3031 111.384 67.424 111.272C68.0281 110.823 69.2062 109.45 70.9582 107.152C73.3748 104.238 75.2477 102.109 76.5768 100.763C77.906 99.3624 78.9934 98.6619 79.8392 98.6619C80.7455 98.6619 81.5913 99.0542 82.3767 99.8388C83.2225 100.567 83.6454 101.352 83.6454 102.193C83.6454 102.585 82.8902 103.51 81.3798 104.967C79.9299 106.368 77.906 108.189 75.3081 110.431C73.0728 112.28 71.9551 113.289 71.9551 113.457C71.9551 113.682 72.1363 113.85 72.4988 113.962C72.8613 114.074 73.0728 114.13 73.1332 114.13C74.5227 114.578 77.0299 115.755 80.6549 117.661C84.2798 119.566 87.663 121.528 90.8046 123.545C94.0066 125.563 95.9096 127.048 96.5138 128.001C96.9971 128.729 97.2388 129.654 97.2388 130.775C97.2388 131.167 97.118 131.587 96.8763 132.036C96.695 132.484 96.4232 132.708 96.0607 132.708C95.7586 132.708 95.3659 132.652 94.8826 132.54C94.2784 132.428 92.9191 131.671 90.8046 130.27C88.7505 128.925 87.3609 128.029 86.6359 127.58C83.1319 125.17 80.7757 123.685 79.5674 123.125L77.3018 121.948C74.4623 120.603 72.0759 119.398 70.1426 118.333C68.2698 117.268 66.9406 116.316 66.1552 115.475C66.0948 115.419 65.9136 115.223 65.6115 114.886C65.3094 114.55 65.1584 114.214 65.1584 113.878Z" fill="#6A5D4A"/>
<path d="M122.341 84.7911C122.341 85.0713 122.341 85.7158 122.341 86.7246C122.402 87.7334 122.19 88.49 121.707 88.9944C121.224 89.4987 120.408 89.7509 119.26 89.7509C118.354 89.7509 117.689 89.3586 117.266 88.574C116.904 87.7334 116.602 86.8647 116.36 85.968C116.179 85.0153 116.028 84.3427 115.907 83.9504L113.279 83.6982C111.346 83.4741 109.835 83.362 108.748 83.362L106.754 83.446C105.365 83.446 104.67 82.9417 104.67 81.9329C104.67 80.812 105.214 80.0834 106.301 79.7472C107.449 79.3549 109.08 79.0747 111.195 78.9065C112.161 78.8505 113.068 78.7664 113.913 78.6543C114.82 78.4862 115.484 78.262 115.907 77.9818C116.27 77.7576 116.511 77.4214 116.632 76.973C116.813 76.5247 116.964 75.9082 117.085 75.1236C117.266 73.9467 117.478 73.106 117.719 72.6016C118.022 72.0412 118.626 71.761 119.532 71.761C119.955 71.761 120.348 71.845 120.71 72.0132C121.012 72.4055 121.284 73.4983 121.526 75.2917C121.646 76.4686 121.767 77.2532 121.888 77.6455C126.419 77.6455 129.168 77.4774 130.135 77.1412C130.618 76.973 130.981 76.6928 131.222 76.3005C131.524 75.8522 131.917 75.1516 132.4 74.1989C132.823 73.1901 133.246 72.4335 133.669 71.9291C134.092 71.3687 134.666 71.0885 135.391 71.0885C135.693 71.0885 135.935 71.2286 136.116 71.5088C136.297 72.6857 136.388 74.4511 136.388 76.8049L139.106 76.7208C142.369 76.7208 144 77.4494 144 78.9065C144 79.9714 143.486 80.6719 142.459 81.0082C141.493 81.3444 140.073 81.5966 138.2 81.7647C136.75 81.8768 135.784 82.0169 135.3 82.1851C134.757 82.4092 134.303 82.7735 133.941 83.2779C133.578 83.7823 133.156 84.4548 132.672 85.2955C132.008 86.3603 131.464 87.1449 131.041 87.6493C130.678 88.0977 130.165 88.3218 129.5 88.3218C129.077 88.3218 128.564 88.2097 127.96 87.9856C127.416 87.3691 127.144 86.6966 127.144 85.968C127.144 85.6878 127.235 85.3235 127.416 84.8752C127.658 84.3708 127.779 84.0065 127.779 83.7823C127.779 83.39 127.628 83.1658 127.325 83.1098C127.084 82.9977 126.721 82.9417 126.238 82.9417C125.09 82.9417 124.154 83.0537 123.429 83.2779C122.704 83.5021 122.341 84.0065 122.341 84.7911ZM129.229 137.5C127.295 137.5 125.573 137.22 124.063 136.659C122.553 136.099 121.797 135.062 121.797 133.549C121.797 129.906 122.19 126.431 122.976 123.125C123.157 122.34 123.308 121.275 123.429 119.93C123.55 117.857 123.852 116.316 124.335 115.307C124.577 114.858 124.697 114.494 124.697 114.214L124.516 113.962C123.972 114.13 122.764 115.111 120.891 116.904C119.018 118.641 117.75 119.818 117.085 120.435C113.944 123.405 111.436 125.703 109.563 127.328C107.751 128.897 106.512 129.682 105.848 129.682C105.304 129.682 104.821 129.514 104.398 129.178C103.975 128.841 103.764 128.421 103.764 127.917C103.764 126.684 105.455 124.134 108.838 120.267C112.282 116.344 115.001 113.485 116.994 111.692C118.082 110.683 118.837 109.899 119.26 109.338C118.656 108.666 117.81 108.189 116.723 107.909C116.541 107.965 115.816 108.189 114.548 108.582C113.339 108.974 112.101 109.17 110.832 109.17C109.141 109.17 108.295 108.666 108.295 107.657C108.295 106.424 108.748 105.527 109.654 104.967C110.621 104.406 112.01 103.874 113.823 103.37C115.454 102.921 116.662 102.501 117.448 102.109C118.233 101.66 118.626 100.96 118.626 100.007C118.626 99.6146 118.263 99.4184 117.538 99.4184C116.874 99.4184 115.937 99.5305 114.729 99.7547C113.521 99.9789 112.584 100.091 111.92 100.091C111.436 100.091 110.953 99.8388 110.47 99.3344C109.986 98.7739 109.745 98.2696 109.745 97.8212C109.745 96.5322 110.258 95.6355 111.285 95.1311C112.312 94.6267 113.823 94.2344 115.816 93.9542C116.964 93.7861 117.901 93.6179 118.626 93.4498C119.351 93.2817 119.925 93.0295 120.348 92.6932C120.468 92.469 120.71 92.0207 121.072 91.3482C121.495 90.6196 121.949 90.0872 122.432 89.7509C122.976 89.4147 123.61 89.2465 124.335 89.2465C125.06 89.2465 125.573 89.5268 125.875 90.0872C126.178 90.5916 126.329 91.2081 126.329 91.9366C126.933 92.441 128.564 92.6932 131.222 92.6932C132.914 92.6932 133.971 92.7493 134.394 92.8614C134.877 92.9734 135.21 93.1976 135.391 93.5339C135.693 94.0943 136.146 94.5707 136.75 94.963L138.744 94.8789C139.831 94.8789 140.647 95.3273 141.191 96.224C141.13 96.6163 140.647 97.1767 139.741 97.9053C139.318 98.2976 138.925 98.6899 138.563 99.0822C138.261 99.4745 138.11 99.8388 138.11 100.175C138.11 100.455 138.2 100.679 138.381 100.848C138.623 100.96 138.895 101.072 139.197 101.184C139.499 101.24 139.68 101.268 139.741 101.268C140.345 101.38 140.798 101.548 141.1 101.772C141.463 101.94 141.644 102.249 141.644 102.697C141.644 103.594 141.342 104.322 140.738 104.883C140.133 105.387 139.348 105.639 138.381 105.639C136.448 105.639 134.817 105.891 133.488 106.396C132.219 106.9 131.101 107.601 130.135 108.497C129.229 109.338 128.081 110.599 126.691 112.28L126.782 112.364H131.222H132.853C133.88 112.364 134.636 112.477 135.119 112.701C136.388 113.149 137.203 114.242 137.566 115.979C137.928 117.717 138.11 119.678 138.11 121.864C138.11 124.666 137.777 127.552 137.113 130.523C137.052 130.747 137.022 131.055 137.022 131.447C137.022 131.784 137.082 132.232 137.203 132.792C137.385 133.353 137.475 133.773 137.475 134.053C137.475 135.398 136.569 136.295 134.757 136.743C133.004 137.248 131.162 137.5 129.229 137.5ZM127.054 99.6706C127.054 99.9509 127.114 100.259 127.235 100.595C127.356 100.876 127.567 101.016 127.869 101.016C128.232 101.016 128.957 100.595 130.044 99.7547C131.192 98.858 131.887 98.2135 132.128 97.8212C132.068 97.597 131.796 97.4849 131.313 97.4849C128.473 97.4849 127.054 98.2135 127.054 99.6706ZM129.682 121.191C130.407 121.191 131.132 121.079 131.857 120.855C132.642 120.631 133.035 120.267 133.035 119.762C133.035 119.426 132.944 119.118 132.763 118.838C132.582 118.501 132.31 118.333 131.947 118.333C131.403 118.333 130.709 118.613 129.863 119.174C129.077 119.678 128.685 120.155 128.685 120.603C128.685 120.995 129.017 121.191 129.682 121.191ZM127.144 131.531C127.809 131.531 128.745 131.391 129.954 131.111C131.222 130.887 131.977 130.607 132.219 130.27C132.4 129.99 132.491 129.626 132.491 129.178C132.491 128.673 132.491 128.393 132.491 128.337C132.491 127.608 132.37 127.104 132.128 126.824C131.947 126.487 131.494 126.319 130.769 126.319C129.138 126.319 128.111 126.656 127.688 127.328C127.325 127.945 127.144 129.093 127.144 130.775V131.531Z" fill="#6A5D4A"/>
<path d="M52.9244 89.2465C52.9244 88.9663 54.0722 85.94 56.368 80.1675C58.7242 74.395 60.0231 71.3967 60.2648 71.1725C60.5064 70.8923 60.7179 70.7242 60.8991 70.6681C61.1408 70.556 61.4731 70.5 61.896 70.5C62.1376 70.5 62.5605 70.556 63.1647 70.6681C63.8293 71.2846 64.1615 72.1813 64.1615 73.3582C64.1615 73.8626 64.1011 74.6192 63.9803 75.628C63.7991 76.3565 63.7084 77.1131 63.7084 77.8977C63.7084 78.4582 63.8595 78.7384 64.1615 78.7384C64.524 78.7384 65.3094 78.4302 66.5177 77.8137C67.7864 77.1972 68.8739 76.7208 69.7801 76.3846C70.6864 75.9923 71.653 75.7961 72.6801 75.7961C73.5259 75.7961 74.2811 76.0203 74.9456 76.4686C75.6102 76.8609 75.9425 77.4214 75.9425 78.1499C75.9425 78.9906 75.0967 79.9433 73.405 81.0082C71.7134 82.0169 69.3874 83.2219 66.4271 84.623C66.0646 84.7911 65.2792 85.1834 64.0709 85.7999C62.8626 86.3603 62.047 86.8087 61.6241 87.1449C61.2616 87.4251 60.9293 87.8174 60.6273 88.3218C60.3252 88.8262 60.1137 89.1625 59.9929 89.3306C59.4492 90.2834 58.9356 91.0119 58.4523 91.5163C57.969 92.0207 57.3951 92.2729 56.7305 92.2729C55.7639 92.2729 54.8878 91.9927 54.1024 91.4322C53.3171 90.8158 52.9244 90.0872 52.9244 89.2465ZM35.7967 79.3269C35.7967 78.4862 36.129 77.7576 36.7935 77.1412C37.5185 76.5247 38.3341 76.2164 39.2403 76.2164C40.5695 76.2164 41.808 76.945 42.9559 78.4021C44.1642 79.8593 44.8589 81.2604 45.0402 82.6054C45.161 83.39 45.2819 83.9504 45.4027 84.2867C45.5235 84.5669 45.886 84.9312 46.4901 85.3795C47.5172 86.0521 48.0307 86.6685 48.0307 87.229C48.0307 88.0696 47.7891 88.6581 47.3058 88.9944C46.8829 89.3306 46.1579 89.6389 45.1308 89.9191C43.9225 90.2553 43.1069 90.6476 42.684 91.096C42.3215 91.4322 41.808 93.1136 41.1434 96.1399C40.5393 99.1662 40.2372 101.1 40.2372 101.94C40.7809 101.94 41.4757 101.828 42.3215 101.604C42.5632 101.548 42.835 101.492 43.1371 101.436C43.4996 101.38 43.9225 101.352 44.4058 101.352C45.9162 101.352 46.8224 102.389 47.1245 104.462C47.4266 106.48 47.5776 108.89 47.5776 111.692C47.5776 113.99 47.487 116.007 47.3058 117.745C47.1245 119.482 46.762 121.163 46.2183 122.789C46.0975 123.125 45.735 124.218 45.1308 126.067C44.5871 127.861 43.8017 129.374 42.7746 130.607C41.7476 131.84 40.6299 132.456 39.4216 132.456C37.73 132.456 36.4915 132.12 35.7061 131.447C34.9811 130.831 34.6186 129.766 34.6186 128.253C34.6186 127.692 34.7394 127.3 34.9811 127.076C35.2227 126.852 35.6457 126.74 36.2498 126.74C36.854 126.74 37.2769 126.852 37.5185 127.076C37.7602 127.3 37.9112 127.412 37.9716 127.412C38.2133 127.412 38.4247 127.244 38.606 126.908C38.8477 126.515 38.9685 126.291 38.9685 126.235C41.3851 121.528 42.5934 116.175 42.5934 110.179C42.5934 107.152 42.2007 105.639 41.4153 105.639C41.0528 105.639 40.5393 105.948 39.8747 106.564C39.2706 107.068 38.757 107.797 38.3341 108.75C37.9112 109.702 37.4581 110.963 36.9748 112.533C36.1894 114.774 35.4644 116.596 34.7998 117.997C34.1957 119.342 33.3499 120.519 32.2624 121.528C31.5978 122.144 31.0239 122.452 30.5406 122.452C29.876 122.452 29.4531 122.312 29.2719 122.032C29.0906 121.696 29 121.191 29 120.519C29 118.277 29.9062 114.214 31.7187 108.329C33.5915 102.389 35.3134 97.3448 36.8842 93.1976H36.9748L36.8842 92.6932C35.1925 92.6932 33.2895 93.2537 31.1749 94.3745C30.5104 94.3745 29.9666 94.1223 29.5437 93.6179C29.1812 93.1136 29 92.5531 29 91.9366C29 91.2081 29.6344 90.4795 30.9031 89.7509C32.1718 89.0224 33.9238 88.1817 36.1592 87.229C36.4613 87.1169 36.9748 86.8927 37.6998 86.5565C38.4247 86.2202 38.9383 85.94 39.2403 85.7158C39.6028 85.4916 39.7841 85.3235 39.7841 85.2114C39.7841 84.5949 39.633 84.1186 39.331 83.7823C39.0289 83.39 38.5154 82.8856 37.7904 82.2691C37.1258 81.7087 36.6123 81.2323 36.2498 80.84C35.9477 80.3917 35.7967 79.8873 35.7967 79.3269ZM53.4681 101.52C53.4681 99.9509 54.616 98.0454 56.9117 95.8036C59.2679 93.5619 61.9564 91.6004 64.9771 89.9191C67.9979 88.2378 70.3541 87.3971 72.0457 87.3971C73.0728 87.3971 73.8582 87.6773 74.4019 88.2378C74.9456 88.7422 75.2175 89.4707 75.2175 90.4235C75.2175 91.4322 74.5831 92.441 73.3144 93.4498C72.0457 94.4586 70.2937 95.6075 68.0583 96.8965C67.0917 97.4569 66.1552 98.0454 65.249 98.6619C64.3428 99.2223 63.7084 99.7267 63.3459 100.175L64.1615 99.7547C64.3428 101.1 64.4334 102.445 64.4334 103.79C64.4334 109.17 63.7386 114.242 62.3491 119.006C62.2887 119.286 62.1376 119.734 61.896 120.351C61.7147 120.967 61.6241 121.528 61.6241 122.032L61.8054 122.452C62.1678 122.284 62.8022 121.92 63.7084 121.359C64.6147 120.799 65.4001 120.519 66.0646 120.519C66.7896 120.519 67.3937 120.799 67.8771 121.359C68.3604 121.864 68.6021 122.452 68.6021 123.125C68.6021 123.741 68.1791 124.414 67.3333 125.142C66.5479 125.815 65.4605 126.543 64.0709 127.328C62.621 128.225 61.7449 128.841 61.4429 129.178C61.1408 129.458 60.8387 129.822 60.5366 130.27C60.295 130.719 60.1137 131.027 59.9929 131.195C59.6304 131.868 59.3283 132.372 59.0867 132.708C58.2409 133.773 57.5159 134.586 56.9117 135.146C56.3076 135.763 55.7034 136.071 55.0993 136.071C53.8306 136.071 53.015 135.566 52.6525 134.558C52.29 133.605 52.1088 132.4 52.1088 130.943C52.1088 129.654 52.2598 128.421 52.5619 127.244C52.9244 126.011 53.4379 124.498 54.1024 122.705L55.1899 119.426C55.8545 117.352 56.6701 114.494 57.6367 110.851C58.6638 107.152 59.1773 104.799 59.1773 103.79L58.9961 103.285L58.6336 103.201C58.3315 103.201 57.8784 103.37 57.2742 103.706C56.6701 103.986 56.1566 104.126 55.7337 104.126C55.0691 104.126 54.5254 103.846 54.1024 103.285C53.6795 102.725 53.4681 102.137 53.4681 101.52ZM65.1584 113.878C65.1584 113.429 65.4907 112.925 66.1552 112.364C66.8802 111.748 67.3031 111.384 67.424 111.272C68.0281 110.823 69.2062 109.45 70.9582 107.152C73.3748 104.238 75.2477 102.109 76.5768 100.763C77.906 99.3624 78.9934 98.6619 79.8392 98.6619C80.7455 98.6619 81.5913 99.0542 82.3767 99.8388C83.2225 100.567 83.6454 101.352 83.6454 102.193C83.6454 102.585 82.8902 103.51 81.3798 104.967C79.9299 106.368 77.906 108.189 75.3081 110.431C73.0728 112.28 71.9551 113.289 71.9551 113.457C71.9551 113.682 72.1363 113.85 72.4988 113.962C72.8613 114.074 73.0728 114.13 73.1332 114.13C74.5227 114.578 77.0299 115.755 80.6549 117.661C84.2798 119.566 87.663 121.528 90.8046 123.545C94.0066 125.563 95.9096 127.048 96.5138 128.001C96.9971 128.729 97.2388 129.654 97.2388 130.775C97.2388 131.167 97.118 131.587 96.8763 132.036C96.695 132.484 96.4232 132.708 96.0607 132.708C95.7586 132.708 95.3659 132.652 94.8826 132.54C94.2784 132.428 92.9191 131.671 90.8046 130.27C88.7505 128.925 87.3609 128.029 86.6359 127.58C83.1319 125.17 80.7757 123.685 79.5674 123.125L77.3018 121.948C74.4623 120.603 72.0759 119.398 70.1426 118.333C68.2698 117.268 66.9406 116.316 66.1552 115.475C66.0948 115.419 65.9136 115.223 65.6115 114.886C65.3094 114.55 65.1584 114.214 65.1584 113.878Z" stroke="#6A5D4A" mask="url(#path-1-outside-1_2720_4374)"/>
<path d="M122.341 84.7911C122.341 85.0713 122.341 85.7158 122.341 86.7246C122.402 87.7334 122.19 88.49 121.707 88.9944C121.224 89.4987 120.408 89.7509 119.26 89.7509C118.354 89.7509 117.689 89.3586 117.266 88.574C116.904 87.7334 116.602 86.8647 116.36 85.968C116.179 85.0153 116.028 84.3427 115.907 83.9504L113.279 83.6982C111.346 83.4741 109.835 83.362 108.748 83.362L106.754 83.446C105.365 83.446 104.67 82.9417 104.67 81.9329C104.67 80.812 105.214 80.0834 106.301 79.7472C107.449 79.3549 109.08 79.0747 111.195 78.9065C112.161 78.8505 113.068 78.7664 113.913 78.6543C114.82 78.4862 115.484 78.262 115.907 77.9818C116.27 77.7576 116.511 77.4214 116.632 76.973C116.813 76.5247 116.964 75.9082 117.085 75.1236C117.266 73.9467 117.478 73.106 117.719 72.6016C118.022 72.0412 118.626 71.761 119.532 71.761C119.955 71.761 120.348 71.845 120.71 72.0132C121.012 72.4055 121.284 73.4983 121.526 75.2917C121.646 76.4686 121.767 77.2532 121.888 77.6455C126.419 77.6455 129.168 77.4774 130.135 77.1412C130.618 76.973 130.981 76.6928 131.222 76.3005C131.524 75.8522 131.917 75.1516 132.4 74.1989C132.823 73.1901 133.246 72.4335 133.669 71.9291C134.092 71.3687 134.666 71.0885 135.391 71.0885C135.693 71.0885 135.935 71.2286 136.116 71.5088C136.297 72.6857 136.388 74.4511 136.388 76.8049L139.106 76.7208C142.369 76.7208 144 77.4494 144 78.9065C144 79.9714 143.486 80.6719 142.459 81.0082C141.493 81.3444 140.073 81.5966 138.2 81.7647C136.75 81.8768 135.784 82.0169 135.3 82.1851C134.757 82.4092 134.303 82.7735 133.941 83.2779C133.578 83.7823 133.156 84.4548 132.672 85.2955C132.008 86.3603 131.464 87.1449 131.041 87.6493C130.678 88.0977 130.165 88.3218 129.5 88.3218C129.077 88.3218 128.564 88.2097 127.96 87.9856C127.416 87.3691 127.144 86.6966 127.144 85.968C127.144 85.6878 127.235 85.3235 127.416 84.8752C127.658 84.3708 127.779 84.0065 127.779 83.7823C127.779 83.39 127.628 83.1658 127.325 83.1098C127.084 82.9977 126.721 82.9417 126.238 82.9417C125.09 82.9417 124.154 83.0537 123.429 83.2779C122.704 83.5021 122.341 84.0065 122.341 84.7911ZM129.229 137.5C127.295 137.5 125.573 137.22 124.063 136.659C122.553 136.099 121.797 135.062 121.797 133.549C121.797 129.906 122.19 126.431 122.976 123.125C123.157 122.34 123.308 121.275 123.429 119.93C123.55 117.857 123.852 116.316 124.335 115.307C124.577 114.858 124.697 114.494 124.697 114.214L124.516 113.962C123.972 114.13 122.764 115.111 120.891 116.904C119.018 118.641 117.75 119.818 117.085 120.435C113.944 123.405 111.436 125.703 109.563 127.328C107.751 128.897 106.512 129.682 105.848 129.682C105.304 129.682 104.821 129.514 104.398 129.178C103.975 128.841 103.764 128.421 103.764 127.917C103.764 126.684 105.455 124.134 108.838 120.267C112.282 116.344 115.001 113.485 116.994 111.692C118.082 110.683 118.837 109.899 119.26 109.338C118.656 108.666 117.81 108.189 116.723 107.909C116.541 107.965 115.816 108.189 114.548 108.582C113.339 108.974 112.101 109.17 110.832 109.17C109.141 109.17 108.295 108.666 108.295 107.657C108.295 106.424 108.748 105.527 109.654 104.967C110.621 104.406 112.01 103.874 113.823 103.37C115.454 102.921 116.662 102.501 117.448 102.109C118.233 101.66 118.626 100.96 118.626 100.007C118.626 99.6146 118.263 99.4184 117.538 99.4184C116.874 99.4184 115.937 99.5305 114.729 99.7547C113.521 99.9789 112.584 100.091 111.92 100.091C111.436 100.091 110.953 99.8388 110.47 99.3344C109.986 98.7739 109.745 98.2696 109.745 97.8212C109.745 96.5322 110.258 95.6355 111.285 95.1311C112.312 94.6267 113.823 94.2344 115.816 93.9542C116.964 93.7861 117.901 93.6179 118.626 93.4498C119.351 93.2817 119.925 93.0295 120.348 92.6932C120.468 92.469 120.71 92.0207 121.072 91.3482C121.495 90.6196 121.949 90.0872 122.432 89.7509C122.976 89.4147 123.61 89.2465 124.335 89.2465C125.06 89.2465 125.573 89.5268 125.875 90.0872C126.178 90.5916 126.329 91.2081 126.329 91.9366C126.933 92.441 128.564 92.6932 131.222 92.6932C132.914 92.6932 133.971 92.7493 134.394 92.8614C134.877 92.9734 135.21 93.1976 135.391 93.5339C135.693 94.0943 136.146 94.5707 136.75 94.963L138.744 94.8789C139.831 94.8789 140.647 95.3273 141.191 96.224C141.13 96.6163 140.647 97.1767 139.741 97.9053C139.318 98.2976 138.925 98.6899 138.563 99.0822C138.261 99.4745 138.11 99.8388 138.11 100.175C138.11 100.455 138.2 100.679 138.381 100.848C138.623 100.96 138.895 101.072 139.197 101.184C139.499 101.24 139.68 101.268 139.741 101.268C140.345 101.38 140.798 101.548 141.1 101.772C141.463 101.94 141.644 102.249 141.644 102.697C141.644 103.594 141.342 104.322 140.738 104.883C140.133 105.387 139.348 105.639 138.381 105.639C136.448 105.639 134.817 105.891 133.488 106.396C132.219 106.9 131.101 107.601 130.135 108.497C129.229 109.338 128.081 110.599 126.691 112.28L126.782 112.364H131.222H132.853C133.88 112.364 134.636 112.477 135.119 112.701C136.388 113.149 137.203 114.242 137.566 115.979C137.928 117.717 138.11 119.678 138.11 121.864C138.11 124.666 137.777 127.552 137.113 130.523C137.052 130.747 137.022 131.055 137.022 131.447C137.022 131.784 137.082 132.232 137.203 132.792C137.385 133.353 137.475 133.773 137.475 134.053C137.475 135.398 136.569 136.295 134.757 136.743C133.004 137.248 131.162 137.5 129.229 137.5ZM127.054 99.6706C127.054 99.9509 127.114 100.259 127.235 100.595C127.356 100.876 127.567 101.016 127.869 101.016C128.232 101.016 128.957 100.595 130.044 99.7547C131.192 98.858 131.887 98.2135 132.128 97.8212C132.068 97.597 131.796 97.4849 131.313 97.4849C128.473 97.4849 127.054 98.2135 127.054 99.6706ZM129.682 121.191C130.407 121.191 131.132 121.079 131.857 120.855C132.642 120.631 133.035 120.267 133.035 119.762C133.035 119.426 132.944 119.118 132.763 118.838C132.582 118.501 132.31 118.333 131.947 118.333C131.403 118.333 130.709 118.613 129.863 119.174C129.077 119.678 128.685 120.155 128.685 120.603C128.685 120.995 129.017 121.191 129.682 121.191ZM127.144 131.531C127.809 131.531 128.745 131.391 129.954 131.111C131.222 130.887 131.977 130.607 132.219 130.27C132.4 129.99 132.491 129.626 132.491 129.178C132.491 128.673 132.491 128.393 132.491 128.337C132.491 127.608 132.37 127.104 132.128 126.824C131.947 126.487 131.494 126.319 130.769 126.319C129.138 126.319 128.111 126.656 127.688 127.328C127.325 127.945 127.144 129.093 127.144 130.775V131.531Z" stroke="#6A5D4A" mask="url(#path-1-outside-1_2720_4374)"/>
<path d="M164.165 10.0595C163.443 7.43377 163.188 6.47236 163.073 6.10956L163.054 5.99844C162.813 4.55631 161.668 2.34323 160.168 1.93282C159.391 1.72194 158.638 1.99631 157.928 2.74912L157.912 2.76952C156.974 4.04613 156.603 5.54721 156.247 7.00068C156.03 8.03936 155.708 9.05605 155.285 10.0369C155.189 10.2723 155.196 10.5341 155.304 10.7647C155.358 10.8781 155.434 10.9803 155.53 11.0652C155.626 11.1501 155.739 11.216 155.862 11.2591C155.975 11.309 156.098 11.3353 156.223 11.3361C156.348 11.3375 156.472 11.3111 156.584 11.2591C157.361 10.8962 157.748 9.34754 158.061 8.10268C158.157 7.71721 158.241 7.37709 158.318 7.15941H161.286L162.217 10.5788C162.25 10.7 162.308 10.8139 162.387 10.9139C162.467 11.014 162.567 11.0983 162.681 11.162C162.795 11.2257 162.922 11.2675 163.053 11.2851C163.185 11.3028 163.318 11.2958 163.447 11.2647C163.576 11.2336 163.696 11.1789 163.802 11.1038C163.909 11.0287 163.998 10.9346 164.066 10.8269C164.133 10.7192 164.177 10.6 164.196 10.4761C164.215 10.3522 164.208 10.2261 164.175 10.1049L164.165 10.0595ZM160.699 5.25244H158.845C159.28 3.9577 159.617 3.84659 159.718 3.84432C159.819 3.84205 160.16 3.92369 160.699 5.25244Z" fill="#695C4A"/>
<path d="M147.469 1.17985C147.212 1.15951 146.956 1.23276 146.754 1.38456C146.552 1.53636 146.42 1.7552 146.384 1.99615V2.01883C146.384 2.23424 146.334 2.65599 146.283 3.15258C145.939 6.4722 145.679 10.073 146.935 10.8031C147.076 10.8683 147.23 10.9025 147.387 10.9029C147.532 10.8991 147.675 10.8658 147.805 10.8054C151.466 9.21814 153.28 7.03454 152.782 4.79878C152.346 2.851 150.211 1.39526 147.469 1.17985ZM148.089 8.53789C148.04 6.77645 148.102 5.01384 148.272 3.25915C149.835 3.71265 150.749 4.44732 150.858 5.32258C150.98 6.32708 149.975 7.49484 148.089 8.53789Z" fill="#695C4A"/>
<path d="M168.658 0.678893C168.312 0.630794 167.959 0.665896 167.631 0.780933C166.587 1.146 165.928 1.85799 165.911 2.64028C165.894 3.38402 166.455 4.05974 167.458 4.50871C167.357 5.00756 167.366 6.23881 167.422 8.52445C167.439 9.2047 167.463 10.1502 167.439 10.2591V10.2908V10.309C167.433 10.4381 167.455 10.567 167.503 10.6879C167.552 10.8087 167.626 10.919 167.721 11.0121C167.816 11.1051 167.931 11.179 168.057 11.2292C168.183 11.2793 168.319 11.3048 168.456 11.3041C168.593 11.3033 168.729 11.2763 168.854 11.2247C168.98 11.1731 169.093 11.0979 169.187 11.0038C169.281 10.9097 169.354 10.7986 169.401 10.6772C169.448 10.5558 169.469 10.4267 169.461 10.2976V10.2682V10.2432C169.444 10.1525 169.449 9.35209 169.461 8.62875C169.483 6.00299 169.461 4.92592 169.367 4.49056C170.431 3.98037 170.988 3.19355 170.866 2.36818C170.722 1.5088 169.86 0.844421 168.658 0.678893ZM168.639 2.64935C168.552 2.70604 168.461 2.76046 168.384 2.80354C168.283 2.75592 168.203 2.71058 168.143 2.67203C168.225 2.63348 168.314 2.5972 168.408 2.56319C168.494 2.59493 168.574 2.62214 168.639 2.64255V2.64935Z" fill="#695C4A"/>
<path d="M185.968 0.585961C185.724 0.481231 185.446 0.471825 185.195 0.559797C184.944 0.647768 184.74 0.825951 184.628 1.05533L183.305 3.79674L181.944 1.07574C181.822 0.859264 181.616 0.695334 181.369 0.61791C181.123 0.540486 180.854 0.555507 180.619 0.659858C180.383 0.764209 180.2 0.949893 180.106 1.17844C180.012 1.40699 180.014 1.66088 180.114 1.88751L182.319 6.28419L182.346 10.2115C182.337 10.371 182.374 10.5298 182.454 10.6705C182.535 10.8113 182.654 10.9286 182.8 11.0097C182.968 11.098 183.156 11.1444 183.348 11.1444C183.54 11.1444 183.729 11.098 183.897 11.0097C184.044 10.9289 184.164 10.8114 184.245 10.6701C184.326 10.5289 184.363 10.3694 184.354 10.2092L184.335 6.27059L186.468 1.84669C186.579 1.61662 186.588 1.35446 186.495 1.1177C186.401 0.880945 186.211 0.688909 185.968 0.583698V0.585961Z" fill="#695C4A"/>
<path d="M175.914 0.561279C175.782 0.562169 175.651 0.587682 175.528 0.636367C175.406 0.685051 175.295 0.755948 175.202 0.845015C175.109 0.934081 175.035 1.03957 174.986 1.15546C174.936 1.27135 174.91 1.39536 174.911 1.52043L174.972 10.2616C174.975 10.5143 175.084 10.7553 175.275 10.9327C175.466 11.1101 175.723 11.2095 175.991 11.2095C176.259 11.2065 176.515 11.1037 176.703 10.9236C176.891 10.7435 176.996 10.5007 176.994 10.248L176.927 1.50909C176.924 1.25728 176.817 1.01656 176.627 0.839126C176.438 0.661696 176.181 0.561865 175.914 0.561279Z" fill="#695C4A"/>
<path d="M163.233 19.6716C163.01 19.5592 162.757 19.5 162.5 19.5C162.242 19.5 161.989 19.5592 161.766 19.6716C161.272 19.9218 160.992 20.4063 161 20.9983C161.007 21.5904 161.272 22.0748 161.766 22.3278C161.989 22.4406 162.242 22.5 162.5 22.5C162.757 22.5 163.01 22.4406 163.233 22.3278C163.728 22.0775 164.007 21.5931 163.999 21.001C163.992 20.409 163.728 19.9218 163.233 19.6716Z" fill="#695C4A"/>
<path d="M184.761 15.8554L184.734 15.6589C184.74 15.4829 184.705 15.3078 184.633 15.1451C184.561 14.9825 184.453 14.8358 184.315 14.7148C184.205 14.6274 184.075 14.5642 183.935 14.5298C183.795 14.4954 183.649 14.4907 183.507 14.5161C182.504 14.7306 182.645 15.5505 182.746 16.1467C182.773 16.3093 182.802 16.4765 182.812 16.6346V16.6617C182.913 17.669 183.098 19.5074 182.775 20.5012C182.364 20.2053 182.119 19.6136 181.901 19.0873C181.618 18.4098 181.325 17.6938 180.649 17.6938C179.952 17.6577 179.64 18.3149 179.291 19.0354C179.017 19.6046 178.707 20.2415 178.204 20.5012C177.877 19.3877 178.228 17.5651 178.465 16.3387V16.3093C178.492 16.1761 178.516 16.0496 178.528 15.9683C178.593 15.8091 178.623 15.6392 178.615 15.469C178.606 15.2988 178.56 15.132 178.48 14.9791C178.413 14.8643 178.32 14.7645 178.207 14.6865C178.095 14.6085 177.966 14.5542 177.828 14.5274C177.692 14.4971 177.55 14.4944 177.412 14.5193C177.274 14.5442 177.144 14.5962 177.029 14.6719C176.912 14.7472 176.812 14.8445 176.736 14.9576C176.661 15.0707 176.611 15.1972 176.591 15.3291C176.334 16.4283 176.16 17.543 176.07 18.665C175.787 20.5034 176.368 21.9963 177.523 22.3803C178.492 22.7033 179.611 22.1544 180.533 20.9055C181.032 21.7073 182.03 22.5 183.056 22.5C183.562 22.5 184.248 22.2741 184.642 21.2962C185.231 19.6994 184.96 17.477 184.761 15.8554Z" fill="#695C4A"/>
<path d="M173.927 14.5012H166.182C166.029 14.4947 165.877 14.5153 165.734 14.562C165.591 14.6086 165.46 14.6802 165.349 14.7724C165.239 14.8646 165.151 14.9756 165.091 15.0985C165.031 15.2214 165 15.3538 165 15.4875C165 15.6212 165.031 15.7536 165.091 15.8765C165.151 15.9994 165.239 16.1103 165.349 16.2026C165.46 16.2948 165.591 16.3664 165.734 16.413C165.877 16.4596 166.029 16.4803 166.182 16.4738H168.929V22.4644C168.921 22.598 168.945 22.7315 168.998 22.8568C169.051 22.9822 169.133 23.0967 169.238 23.1935C169.343 23.2904 169.47 23.3675 169.61 23.4202C169.751 23.4728 169.902 23.5 170.054 23.5C170.207 23.5 170.358 23.4728 170.498 23.4202C170.639 23.3675 170.765 23.2904 170.871 23.1935C170.976 23.0967 171.058 22.9822 171.111 22.8568C171.164 22.7315 171.188 22.598 171.18 22.4644V16.4738H173.927C174.216 16.4614 174.489 16.3521 174.689 16.1685C174.888 15.9849 175 15.7411 175 15.4875C175 15.2339 174.888 14.9901 174.689 14.8064C174.489 14.6228 174.216 14.5135 173.927 14.5012Z" fill="#695C4A"/>
<path d="M156.384 50.5546C157.363 49.5763 159.34 49.4846 160.206 49.561C160.894 49.6217 161.505 50.4018 161.582 50.784C161.657 51.1587 161.582 53.3062 160.588 54.2998C159.594 55.2934 158.907 54.7584 159.594 53.6884C160.282 52.6183 159.442 52.665 159.136 52.8476C158.978 52.9417 158.219 53.4845 157.76 53.6884C157.225 54.2998 155.375 53.7656 156.843 52.665C158.31 51.5644 157.76 51.2892 157.301 51.2892C156.512 51.4676 155.406 51.533 156.384 50.5546Z" fill="#6A5D4A"/>
<path d="M160.666 44.6141C161.645 43.6358 163.622 43.5441 164.488 43.6205C165.176 43.6812 165.787 44.4613 165.864 44.8434C165.939 45.2182 165.864 47.3656 164.87 48.3593C163.877 49.3529 163.189 48.8178 163.877 47.7478C164.564 46.6778 163.724 46.7244 163.418 46.9071C163.26 47.0011 162.501 47.544 162.042 47.7478C161.507 48.3593 159.658 47.8251 161.125 46.7244C162.592 45.6238 162.042 45.3487 161.584 45.3487C160.794 45.527 159.688 45.5924 160.666 44.6141Z" fill="#6A5D4A"/>
<path d="M166.781 49.0468C167.76 48.0685 169.737 47.9768 170.603 48.0532C171.291 48.1139 171.902 48.894 171.979 49.2761C172.054 49.6509 171.979 51.7984 170.985 52.792C169.991 53.7856 169.304 53.2506 169.991 52.1805C170.679 51.1105 169.839 51.1572 169.533 51.3398C169.375 51.4339 168.616 51.9767 168.157 52.1805C167.622 52.792 165.772 52.2578 167.24 51.1572C168.707 50.0566 168.157 49.7814 167.698 49.7814C166.909 49.9598 165.803 50.0252 166.781 49.0468Z" fill="#6A5D4A"/>
<path fill-rule="evenodd" clip-rule="evenodd" d="M132.115 34.233C132.115 34.2331 132.116 34.2364 132.116 34.2425C132.115 34.236 132.114 34.2329 132.115 34.233ZM132.148 34.3382C133.203 32.0992 133.454 30.1037 133.071 28.418C132.675 26.676 131.624 25.3692 130.302 24.5462C127.73 22.9458 123.965 23.1062 121.839 25.5512C121.067 26.4387 120.378 27.8799 120.038 29.2972C119.392 29.8091 118.736 30.4069 118.205 30.9204C117.614 31.491 117.105 32.0272 116.942 32.2436C116.825 32.3997 116.629 32.715 116.443 33.0752C116.256 33.4369 116.04 33.9167 115.925 34.3958C115.867 34.6356 115.824 34.9179 115.844 35.2082C115.847 35.2531 115.852 35.2997 115.858 35.3476C114.817 35.4891 113.879 36.0346 113.373 36.8373C112.966 37.4832 112.848 38.3061 113.242 39.1053C113.409 39.4443 113.653 39.7489 113.963 40.0202C113.603 40.3747 113.335 40.7711 113.177 41.2089C112.849 42.12 113.066 43.0118 113.559 43.7144C114.29 44.7556 115.651 45.4631 117.176 45.6475C117.171 45.7859 117.175 45.9243 117.19 46.0624C117.255 46.6693 117.513 47.1975 117.887 47.6315C118.61 48.471 119.767 48.9698 120.982 49.2157C123.098 49.6441 125.844 49.3974 128.191 48.2663C129.032 50.2727 130.42 51.7505 132.118 52.6982C132.027 53.0577 131.889 53.5135 131.715 53.9747C131.565 54.3711 131.404 54.7273 131.249 54.9923C131.191 55.0924 131.143 55.1624 131.108 55.21C131.056 55.2136 130.997 55.2175 130.93 55.2218C130.864 55.2262 130.784 55.2308 130.694 55.236C130.075 55.2719 128.957 55.3366 128.14 55.5368C127.909 55.5935 127.637 55.7075 127.417 55.9352C127.18 56.1814 127.025 56.5492 127.097 56.96C127.231 57.7181 127.943 57.9703 128.32 58.025C128.43 58.0409 128.518 58.0541 128.584 58.0656C128.596 58.0676 128.605 58.0693 128.613 58.0708C128.642 58.0827 128.667 58.0933 128.69 58.103C128.667 58.1675 128.639 58.2415 128.607 58.3261C128.359 58.9701 128.466 59.7527 129.103 60.2039C129.703 60.6294 130.449 60.5228 130.989 60.1613C131.088 60.095 131.165 60.0476 131.22 60.0172C131.23 60.0117 131.238 60.0074 131.245 60.004C131.478 59.9553 131.671 59.9621 131.834 59.99C132.045 60.026 132.219 60.0978 132.42 60.1839L132.436 60.1906C132.509 60.2219 132.623 60.271 132.733 60.3059L132.735 60.3065C132.82 60.3338 133.114 60.4276 133.451 60.332C133.928 60.1966 134.142 59.8117 134.214 59.5374C134.271 59.3146 134.261 59.0964 134.249 58.959C134.189 58.2399 134.013 57.6836 133.89 57.2967L133.886 57.2823C133.826 57.0936 133.791 56.9805 133.77 56.8873C133.762 56.8477 133.759 56.8248 133.758 56.815C133.82 56.3843 134.101 55.4279 134.43 54.5375C134.547 54.2181 134.663 53.9303 134.766 53.7001C135.16 53.7886 135.563 53.8552 135.972 53.8998C137.17 54.0307 138.419 53.9743 139.674 53.734C139.884 53.9706 140.119 54.265 140.319 54.5689C140.48 54.8138 140.598 55.035 140.665 55.2143C140.68 55.2552 140.691 55.2895 140.699 55.3178C140.667 55.3636 140.63 55.4157 140.589 55.475C140.491 55.6135 140.35 55.79 140.172 56.0139C140.08 56.1296 139.977 56.2581 139.865 56.4005C139.565 56.783 139.216 57.2452 138.965 57.6814C138.839 57.9001 138.734 58.191 138.761 58.5223C138.791 58.8787 138.972 59.2126 139.283 59.4251C139.862 59.8196 140.512 59.6057 140.873 59.3712C140.906 59.3496 140.938 59.3286 140.969 59.3084C141.045 59.2589 141.114 59.214 141.173 59.1756C141.215 59.1488 141.249 59.1272 141.275 59.111C141.296 59.0976 141.305 59.0923 141.305 59.092C141.364 59.0597 141.408 59.0352 141.444 59.016C141.469 59.0413 141.498 59.0709 141.531 59.105C141.661 59.2416 141.824 59.4238 142.004 59.6314C142.397 60.0838 143.094 60.4575 143.823 60.1425C144.59 59.8107 144.755 59.0026 144.64 58.395C144.624 58.3066 144.611 58.2288 144.601 58.161C144.597 58.1276 144.593 58.0986 144.591 58.0735C144.719 57.9023 144.858 57.7783 144.993 57.6825C145.153 57.5686 145.307 57.4926 145.475 57.4119C145.481 57.4094 145.486 57.4067 145.492 57.4038C145.563 57.3697 145.683 57.3125 145.784 57.2493C145.842 57.2132 145.938 57.1484 146.033 57.0507C146.128 56.9524 146.271 56.7691 146.321 56.4972C146.433 55.89 146.005 55.5226 145.917 55.4496C145.777 55.3331 145.611 55.2418 145.48 55.1745C144.93 54.8908 144.511 54.7118 144.2 54.5788L144.198 54.5779C143.966 54.4785 143.836 54.4222 143.737 54.3686C143.654 54.3237 143.628 54.299 143.614 54.2839C143.356 54.011 143.065 53.4739 142.738 52.8538L142.73 52.8373C142.722 52.8225 142.714 52.8077 142.706 52.7927C144.222 52.1362 145.691 51.2075 147.033 50.013C148.141 49.7983 149.054 49.1141 149.458 48.1087C149.777 47.3154 149.735 46.4373 149.355 45.6027C149.891 45.2654 150.461 44.8152 150.878 44.2842C151.241 43.8217 151.578 43.183 151.523 42.4316C151.495 42.053 151.374 41.705 151.175 41.3889C151.42 41.178 151.641 40.965 151.832 40.7523C152.214 40.329 152.582 39.7958 152.666 39.1999C152.712 38.8762 152.674 38.5229 152.498 38.1896C152.324 37.8616 152.056 37.6298 151.77 37.4716C151.23 37.1734 150.511 37.0721 149.715 37.0721C148.057 37.0721 146.881 37.4588 145.894 37.8131C145.83 37.836 145.768 37.8585 145.706 37.8807C144.82 38.2 144.172 38.4335 143.349 38.4385C142.807 38.4057 142.217 38.2551 141.542 38.0224C141.109 37.8729 140.691 37.7087 140.244 37.533C139.958 37.4208 139.66 37.3039 139.339 37.1832C137.798 36.6037 135.982 36.0433 133.949 36.3367C133.894 36.3122 133.807 36.2641 133.691 36.1811C133.435 35.9985 133.134 35.7163 132.853 35.3903C132.571 35.0635 132.344 34.7347 132.213 34.4779C132.184 34.4215 132.163 34.375 132.148 34.3382ZM133.994 36.3533C133.994 36.3534 133.992 36.3529 133.987 36.3516C133.992 36.3525 133.994 36.3531 133.994 36.3533ZM142.609 55.9848L142.525 56.1228C142.443 56.2581 142.323 56.4286 142.213 56.5852L142.197 56.6067C142.111 56.7298 141.994 56.8814 141.867 57.0429C142.075 57.0927 142.266 57.1808 142.439 57.2899C142.522 57.3422 142.607 57.4111 142.687 57.4833C142.718 57.3804 142.763 57.2746 142.827 57.1722C143.021 56.8596 143.238 56.6068 143.459 56.401C143.447 56.3961 143.436 56.3913 143.425 56.3865C143.4 56.376 143.375 56.3655 143.35 56.3548C143.118 56.2562 142.858 56.1458 142.609 55.9848ZM140.867 51.3923C142.619 50.809 144.364 49.8035 145.925 48.3623L146.165 48.1405L146.49 48.1067C147.134 48.0398 147.499 47.7079 147.633 47.3751C147.76 47.0587 147.763 46.5225 147.207 45.8642L146.334 44.8306L147.587 44.3191C148.072 44.1208 148.9 43.6174 149.331 43.0687C149.541 42.802 149.566 42.6409 149.561 42.5748C149.559 42.5447 149.544 42.3645 149.141 42.075L148.018 41.2669L149.15 40.4716C149.685 40.0961 150.096 39.7412 150.371 39.4355C150.48 39.3146 150.56 39.2098 150.617 39.1227C150.441 39.0794 150.155 39.0392 149.715 39.0392C148.397 39.0392 147.475 39.3356 146.558 39.6646C146.483 39.6915 146.407 39.7191 146.33 39.747C145.478 40.0566 144.517 40.4056 143.322 40.4056H143.296L143.27 40.4042C142.453 40.3605 141.654 40.1419 140.901 39.8819C140.438 39.7224 139.943 39.5282 139.46 39.3391C139.182 39.2299 138.908 39.1225 138.647 39.0244C137.141 38.4582 135.697 38.0515 134.154 38.2951C133.793 38.3521 133.466 38.2627 133.232 38.1688C132.987 38.0703 132.755 37.9301 132.547 37.7818C132.131 37.4847 131.717 37.0851 131.364 36.676C131.011 36.2676 130.683 35.8079 130.46 35.3716C130.35 35.1553 130.248 34.9103 130.193 34.6574C130.143 34.4256 130.103 34.0474 130.287 33.6707C131.276 31.646 131.424 30.0455 131.153 28.8539C130.884 27.6697 130.18 26.7874 129.262 26.2162C127.353 25.0281 124.701 25.258 123.323 26.842C122.815 27.4268 122.268 28.5135 121.979 29.6423C122.11 29.7765 122.247 29.8474 122.37 29.888C122.584 29.9588 122.786 29.9444 122.874 29.9238L124.389 29.5703L124.059 31.0906C123.873 31.9432 124.035 32.4125 124.27 32.8819L124.597 33.5358L124.065 34.0374C124.014 34.085 123.963 34.1319 123.91 34.1779C124.481 34.4525 125.189 34.689 126.029 34.8433C127.185 35.0557 128.251 35.3282 128.844 36.2283C129.132 36.6647 129.25 37.1603 129.308 37.652C129.365 38.1407 129.372 38.7208 129.372 39.3733V39.462L129.356 39.5492C129.26 40.0807 129.178 41.2958 129.209 42.6912C129.239 44.0854 129.379 45.5386 129.675 46.5677C130.315 48.786 131.684 50.3214 133.458 51.1808L133.634 51.2626C133.813 51.3458 134.111 51.4563 134.364 51.5442C134.461 51.5781 134.544 51.6061 134.6 51.6246C134.617 51.6295 134.635 51.6349 134.653 51.6408C135.144 51.7855 135.656 51.8866 136.185 51.9444C137.326 52.069 138.545 51.9894 139.778 51.7009C140.236 51.5838 140.599 51.4779 140.867 51.3923ZM131.814 57.1102L131.804 57.115L131.64 57.1365C131.483 57.1572 131.275 57.1707 131.084 57.1831L131.058 57.1848C130.971 57.1904 130.877 57.1961 130.776 57.2021C130.705 57.2064 130.631 57.2108 130.555 57.2156C130.604 57.3132 130.648 57.4205 130.683 57.5386C130.749 57.7593 130.737 57.9591 130.724 58.0714C130.723 58.0832 130.721 58.0949 130.72 58.1065C130.73 58.1039 130.74 58.1014 130.75 58.099C131.237 57.9845 131.676 57.981 132.06 58.0346C132.044 57.9818 132.027 57.9292 132.01 57.8766C132.004 57.856 131.997 57.834 131.989 57.8108C131.932 57.6345 131.852 57.3859 131.814 57.1102ZM132.291 59.1663C132.291 59.166 132.291 59.1637 132.291 59.1596C132.291 59.1644 132.291 59.1665 132.291 59.1663ZM122.202 33.0136C122.091 32.6633 122.017 32.2739 122.011 31.8273C121.606 31.7346 121.18 31.5501 120.791 31.2241C120.366 31.5856 119.943 31.9758 119.571 32.335C119.281 32.6154 119.028 32.8714 118.837 33.0722C118.741 33.1728 118.662 33.2573 118.604 33.3226C118.545 33.3885 118.52 33.4193 118.516 33.4234C118.516 33.4238 118.516 33.424 118.516 33.4239C118.516 33.4238 118.513 33.4282 118.506 33.4382C118.499 33.4479 118.49 33.4607 118.48 33.4769C118.459 33.5093 118.432 33.5516 118.401 33.6025C118.339 33.7044 118.265 33.834 118.19 33.979C118.062 34.226 117.949 34.4845 117.878 34.7109C117.88 34.7104 117.882 34.7099 117.884 34.7094C118.492 34.5593 119.422 34.3076 120.355 33.9439C120.816 33.764 121.257 33.5651 121.65 33.3494C121.662 33.3422 121.675 33.3353 121.688 33.3288C121.87 33.2273 122.043 33.1222 122.202 33.0136ZM117.508 34.7603C117.509 34.7599 117.514 34.7603 117.525 34.7628C117.513 34.7621 117.508 34.7608 117.508 34.7603ZM127.602 46.3606C127.368 45.226 127.268 43.9126 127.242 42.734C127.223 41.8681 127.244 41.0317 127.292 40.3448C124.175 40.2728 122.66 39.8823 121.39 39.2882C120.992 39.1023 120.652 38.917 120.312 38.7318C119.467 38.2717 118.623 37.8121 116.906 37.3454C116.049 37.1125 115.273 37.5125 115.038 37.8858C114.95 38.0244 114.95 38.122 115.006 38.2362C115.086 38.3988 115.357 38.7238 116.133 39.0536L118.067 39.8748L116.198 40.834C115.396 41.2457 115.113 41.64 115.028 41.8765C114.955 42.0772 114.973 42.3048 115.169 42.5844C115.608 43.2101 116.824 43.8382 118.352 43.7125L120.083 43.5702L119.315 45.1279C119.155 45.4514 119.128 45.6877 119.146 45.8529C119.163 46.0144 119.231 46.1772 119.378 46.3478C119.696 46.7178 120.363 47.0834 121.372 47.2877C123.185 47.6546 125.622 47.4026 127.602 46.3606ZM127.391 38.3794C124.391 38.314 123.166 37.9472 122.223 37.5063C121.953 37.3801 121.68 37.2315 121.381 37.0686C120.92 36.8178 120.396 36.5328 119.724 36.2421C120.147 36.112 120.606 35.9574 121.069 35.7767C121.385 35.6538 121.711 35.5156 122.036 35.3607C122.963 36.0039 124.202 36.5078 125.673 36.7781C126.925 37.0079 127.128 37.1991 127.202 37.3108C127.247 37.3804 127.312 37.5278 127.354 37.8821C127.371 38.0275 127.383 38.1913 127.391 38.3794Z" fill="#6A5D4A"/>
<path d="M141.685 55.6112C141.871 54.7582 140.609 53.2295 140.004 52.6584C140.492 52.5342 140.882 52.4204 141.175 52.3266C141.469 52.2324 142.155 54.1723 142.899 54.9597C143.109 55.182 143.373 55.2949 143.812 55.4823L143.812 55.4823C144.118 55.6136 144.511 55.7814 145.03 56.0489C145.518 56.3003 145.4 56.3571 145.049 56.5256C144.88 56.6069 144.657 56.7141 144.422 56.8815C144.165 57.0647 143.893 57.3199 143.662 57.6921C143.53 57.9038 143.642 58.4466 143.766 59.0224C143.879 59.5453 143.388 59.7406 143.043 59.332C142.564 58.7651 142.084 58.2288 141.915 58.1223C141.774 58.0093 141.359 57.8736 140.824 58.2343C140.743 58.2793 140.446 58.4769 140.155 58.6641C139.849 58.8616 139.553 58.6878 139.715 58.3616C140.095 57.5974 141.029 56.5585 141.393 56.041C141.516 55.8662 141.62 55.7182 141.685 55.6112Z" fill="#6A5D4A"/>
<path fill-rule="evenodd" clip-rule="evenodd" d="M142.738 52.8536C143.065 53.4736 143.356 54.0107 143.614 54.2837C143.628 54.2987 143.654 54.3235 143.737 54.3683C143.836 54.4219 143.966 54.4782 144.198 54.5776L144.198 54.5776L144.2 54.5785C144.202 54.5791 144.203 54.5797 144.204 54.5803L144.225 54.5891L144.225 54.5891C144.533 54.721 144.944 54.898 145.48 55.1743C145.611 55.2416 145.777 55.3328 145.917 55.4493C146.004 55.5223 146.433 55.8897 146.321 56.4969C146.27 56.7688 146.127 56.9521 146.032 57.0505C145.938 57.1481 145.841 57.213 145.784 57.2491C145.682 57.3122 145.563 57.3694 145.492 57.4036C145.486 57.4064 145.48 57.4091 145.475 57.4116C145.307 57.4923 145.152 57.5683 144.993 57.6822C144.858 57.7781 144.719 57.9021 144.591 58.0733C144.592 58.084 144.593 58.0954 144.594 58.1077C144.615 58.2852 144.663 58.5164 144.727 58.8143C144.85 59.3855 144.675 60.1343 143.954 60.4343C143.287 60.7116 142.647 60.3871 142.291 59.9665C142.056 59.688 141.826 59.424 141.639 59.2203C141.56 59.1344 141.493 59.0642 141.439 59.0105C141.421 59.0198 141.399 59.0324 141.374 59.0494L141.339 59.0732L141.301 59.0939C141.303 59.093 141.304 59.0925 141.304 59.0925C141.304 59.0926 141.289 59.1011 141.252 59.1246C141.213 59.1493 141.163 59.1817 141.103 59.2205C141.063 59.2468 141.018 59.2763 140.97 59.3075C140.881 59.3652 140.783 59.429 140.688 59.4901L140.163 58.6753L140.688 59.4901C140.342 59.7135 139.756 59.8779 139.225 59.5346C138.946 59.3539 138.757 59.0656 138.702 58.7338C138.65 58.4194 138.728 58.1367 138.834 57.9234C139.073 57.4435 139.458 56.9235 139.783 56.5048C139.929 56.3176 140.06 56.1533 140.176 56.0085C140.35 55.7903 140.489 55.6163 140.588 55.4747C140.63 55.4155 140.667 55.3634 140.699 55.3175C140.691 55.2892 140.68 55.2549 140.664 55.214C140.597 55.0347 140.48 54.8135 140.319 54.5686C139.996 54.0773 139.58 53.6106 139.329 53.3735L138.028 52.1462L139.761 51.7049C140.232 51.585 140.603 51.4766 140.875 51.3895C141.477 51.1965 141.904 51.5955 141.977 51.6643C142.114 51.7929 142.219 51.9445 142.289 52.0522C142.433 52.2741 142.589 52.5702 142.729 52.8371L142.738 52.8536ZM143.424 56.3861C143.4 56.3757 143.375 56.3652 143.35 56.3546C143.118 56.256 142.858 56.1455 142.609 55.9845L142.525 56.1226C142.443 56.2578 142.323 56.4283 142.212 56.5849C142.207 56.5922 142.202 56.5993 142.197 56.6065C142.111 56.7292 141.991 56.8842 141.86 57.0508C142.1 57.0984 142.314 57.1934 142.488 57.3224C142.561 57.3732 142.629 57.4306 142.687 57.4826C142.717 57.3828 142.761 57.2766 142.826 57.1719C143.021 56.8593 143.238 56.6065 143.458 56.4008C143.447 56.3959 143.436 56.391 143.424 56.3862L143.424 56.3862C143.424 56.3862 143.424 56.3861 143.424 56.3861Z" fill="#6A5D4A"/>
<path d="M131.712 56.0694C132.493 55.679 133.105 53.1922 133.17 52.3625C133.496 52.5137 134.088 52.6417 134.314 52.6741C134.334 52.6611 134.353 52.6568 134.369 52.6623C134.436 52.6846 134.404 52.687 134.314 52.6741C133.972 52.8926 133.119 55.593 132.981 56.6062C132.947 56.8537 133.036 57.1336 133.148 57.4875C133.269 57.8704 133.418 58.34 133.469 58.9488C133.507 59.4016 133.355 59.3365 133.008 59.1878L133.008 59.1878C132.805 59.1011 132.536 58.986 132.2 58.9286C131.909 58.8789 131.568 58.8723 131.175 58.9645C131.056 58.9924 130.864 59.1027 130.641 59.252C130.061 59.6401 129.474 59.2386 129.724 58.5874C129.876 58.193 129.984 57.8728 129.941 57.7287C129.942 57.5465 129.78 57.1548 129.13 57.0457C129.067 57.0199 128.879 56.9912 128.661 56.9596C128.188 56.8911 128.11 56.5139 128.574 56.4002C129.402 56.1973 130.612 56.1492 131.194 56.1114C131.407 56.0975 131.588 56.0857 131.712 56.0694Z" fill="#6A5D4A"/>
<path fill-rule="evenodd" clip-rule="evenodd" d="M132.3 50.8748L133.584 51.4709C133.662 51.5068 133.819 51.5588 134.021 51.6099C134.132 51.6381 134.236 51.6608 134.317 51.6768C134.429 51.6726 134.551 51.6865 134.68 51.7297L134.369 52.6628L134.68 51.7297C134.68 51.7298 134.681 51.7299 134.681 51.7301C134.695 51.7343 134.811 51.7712 134.926 51.844C134.96 51.8653 135.051 51.9246 135.142 52.0276C135.213 52.1082 135.458 52.4145 135.371 52.8658C135.303 53.2153 135.084 53.4106 134.939 53.5054C134.922 53.5416 134.903 53.5833 134.883 53.6305C134.769 53.8924 134.637 54.2512 134.505 54.6505C134.24 55.4554 134.018 56.303 133.957 56.7235C133.958 56.7332 133.961 56.7561 133.97 56.7958C133.991 56.889 134.026 57.0021 134.085 57.1908L134.09 57.2052C134.213 57.5921 134.389 58.1484 134.449 58.8675C134.46 59.0048 134.471 59.2231 134.413 59.4459C134.342 59.7201 134.128 60.1051 133.651 60.2405C133.314 60.3361 133.02 60.2423 132.934 60.215L132.932 60.2143C132.823 60.1795 132.709 60.1304 132.636 60.0991C132.63 60.0968 132.625 60.0945 132.62 60.0924L132.62 60.0924C132.419 60.0063 132.245 59.9345 132.034 59.8985C131.871 59.8706 131.677 59.8638 131.445 59.9125C131.438 59.9159 131.43 59.9202 131.42 59.9257C131.364 59.956 131.287 60.0035 131.188 60.0698C130.648 60.4313 129.903 60.5379 129.303 60.1124C128.666 59.6611 128.559 58.8786 128.806 58.2346C128.84 58.1466 128.869 58.07 128.892 58.0036L128.858 57.9979L128.813 57.9793C128.805 57.9778 128.795 57.9761 128.784 57.9741C128.718 57.9626 128.63 57.9494 128.52 57.9335C128.142 57.8788 127.431 57.6266 127.297 56.8685C127.225 56.4577 127.38 56.0899 127.617 55.8437C127.836 55.616 128.108 55.502 128.34 55.4453C129.157 55.2451 130.275 55.1803 130.894 55.1445C130.984 55.1393 131.064 55.1347 131.13 55.1303C131.195 55.1261 131.253 55.1223 131.305 55.1187C131.331 55.0814 131.363 55.0306 131.401 54.9628C131.529 54.7353 131.658 54.4249 131.777 54.0693C132.018 53.3479 132.165 52.5997 132.19 52.2861L132.3 50.8748ZM129.083 58.0492C129.083 58.0493 129.082 58.0487 129.08 58.0474C129.082 58.0485 129.083 58.0492 129.083 58.0492ZM132.013 57.0187L132.004 57.0235L131.84 57.045C131.683 57.0657 131.475 57.0792 131.284 57.0916C131.275 57.0921 131.266 57.0927 131.258 57.0933C131.171 57.0989 131.077 57.1046 130.976 57.1106C130.916 57.1142 130.853 57.118 130.789 57.1219C130.861 57.2791 130.905 57.4435 130.919 57.608C130.943 57.7624 130.933 57.8957 130.924 57.9799C130.922 57.9917 130.921 58.0034 130.919 58.015C130.93 58.0124 130.94 58.0099 130.95 58.0075L131.175 58.9649L130.95 58.0075C131.437 57.893 131.876 57.8895 132.26 57.9431C132.244 57.8902 132.227 57.8377 132.21 57.7851C132.204 57.7645 132.197 57.7425 132.189 57.7193C132.132 57.543 132.052 57.2944 132.013 57.0187ZM132.491 59.0748C132.491 59.0747 132.491 59.0723 132.491 59.068C132.491 59.0727 132.491 59.0748 132.491 59.0748Z" fill="#6A5D4A"/>
<path fill-rule="evenodd" clip-rule="evenodd" d="M134.055 42.9011C134.479 42.5618 135.098 42.6305 135.437 43.0547C135.484 43.1133 135.533 43.1751 135.584 43.2397C136.199 44.0162 137.136 45.1986 138.722 46.2133C140.423 47.3019 142.922 48.2248 146.623 48.0825L146.698 50.0481C142.605 50.2056 139.708 49.1799 137.661 47.8702C135.789 46.672 134.672 45.2585 134.048 44.4692C133.996 44.4027 133.947 44.3407 133.901 44.2836C133.562 43.8594 133.63 43.2404 134.055 42.9011Z" fill="#6A5D4A"/>
<path d="M117.729 32.8339C117.945 32.5459 119.539 30.8981 120.922 29.8569C121.546 30.9501 122.609 30.9957 123.097 30.8818C122.853 32.0042 123.081 32.7037 123.39 33.3219C122.024 34.6103 119.372 35.3554 118.119 35.6644C115.631 36.2786 117.436 33.2243 117.729 32.8339Z" fill="#6A5D4A"/>
<path fill-rule="evenodd" clip-rule="evenodd" d="M121.222 28.3997L121.776 29.3688C121.96 29.6922 122.181 29.8259 122.369 29.888C122.583 29.9588 122.785 29.9444 122.874 29.9239L124.389 29.5703L124.058 31.0906C123.873 31.9432 124.035 32.4125 124.27 32.8819L124.597 33.5359L124.065 34.0374C123.243 34.8126 122.097 35.3762 121.069 35.7767C120.022 36.1848 119 36.4602 118.355 36.6192C117.671 36.7879 116.788 36.8398 116.22 36.1751C115.952 35.8627 115.863 35.5007 115.844 35.2082C115.824 34.918 115.867 34.6357 115.925 34.3958C116.04 33.9167 116.256 33.437 116.443 33.0752C116.629 32.7151 116.825 32.3997 116.942 32.2436C117.104 32.0272 117.614 31.4911 118.204 30.9204C118.816 30.3292 119.593 29.626 120.33 29.0711L121.222 28.3997ZM118.516 33.4234C118.52 33.4193 118.545 33.3885 118.604 33.3226L118.516 33.4234ZM118.604 33.3226C118.662 33.2573 118.74 33.1728 118.836 33.0723L118.604 33.3226ZM118.836 33.0723C119.028 32.8714 119.281 32.6154 119.571 32.3351L118.836 33.0723ZM119.571 32.3351C119.943 31.9758 120.366 31.5857 120.791 31.2242L119.571 32.3351ZM120.791 31.2242C121.18 31.5501 121.606 31.7346 122.011 31.8273C122.017 32.2739 122.09 32.6633 122.201 33.0137C121.692 33.3613 121.047 33.6741 120.355 33.9439C119.421 34.3077 118.492 34.5594 117.884 34.7094C117.882 34.7099 117.88 34.7104 117.878 34.7109C117.949 34.4845 118.062 34.226 118.19 33.9791C118.265 33.8341 118.339 33.7044 118.401 33.6025C118.432 33.5516 118.458 33.5093 118.48 33.4769C118.49 33.4607 118.499 33.4479 118.506 33.4383M117.508 34.7604C117.508 34.7599 117.514 34.7603 117.524 34.7628C117.513 34.7621 117.508 34.7608 117.508 34.7604Z" fill="#6A5D4A"/>
<path d="M125.705 29.5047C125.893 30.0522 126.488 30.3442 127.036 30.1569C127.583 29.9696 127.875 29.3739 127.688 28.8265C127.501 28.279 126.905 27.987 126.358 28.1743C125.81 28.3616 125.518 28.9573 125.705 29.5047Z" fill="#6A5D4A"/>
<path fill-rule="evenodd" clip-rule="evenodd" d="M4.05955 56.5672C3.59804 55.9558 2.93563 55.2914 2.09871 54.5759C1.39862 53.8361 0.872116 53.1528 0.504374 52.5264C0.170943 51.9584 0 51.3242 0 50.6043C0.000218772 50.6008 0.00291502 50.5569 0.0345215 50.4612C0.0673135 50.3618 0.123395 50.2302 0.211844 50.0628C0.389576 49.7264 0.671133 49.2959 1.07174 48.7651L1.11331 48.71L1.14553 48.649C1.30012 48.3564 1.53926 47.9408 1.86835 47.3958C2.21551 46.8209 2.47232 46.2684 2.58768 45.7532C2.95097 44.5269 3.11228 42.7048 3.11228 40.3549C3.11228 30.726 3.36004 22.7121 3.85373 16.308C3.94615 15.7379 4.02773 14.3892 4.10756 12.3494C4.18834 10.2854 4.4703 8.47469 4.94305 6.90887C5.17121 6.15314 5.44117 5.67594 5.70667 5.39824C5.94945 5.14431 6.1965 5.04478 6.48711 5.04478C6.91796 5.04478 7.49893 5.22646 8.25418 5.72677L8.29304 5.75251L8.33446 5.77389C9.05402 6.14531 9.49645 6.50313 9.74523 6.82005C9.7635 7.12678 9.81744 7.43501 9.94331 7.70302C10.0305 7.88873 10.1669 8.08625 10.3789 8.23673C10.599 8.39297 10.8487 8.4613 11.0933 8.4613C11.2548 8.4613 11.3829 8.41264 11.3999 8.40619C11.4404 8.3914 11.4741 8.37601 11.4943 8.36645C11.5366 8.34642 11.5791 8.3236 11.6149 8.30367C11.6895 8.26223 11.7853 8.20557 11.8971 8.13752C12.1232 7.99999 12.4459 7.79713 12.8623 7.53116C13.6966 6.99827 14.9241 6.20095 16.5432 5.14021L16.5551 5.13211C19.6324 3.04133 23.2774 1.98169 27.5263 1.98169C30.8279 1.98169 33.2575 2.65053 34.923 3.87641C36.5631 5.08358 37.5693 6.91008 37.8788 9.47343C38.7077 16.3757 39.1176 21.5969 39.1176 25.1573C39.1176 27.1804 39.0352 30.0731 38.8694 33.8391C38.7033 37.7688 38.6196 40.7288 38.6196 42.7111C38.6196 46.047 37.9395 49.0125 36.5978 51.6264L36.593 51.6362C35.9936 52.8416 35.1993 53.7091 34.2202 54.2819C33.237 54.8571 32.0142 55.1659 30.5141 55.1659C30.0335 55.1659 29.5258 55.0273 28.9806 54.7091C28.437 54.34 27.805 53.8543 27.0826 53.2467C26.3208 52.6059 25.6322 52.0755 25.0189 51.6609L24.4487 51.2755L23.9802 51.7188L14.7259 54.2538L14.7127 54.2576C13.4161 54.6352 12.2835 55.5123 11.2982 56.7793C10.681 57.5072 10.0917 58.0199 9.53615 58.3485L9.51388 58.3616L9.49245 58.3761C9.12607 58.6238 8.42395 58.818 7.23406 58.818C6.51522 58.818 5.96016 58.6829 5.53374 58.4544C5.25758 58.2959 4.98174 58.0463 4.71531 57.6738C4.38956 57.134 4.20137 56.8121 4.13334 56.6833L4.10112 56.6223L4.05955 56.5672ZM11.2313 22.0568L13.4218 22.2452H13.4587C13.9646 22.2452 14.6581 22.0947 15.4725 21.8576C16.31 21.6137 17.3575 21.2528 18.6092 20.7791C20.6283 20.0627 21.751 19.7014 22.0837 19.6384L22.1027 19.6348L22.1216 19.6303C22.7284 19.4868 23.7606 19.3341 25.2506 19.1774L25.2727 19.1751L25.2946 19.1716C26.0546 19.0518 26.6864 18.929 27.1804 18.8015C27.6349 18.6842 28.0802 18.5378 28.3867 18.3237C29.0786 17.8542 29.6291 17.1959 29.6291 16.3214C29.6291 15.05 29.5873 13.9616 29.501 13.062C29.4175 12.1137 29.3327 11.3486 29.246 10.7741L29.1981 10.4569L28.954 10.249C28.3902 9.76881 27.6259 9.46123 26.7445 9.26874C25.8548 9.07445 24.7825 8.98391 23.5425 8.98391C19.0539 8.98391 14.9811 10.2536 11.349 12.7906L10.9679 13.0568L11.1082 17.4365L11.1108 17.4638C11.1897 18.2853 11.2313 19.5478 11.2313 21.2695V22.0568ZM12.046 44.8123L12.189 45.1506L13.3017 45.5718H13.4587C13.9489 45.5718 14.8267 45.4069 15.9871 45.1372C17.1858 44.8586 18.785 44.443 20.7803 43.8923C22.8172 43.3415 24.3983 42.886 25.5168 42.5265C26.0749 42.3471 26.5303 42.1877 26.8746 42.0488C27.0463 41.9796 27.202 41.9108 27.3343 41.8425C27.4507 41.7824 27.6101 41.6924 27.7425 41.5671L27.7771 41.5343L27.808 41.4978C27.9893 41.2834 28.1089 41.0179 28.1954 40.7725C28.2863 40.5144 28.3632 40.2114 28.4301 39.8737C28.5632 39.2015 28.6698 38.3251 28.7537 37.2576C29.0031 35.1308 29.1311 33.41 29.1311 32.1081C29.1311 30.8498 28.9854 29.7824 28.6118 28.9995C28.4195 28.5967 28.1521 28.2379 27.7841 27.9809C27.4087 27.7187 26.9794 27.5981 26.5303 27.5981C25.9497 27.5981 25.0084 27.7851 23.7961 28.0962C22.5514 28.4157 20.9285 28.8916 18.9323 29.5212C16.9761 30.1121 15.4108 30.6286 14.2443 31.0702C13.6608 31.291 13.1667 31.497 12.7685 31.6881C12.3827 31.8732 12.0394 32.0664 11.7911 32.272L11.608 32.4236L11.5291 32.6478C11.3587 33.1315 11.2313 33.602 11.2313 33.9931C11.2313 35.4343 11.3157 37.4586 11.4821 40.0563C11.5654 41.3575 11.6494 42.3938 11.7346 43.1594C11.7771 43.5416 11.8209 43.8658 11.8668 44.1264C11.9092 44.367 11.9636 44.6174 12.046 44.8123ZM63.8157 56.5672C63.3542 55.9558 62.6918 55.2914 61.8549 54.5759C61.1548 53.8361 60.6283 53.1528 60.2606 52.5264C59.9271 51.9584 59.7562 51.3242 59.7562 50.6043C59.7564 50.6008 59.7591 50.5569 59.7907 50.4611C59.8235 50.3618 59.8796 50.2302 59.968 50.0628C60.1458 49.7264 60.4273 49.2959 60.8279 48.7651L60.8695 48.71L60.9017 48.649C61.0563 48.3564 61.2955 47.9408 61.6245 47.3958C61.9717 46.8209 62.2285 46.2684 62.3439 45.7532C62.7071 44.5269 62.8685 42.7049 62.8685 40.3549C62.8685 30.726 63.1162 22.7122 63.6099 16.3081C63.7023 15.7379 63.7839 14.3893 63.8638 12.3494C63.9445 10.2854 64.2265 8.47469 64.6992 6.90887C64.9274 6.15314 65.1974 5.67594 65.4629 5.39824C65.7056 5.14431 65.9527 5.04478 66.2433 5.04478C66.6742 5.04478 67.2551 5.22646 68.0104 5.72677L68.0492 5.75251L68.0907 5.77389C68.8102 6.14531 69.2526 6.50313 69.5014 6.82005C69.5197 7.12678 69.5736 7.43501 69.6995 7.70302C69.7867 7.88873 69.9231 8.08624 70.1351 8.23673C70.3552 8.39296 70.6049 8.4613 70.8495 8.4613C71.011 8.4613 71.1391 8.41264 71.1561 8.40619C71.1966 8.3914 71.2303 8.37601 71.2505 8.36645C71.2928 8.34642 71.3352 8.3236 71.3711 8.30367C71.4457 8.26223 71.5415 8.20557 71.6533 8.13752C71.8794 7.99999 72.2021 7.79713 72.6185 7.53116C73.4528 6.99827 74.6803 6.20095 76.2994 5.14021L76.3113 5.13211C79.3886 3.04133 83.0336 1.98169 87.2825 1.98169C90.5841 1.98169 93.0137 2.65053 94.6792 3.87641C96.3191 5.08349 97.3253 6.9098 97.635 9.47285C98.4638 16.3755 98.8738 21.5968 98.8738 25.1573C98.8738 27.1804 98.7914 30.0731 98.6255 33.8391C98.4594 37.7688 98.3758 40.7288 98.3758 42.7111C98.3758 46.047 97.6957 49.0125 96.354 51.6264L96.3492 51.6362C95.7498 52.8416 94.9555 53.7091 93.9764 54.2819C92.9932 54.8571 91.7704 55.1659 90.2703 55.1659C89.7897 55.1659 89.282 55.0273 88.7368 54.7091C88.1932 54.34 87.5611 53.8543 86.8388 53.2467C86.077 52.6059 85.3884 52.0755 84.7751 51.6609L84.2049 51.2755L83.7364 51.7188L74.4821 54.2538L74.4689 54.2576C73.1723 54.6352 72.0397 55.5123 71.0544 56.7793C70.4372 57.5072 69.8479 58.0199 69.2923 58.3485L69.2701 58.3616L69.2486 58.3761C68.8823 58.6238 68.1801 58.818 66.9902 58.818C66.2715 58.818 65.7164 58.6829 65.29 58.4544C65.0138 58.2959 64.738 58.0464 64.4715 57.6739C64.1458 57.1341 63.9576 56.8121 63.8895 56.6833L63.8573 56.6223L63.8157 56.5672ZM70.9875 22.0568L73.178 22.2452H73.2149C73.7208 22.2452 74.4143 22.0947 75.2287 21.8576C76.0662 21.6137 77.1136 21.2528 78.3653 20.7791C80.3845 20.0627 81.5072 19.7014 81.8399 19.6384L81.8589 19.6348L81.8778 19.6303C82.4846 19.4868 83.5168 19.3341 85.0068 19.1774L85.0289 19.1751L85.0508 19.1716C85.8108 19.0518 86.4426 18.929 86.9366 18.8015C87.3913 18.6841 87.8367 18.5377 88.1432 18.3235C88.8349 17.854 89.3853 17.1958 89.3853 16.3214C89.3853 15.0498 89.3434 13.9613 89.2572 13.0616C89.1736 12.1135 89.0889 11.3486 89.0022 10.7741L88.9543 10.4569L88.7102 10.249C88.1464 9.76881 87.3821 9.46123 86.5007 9.26874C85.611 9.07445 84.5386 8.98391 83.2987 8.98391C78.8101 8.98391 74.7373 10.2536 71.1052 12.7906L70.7241 13.0568L70.8644 17.4365L70.867 17.4638C70.9459 18.2853 70.9875 19.5478 70.9875 21.2695V22.0568ZM71.8022 44.8123L71.9452 45.1506L73.0579 45.5718H73.2149C73.705 45.5718 74.5829 45.4069 75.7433 45.1372C76.942 44.8586 78.5413 44.443 80.5366 43.8923C82.5734 43.3415 84.1545 42.886 85.273 42.5265C85.8311 42.3471 86.2865 42.1877 86.6308 42.0488C86.8025 41.9796 86.9582 41.9108 87.0905 41.8425C87.2069 41.7824 87.3663 41.6924 87.4987 41.5671L87.5333 41.5343L87.5642 41.4978C87.7455 41.2834 87.8651 41.0179 87.9516 40.7725C88.0425 40.5144 88.1194 40.2113 88.1862 39.8737C88.3194 39.2015 88.426 38.3251 88.5099 37.2575C88.7593 35.1308 88.8873 33.4099 88.8873 32.1081C88.8873 30.8498 88.7416 29.7824 88.368 28.9995C88.1757 28.5967 87.9083 28.2379 87.5403 27.9809C87.1649 27.7187 86.7356 27.5981 86.2865 27.5981C85.7059 27.5981 84.7646 27.7851 83.5523 28.0962C82.3076 28.4157 80.6847 28.8916 78.6885 29.5212C76.7323 30.1121 75.167 30.6286 74.0005 31.0702C73.417 31.291 72.9229 31.497 72.5247 31.6881C72.1389 31.8732 71.7956 32.0664 71.5473 32.272L71.3642 32.4236L71.2853 32.6478C71.1149 33.1315 70.9875 33.602 70.9875 33.9931C70.9875 35.4343 71.0719 37.4586 71.2383 40.0563C71.3216 41.3575 71.4056 42.3938 71.4908 43.1594C71.5333 43.5416 71.5771 43.8658 71.623 44.1264C71.6654 44.367 71.7198 44.6174 71.8022 44.8123Z" fill="#6A5D4A"/>
</svg>
