<svg width="40" height="40" viewBox="0 0 40 40" fill="none" xmlns="http://www.w3.org/2000/svg">
<path fill-rule="evenodd" clip-rule="evenodd" d="M27.6671 13.7085C28.0573 13.3177 28.0573 12.684 27.6671 12.2931C27.2769 11.9023 26.6443 11.9023 26.2541 12.2931L19.9799 18.5779L13.7057 12.2931C13.3155 11.9023 12.6828 11.9023 12.2926 12.2931C11.9025 12.684 11.9025 13.3177 12.2926 13.7085L18.5668 19.9933L12.2929 26.2778C11.9027 26.6686 11.9027 27.3023 12.2929 27.6932C12.6831 28.084 13.3157 28.084 13.7059 27.6932L19.9799 21.4087L26.2539 27.6932C26.6441 28.084 27.2767 28.084 27.6669 27.6932C28.0571 27.3023 28.0571 26.6686 27.6669 26.2778L21.3929 19.9933L27.6671 13.7085Z" fill="#6A5D4A"/>
<rect x="1" y="1" width="38" height="38" rx="19" stroke="#6A5D4A" stroke-width="2"/>
</svg>
