<svg width="16" height="16" viewBox="0 0 16 16" fill="none" xmlns="http://www.w3.org/2000/svg">
<path id="Union" fill-rule="evenodd" clip-rule="evenodd" d="M15.6671 1.70854C16.0573 1.31769 16.0573 0.68399 15.6671 0.293139C15.2769 -0.0977128 14.6443 -0.0977129 14.2541 0.293138L7.97987 6.57786L1.70568 0.293139C1.31548 -0.0977127 0.682845 -0.0977127 0.292648 0.293139C-0.0975492 0.68399 -0.0975492 1.31769 0.292648 1.70854L6.56685 7.99326L0.29286 14.2778C-0.0973361 14.6686 -0.0973366 15.3023 0.29286 15.6932C0.683057 16.084 1.31569 16.084 1.70589 15.6932L7.97987 9.40866L14.2539 15.6932C14.6441 16.084 15.2767 16.084 15.6669 15.6932C16.0571 15.3023 16.0571 14.6686 15.6669 14.2778L9.3929 7.99326L15.6671 1.70854Z" fill="#6A5D4A"/>
</svg>
