<svg width="142" height="104" viewBox="0 0 142 104" fill="none" xmlns="http://www.w3.org/2000/svg">
<mask id="path-1-outside-1_2527_6640" maskUnits="userSpaceOnUse" x="64.412" y="0" width="78" height="46" fill="black">
<rect fill="white" x="64.412" width="78" height="46"/>
<path d="M81.174 13.4429C81.174 13.2569 81.9302 11.2482 83.4427 7.41673C84.995 3.58529 85.8508 1.59517 86.01 1.44638C86.1692 1.26039 86.3085 1.14879 86.428 1.1116C86.5872 1.0372 86.8061 1 87.0847 1C87.2439 1 87.5225 1.0372 87.9206 1.1116C88.3584 1.52078 88.5773 2.11595 88.5773 2.89712C88.5773 3.23191 88.5375 3.73408 88.4579 4.40366C88.3385 4.88724 88.2788 5.38942 88.2788 5.91019C88.2788 6.28218 88.3783 6.46817 88.5773 6.46817C88.8161 6.46817 89.3336 6.26358 90.1296 5.8544C90.9655 5.44521 91.6819 5.12903 92.279 4.90584C92.876 4.64545 93.5129 4.51525 94.1895 4.51525C94.7468 4.51525 95.2443 4.66405 95.6821 4.96163C96.12 5.22202 96.3389 5.59401 96.3389 6.07759C96.3389 6.63556 95.7816 7.26794 94.6672 7.97471C93.5527 8.64428 92.0203 9.44405 90.0699 10.374C89.8311 10.4856 89.3137 10.746 88.5176 11.1552C87.7215 11.5272 87.1842 11.8247 86.9056 12.0479C86.6668 12.2339 86.4479 12.4943 86.2488 12.8291C86.0498 13.1639 85.9105 13.3871 85.8309 13.4987C85.4727 14.131 85.1344 14.6146 84.8159 14.9494C84.4975 15.2842 84.1194 15.4516 83.6815 15.4516C83.0447 15.4516 82.4676 15.2656 81.9501 14.8936C81.4327 14.4844 81.174 14.0009 81.174 13.4429ZM69.8898 6.85875C69.8898 6.30078 70.1087 5.8172 70.5466 5.40801C71.0242 4.99883 71.5615 4.79424 72.1586 4.79424C73.0343 4.79424 73.8502 5.27782 74.6065 6.24498C75.4025 7.21214 75.8603 8.1421 75.9797 9.03486C76.0593 9.55564 76.1389 9.92762 76.2185 10.1508C76.2981 10.3368 76.5369 10.5786 76.9349 10.8762C77.6116 11.3226 77.9499 11.7317 77.9499 12.1037C77.9499 12.6617 77.7907 13.0523 77.4723 13.2755C77.1937 13.4987 76.716 13.7033 76.0394 13.8893C75.2433 14.1124 74.706 14.3728 74.4274 14.6704C74.1885 14.8936 73.8502 16.0096 73.4124 18.0183C73.0144 20.027 72.8153 21.3103 72.8153 21.8683C73.1736 21.8683 73.6313 21.7939 74.1885 21.6451C74.3478 21.6079 74.5269 21.5707 74.7259 21.5335C74.9647 21.4963 75.2433 21.4777 75.5617 21.4777C76.5568 21.4777 77.1539 22.1659 77.3529 23.5422C77.5519 24.8814 77.6514 26.4809 77.6514 28.3408C77.6514 29.866 77.5917 31.2051 77.4723 32.3583C77.3529 33.5114 77.1141 34.6274 76.7558 35.7061C76.6762 35.9293 76.4374 36.6547 76.0394 37.8822C75.6812 39.0726 75.1637 40.077 74.4871 40.8953C73.8104 41.7137 73.0741 42.1229 72.278 42.1229C71.1635 42.1229 70.3476 41.8997 69.8301 41.4533C69.3525 41.0441 69.1137 40.3373 69.1137 39.333C69.1137 38.961 69.1933 38.7006 69.3525 38.5518C69.5117 38.403 69.7903 38.3286 70.1883 38.3286C70.5864 38.3286 70.865 38.403 71.0242 38.5518C71.1834 38.7006 71.2829 38.775 71.3227 38.775C71.4819 38.775 71.6213 38.6634 71.7407 38.4402C71.8999 38.1798 71.9795 38.031 71.9795 37.9938C73.5716 34.8692 74.3677 31.3167 74.3677 27.3365C74.3677 25.3278 74.1089 24.3234 73.5915 24.3234C73.3527 24.3234 73.0144 24.528 72.5765 24.9372C72.1785 25.272 71.8402 25.7556 71.5615 26.3879C71.2829 27.0203 70.9844 27.8573 70.666 28.8988C70.1485 30.3868 69.6709 31.5957 69.2331 32.5257C68.835 33.4184 68.2778 34.1996 67.5613 34.8692C67.1235 35.2784 66.7454 35.4829 66.427 35.4829C65.9891 35.4829 65.7105 35.3899 65.5911 35.204C65.4717 34.9808 65.412 34.646 65.412 34.1996C65.412 32.7117 66.009 30.0148 67.2031 26.1089C68.437 22.1659 69.5714 18.818 70.6063 16.0654H70.666L70.6063 15.7306C69.4918 15.7306 68.238 16.1026 66.8449 16.8465C66.4071 16.8465 66.0488 16.6791 65.7702 16.3444C65.5314 16.0096 65.412 15.6376 65.412 15.2284C65.412 14.7448 65.8299 14.2612 66.6658 13.7777C67.5016 13.2941 68.6559 12.7361 70.1286 12.1037C70.3277 12.0293 70.666 11.8805 71.1436 11.6574C71.6213 11.4342 71.9596 11.2482 72.1586 11.0994C72.3974 10.9506 72.5168 10.839 72.5168 10.7646C72.5168 10.3554 72.4173 10.0392 72.2183 9.81603C72.0193 9.55564 71.681 9.22085 71.2033 8.81167C70.7655 8.43969 70.4272 8.1235 70.1883 7.86311C69.9893 7.56552 69.8898 7.23074 69.8898 6.85875ZM81.5322 21.5893C81.5322 20.5478 82.2884 19.283 83.801 17.7951C85.3533 16.3072 87.1245 15.0052 89.1146 13.8893C91.1048 12.7733 92.6571 12.2153 93.7716 12.2153C94.4483 12.2153 94.9657 12.4013 95.3239 12.7733C95.6821 13.1081 95.8613 13.5917 95.8613 14.224C95.8613 14.8936 95.4433 15.5632 94.6075 16.2328C93.7716 16.9023 92.6173 17.6649 91.1446 18.5205C90.5078 18.8924 89.8908 19.283 89.2938 19.6922C88.6967 20.0642 88.2788 20.399 88.04 20.6966L88.5773 20.4176C88.6967 21.3103 88.7564 22.2031 88.7564 23.0959C88.7564 26.6669 88.2987 30.0334 87.3832 33.1952C87.3434 33.3812 87.2439 33.6788 87.0847 34.088C86.9653 34.4972 86.9056 34.8692 86.9056 35.204L87.025 35.4829C87.2638 35.3713 87.6817 35.1296 88.2788 34.7576C88.8758 34.3856 89.3933 34.1996 89.8311 34.1996C90.3087 34.1996 90.7068 34.3856 91.0252 34.7576C91.3436 35.0924 91.5028 35.4829 91.5028 35.9293C91.5028 36.3385 91.2242 36.7849 90.667 37.2685C90.1495 37.7149 89.4331 38.1984 88.5176 38.7192C87.5623 39.3144 86.9852 39.7236 86.7862 39.9468C86.5872 40.1328 86.3882 40.3745 86.1891 40.6721C86.0299 40.9697 85.9105 41.1743 85.8309 41.2859C85.5921 41.7323 85.3931 42.0671 85.2339 42.2903C84.6766 42.997 84.199 43.5364 83.801 43.9084C83.4029 44.3176 83.0049 44.5222 82.6069 44.5222C81.771 44.5222 81.2337 44.1874 80.9948 43.5178C80.756 42.8854 80.6366 42.0857 80.6366 41.1185C80.6366 40.2629 80.7361 39.4446 80.9351 38.6634C81.174 37.845 81.5123 36.8407 81.9501 35.6503L82.6666 33.4742C83.1044 32.0979 83.6417 30.2008 84.2786 27.7829C84.9552 25.3278 85.2936 23.7654 85.2936 23.0959L85.1742 22.7611L84.9353 22.7053C84.7363 22.7053 84.4378 22.8169 84.0398 23.0401C83.6417 23.2261 83.3034 23.3191 83.0248 23.3191C82.587 23.3191 82.2287 23.1331 81.9501 22.7611C81.6715 22.3891 81.5322 21.9985 81.5322 21.5893ZM89.2341 29.7916C89.2341 29.494 89.453 29.1592 89.8908 28.7872C90.3684 28.378 90.6471 28.1363 90.7267 28.0619C91.1247 27.7643 91.9009 26.8529 93.0551 25.3278C94.6473 23.3935 95.8812 21.9799 96.7568 21.0872C97.6325 20.1572 98.3489 19.6922 98.9062 19.6922C99.5032 19.6922 100.06 19.9526 100.578 20.4734C101.135 20.957 101.414 21.4777 101.414 22.0357C101.414 22.2961 100.916 22.9099 99.9212 23.877C98.9659 24.807 97.6325 26.0159 95.921 27.5039C94.4483 28.7314 93.7119 29.401 93.7119 29.5126C93.7119 29.6614 93.8313 29.773 94.0701 29.8474C94.3089 29.9218 94.4482 29.959 94.4881 29.959C95.4035 30.2566 97.0553 31.0377 99.4435 32.3025C101.832 33.5672 104.061 34.8692 106.13 36.2083C108.24 37.5475 109.494 38.5332 109.892 39.1656C110.21 39.6492 110.369 40.2629 110.369 41.0069C110.369 41.2673 110.29 41.5463 110.131 41.8439C110.011 42.1415 109.832 42.2903 109.593 42.2903C109.394 42.2903 109.136 42.2531 108.817 42.1787C108.419 42.1043 107.524 41.6021 106.13 40.6721C104.777 39.7794 103.862 39.1842 103.384 38.8866C101.075 37.2871 99.5231 36.3013 98.7271 35.9293L97.2345 35.1482C95.3637 34.2554 93.7915 33.4556 92.5178 32.7489C91.2839 32.0421 90.4082 31.4097 89.8908 30.8517C89.851 30.8145 89.7316 30.6843 89.5326 30.4612C89.3336 30.238 89.2341 30.0148 89.2341 29.7916Z"/>
<path d="M126.908 10.4856C126.908 10.6716 126.908 11.0994 126.908 11.7689C126.947 12.4385 126.808 12.9407 126.49 13.2755C126.171 13.6103 125.634 13.7777 124.878 13.7777C124.281 13.7777 123.843 13.5173 123.564 12.9965C123.325 12.4385 123.126 11.8619 122.967 11.2668C122.848 10.6344 122.748 10.188 122.669 9.92762L120.937 9.76023C119.663 9.61144 118.668 9.53704 117.952 9.53704L116.638 9.59284C115.723 9.59284 115.265 9.25805 115.265 8.58848C115.265 7.84451 115.623 7.36093 116.34 7.13774C117.096 6.87735 118.171 6.69136 119.564 6.57976C120.201 6.54257 120.798 6.48677 121.355 6.41237C121.952 6.30078 122.39 6.15198 122.669 5.96599C122.907 5.8172 123.067 5.59401 123.146 5.29642C123.266 4.99883 123.365 4.58965 123.445 4.06887C123.564 3.2877 123.703 2.72973 123.863 2.39494C124.062 2.02296 124.46 1.83696 125.057 1.83696C125.335 1.83696 125.594 1.89276 125.833 2.00436C126.032 2.26475 126.211 2.99012 126.37 4.18047C126.45 4.96163 126.529 5.48241 126.609 5.7428C129.594 5.7428 131.405 5.6312 132.042 5.40801C132.361 5.29642 132.599 5.11043 132.759 4.85004C132.958 4.55245 133.216 4.08747 133.535 3.4551C133.813 2.78552 134.092 2.28335 134.371 1.94856C134.649 1.57658 135.027 1.39058 135.505 1.39058C135.704 1.39058 135.863 1.48358 135.983 1.66957C136.102 2.45074 136.162 3.62249 136.162 5.18482L137.953 5.12903C140.102 5.12903 141.177 5.61261 141.177 6.57976C141.177 7.28654 140.839 7.75152 140.162 7.97471C139.525 8.1979 138.59 8.36529 137.356 8.47688C136.401 8.55128 135.764 8.64428 135.445 8.75587C135.087 8.90467 134.789 9.14646 134.55 9.48124C134.311 9.81603 134.032 10.2624 133.714 10.8204C133.276 11.5272 132.918 12.0479 132.639 12.3827C132.4 12.6803 132.062 12.8291 131.624 12.8291C131.346 12.8291 131.007 12.7547 130.609 12.6059C130.251 12.1967 130.072 11.7503 130.072 11.2668C130.072 11.0808 130.132 10.839 130.251 10.5414C130.41 10.2066 130.49 9.96482 130.49 9.81603C130.49 9.55564 130.39 9.40685 130.191 9.36965C130.032 9.29525 129.793 9.25805 129.475 9.25805C128.719 9.25805 128.102 9.33245 127.624 9.48124C127.146 9.63004 126.908 9.96482 126.908 10.4856ZM131.445 45.4707C130.171 45.4707 129.037 45.2847 128.042 44.9128C127.047 44.5408 126.549 43.8526 126.549 42.8482C126.549 40.4303 126.808 38.124 127.326 35.9293C127.445 35.4086 127.544 34.7018 127.624 33.809C127.704 32.4327 127.903 31.4097 128.221 30.7401C128.38 30.4426 128.46 30.2008 128.46 30.0148L128.34 29.8474C127.982 29.959 127.186 30.61 125.952 31.8003C124.718 32.9535 123.883 33.7346 123.445 34.1438C121.375 36.1153 119.723 37.6405 118.489 38.7192C117.295 39.7608 116.479 40.2815 116.041 40.2815C115.683 40.2815 115.365 40.1699 115.086 39.9468C114.807 39.7236 114.668 39.4446 114.668 39.1098C114.668 38.2914 115.783 36.5989 118.012 34.0322C120.28 31.4283 122.072 29.5312 123.385 28.3408C124.101 27.6713 124.599 27.1505 124.878 26.7785C124.48 26.3321 123.922 26.0159 123.206 25.83C123.086 25.8672 122.609 26.0159 121.773 26.2763C120.977 26.5367 120.161 26.6669 119.325 26.6669C118.211 26.6669 117.653 26.3321 117.653 25.6626C117.653 24.8442 117.952 24.249 118.549 23.877C119.186 23.505 120.101 23.1517 121.295 22.8169C122.37 22.5193 123.166 22.2403 123.684 21.9799C124.201 21.6823 124.46 21.2173 124.46 20.585C124.46 20.3246 124.221 20.1944 123.743 20.1944C123.305 20.1944 122.688 20.2688 121.892 20.4176C121.096 20.5664 120.479 20.6408 120.042 20.6408C119.723 20.6408 119.405 20.4734 119.086 20.1386C118.768 19.7666 118.609 19.4318 118.609 19.1342C118.609 18.2787 118.947 17.6835 119.624 17.3487C120.3 17.0139 121.295 16.7535 122.609 16.5675C123.365 16.4559 123.982 16.3444 124.46 16.2328C124.937 16.1212 125.315 15.9538 125.594 15.7306C125.674 15.5818 125.833 15.2842 126.072 14.8378C126.35 14.3542 126.649 14.0009 126.967 13.7777C127.325 13.5545 127.743 13.4429 128.221 13.4429C128.699 13.4429 129.037 13.6289 129.236 14.0009C129.435 14.3356 129.535 14.7448 129.535 15.2284C129.933 15.5632 131.007 15.7306 132.759 15.7306C133.873 15.7306 134.57 15.7678 134.848 15.8422C135.167 15.9166 135.386 16.0654 135.505 16.2886C135.704 16.6605 136.003 16.9767 136.401 17.2371L137.714 17.1813C138.431 17.1813 138.968 17.4789 139.326 18.0741C139.286 18.3345 138.968 18.7065 138.371 19.19C138.092 19.4504 137.833 19.7108 137.595 19.9712C137.396 20.2316 137.296 20.4734 137.296 20.6966C137.296 20.8826 137.356 21.0314 137.475 21.143C137.634 21.2173 137.814 21.2917 138.013 21.3661C138.212 21.4033 138.331 21.4219 138.371 21.4219C138.769 21.4963 139.067 21.6079 139.266 21.7567C139.505 21.8683 139.625 22.0729 139.625 22.3705C139.625 22.9657 139.426 23.4493 139.028 23.8212C138.63 24.156 138.112 24.3234 137.475 24.3234C136.202 24.3234 135.127 24.4908 134.251 24.8256C133.415 25.1604 132.679 25.6254 132.042 26.2205C131.445 26.7785 130.689 27.6155 129.773 28.7314L129.833 28.7872H132.759H133.833C134.51 28.7872 135.007 28.8616 135.326 29.0104C136.162 29.308 136.699 30.0334 136.938 31.1865C137.177 32.3397 137.296 33.6416 137.296 35.0924C137.296 36.9523 137.077 38.868 136.639 40.8395C136.6 40.9883 136.58 41.1929 136.58 41.4533C136.58 41.6765 136.619 41.9741 136.699 42.3461C136.819 42.718 136.878 42.997 136.878 43.183C136.878 44.0758 136.281 44.671 135.087 44.9685C133.933 45.3033 132.719 45.4707 131.445 45.4707ZM130.012 20.3618C130.012 20.5478 130.052 20.7524 130.132 20.9756C130.211 21.1616 130.351 21.2545 130.55 21.2545C130.788 21.2545 131.266 20.9756 131.982 20.4176C132.739 19.8224 133.196 19.3946 133.356 19.1342C133.316 18.9854 133.137 18.911 132.818 18.911C130.948 18.911 130.012 19.3946 130.012 20.3618ZM131.744 34.646C132.221 34.646 132.699 34.5716 133.177 34.4228C133.694 34.274 133.953 34.0322 133.953 33.6974C133.953 33.4742 133.893 33.2696 133.774 33.0836C133.654 32.8605 133.475 32.7489 133.236 32.7489C132.878 32.7489 132.42 32.9349 131.863 33.3068C131.346 33.6416 131.087 33.9578 131.087 34.2554C131.087 34.5158 131.306 34.646 131.744 34.646ZM130.072 41.5091C130.51 41.5091 131.127 41.4161 131.923 41.2301C132.759 41.0813 133.256 40.8953 133.415 40.6721C133.535 40.4861 133.594 40.2443 133.594 39.9468C133.594 39.612 133.594 39.426 133.594 39.3888C133.594 38.9052 133.515 38.5704 133.356 38.3844C133.236 38.1612 132.938 38.0496 132.46 38.0496C131.385 38.0496 130.709 38.2728 130.43 38.7192C130.191 39.1284 130.072 39.891 130.072 41.0069V41.5091Z"/>
</mask>
<path d="M81.174 13.4429C81.174 13.2569 81.9302 11.2482 83.4427 7.41673C84.995 3.58529 85.8508 1.59517 86.01 1.44638C86.1692 1.26039 86.3085 1.14879 86.428 1.1116C86.5872 1.0372 86.8061 1 87.0847 1C87.2439 1 87.5225 1.0372 87.9206 1.1116C88.3584 1.52078 88.5773 2.11595 88.5773 2.89712C88.5773 3.23191 88.5375 3.73408 88.4579 4.40366C88.3385 4.88724 88.2788 5.38942 88.2788 5.91019C88.2788 6.28218 88.3783 6.46817 88.5773 6.46817C88.8161 6.46817 89.3336 6.26358 90.1296 5.8544C90.9655 5.44521 91.6819 5.12903 92.279 4.90584C92.876 4.64545 93.5129 4.51525 94.1895 4.51525C94.7468 4.51525 95.2443 4.66405 95.6821 4.96163C96.12 5.22202 96.3389 5.59401 96.3389 6.07759C96.3389 6.63556 95.7816 7.26794 94.6672 7.97471C93.5527 8.64428 92.0203 9.44405 90.0699 10.374C89.8311 10.4856 89.3137 10.746 88.5176 11.1552C87.7215 11.5272 87.1842 11.8247 86.9056 12.0479C86.6668 12.2339 86.4479 12.4943 86.2488 12.8291C86.0498 13.1639 85.9105 13.3871 85.8309 13.4987C85.4727 14.131 85.1344 14.6146 84.8159 14.9494C84.4975 15.2842 84.1194 15.4516 83.6815 15.4516C83.0447 15.4516 82.4676 15.2656 81.9501 14.8936C81.4327 14.4844 81.174 14.0009 81.174 13.4429ZM69.8898 6.85875C69.8898 6.30078 70.1087 5.8172 70.5466 5.40801C71.0242 4.99883 71.5615 4.79424 72.1586 4.79424C73.0343 4.79424 73.8502 5.27782 74.6065 6.24498C75.4025 7.21214 75.8603 8.1421 75.9797 9.03486C76.0593 9.55564 76.1389 9.92762 76.2185 10.1508C76.2981 10.3368 76.5369 10.5786 76.9349 10.8762C77.6116 11.3226 77.9499 11.7317 77.9499 12.1037C77.9499 12.6617 77.7907 13.0523 77.4723 13.2755C77.1937 13.4987 76.716 13.7033 76.0394 13.8893C75.2433 14.1124 74.706 14.3728 74.4274 14.6704C74.1885 14.8936 73.8502 16.0096 73.4124 18.0183C73.0144 20.027 72.8153 21.3103 72.8153 21.8683C73.1736 21.8683 73.6313 21.7939 74.1885 21.6451C74.3478 21.6079 74.5269 21.5707 74.7259 21.5335C74.9647 21.4963 75.2433 21.4777 75.5617 21.4777C76.5568 21.4777 77.1539 22.1659 77.3529 23.5422C77.5519 24.8814 77.6514 26.4809 77.6514 28.3408C77.6514 29.866 77.5917 31.2051 77.4723 32.3583C77.3529 33.5114 77.1141 34.6274 76.7558 35.7061C76.6762 35.9293 76.4374 36.6547 76.0394 37.8822C75.6812 39.0726 75.1637 40.077 74.4871 40.8953C73.8104 41.7137 73.0741 42.1229 72.278 42.1229C71.1635 42.1229 70.3476 41.8997 69.8301 41.4533C69.3525 41.0441 69.1137 40.3373 69.1137 39.333C69.1137 38.961 69.1933 38.7006 69.3525 38.5518C69.5117 38.403 69.7903 38.3286 70.1883 38.3286C70.5864 38.3286 70.865 38.403 71.0242 38.5518C71.1834 38.7006 71.2829 38.775 71.3227 38.775C71.4819 38.775 71.6213 38.6634 71.7407 38.4402C71.8999 38.1798 71.9795 38.031 71.9795 37.9938C73.5716 34.8692 74.3677 31.3167 74.3677 27.3365C74.3677 25.3278 74.1089 24.3234 73.5915 24.3234C73.3527 24.3234 73.0144 24.528 72.5765 24.9372C72.1785 25.272 71.8402 25.7556 71.5615 26.3879C71.2829 27.0203 70.9844 27.8573 70.666 28.8988C70.1485 30.3868 69.6709 31.5957 69.2331 32.5257C68.835 33.4184 68.2778 34.1996 67.5613 34.8692C67.1235 35.2784 66.7454 35.4829 66.427 35.4829C65.9891 35.4829 65.7105 35.3899 65.5911 35.204C65.4717 34.9808 65.412 34.646 65.412 34.1996C65.412 32.7117 66.009 30.0148 67.2031 26.1089C68.437 22.1659 69.5714 18.818 70.6063 16.0654H70.666L70.6063 15.7306C69.4918 15.7306 68.238 16.1026 66.8449 16.8465C66.4071 16.8465 66.0488 16.6791 65.7702 16.3444C65.5314 16.0096 65.412 15.6376 65.412 15.2284C65.412 14.7448 65.8299 14.2612 66.6658 13.7777C67.5016 13.2941 68.6559 12.7361 70.1286 12.1037C70.3277 12.0293 70.666 11.8805 71.1436 11.6574C71.6213 11.4342 71.9596 11.2482 72.1586 11.0994C72.3974 10.9506 72.5168 10.839 72.5168 10.7646C72.5168 10.3554 72.4173 10.0392 72.2183 9.81603C72.0193 9.55564 71.681 9.22085 71.2033 8.81167C70.7655 8.43969 70.4272 8.1235 70.1883 7.86311C69.9893 7.56552 69.8898 7.23074 69.8898 6.85875ZM81.5322 21.5893C81.5322 20.5478 82.2884 19.283 83.801 17.7951C85.3533 16.3072 87.1245 15.0052 89.1146 13.8893C91.1048 12.7733 92.6571 12.2153 93.7716 12.2153C94.4483 12.2153 94.9657 12.4013 95.3239 12.7733C95.6821 13.1081 95.8613 13.5917 95.8613 14.224C95.8613 14.8936 95.4433 15.5632 94.6075 16.2328C93.7716 16.9023 92.6173 17.6649 91.1446 18.5205C90.5078 18.8924 89.8908 19.283 89.2938 19.6922C88.6967 20.0642 88.2788 20.399 88.04 20.6966L88.5773 20.4176C88.6967 21.3103 88.7564 22.2031 88.7564 23.0959C88.7564 26.6669 88.2987 30.0334 87.3832 33.1952C87.3434 33.3812 87.2439 33.6788 87.0847 34.088C86.9653 34.4972 86.9056 34.8692 86.9056 35.204L87.025 35.4829C87.2638 35.3713 87.6817 35.1296 88.2788 34.7576C88.8758 34.3856 89.3933 34.1996 89.8311 34.1996C90.3087 34.1996 90.7068 34.3856 91.0252 34.7576C91.3436 35.0924 91.5028 35.4829 91.5028 35.9293C91.5028 36.3385 91.2242 36.7849 90.667 37.2685C90.1495 37.7149 89.4331 38.1984 88.5176 38.7192C87.5623 39.3144 86.9852 39.7236 86.7862 39.9468C86.5872 40.1328 86.3882 40.3745 86.1891 40.6721C86.0299 40.9697 85.9105 41.1743 85.8309 41.2859C85.5921 41.7323 85.3931 42.0671 85.2339 42.2903C84.6766 42.997 84.199 43.5364 83.801 43.9084C83.4029 44.3176 83.0049 44.5222 82.6069 44.5222C81.771 44.5222 81.2337 44.1874 80.9948 43.5178C80.756 42.8854 80.6366 42.0857 80.6366 41.1185C80.6366 40.2629 80.7361 39.4446 80.9351 38.6634C81.174 37.845 81.5123 36.8407 81.9501 35.6503L82.6666 33.4742C83.1044 32.0979 83.6417 30.2008 84.2786 27.7829C84.9552 25.3278 85.2936 23.7654 85.2936 23.0959L85.1742 22.7611L84.9353 22.7053C84.7363 22.7053 84.4378 22.8169 84.0398 23.0401C83.6417 23.2261 83.3034 23.3191 83.0248 23.3191C82.587 23.3191 82.2287 23.1331 81.9501 22.7611C81.6715 22.3891 81.5322 21.9985 81.5322 21.5893ZM89.2341 29.7916C89.2341 29.494 89.453 29.1592 89.8908 28.7872C90.3684 28.378 90.6471 28.1363 90.7267 28.0619C91.1247 27.7643 91.9009 26.8529 93.0551 25.3278C94.6473 23.3935 95.8812 21.9799 96.7568 21.0872C97.6325 20.1572 98.3489 19.6922 98.9062 19.6922C99.5032 19.6922 100.06 19.9526 100.578 20.4734C101.135 20.957 101.414 21.4777 101.414 22.0357C101.414 22.2961 100.916 22.9099 99.9212 23.877C98.9659 24.807 97.6325 26.0159 95.921 27.5039C94.4483 28.7314 93.7119 29.401 93.7119 29.5126C93.7119 29.6614 93.8313 29.773 94.0701 29.8474C94.3089 29.9218 94.4482 29.959 94.4881 29.959C95.4035 30.2566 97.0553 31.0377 99.4435 32.3025C101.832 33.5672 104.061 34.8692 106.13 36.2083C108.24 37.5475 109.494 38.5332 109.892 39.1656C110.21 39.6492 110.369 40.2629 110.369 41.0069C110.369 41.2673 110.29 41.5463 110.131 41.8439C110.011 42.1415 109.832 42.2903 109.593 42.2903C109.394 42.2903 109.136 42.2531 108.817 42.1787C108.419 42.1043 107.524 41.6021 106.13 40.6721C104.777 39.7794 103.862 39.1842 103.384 38.8866C101.075 37.2871 99.5231 36.3013 98.7271 35.9293L97.2345 35.1482C95.3637 34.2554 93.7915 33.4556 92.5178 32.7489C91.2839 32.0421 90.4082 31.4097 89.8908 30.8517C89.851 30.8145 89.7316 30.6843 89.5326 30.4612C89.3336 30.238 89.2341 30.0148 89.2341 29.7916Z" fill="#6A5D4A"/>
<path d="M126.908 10.4856C126.908 10.6716 126.908 11.0994 126.908 11.7689C126.947 12.4385 126.808 12.9407 126.49 13.2755C126.171 13.6103 125.634 13.7777 124.878 13.7777C124.281 13.7777 123.843 13.5173 123.564 12.9965C123.325 12.4385 123.126 11.8619 122.967 11.2668C122.848 10.6344 122.748 10.188 122.669 9.92762L120.937 9.76023C119.663 9.61144 118.668 9.53704 117.952 9.53704L116.638 9.59284C115.723 9.59284 115.265 9.25805 115.265 8.58848C115.265 7.84451 115.623 7.36093 116.34 7.13774C117.096 6.87735 118.171 6.69136 119.564 6.57976C120.201 6.54257 120.798 6.48677 121.355 6.41237C121.952 6.30078 122.39 6.15198 122.669 5.96599C122.907 5.8172 123.067 5.59401 123.146 5.29642C123.266 4.99883 123.365 4.58965 123.445 4.06887C123.564 3.2877 123.703 2.72973 123.863 2.39494C124.062 2.02296 124.46 1.83696 125.057 1.83696C125.335 1.83696 125.594 1.89276 125.833 2.00436C126.032 2.26475 126.211 2.99012 126.37 4.18047C126.45 4.96163 126.529 5.48241 126.609 5.7428C129.594 5.7428 131.405 5.6312 132.042 5.40801C132.361 5.29642 132.599 5.11043 132.759 4.85004C132.958 4.55245 133.216 4.08747 133.535 3.4551C133.813 2.78552 134.092 2.28335 134.371 1.94856C134.649 1.57658 135.027 1.39058 135.505 1.39058C135.704 1.39058 135.863 1.48358 135.983 1.66957C136.102 2.45074 136.162 3.62249 136.162 5.18482L137.953 5.12903C140.102 5.12903 141.177 5.61261 141.177 6.57976C141.177 7.28654 140.839 7.75152 140.162 7.97471C139.525 8.1979 138.59 8.36529 137.356 8.47688C136.401 8.55128 135.764 8.64428 135.445 8.75587C135.087 8.90467 134.789 9.14646 134.55 9.48124C134.311 9.81603 134.032 10.2624 133.714 10.8204C133.276 11.5272 132.918 12.0479 132.639 12.3827C132.4 12.6803 132.062 12.8291 131.624 12.8291C131.346 12.8291 131.007 12.7547 130.609 12.6059C130.251 12.1967 130.072 11.7503 130.072 11.2668C130.072 11.0808 130.132 10.839 130.251 10.5414C130.41 10.2066 130.49 9.96482 130.49 9.81603C130.49 9.55564 130.39 9.40685 130.191 9.36965C130.032 9.29525 129.793 9.25805 129.475 9.25805C128.719 9.25805 128.102 9.33245 127.624 9.48124C127.146 9.63004 126.908 9.96482 126.908 10.4856ZM131.445 45.4707C130.171 45.4707 129.037 45.2847 128.042 44.9128C127.047 44.5408 126.549 43.8526 126.549 42.8482C126.549 40.4303 126.808 38.124 127.326 35.9293C127.445 35.4086 127.544 34.7018 127.624 33.809C127.704 32.4327 127.903 31.4097 128.221 30.7401C128.38 30.4426 128.46 30.2008 128.46 30.0148L128.34 29.8474C127.982 29.959 127.186 30.61 125.952 31.8003C124.718 32.9535 123.883 33.7346 123.445 34.1438C121.375 36.1153 119.723 37.6405 118.489 38.7192C117.295 39.7608 116.479 40.2815 116.041 40.2815C115.683 40.2815 115.365 40.1699 115.086 39.9468C114.807 39.7236 114.668 39.4446 114.668 39.1098C114.668 38.2914 115.783 36.5989 118.012 34.0322C120.28 31.4283 122.072 29.5312 123.385 28.3408C124.101 27.6713 124.599 27.1505 124.878 26.7785C124.48 26.3321 123.922 26.0159 123.206 25.83C123.086 25.8672 122.609 26.0159 121.773 26.2763C120.977 26.5367 120.161 26.6669 119.325 26.6669C118.211 26.6669 117.653 26.3321 117.653 25.6626C117.653 24.8442 117.952 24.249 118.549 23.877C119.186 23.505 120.101 23.1517 121.295 22.8169C122.37 22.5193 123.166 22.2403 123.684 21.9799C124.201 21.6823 124.46 21.2173 124.46 20.585C124.46 20.3246 124.221 20.1944 123.743 20.1944C123.305 20.1944 122.688 20.2688 121.892 20.4176C121.096 20.5664 120.479 20.6408 120.042 20.6408C119.723 20.6408 119.405 20.4734 119.086 20.1386C118.768 19.7666 118.609 19.4318 118.609 19.1342C118.609 18.2787 118.947 17.6835 119.624 17.3487C120.3 17.0139 121.295 16.7535 122.609 16.5675C123.365 16.4559 123.982 16.3444 124.46 16.2328C124.937 16.1212 125.315 15.9538 125.594 15.7306C125.674 15.5818 125.833 15.2842 126.072 14.8378C126.35 14.3542 126.649 14.0009 126.967 13.7777C127.325 13.5545 127.743 13.4429 128.221 13.4429C128.699 13.4429 129.037 13.6289 129.236 14.0009C129.435 14.3356 129.535 14.7448 129.535 15.2284C129.933 15.5632 131.007 15.7306 132.759 15.7306C133.873 15.7306 134.57 15.7678 134.848 15.8422C135.167 15.9166 135.386 16.0654 135.505 16.2886C135.704 16.6605 136.003 16.9767 136.401 17.2371L137.714 17.1813C138.431 17.1813 138.968 17.4789 139.326 18.0741C139.286 18.3345 138.968 18.7065 138.371 19.19C138.092 19.4504 137.833 19.7108 137.595 19.9712C137.396 20.2316 137.296 20.4734 137.296 20.6966C137.296 20.8826 137.356 21.0314 137.475 21.143C137.634 21.2173 137.814 21.2917 138.013 21.3661C138.212 21.4033 138.331 21.4219 138.371 21.4219C138.769 21.4963 139.067 21.6079 139.266 21.7567C139.505 21.8683 139.625 22.0729 139.625 22.3705C139.625 22.9657 139.426 23.4493 139.028 23.8212C138.63 24.156 138.112 24.3234 137.475 24.3234C136.202 24.3234 135.127 24.4908 134.251 24.8256C133.415 25.1604 132.679 25.6254 132.042 26.2205C131.445 26.7785 130.689 27.6155 129.773 28.7314L129.833 28.7872H132.759H133.833C134.51 28.7872 135.007 28.8616 135.326 29.0104C136.162 29.308 136.699 30.0334 136.938 31.1865C137.177 32.3397 137.296 33.6416 137.296 35.0924C137.296 36.9523 137.077 38.868 136.639 40.8395C136.6 40.9883 136.58 41.1929 136.58 41.4533C136.58 41.6765 136.619 41.9741 136.699 42.3461C136.819 42.718 136.878 42.997 136.878 43.183C136.878 44.0758 136.281 44.671 135.087 44.9685C133.933 45.3033 132.719 45.4707 131.445 45.4707ZM130.012 20.3618C130.012 20.5478 130.052 20.7524 130.132 20.9756C130.211 21.1616 130.351 21.2545 130.55 21.2545C130.788 21.2545 131.266 20.9756 131.982 20.4176C132.739 19.8224 133.196 19.3946 133.356 19.1342C133.316 18.9854 133.137 18.911 132.818 18.911C130.948 18.911 130.012 19.3946 130.012 20.3618ZM131.744 34.646C132.221 34.646 132.699 34.5716 133.177 34.4228C133.694 34.274 133.953 34.0322 133.953 33.6974C133.953 33.4742 133.893 33.2696 133.774 33.0836C133.654 32.8605 133.475 32.7489 133.236 32.7489C132.878 32.7489 132.42 32.9349 131.863 33.3068C131.346 33.6416 131.087 33.9578 131.087 34.2554C131.087 34.5158 131.306 34.646 131.744 34.646ZM130.072 41.5091C130.51 41.5091 131.127 41.4161 131.923 41.2301C132.759 41.0813 133.256 40.8953 133.415 40.6721C133.535 40.4861 133.594 40.2443 133.594 39.9468C133.594 39.612 133.594 39.426 133.594 39.3888C133.594 38.9052 133.515 38.5704 133.356 38.3844C133.236 38.1612 132.938 38.0496 132.46 38.0496C131.385 38.0496 130.709 38.2728 130.43 38.7192C130.191 39.1284 130.072 39.891 130.072 41.0069V41.5091Z" fill="#6A5D4A"/>
<path d="M81.174 13.4429C81.174 13.2569 81.9302 11.2482 83.4427 7.41673C84.995 3.58529 85.8508 1.59517 86.01 1.44638C86.1692 1.26039 86.3085 1.14879 86.428 1.1116C86.5872 1.0372 86.8061 1 87.0847 1C87.2439 1 87.5225 1.0372 87.9206 1.1116C88.3584 1.52078 88.5773 2.11595 88.5773 2.89712C88.5773 3.23191 88.5375 3.73408 88.4579 4.40366C88.3385 4.88724 88.2788 5.38942 88.2788 5.91019C88.2788 6.28218 88.3783 6.46817 88.5773 6.46817C88.8161 6.46817 89.3336 6.26358 90.1296 5.8544C90.9655 5.44521 91.6819 5.12903 92.279 4.90584C92.876 4.64545 93.5129 4.51525 94.1895 4.51525C94.7468 4.51525 95.2443 4.66405 95.6821 4.96163C96.12 5.22202 96.3389 5.59401 96.3389 6.07759C96.3389 6.63556 95.7816 7.26794 94.6672 7.97471C93.5527 8.64428 92.0203 9.44405 90.0699 10.374C89.8311 10.4856 89.3137 10.746 88.5176 11.1552C87.7215 11.5272 87.1842 11.8247 86.9056 12.0479C86.6668 12.2339 86.4479 12.4943 86.2488 12.8291C86.0498 13.1639 85.9105 13.3871 85.8309 13.4987C85.4727 14.131 85.1344 14.6146 84.8159 14.9494C84.4975 15.2842 84.1194 15.4516 83.6815 15.4516C83.0447 15.4516 82.4676 15.2656 81.9501 14.8936C81.4327 14.4844 81.174 14.0009 81.174 13.4429ZM69.8898 6.85875C69.8898 6.30078 70.1087 5.8172 70.5466 5.40801C71.0242 4.99883 71.5615 4.79424 72.1586 4.79424C73.0343 4.79424 73.8502 5.27782 74.6065 6.24498C75.4025 7.21214 75.8603 8.1421 75.9797 9.03486C76.0593 9.55564 76.1389 9.92762 76.2185 10.1508C76.2981 10.3368 76.5369 10.5786 76.9349 10.8762C77.6116 11.3226 77.9499 11.7317 77.9499 12.1037C77.9499 12.6617 77.7907 13.0523 77.4723 13.2755C77.1937 13.4987 76.716 13.7033 76.0394 13.8893C75.2433 14.1124 74.706 14.3728 74.4274 14.6704C74.1885 14.8936 73.8502 16.0096 73.4124 18.0183C73.0144 20.027 72.8153 21.3103 72.8153 21.8683C73.1736 21.8683 73.6313 21.7939 74.1885 21.6451C74.3478 21.6079 74.5269 21.5707 74.7259 21.5335C74.9647 21.4963 75.2433 21.4777 75.5617 21.4777C76.5568 21.4777 77.1539 22.1659 77.3529 23.5422C77.5519 24.8814 77.6514 26.4809 77.6514 28.3408C77.6514 29.866 77.5917 31.2051 77.4723 32.3583C77.3529 33.5114 77.1141 34.6274 76.7558 35.7061C76.6762 35.9293 76.4374 36.6547 76.0394 37.8822C75.6812 39.0726 75.1637 40.077 74.4871 40.8953C73.8104 41.7137 73.0741 42.1229 72.278 42.1229C71.1635 42.1229 70.3476 41.8997 69.8301 41.4533C69.3525 41.0441 69.1137 40.3373 69.1137 39.333C69.1137 38.961 69.1933 38.7006 69.3525 38.5518C69.5117 38.403 69.7903 38.3286 70.1883 38.3286C70.5864 38.3286 70.865 38.403 71.0242 38.5518C71.1834 38.7006 71.2829 38.775 71.3227 38.775C71.4819 38.775 71.6213 38.6634 71.7407 38.4402C71.8999 38.1798 71.9795 38.031 71.9795 37.9938C73.5716 34.8692 74.3677 31.3167 74.3677 27.3365C74.3677 25.3278 74.1089 24.3234 73.5915 24.3234C73.3527 24.3234 73.0144 24.528 72.5765 24.9372C72.1785 25.272 71.8402 25.7556 71.5615 26.3879C71.2829 27.0203 70.9844 27.8573 70.666 28.8988C70.1485 30.3868 69.6709 31.5957 69.2331 32.5257C68.835 33.4184 68.2778 34.1996 67.5613 34.8692C67.1235 35.2784 66.7454 35.4829 66.427 35.4829C65.9891 35.4829 65.7105 35.3899 65.5911 35.204C65.4717 34.9808 65.412 34.646 65.412 34.1996C65.412 32.7117 66.009 30.0148 67.2031 26.1089C68.437 22.1659 69.5714 18.818 70.6063 16.0654H70.666L70.6063 15.7306C69.4918 15.7306 68.238 16.1026 66.8449 16.8465C66.4071 16.8465 66.0488 16.6791 65.7702 16.3444C65.5314 16.0096 65.412 15.6376 65.412 15.2284C65.412 14.7448 65.8299 14.2612 66.6658 13.7777C67.5016 13.2941 68.6559 12.7361 70.1286 12.1037C70.3277 12.0293 70.666 11.8805 71.1436 11.6574C71.6213 11.4342 71.9596 11.2482 72.1586 11.0994C72.3974 10.9506 72.5168 10.839 72.5168 10.7646C72.5168 10.3554 72.4173 10.0392 72.2183 9.81603C72.0193 9.55564 71.681 9.22085 71.2033 8.81167C70.7655 8.43969 70.4272 8.1235 70.1883 7.86311C69.9893 7.56552 69.8898 7.23074 69.8898 6.85875ZM81.5322 21.5893C81.5322 20.5478 82.2884 19.283 83.801 17.7951C85.3533 16.3072 87.1245 15.0052 89.1146 13.8893C91.1048 12.7733 92.6571 12.2153 93.7716 12.2153C94.4483 12.2153 94.9657 12.4013 95.3239 12.7733C95.6821 13.1081 95.8613 13.5917 95.8613 14.224C95.8613 14.8936 95.4433 15.5632 94.6075 16.2328C93.7716 16.9023 92.6173 17.6649 91.1446 18.5205C90.5078 18.8924 89.8908 19.283 89.2938 19.6922C88.6967 20.0642 88.2788 20.399 88.04 20.6966L88.5773 20.4176C88.6967 21.3103 88.7564 22.2031 88.7564 23.0959C88.7564 26.6669 88.2987 30.0334 87.3832 33.1952C87.3434 33.3812 87.2439 33.6788 87.0847 34.088C86.9653 34.4972 86.9056 34.8692 86.9056 35.204L87.025 35.4829C87.2638 35.3713 87.6817 35.1296 88.2788 34.7576C88.8758 34.3856 89.3933 34.1996 89.8311 34.1996C90.3087 34.1996 90.7068 34.3856 91.0252 34.7576C91.3436 35.0924 91.5028 35.4829 91.5028 35.9293C91.5028 36.3385 91.2242 36.7849 90.667 37.2685C90.1495 37.7149 89.4331 38.1984 88.5176 38.7192C87.5623 39.3144 86.9852 39.7236 86.7862 39.9468C86.5872 40.1328 86.3882 40.3745 86.1891 40.6721C86.0299 40.9697 85.9105 41.1743 85.8309 41.2859C85.5921 41.7323 85.3931 42.0671 85.2339 42.2903C84.6766 42.997 84.199 43.5364 83.801 43.9084C83.4029 44.3176 83.0049 44.5222 82.6069 44.5222C81.771 44.5222 81.2337 44.1874 80.9948 43.5178C80.756 42.8854 80.6366 42.0857 80.6366 41.1185C80.6366 40.2629 80.7361 39.4446 80.9351 38.6634C81.174 37.845 81.5123 36.8407 81.9501 35.6503L82.6666 33.4742C83.1044 32.0979 83.6417 30.2008 84.2786 27.7829C84.9552 25.3278 85.2936 23.7654 85.2936 23.0959L85.1742 22.7611L84.9353 22.7053C84.7363 22.7053 84.4378 22.8169 84.0398 23.0401C83.6417 23.2261 83.3034 23.3191 83.0248 23.3191C82.587 23.3191 82.2287 23.1331 81.9501 22.7611C81.6715 22.3891 81.5322 21.9985 81.5322 21.5893ZM89.2341 29.7916C89.2341 29.494 89.453 29.1592 89.8908 28.7872C90.3684 28.378 90.6471 28.1363 90.7267 28.0619C91.1247 27.7643 91.9009 26.8529 93.0551 25.3278C94.6473 23.3935 95.8812 21.9799 96.7568 21.0872C97.6325 20.1572 98.3489 19.6922 98.9062 19.6922C99.5032 19.6922 100.06 19.9526 100.578 20.4734C101.135 20.957 101.414 21.4777 101.414 22.0357C101.414 22.2961 100.916 22.9099 99.9212 23.877C98.9659 24.807 97.6325 26.0159 95.921 27.5039C94.4483 28.7314 93.7119 29.401 93.7119 29.5126C93.7119 29.6614 93.8313 29.773 94.0701 29.8474C94.3089 29.9218 94.4482 29.959 94.4881 29.959C95.4035 30.2566 97.0553 31.0377 99.4435 32.3025C101.832 33.5672 104.061 34.8692 106.13 36.2083C108.24 37.5475 109.494 38.5332 109.892 39.1656C110.21 39.6492 110.369 40.2629 110.369 41.0069C110.369 41.2673 110.29 41.5463 110.131 41.8439C110.011 42.1415 109.832 42.2903 109.593 42.2903C109.394 42.2903 109.136 42.2531 108.817 42.1787C108.419 42.1043 107.524 41.6021 106.13 40.6721C104.777 39.7794 103.862 39.1842 103.384 38.8866C101.075 37.2871 99.5231 36.3013 98.7271 35.9293L97.2345 35.1482C95.3637 34.2554 93.7915 33.4556 92.5178 32.7489C91.2839 32.0421 90.4082 31.4097 89.8908 30.8517C89.851 30.8145 89.7316 30.6843 89.5326 30.4612C89.3336 30.238 89.2341 30.0148 89.2341 29.7916Z" stroke="#6A5D4A" mask="url(#path-1-outside-1_2527_6640)"/>
<path d="M126.908 10.4856C126.908 10.6716 126.908 11.0994 126.908 11.7689C126.947 12.4385 126.808 12.9407 126.49 13.2755C126.171 13.6103 125.634 13.7777 124.878 13.7777C124.281 13.7777 123.843 13.5173 123.564 12.9965C123.325 12.4385 123.126 11.8619 122.967 11.2668C122.848 10.6344 122.748 10.188 122.669 9.92762L120.937 9.76023C119.663 9.61144 118.668 9.53704 117.952 9.53704L116.638 9.59284C115.723 9.59284 115.265 9.25805 115.265 8.58848C115.265 7.84451 115.623 7.36093 116.34 7.13774C117.096 6.87735 118.171 6.69136 119.564 6.57976C120.201 6.54257 120.798 6.48677 121.355 6.41237C121.952 6.30078 122.39 6.15198 122.669 5.96599C122.907 5.8172 123.067 5.59401 123.146 5.29642C123.266 4.99883 123.365 4.58965 123.445 4.06887C123.564 3.2877 123.703 2.72973 123.863 2.39494C124.062 2.02296 124.46 1.83696 125.057 1.83696C125.335 1.83696 125.594 1.89276 125.833 2.00436C126.032 2.26475 126.211 2.99012 126.37 4.18047C126.45 4.96163 126.529 5.48241 126.609 5.7428C129.594 5.7428 131.405 5.6312 132.042 5.40801C132.361 5.29642 132.599 5.11043 132.759 4.85004C132.958 4.55245 133.216 4.08747 133.535 3.4551C133.813 2.78552 134.092 2.28335 134.371 1.94856C134.649 1.57658 135.027 1.39058 135.505 1.39058C135.704 1.39058 135.863 1.48358 135.983 1.66957C136.102 2.45074 136.162 3.62249 136.162 5.18482L137.953 5.12903C140.102 5.12903 141.177 5.61261 141.177 6.57976C141.177 7.28654 140.839 7.75152 140.162 7.97471C139.525 8.1979 138.59 8.36529 137.356 8.47688C136.401 8.55128 135.764 8.64428 135.445 8.75587C135.087 8.90467 134.789 9.14646 134.55 9.48124C134.311 9.81603 134.032 10.2624 133.714 10.8204C133.276 11.5272 132.918 12.0479 132.639 12.3827C132.4 12.6803 132.062 12.8291 131.624 12.8291C131.346 12.8291 131.007 12.7547 130.609 12.6059C130.251 12.1967 130.072 11.7503 130.072 11.2668C130.072 11.0808 130.132 10.839 130.251 10.5414C130.41 10.2066 130.49 9.96482 130.49 9.81603C130.49 9.55564 130.39 9.40685 130.191 9.36965C130.032 9.29525 129.793 9.25805 129.475 9.25805C128.719 9.25805 128.102 9.33245 127.624 9.48124C127.146 9.63004 126.908 9.96482 126.908 10.4856ZM131.445 45.4707C130.171 45.4707 129.037 45.2847 128.042 44.9128C127.047 44.5408 126.549 43.8526 126.549 42.8482C126.549 40.4303 126.808 38.124 127.326 35.9293C127.445 35.4086 127.544 34.7018 127.624 33.809C127.704 32.4327 127.903 31.4097 128.221 30.7401C128.38 30.4426 128.46 30.2008 128.46 30.0148L128.34 29.8474C127.982 29.959 127.186 30.61 125.952 31.8003C124.718 32.9535 123.883 33.7346 123.445 34.1438C121.375 36.1153 119.723 37.6405 118.489 38.7192C117.295 39.7608 116.479 40.2815 116.041 40.2815C115.683 40.2815 115.365 40.1699 115.086 39.9468C114.807 39.7236 114.668 39.4446 114.668 39.1098C114.668 38.2914 115.783 36.5989 118.012 34.0322C120.28 31.4283 122.072 29.5312 123.385 28.3408C124.101 27.6713 124.599 27.1505 124.878 26.7785C124.48 26.3321 123.922 26.0159 123.206 25.83C123.086 25.8672 122.609 26.0159 121.773 26.2763C120.977 26.5367 120.161 26.6669 119.325 26.6669C118.211 26.6669 117.653 26.3321 117.653 25.6626C117.653 24.8442 117.952 24.249 118.549 23.877C119.186 23.505 120.101 23.1517 121.295 22.8169C122.37 22.5193 123.166 22.2403 123.684 21.9799C124.201 21.6823 124.46 21.2173 124.46 20.585C124.46 20.3246 124.221 20.1944 123.743 20.1944C123.305 20.1944 122.688 20.2688 121.892 20.4176C121.096 20.5664 120.479 20.6408 120.042 20.6408C119.723 20.6408 119.405 20.4734 119.086 20.1386C118.768 19.7666 118.609 19.4318 118.609 19.1342C118.609 18.2787 118.947 17.6835 119.624 17.3487C120.3 17.0139 121.295 16.7535 122.609 16.5675C123.365 16.4559 123.982 16.3444 124.46 16.2328C124.937 16.1212 125.315 15.9538 125.594 15.7306C125.674 15.5818 125.833 15.2842 126.072 14.8378C126.35 14.3542 126.649 14.0009 126.967 13.7777C127.325 13.5545 127.743 13.4429 128.221 13.4429C128.699 13.4429 129.037 13.6289 129.236 14.0009C129.435 14.3356 129.535 14.7448 129.535 15.2284C129.933 15.5632 131.007 15.7306 132.759 15.7306C133.873 15.7306 134.57 15.7678 134.848 15.8422C135.167 15.9166 135.386 16.0654 135.505 16.2886C135.704 16.6605 136.003 16.9767 136.401 17.2371L137.714 17.1813C138.431 17.1813 138.968 17.4789 139.326 18.0741C139.286 18.3345 138.968 18.7065 138.371 19.19C138.092 19.4504 137.833 19.7108 137.595 19.9712C137.396 20.2316 137.296 20.4734 137.296 20.6966C137.296 20.8826 137.356 21.0314 137.475 21.143C137.634 21.2173 137.814 21.2917 138.013 21.3661C138.212 21.4033 138.331 21.4219 138.371 21.4219C138.769 21.4963 139.067 21.6079 139.266 21.7567C139.505 21.8683 139.625 22.0729 139.625 22.3705C139.625 22.9657 139.426 23.4493 139.028 23.8212C138.63 24.156 138.112 24.3234 137.475 24.3234C136.202 24.3234 135.127 24.4908 134.251 24.8256C133.415 25.1604 132.679 25.6254 132.042 26.2205C131.445 26.7785 130.689 27.6155 129.773 28.7314L129.833 28.7872H132.759H133.833C134.51 28.7872 135.007 28.8616 135.326 29.0104C136.162 29.308 136.699 30.0334 136.938 31.1865C137.177 32.3397 137.296 33.6416 137.296 35.0924C137.296 36.9523 137.077 38.868 136.639 40.8395C136.6 40.9883 136.58 41.1929 136.58 41.4533C136.58 41.6765 136.619 41.9741 136.699 42.3461C136.819 42.718 136.878 42.997 136.878 43.183C136.878 44.0758 136.281 44.671 135.087 44.9685C133.933 45.3033 132.719 45.4707 131.445 45.4707ZM130.012 20.3618C130.012 20.5478 130.052 20.7524 130.132 20.9756C130.211 21.1616 130.351 21.2545 130.55 21.2545C130.788 21.2545 131.266 20.9756 131.982 20.4176C132.739 19.8224 133.196 19.3946 133.356 19.1342C133.316 18.9854 133.137 18.911 132.818 18.911C130.948 18.911 130.012 19.3946 130.012 20.3618ZM131.744 34.646C132.221 34.646 132.699 34.5716 133.177 34.4228C133.694 34.274 133.953 34.0322 133.953 33.6974C133.953 33.4742 133.893 33.2696 133.774 33.0836C133.654 32.8605 133.475 32.7489 133.236 32.7489C132.878 32.7489 132.42 32.9349 131.863 33.3068C131.346 33.6416 131.087 33.9578 131.087 34.2554C131.087 34.5158 131.306 34.646 131.744 34.646ZM130.072 41.5091C130.51 41.5091 131.127 41.4161 131.923 41.2301C132.759 41.0813 133.256 40.8953 133.415 40.6721C133.535 40.4861 133.594 40.2443 133.594 39.9468C133.594 39.612 133.594 39.426 133.594 39.3888C133.594 38.9052 133.515 38.5704 133.356 38.3844C133.236 38.1612 132.938 38.0496 132.46 38.0496C131.385 38.0496 130.709 38.2728 130.43 38.7192C130.191 39.1284 130.072 39.891 130.072 41.0069V41.5091Z" stroke="#6A5D4A" mask="url(#path-1-outside-1_2527_6640)"/>
<g clip-path="url(#clip0_2527_6640)">
<path d="M21.427 48.2997C20.819 46.0201 20.6042 45.1854 20.5069 44.8704L20.4907 44.774C20.288 43.5219 19.3233 41.6006 18.0587 41.2443C17.4041 41.0612 16.7697 41.2994 16.1719 41.953L16.1577 41.9707C15.3673 43.079 15.0552 44.3822 14.7553 45.6441C14.5722 46.5458 14.3008 47.4285 13.9446 48.28C13.8636 48.4844 13.8695 48.7117 13.9608 48.9119C14.0057 49.0103 14.0704 49.099 14.1512 49.1727C14.2319 49.2465 14.3271 49.3037 14.431 49.3411C14.5262 49.3844 14.6299 49.4073 14.735 49.408C14.8403 49.4092 14.9445 49.3862 15.039 49.3411C15.6936 49.0261 16.0199 47.6815 16.2834 46.6008C16.3644 46.2661 16.4354 45.9709 16.5002 45.7819H19.0011L19.7854 48.7505C19.8132 48.8557 19.8621 48.9546 19.9292 49.0414C19.9964 49.1283 20.0805 49.2015 20.1768 49.2568C20.273 49.3121 20.3795 49.3484 20.4903 49.3637C20.601 49.379 20.7137 49.373 20.822 49.346C20.9304 49.319 21.0321 49.2715 21.1216 49.2063C21.211 49.141 21.2863 49.0593 21.3433 48.9658C21.4002 48.8723 21.4376 48.7689 21.4534 48.6613C21.4691 48.5538 21.4629 48.4443 21.4351 48.3391L21.427 48.2997ZM18.5066 44.1263H16.944C17.3109 43.0022 17.5946 42.9058 17.6797 42.9038C17.7648 42.9018 18.0526 42.9727 18.5066 44.1263Z" fill="#6A5D4A"/>
<path d="M7.35812 40.5908C7.1414 40.5731 6.92594 40.6367 6.75597 40.7685C6.586 40.9003 6.47441 41.0903 6.4441 41.2995V41.3192C6.4441 41.5062 6.40154 41.8723 6.35898 42.3034C6.06917 45.1854 5.85029 48.3115 6.9082 48.9454C7.02678 49.002 7.15708 49.0317 7.28921 49.032C7.41165 49.0287 7.53192 48.9999 7.64185 48.9474C10.7264 47.5694 12.2545 45.6737 11.835 43.7326C11.4682 42.0416 9.6685 40.7778 7.35812 40.5908ZM7.88099 46.9788C7.83989 45.4496 7.89133 43.9193 8.03502 42.396C9.35234 42.7897 10.1225 43.4275 10.2137 44.1874C10.317 45.0595 9.46989 46.0733 7.88099 46.9788Z" fill="#6A5D4A"/>
<path d="M25.2128 40.1554C24.9212 40.1136 24.6235 40.1441 24.3474 40.244C23.4678 40.5609 22.9125 41.179 22.8983 41.8582C22.8841 42.5039 23.3563 43.0905 24.2015 43.4803C24.1163 43.9134 24.1244 44.9823 24.1711 46.9667C24.1852 47.5572 24.2055 48.3781 24.1852 48.4726V48.5002V48.5159C24.1803 48.628 24.1989 48.7399 24.2399 48.8449C24.2808 48.9498 24.3433 49.0455 24.4235 49.1263C24.5037 49.2071 24.5999 49.2712 24.7063 49.3148C24.8128 49.3584 24.9272 49.3805 25.0428 49.3798C25.1583 49.3792 25.2725 49.3557 25.3784 49.3109C25.4843 49.2661 25.5797 49.2009 25.6589 49.1192C25.7381 49.0375 25.7994 48.941 25.839 48.8356C25.8787 48.7302 25.8959 48.6181 25.8897 48.5061V48.4805V48.4588C25.8755 48.3801 25.8795 47.6852 25.8897 47.0572C25.9079 44.7776 25.8897 43.8425 25.8106 43.4646C26.7064 43.0216 27.1766 42.3385 27.0732 41.622C26.9516 40.8759 26.2261 40.2991 25.2128 40.1554ZM25.1965 41.8661C25.1236 41.9153 25.0466 41.9625 24.9817 41.9999C24.8966 41.9586 24.8297 41.9192 24.7791 41.8858C24.848 41.8523 24.9229 41.8208 25.002 41.7913C25.0749 41.8188 25.1418 41.8425 25.1965 41.8602V41.8661Z" fill="#6A5D4A"/>
<path d="M39.7986 40.0746C39.5932 39.9837 39.3591 39.9755 39.1475 40.0519C38.936 40.1283 38.7642 40.283 38.6698 40.4821L37.5551 42.8621L36.408 40.4998C36.3052 40.3119 36.1319 40.1696 35.924 40.1024C35.7161 40.0351 35.4896 40.0482 35.2913 40.1388C35.0931 40.2294 34.9383 40.3906 34.8591 40.589C34.7798 40.7874 34.7822 41.0078 34.8657 41.2046L36.7242 45.0217L36.7465 48.4312C36.7389 48.5697 36.7707 48.7076 36.8382 48.8297C36.9057 48.9519 37.0065 49.0538 37.1295 49.1242C37.2707 49.2009 37.4298 49.2412 37.5916 49.2412C37.7534 49.2412 37.9125 49.2009 38.0537 49.1242C38.1775 49.054 38.279 48.952 38.347 48.8294C38.4149 48.7068 38.4467 48.5683 38.4387 48.4293L38.4225 45.0099L40.2201 41.1692C40.3136 40.9694 40.3217 40.7418 40.2427 40.5363C40.1637 40.3307 40.004 40.164 39.7986 40.0727V40.0746Z" fill="#6A5D4A"/>
<path d="M31.3272 40.0532C31.2154 40.054 31.1049 40.0761 31.0019 40.1184C30.8989 40.1607 30.8056 40.2222 30.7271 40.2996C30.6486 40.3769 30.5866 40.4685 30.5445 40.5691C30.5025 40.6697 30.4813 40.7773 30.4821 40.8859L30.5327 48.4748C30.5359 48.6941 30.6279 48.9034 30.7887 49.0574C30.9495 49.2114 31.1662 49.2977 31.392 49.2977C31.6178 49.2951 31.8334 49.2059 31.9917 49.0495C32.15 48.8931 32.2382 48.6823 32.2372 48.463L32.1804 40.8761C32.1783 40.6575 32.0875 40.4485 31.9278 40.2944C31.7681 40.1404 31.5523 40.0537 31.3272 40.0532Z" fill="#6A5D4A"/>
<path d="M44.2333 45.1716C44.0105 45.0592 43.7576 45 43.5 45C43.2424 45 42.9895 45.0592 42.7667 45.1716C42.2727 45.4218 41.9924 45.9063 42.0002 46.4983C42.0079 47.0904 42.2727 47.5748 42.7667 47.8278C42.9893 47.9406 43.2423 48 43.5 48C43.7577 48 44.0107 47.9406 44.2333 47.8278C44.7288 47.5775 45.0076 47.0931 44.9998 46.501C44.9921 45.909 44.7288 45.4218 44.2333 45.1716Z" fill="#6A5D4A"/>
<path d="M62.3896 41.6731L62.3673 41.5018C62.3718 41.3484 62.3429 41.1958 62.2824 41.054C62.222 40.9122 62.1315 40.7844 62.0167 40.6789C61.9244 40.6028 61.8157 40.5477 61.6985 40.5177C61.5814 40.4877 61.4588 40.4836 61.3398 40.5057C60.5008 40.6927 60.6183 41.4073 60.7035 41.927C60.7257 42.0687 60.7501 42.2144 60.7582 42.3522V42.3758C60.8433 43.2538 60.9973 44.8562 60.7278 45.7224C60.3832 45.4645 60.1785 44.9488 59.9962 44.4901C59.759 43.8995 59.5138 43.2755 58.9484 43.2755C58.3647 43.244 58.1033 43.8168 57.8114 44.4448C57.5824 44.9409 57.323 45.496 56.9015 45.7224C56.6279 44.7519 56.9217 43.1633 57.1203 42.0943V42.0687C57.1426 41.9526 57.1629 41.8424 57.173 41.7715C57.2276 41.6328 57.2522 41.4846 57.2452 41.3363C57.2383 41.1879 57.1999 41.0426 57.1325 40.9093C57.0764 40.8092 56.9985 40.7222 56.9044 40.6542C56.8103 40.5863 56.7021 40.539 56.5873 40.5155C56.473 40.4892 56.3543 40.4868 56.2389 40.5085C56.1236 40.5302 56.0144 40.5756 55.9185 40.6415C55.8199 40.7071 55.7363 40.7919 55.6732 40.8905C55.6101 40.9892 55.5687 41.0994 55.5517 41.2144C55.3365 42.1725 55.1909 43.1441 55.116 44.122C54.8789 45.7244 55.3653 47.0256 56.332 47.3603C57.1426 47.6418 58.0789 47.1634 58.8511 46.0748C59.2686 46.7736 60.1036 47.4646 60.9629 47.4646C61.3864 47.4646 61.96 47.2678 62.2903 46.4154C62.7828 45.0236 62.5558 43.0865 62.3896 41.6731Z" fill="#6A5D4A"/>
<path d="M52.5928 40.8052H46.7298C46.6143 40.7997 46.499 40.8171 46.3907 40.8562C46.2824 40.8953 46.1834 40.9554 46.0997 41.0328C46.0161 41.1102 45.9495 41.2033 45.9039 41.3065C45.8584 41.4097 45.835 41.5207 45.835 41.633C45.835 41.7452 45.8584 41.8563 45.9039 41.9594C45.9495 42.0626 46.0161 42.1557 46.0997 42.2331C46.1834 42.3105 46.2824 42.3706 46.3907 42.4097C46.499 42.4489 46.6143 42.4662 46.7298 42.4608H48.8091V47.4885C48.8035 47.6006 48.8213 47.7126 48.8616 47.8178C48.9019 47.923 48.9638 48.0192 49.0435 48.1005C49.1231 48.1817 49.219 48.2464 49.3252 48.2906C49.4314 48.3349 49.5458 48.3577 49.6613 48.3577C49.7768 48.3577 49.8912 48.3349 49.9974 48.2906C50.1036 48.2464 50.1995 48.1817 50.2791 48.1005C50.3588 48.0192 50.4207 47.923 50.461 47.8178C50.5013 47.7126 50.5191 47.6006 50.5135 47.4885V42.4608H52.5928C52.8117 42.4504 53.018 42.3586 53.1691 42.2045C53.3202 42.0504 53.4045 41.8458 53.4045 41.633C53.4045 41.4202 53.3202 41.2155 53.1691 41.0614C53.018 40.9073 52.8117 40.8156 52.5928 40.8052Z" fill="#6A5D4A"/>
</g>
<path fill-rule="evenodd" clip-rule="evenodd" d="M2.2268 34.7066C1.97364 34.3712 1.61029 34.0067 1.15121 33.6143C0.76719 33.2085 0.478384 32.8337 0.276666 32.49C0.0937677 32.1785 0 31.8306 0 31.4357C0.000119984 31.4338 0.00159895 31.4097 0.0189362 31.3572C0.0369236 31.3027 0.0676862 31.2305 0.116203 31.1387C0.213695 30.9542 0.368138 30.718 0.587886 30.4269L0.610684 30.3967L0.628363 30.3632C0.71316 30.2027 0.844334 29.9747 1.02485 29.6757C1.21528 29.3604 1.35615 29.0573 1.41943 28.7747C1.6187 28.102 1.70719 27.1026 1.70719 25.8136C1.70719 20.5318 1.84309 16.136 2.11389 12.6231C2.16459 12.3104 2.20934 11.5706 2.25313 10.4517C2.29744 9.31951 2.45211 8.32627 2.71142 7.46737C2.83658 7.05283 2.98466 6.79107 3.13029 6.63874C3.26347 6.49945 3.39898 6.44485 3.55839 6.44485C3.79472 6.44485 4.11341 6.54451 4.52769 6.81894L4.549 6.83306L4.57172 6.84479C4.96642 7.04853 5.20911 7.24481 5.34558 7.41864C5.3556 7.5869 5.38518 7.75597 5.45423 7.90298C5.50207 8.00485 5.57687 8.1132 5.69317 8.19574C5.81391 8.28144 5.95088 8.31893 6.08504 8.31893C6.17363 8.31893 6.24389 8.29223 6.2532 8.28869C6.27543 8.28058 6.2939 8.27214 6.30499 8.2669C6.32821 8.25591 6.35149 8.24339 6.37117 8.23246C6.41209 8.20973 6.4646 8.17865 6.52595 8.14132C6.64996 8.06588 6.827 7.9546 7.05539 7.80871C7.513 7.5164 8.18637 7.07905 9.07449 6.4972L9.08102 6.49276C10.769 5.34589 12.7684 4.76465 15.099 4.76465C16.9101 4.76465 18.2428 5.13153 19.1564 5.80396C20.056 6.46614 20.608 7.46803 20.7778 8.87411C21.2324 12.6603 21.4573 15.5242 21.4573 17.4772C21.4573 18.5869 21.4121 20.1737 21.3211 22.2394C21.23 24.395 21.1841 26.0187 21.1841 27.1061C21.1841 28.9359 20.811 30.5626 20.0751 31.9964L20.0724 32.0018C19.7436 32.6629 19.308 33.1388 18.7709 33.453C18.2316 33.7685 17.5608 33.9379 16.738 33.9379C16.4744 33.9379 16.1958 33.8619 15.8968 33.6873C15.5986 33.4849 15.2519 33.2185 14.8557 32.8851C14.4378 32.5337 14.0601 32.2427 13.7237 32.0153L13.4109 31.8039L13.1539 32.047L8.07762 33.4376L8.07041 33.4397C7.35917 33.6468 6.73792 34.1279 6.19745 34.8229C5.85888 35.2222 5.53562 35.5034 5.23088 35.6837L5.21867 35.6909L5.20691 35.6988C5.00595 35.8347 4.62081 35.9412 3.96812 35.9412C3.57381 35.9412 3.26934 35.8671 3.03544 35.7417C2.88395 35.6548 2.73265 35.5179 2.5865 35.3136C2.40782 35.0175 2.30459 34.8409 2.26727 34.7703L2.24959 34.7368L2.2268 34.7066ZM6.16076 15.7765L7.36231 15.8798H7.38251C7.66001 15.8798 8.04045 15.7973 8.48718 15.6672C8.94657 15.5334 9.52113 15.3354 10.2077 15.0756C11.3153 14.6826 11.9312 14.4845 12.1136 14.4499L12.1241 14.4479L12.1344 14.4455C12.4673 14.3668 13.0334 14.283 13.8508 14.1971L13.8629 14.1958L13.8749 14.1939C14.2918 14.1281 14.6384 14.0608 14.9094 13.9908C15.1587 13.9265 15.4029 13.8462 15.571 13.7288C15.9505 13.4713 16.2525 13.1101 16.2525 12.6305C16.2525 11.933 16.2296 11.336 16.1823 10.8426C16.1364 10.3224 16.09 9.90273 16.0424 9.58755L16.0161 9.4136L15.8822 9.29953C15.5729 9.03614 15.1537 8.86742 14.6702 8.76183C14.1822 8.65526 13.594 8.60559 12.9138 8.60559C10.4517 8.60559 8.21764 9.30208 6.2253 10.6937L6.01626 10.8397L6.09319 13.2421L6.09463 13.2571C6.13792 13.7077 6.16076 14.4002 6.16076 15.3446V15.7765ZM6.60762 28.2586L6.68606 28.4442L7.29643 28.6752H7.38251C7.6514 28.6752 8.13294 28.5848 8.76945 28.4368C9.42698 28.284 10.3042 28.056 11.3987 27.754C12.5159 27.4519 13.3832 27.202 13.9968 27.0048C14.3029 26.9064 14.5528 26.8189 14.7416 26.7428C14.8358 26.7048 14.9212 26.6671 14.9937 26.6296C15.0576 26.5966 15.145 26.5472 15.2176 26.4785L15.2367 26.4605L15.2536 26.4405C15.353 26.3229 15.4187 26.1773 15.4661 26.0426C15.5159 25.9011 15.5581 25.7349 15.5948 25.5496C15.6679 25.1809 15.7263 24.7002 15.7724 24.1146C15.9091 22.948 15.9794 22.0041 15.9794 21.29C15.9794 20.5997 15.8994 20.0142 15.6945 19.5848C15.589 19.3638 15.4423 19.1671 15.2405 19.0261C15.0346 18.8822 14.7991 18.8161 14.5527 18.8161C14.2343 18.8161 13.7179 18.9187 13.0529 19.0893C12.3702 19.2645 11.4799 19.5256 10.385 19.871C9.31192 20.1951 8.45334 20.4784 7.81344 20.7206C7.49337 20.8418 7.22238 20.9548 7.00395 21.0596C6.7923 21.1611 6.604 21.2671 6.46779 21.3799L6.36738 21.463L6.32406 21.586C6.2306 21.8513 6.16076 22.1094 6.16076 22.3239C6.16076 23.1145 6.20704 24.2249 6.2983 25.6498C6.34401 26.3635 6.39008 26.932 6.43679 27.352C6.46012 27.5616 6.48416 27.7395 6.50933 27.8824C6.53257 28.0143 6.56244 28.1517 6.60762 28.2586ZM35.005 34.7066C34.7518 34.3712 34.3885 34.0067 33.9294 33.6143C33.5454 33.2085 33.2566 32.8337 33.0549 32.49C32.872 32.1785 32.7782 31.8306 32.7782 31.4357C32.7783 31.4338 32.7798 31.4097 32.7971 31.3572C32.8151 31.3027 32.8459 31.2305 32.8944 31.1387C32.9919 30.9542 33.1463 30.718 33.3661 30.4269L33.3889 30.3967L33.4066 30.3632C33.4914 30.2027 33.6225 29.9747 33.8031 29.6757C33.9935 29.3604 34.1343 29.0574 34.1976 28.7748C34.3969 28.1021 34.4854 27.1026 34.4854 25.8136C34.4854 20.5318 34.6213 16.136 34.8921 12.6231C34.9428 12.3104 34.9875 11.5706 35.0313 10.4517C35.0756 9.31952 35.2303 8.32627 35.4896 7.46737C35.6148 7.05283 35.7629 6.79107 35.9085 6.63874C36.0417 6.49945 36.1772 6.44485 36.3366 6.44485C36.5729 6.44485 36.8916 6.54451 37.3059 6.81894L37.3272 6.83306L37.3499 6.84479C37.7446 7.04853 37.9873 7.24481 38.1238 7.41864C38.1338 7.5869 38.1634 7.75597 38.2324 7.90298C38.2803 8.00485 38.3551 8.11319 38.4714 8.19574C38.5921 8.28144 38.7291 8.31893 38.8632 8.31893C38.9518 8.31893 39.0221 8.29223 39.0314 8.28869C39.0536 8.28058 39.0721 8.27214 39.0832 8.2669C39.1064 8.25591 39.1297 8.24339 39.1494 8.23246C39.1903 8.20973 39.2428 8.17865 39.3042 8.14132C39.4282 8.06588 39.6052 7.95461 39.8336 7.80871C40.2912 7.5164 40.9646 7.07905 41.8527 6.4972L41.8592 6.49276C43.5472 5.34589 45.5466 4.76465 47.8773 4.76465C49.6883 4.76465 51.021 5.13153 51.9346 5.80396C52.8342 6.46609 53.3861 7.46788 53.5559 8.87379C54.0106 12.6601 54.2355 15.5242 54.2355 17.4772C54.2355 18.5869 54.1903 20.1737 54.0993 22.2394C54.0082 24.395 53.9623 26.0187 53.9623 27.1061C53.9623 28.9359 53.5892 30.5626 52.8533 31.9964L52.8506 32.0018C52.5219 32.6629 52.0862 33.1388 51.5491 33.453C51.0098 33.7685 50.339 33.9379 49.5162 33.9379C49.2526 33.9379 48.9741 33.8619 48.675 33.6873C48.3768 33.4849 48.0301 33.2185 47.6339 32.8851C47.216 32.5337 46.8383 32.2427 46.5019 32.0153L46.1891 31.8039L45.9321 32.047L40.8558 33.4376L40.8486 33.4397C40.1374 33.6468 39.5161 34.1279 38.9757 34.8229C38.6371 35.2222 38.3138 35.5034 38.0091 35.6837L37.9969 35.6909L37.9851 35.6988C37.7842 35.8347 37.399 35.9412 36.7463 35.9412C36.352 35.9412 36.0476 35.8671 35.8137 35.7418C35.6622 35.6548 35.5109 35.5179 35.3647 35.3136C35.186 35.0175 35.0828 34.8409 35.0455 34.7703L35.0278 34.7368L35.005 34.7066ZM38.939 15.7765L40.1405 15.8798H40.1607C40.4382 15.8798 40.8187 15.7973 41.2654 15.6672C41.7248 15.5334 42.2993 15.3355 42.9859 15.0757C44.0935 14.6826 44.7094 14.4845 44.8918 14.4499L44.9023 14.4479L44.9126 14.4455C45.2455 14.3668 45.8117 14.283 46.629 14.1971L46.6411 14.1958L46.6531 14.1939C47.07 14.1281 47.4166 14.0608 47.6876 13.9908C47.9369 13.9265 48.1813 13.8461 48.3494 13.7286C48.7288 13.4711 49.0307 13.1101 49.0307 12.6305C49.0307 11.9329 49.0078 11.3358 48.9604 10.8423C48.9146 10.3223 48.8682 9.90268 48.8206 9.58755L48.7943 9.4136L48.6604 9.29953C48.3512 9.03614 47.9319 8.86742 47.4484 8.76183C46.9604 8.65526 46.3722 8.60559 45.692 8.60559C43.2299 8.60559 40.9958 9.30208 39.0035 10.6937L38.7945 10.8397L38.8714 13.2421L38.8728 13.2571C38.9161 13.7077 38.939 14.4002 38.939 15.3446V15.7765ZM39.3858 28.2586L39.4643 28.4442L40.0746 28.6752H40.1607C40.4296 28.6752 40.9111 28.5848 41.5477 28.4368C42.2052 28.284 43.0824 28.056 44.1769 27.754C45.2942 27.4519 46.1615 27.202 46.775 27.0048C47.0811 26.9064 47.331 26.8189 47.5198 26.7428C47.614 26.7048 47.6994 26.6671 47.7719 26.6296C47.8358 26.5966 47.9232 26.5472 47.9959 26.4785L48.0149 26.4605L48.0318 26.4405C48.1312 26.3229 48.1969 26.1773 48.2443 26.0426C48.2941 25.9011 48.3363 25.7349 48.373 25.5496C48.4461 25.1809 48.5045 24.7002 48.5506 24.1146C48.6873 22.948 48.7576 22.0041 48.7576 21.29C48.7576 20.5997 48.6776 20.0142 48.4727 19.5848C48.3672 19.3638 48.2205 19.1671 48.0187 19.0261C47.8128 18.8822 47.5773 18.8161 47.331 18.8161C47.0125 18.8161 46.4961 18.9187 45.8311 19.0893C45.1484 19.2645 44.2581 19.5256 43.1632 19.871C42.0901 20.1951 41.2315 20.4784 40.5916 20.7206C40.2716 20.8418 40.0006 20.9548 39.7822 21.0596C39.5705 21.1611 39.3822 21.2671 39.246 21.3799L39.1456 21.463L39.1023 21.586C39.0088 21.8513 38.939 22.1094 38.939 22.3239C38.939 23.1145 38.9852 24.2249 39.0765 25.6498C39.1222 26.3635 39.1683 26.932 39.215 27.352C39.2383 27.5616 39.2624 27.7395 39.2875 27.8824C39.3108 28.0143 39.3406 28.1517 39.3858 28.2586Z" fill="#6A5D4A"/>
<path d="M85.8058 95.8042C86.8851 94.725 89.0661 94.6238 90.0217 94.7081C90.7805 94.775 91.4551 95.6356 91.5394 96.0572C91.6221 96.4706 91.5394 98.8397 90.4433 99.9358C89.3471 101.032 88.5883 100.442 89.3471 99.2613C90.106 98.0808 89.1785 98.1323 88.8412 98.3338C88.6675 98.4375 87.8294 99.0364 87.3235 99.2613C86.7333 99.9358 84.6928 99.3465 86.3117 98.1323C87.9306 96.9181 87.3235 96.6146 86.8176 96.6146C85.9463 96.8113 84.7265 96.8835 85.8058 95.8042Z" fill="#6A5D4A"/>
<path d="M90.5297 89.2505C91.6089 88.1712 93.79 88.0701 94.7456 88.1544C95.5044 88.2213 96.179 89.0819 96.2633 89.5035C96.346 89.9169 96.2633 92.286 95.1671 93.3821C94.071 94.4782 93.3122 93.888 94.071 92.7076C94.8299 91.5271 93.9024 91.5786 93.5651 91.7801C93.3914 91.8838 92.5533 92.4827 92.0474 92.7076C91.4572 93.3821 89.4167 92.7928 91.0356 91.5786C92.6545 90.3644 92.0474 90.0609 91.5415 90.0609C90.6702 90.2576 89.4504 90.3298 90.5297 89.2505Z" fill="#6A5D4A"/>
<path d="M97.2755 94.1406C98.3548 93.0614 100.536 92.9602 101.491 93.0445C102.25 93.1115 102.925 93.972 103.009 94.3936C103.092 94.807 103.009 97.1761 101.913 98.2722C100.817 99.3684 100.058 98.7781 100.817 97.5977C101.576 96.4172 100.648 96.4687 100.311 96.6702C100.137 96.774 99.2992 97.3728 98.7932 97.5977C98.203 98.2722 96.1625 97.6829 97.7814 96.4687C99.4003 95.2546 98.7932 94.951 98.2873 94.951C97.4161 95.1478 96.1963 95.2199 97.2755 94.1406Z" fill="#6A5D4A"/>
<path fill-rule="evenodd" clip-rule="evenodd" d="M64.1274 76.3016C64.1276 76.3017 64.1283 76.3052 64.1291 76.3117C64.1276 76.3048 64.1272 76.3015 64.1274 76.3016ZM64.1629 76.4124C65.273 74.0548 65.5382 71.9535 65.1348 70.1786C64.7179 68.3442 63.6106 66.9682 62.2182 66.1016C59.5107 64.4164 55.5461 64.5854 53.3074 67.1599C52.4948 68.0944 51.7692 69.612 51.4107 71.1044C50.7304 71.6434 50.0399 72.2729 49.4804 72.8135C48.8584 73.4144 48.3222 73.9789 48.1512 74.2069C48.028 74.3712 47.8217 74.7033 47.6255 75.0825C47.4284 75.4634 47.2012 75.9686 47.0799 76.473C47.0192 76.7256 46.9737 77.0229 46.9945 77.3285C46.9977 77.3758 47.0026 77.4249 47.0097 77.4753C45.9134 77.6243 44.9255 78.1987 44.393 79.044C43.9647 79.724 43.8398 80.5905 44.2543 81.4321C44.4302 81.7891 44.6873 82.1098 45.0139 82.3955C44.635 82.7687 44.3531 83.1862 44.1867 83.6472C43.8407 84.6065 44.0694 85.5456 44.5886 86.2854C45.3581 87.3817 46.7912 88.1268 48.3977 88.3209C48.3919 88.4667 48.3965 88.6124 48.4121 88.7578C48.4806 89.3969 48.7523 89.953 49.146 90.4101C49.9073 91.294 51.1255 91.8192 52.4047 92.0782C54.6333 92.5293 57.5247 92.2695 59.9955 91.0784C60.8817 93.1911 62.3433 94.7472 64.1304 95.7452C64.0348 96.1238 63.8899 96.6037 63.7062 97.0893C63.5482 97.5067 63.3787 97.8818 63.2162 98.1609C63.1548 98.2663 63.1046 98.34 63.0675 98.3901C63.0124 98.3939 62.9502 98.398 62.8803 98.4025C62.8102 98.4071 62.7265 98.4119 62.6316 98.4174C61.9798 98.4552 60.8024 98.5234 59.942 98.7342C59.6986 98.7939 59.4121 98.914 59.181 99.1537C58.931 99.4129 58.7679 99.8003 58.8443 100.233C58.9854 101.031 59.7344 101.297 60.1319 101.354C60.2478 101.371 60.3406 101.385 60.41 101.397C60.4219 101.399 60.4318 101.401 60.4401 101.402C60.4704 101.415 60.4971 101.426 60.5212 101.436C60.4969 101.504 60.4678 101.582 60.4335 101.671C60.1725 102.349 60.2855 103.173 60.956 103.649C61.5883 104.097 62.373 103.984 62.9416 103.604C63.0459 103.534 63.1271 103.484 63.1854 103.452C63.1959 103.446 63.2046 103.442 63.2115 103.438C63.4565 103.387 63.6603 103.394 63.8323 103.423C64.054 103.461 64.2376 103.537 64.4494 103.628L64.4658 103.635C64.5424 103.667 64.663 103.719 64.778 103.756L64.7802 103.757C64.8703 103.785 65.1798 103.884 65.5347 103.783C66.0372 103.641 66.2624 103.236 66.3375 102.947C66.3985 102.712 66.387 102.482 66.375 102.338C66.3118 101.58 66.1262 100.995 65.997 100.587L65.9922 100.572C65.9293 100.374 65.8924 100.254 65.8708 100.156C65.8616 100.115 65.8585 100.09 65.8575 100.08C65.9233 99.6266 66.2189 98.6195 66.565 97.6819C66.6891 97.3457 66.8109 97.0426 66.9189 96.8001C67.3344 96.8934 67.7583 96.9635 68.1886 97.0105C69.4505 97.1483 70.7658 97.0888 72.0874 96.8359C72.3085 97.085 72.5563 97.395 72.7665 97.715C72.9358 97.9729 73.0598 98.2058 73.1303 98.3946C73.1464 98.4376 73.158 98.4738 73.1663 98.5036C73.1327 98.5518 73.0942 98.6067 73.0503 98.6691C72.9477 98.8149 72.7994 99.0008 72.6115 99.2365C72.5142 99.3584 72.4064 99.4937 72.2887 99.6436C71.9726 100.046 71.6046 100.533 71.3405 100.992C71.2081 101.223 71.0976 101.529 71.1263 101.878C71.1571 102.253 71.3475 102.605 71.6759 102.829C72.2855 103.244 72.9696 103.019 73.3493 102.772C73.3843 102.749 73.4181 102.727 73.4508 102.706C73.5308 102.653 73.6033 102.606 73.6661 102.566C73.7099 102.538 73.7454 102.515 73.7726 102.498C73.7953 102.484 73.8047 102.478 73.8051 102.478C73.8663 102.444 73.9133 102.418 73.9512 102.398C73.9778 102.424 74.0082 102.456 74.0424 102.491C74.1795 102.635 74.3515 102.827 74.5411 103.046C74.9544 103.522 75.6888 103.916 76.4556 103.584C77.2633 103.234 77.4376 102.384 77.3168 101.744C77.2992 101.651 77.2855 101.569 77.2757 101.497C77.2709 101.462 77.2673 101.432 77.2648 101.405C77.3999 101.225 77.5461 101.094 77.6878 100.994C77.8562 100.874 78.0192 100.794 78.196 100.709C78.2015 100.706 78.2074 100.703 78.2137 100.7C78.2886 100.664 78.4143 100.604 78.5207 100.537C78.5816 100.499 78.6832 100.431 78.7826 100.328C78.8828 100.225 79.0333 100.032 79.0863 99.7454C79.2046 99.1061 78.7533 98.7192 78.6609 98.6423C78.5135 98.5197 78.3387 98.4236 78.2013 98.3527C77.6216 98.0539 77.181 97.8655 76.8535 97.7254L76.8512 97.7244C76.6065 97.6198 76.4703 97.5605 76.3659 97.5041C76.2784 97.4568 76.2509 97.4308 76.236 97.415C75.9642 97.1275 75.658 96.562 75.3139 95.9091L75.3047 95.8917C75.2965 95.8761 75.2883 95.8605 75.28 95.8447C76.8758 95.1535 78.4235 94.1755 79.8359 92.9177C81.0033 92.6917 81.9641 91.9712 82.3896 90.9125C82.7253 90.0772 82.681 89.1525 82.2815 88.2737C82.8453 87.9186 83.4454 87.4445 83.8848 86.8854C84.2675 86.3984 84.6219 85.7259 84.5642 84.9346C84.5351 84.536 84.4066 84.1696 84.198 83.8367C84.4554 83.6146 84.688 83.3903 84.8899 83.1663C85.2914 82.7206 85.6786 82.1592 85.7674 81.5317C85.8156 81.1909 85.7762 80.8188 85.5902 80.4679C85.4072 80.1225 85.1252 79.8784 84.8237 79.7118C84.2556 79.3979 83.4989 79.2911 82.6607 79.2911C80.9143 79.2911 79.6759 79.6984 78.6365 80.0715C78.5694 80.0956 78.5036 80.1193 78.439 80.1426C77.5063 80.4788 76.8241 80.7248 75.9568 80.7299C75.3859 80.6954 74.7648 80.5368 74.0545 80.2918C73.5984 80.1344 73.158 79.9615 72.687 79.7765C72.3861 79.6583 72.0726 79.5352 71.7346 79.4081C70.1116 78.798 68.1996 78.2079 66.0593 78.5168C66.0008 78.491 65.9091 78.4403 65.7869 78.353C65.5177 78.1607 65.2012 77.8636 64.9047 77.5202C64.6075 77.1761 64.3686 76.83 64.2307 76.5595C64.2004 76.5002 64.1785 76.4512 64.1629 76.4124ZM66.106 78.5342C66.1061 78.5344 66.1039 78.5339 66.0994 78.5325C66.1037 78.5334 66.106 78.5341 66.106 78.5342ZM75.1781 99.2059L75.0895 99.3513C75.0028 99.4937 74.8765 99.6732 74.7604 99.8382L74.7444 99.8608C74.6533 99.9904 74.5302 100.15 74.3961 100.32C74.6157 100.372 74.8163 100.465 74.9987 100.58C75.0861 100.635 75.1756 100.708 75.2599 100.784C75.2926 100.675 75.3397 100.564 75.4069 100.456C75.6118 100.127 75.8406 99.8609 76.0725 99.6442C76.0604 99.639 76.0485 99.6339 76.0366 99.6289C76.0109 99.6179 75.9848 99.6068 75.9584 99.5956C75.714 99.4917 75.4403 99.3754 75.1781 99.2059ZM73.3435 94.3701C75.188 93.7559 77.0254 92.6971 78.6694 91.1795L78.9223 90.946L79.2647 90.9104C79.9426 90.8399 80.3269 90.4905 80.4677 90.1401C80.6016 89.8069 80.6049 89.2423 80.0194 88.5491L79.1004 87.4607L80.4191 86.9221C80.9303 86.7133 81.8022 86.1832 82.2562 85.6055C82.4769 85.3247 82.5034 85.1551 82.4983 85.0854C82.496 85.0537 82.4797 84.864 82.0559 84.5592L80.8729 83.7082L82.0656 82.8708C82.6287 82.4754 83.061 82.1017 83.351 81.7798C83.4657 81.6525 83.5501 81.5422 83.6098 81.4504C83.4249 81.4048 83.1234 81.3625 82.6607 81.3625C81.2724 81.3625 80.3012 81.6747 79.3364 82.021C79.2572 82.0494 79.1773 82.0784 79.0964 82.1078C78.1988 82.4338 77.1869 82.8013 75.9288 82.8013H75.9011L75.8734 82.7999C75.013 82.7538 74.1723 82.5236 73.3789 82.2499C72.8921 82.0819 72.3703 81.8774 71.8622 81.6783C71.569 81.5634 71.2804 81.4502 71.0057 81.347C69.4196 80.7507 67.8996 80.3225 66.2752 80.579C65.8949 80.639 65.55 80.5448 65.3041 80.446C65.0461 80.3423 64.8015 80.1946 64.583 80.0385C64.1449 79.7257 63.7091 79.3048 63.337 78.8741C62.9657 78.4441 62.6197 77.96 62.3855 77.5005C62.2694 77.2729 62.1618 77.0149 62.1044 76.7486C62.0517 76.5045 62.0089 76.1062 62.2027 75.7096C63.2447 73.5776 63.4001 71.8922 63.115 70.6376C62.8316 69.3906 62.0901 68.4616 61.1237 67.8601C59.1137 66.609 56.3207 66.8512 54.8704 68.5191C54.3349 69.1349 53.7588 70.2792 53.4545 71.4677C53.5929 71.609 53.7368 71.6837 53.866 71.7265C54.0914 71.801 54.3042 71.7859 54.3971 71.7642L55.9925 71.3919L55.6445 72.9928C55.4493 73.8905 55.6199 74.3847 55.8671 74.879L56.2114 75.5676L55.6512 76.0957C55.598 76.1459 55.5435 76.1952 55.4879 76.2437C56.0895 76.5328 56.8344 76.7819 57.719 76.9443C58.9365 77.168 60.0587 77.4549 60.6834 78.4027C60.9863 78.8622 61.1106 79.3841 61.1716 79.9018C61.2322 80.4164 61.2397 81.0273 61.2397 81.7143V81.8077L61.223 81.8996C61.1213 82.4592 61.0354 83.7387 61.0673 85.208C61.0992 86.6761 61.2467 88.2062 61.5589 89.2899C62.232 91.6257 63.674 93.2425 65.542 94.1474L65.7276 94.2336C65.9161 94.3211 66.2299 94.4375 66.4957 94.5301C66.598 94.5658 66.6855 94.5952 66.7443 94.6147C66.7628 94.6198 66.7815 94.6255 66.8003 94.6318C67.3172 94.7841 67.8568 94.8906 68.4135 94.9514C69.6152 95.0827 70.898 94.9989 72.1965 94.695C72.6793 94.5718 73.0615 94.4602 73.3435 94.3701ZM63.8104 100.391L63.8005 100.396L63.628 100.419C63.4626 100.44 63.2435 100.455 63.0421 100.468L63.0147 100.469C62.9236 100.475 62.824 100.481 62.7179 100.488C62.6431 100.492 62.5651 100.497 62.4846 100.502C62.5372 100.605 62.583 100.718 62.6203 100.842C62.6898 101.074 62.6766 101.285 62.6631 101.403C62.6617 101.415 62.6602 101.428 62.6585 101.44C62.6692 101.437 62.68 101.435 62.6908 101.432C63.2037 101.312 63.666 101.308 64.07 101.364C64.0527 101.309 64.0352 101.253 64.0177 101.198C64.0108 101.176 64.0033 101.153 63.9954 101.129C63.9356 100.943 63.8512 100.681 63.8104 100.391ZM64.3131 102.556C64.313 102.556 64.313 102.553 64.3131 102.549C64.3133 102.554 64.3132 102.556 64.3131 102.556ZM53.6891 75.0177C53.5722 74.6488 53.4947 74.2387 53.4888 73.7685C53.0624 73.6709 52.6133 73.4766 52.2041 73.1334C51.7567 73.514 51.3111 73.9249 50.9196 74.3032C50.614 74.5984 50.3474 74.8679 50.1458 75.0794C50.0448 75.1853 49.9624 75.2743 49.9008 75.343C49.8385 75.4124 49.8122 75.4448 49.8087 75.4492C49.8083 75.4496 49.8082 75.4498 49.8083 75.4497C49.8083 75.4496 49.8049 75.4543 49.7976 75.4648C49.7905 75.4749 49.7814 75.4884 49.7702 75.5055C49.7477 75.5396 49.7195 75.5841 49.6871 75.6377C49.622 75.745 49.5442 75.8816 49.4652 76.0342C49.3307 76.2943 49.2109 76.5665 49.1363 76.8049C49.1385 76.8043 49.1406 76.8038 49.1427 76.8033C49.783 76.6453 50.7619 76.3803 51.7448 75.9972C52.2306 75.8079 52.6943 75.5983 53.1084 75.3713C53.1214 75.3637 53.1346 75.3564 53.1478 75.3495C53.3402 75.2426 53.5216 75.132 53.6891 75.0177ZM48.7471 76.8569C48.7475 76.8565 48.7536 76.8569 48.7643 76.8595C48.752 76.8587 48.7467 76.8574 48.7471 76.8569ZM59.3753 89.0718C59.1291 87.8771 59.0234 86.4942 58.9965 85.253C58.9767 84.3413 58.9986 83.4605 59.0489 82.7373C55.7674 82.6615 54.1721 82.2503 52.8343 81.6247C52.4158 81.4289 52.0575 81.2338 51.6993 81.0388C50.8095 80.5543 49.9208 80.0704 48.1131 79.579C47.2109 79.3338 46.3932 79.7549 46.1456 80.148C46.0537 80.2939 46.0533 80.3967 46.1125 80.5169C46.1969 80.6882 46.4814 81.0303 47.2993 81.3777L49.3355 82.2424L47.3673 83.2524C46.5226 83.6859 46.225 84.1011 46.1351 84.3501C46.0589 84.5615 46.0775 84.8011 46.2841 85.0955C46.7465 85.7544 48.0261 86.4157 49.636 86.2834L51.4588 86.1336L50.6496 87.7738C50.4816 88.1145 50.453 88.3633 50.4717 88.5372C50.4899 88.7073 50.5607 88.8787 50.7155 89.0584C51.051 89.4479 51.7528 89.8329 52.8156 90.048C54.7243 90.4344 57.2912 90.169 59.3753 89.0718ZM59.153 80.6677C55.9949 80.5989 54.7044 80.2126 53.7118 79.7484C53.4276 79.6155 53.1402 79.4591 52.8248 79.2875C52.3395 79.0234 51.788 78.7233 51.08 78.4172C51.5257 78.2802 52.0087 78.1174 52.4969 77.9271C52.8289 77.7978 53.1725 77.6522 53.5145 77.4891C54.4909 78.1664 55.7955 78.697 57.3448 78.9816C58.6625 79.2236 58.8764 79.4249 58.9539 79.5426C59.0022 79.6158 59.0706 79.7711 59.1145 80.1441C59.1325 80.2972 59.1448 80.4697 59.153 80.6677Z" fill="#6A5D4A"/>
<path d="M74.2051 98.8123C74.4007 97.9141 73.0719 96.3043 72.4345 95.703C72.9484 95.5722 73.3595 95.4524 73.6678 95.3536C73.9773 95.2544 74.6996 97.2971 75.4834 98.1263C75.7046 98.3603 75.9827 98.4792 76.444 98.6765L76.444 98.6765C76.7672 98.8147 77.1803 98.9914 77.7269 99.2732C78.2405 99.5379 78.1162 99.5976 77.7472 99.7751C77.5693 99.8607 77.3346 99.9735 77.087 100.15C76.8163 100.343 76.5301 100.611 76.2861 101.003C76.1473 101.226 76.2649 101.798 76.3959 102.404C76.5149 102.955 75.998 103.16 75.6344 102.73C75.1299 102.133 74.6249 101.569 74.4468 101.456C74.2988 101.337 73.8618 101.195 73.2984 101.574C73.2131 101.622 72.8997 101.83 72.5942 102.027C72.2719 102.235 71.9601 102.052 72.1309 101.708C72.5309 100.904 73.5141 99.8097 73.8974 99.2648C74.0269 99.0807 74.1365 98.9249 74.2051 98.8123Z" fill="#6A5D4A"/>
<path fill-rule="evenodd" clip-rule="evenodd" d="M75.3137 95.9086C75.6578 96.5615 75.964 97.1271 76.2358 97.4145C76.2507 97.4303 76.2782 97.4564 76.3657 97.5037C76.4701 97.5601 76.6063 97.6194 76.851 97.724L76.851 97.724L76.8533 97.725C76.8548 97.7256 76.8563 97.7263 76.8577 97.7269L76.8793 97.7361L76.8793 97.7361C77.2041 97.8751 77.6366 98.0614 78.2011 98.3523C78.3385 98.4231 78.5133 98.5192 78.6607 98.6419C78.7531 98.7188 79.2044 99.1057 79.0861 99.745C79.0331 100.031 78.8826 100.224 78.7825 100.328C78.683 100.431 78.5814 100.499 78.5205 100.537C78.4141 100.604 78.2884 100.664 78.2135 100.7C78.2072 100.703 78.2013 100.706 78.1958 100.708C78.019 100.793 77.856 100.873 77.6876 100.993C77.5459 101.094 77.3997 101.225 77.2646 101.405C77.2657 101.416 77.2669 101.428 77.2684 101.441C77.29 101.628 77.3402 101.872 77.4079 102.185C77.5379 102.787 77.3531 103.575 76.5935 103.891C75.8913 104.183 75.2174 103.841 74.8431 103.398C74.5953 103.105 74.3535 102.827 74.156 102.613C74.0727 102.522 74.0022 102.448 73.9455 102.392C73.9265 102.402 73.9037 102.415 73.8771 102.433L73.84 102.458L73.8008 102.48C73.8025 102.479 73.8034 102.478 73.8034 102.478C73.8035 102.478 73.7883 102.487 73.7494 102.512C73.7082 102.538 73.6554 102.572 73.5924 102.613C73.5497 102.641 73.5021 102.672 73.4517 102.704C73.3583 102.765 73.2551 102.832 73.1555 102.897L72.6018 102.039L73.1555 102.897C72.7909 103.132 72.1736 103.305 71.6148 102.944C71.3206 102.753 71.1214 102.45 71.0638 102.1C71.0092 101.769 71.0915 101.472 71.2032 101.247C71.4544 100.742 71.8598 100.194 72.2025 99.7533C72.3556 99.5562 72.4938 99.3832 72.6155 99.2307C72.7989 99.001 72.9452 98.8177 73.0501 98.6686C73.094 98.6063 73.1325 98.5514 73.1661 98.5031C73.1578 98.4734 73.1462 98.4372 73.1301 98.3941C73.0596 98.2054 72.9356 97.9724 72.7663 97.7146C72.4265 97.1972 71.9882 96.7057 71.7236 96.4561L70.3536 95.1638L72.1787 94.6991C72.6746 94.5728 73.0654 94.4587 73.3516 94.367C73.9859 94.1638 74.4358 94.5839 74.5127 94.6563C74.6564 94.7918 74.7672 94.9514 74.8407 95.0648C74.9922 95.2985 75.1565 95.6103 75.3046 95.8913L75.3137 95.9086ZM76.0362 99.6283C76.0106 99.6174 75.9845 99.6063 75.9582 99.5951C75.7138 99.4913 75.4401 99.375 75.1779 99.2055L75.0893 99.3508C75.0026 99.4933 74.8763 99.6727 74.7602 99.8377C74.7548 99.8453 74.7495 99.8529 74.7442 99.8604C74.6534 99.9896 74.5274 100.153 74.389 100.328C74.6414 100.378 74.8671 100.478 75.0505 100.614C75.1274 100.668 75.1992 100.728 75.2596 100.783C75.2914 100.678 75.338 100.566 75.4067 100.456C75.6116 100.127 75.8404 99.8604 76.0723 99.6438C76.0602 99.6386 76.0483 99.6335 76.0364 99.6284L76.0364 99.6284C76.0363 99.6284 76.0363 99.6284 76.0362 99.6283Z" fill="#6A5D4A"/>
<path d="M63.7037 99.2949C64.5259 98.8837 65.1706 96.2652 65.2392 95.3916C65.5819 95.5507 66.2054 95.6856 66.4435 95.7196C66.465 95.7059 66.4845 95.7015 66.5018 95.7073C66.5722 95.7307 66.5386 95.7332 66.4435 95.7196C66.0837 95.9497 65.1852 98.7932 65.0397 99.8601C65.0042 100.121 65.0976 100.415 65.2157 100.788C65.3435 101.191 65.5002 101.686 65.5536 102.327C65.5934 102.804 65.4334 102.735 65.0678 102.579L65.0678 102.578C64.8547 102.487 64.5716 102.366 64.2175 102.306C63.9112 102.253 63.5518 102.246 63.1384 102.343C63.0131 102.373 62.8111 102.489 62.5762 102.646C61.9657 103.055 61.3469 102.632 61.6108 101.946C61.7706 101.531 61.8843 101.194 61.8389 101.042C61.8394 100.85 61.6693 100.438 60.9847 100.323C60.9186 100.296 60.7207 100.265 60.491 100.232C59.9928 100.16 59.9103 99.7629 60.3992 99.6432C61.271 99.4295 62.545 99.3789 63.1582 99.339C63.3828 99.3244 63.5729 99.3121 63.7037 99.2949Z" fill="#6A5D4A"/>
<path fill-rule="evenodd" clip-rule="evenodd" d="M64.323 93.8247L65.675 94.4524C65.7564 94.4902 65.9223 94.545 66.1346 94.5988C66.2521 94.6285 66.3614 94.6524 66.4469 94.6693C66.5641 94.6648 66.6927 94.6795 66.8291 94.725L66.5016 95.7075L66.8291 94.725C66.8293 94.725 66.8297 94.7251 66.8303 94.7253C66.8442 94.7298 66.9667 94.7687 67.0882 94.8453C67.1236 94.8677 67.2197 94.9301 67.3153 95.0386C67.3901 95.1235 67.6477 95.446 67.5561 95.9213C67.4852 96.2893 67.2546 96.4949 67.102 96.5947C67.084 96.6329 67.0641 96.6767 67.0425 96.7265C66.9227 97.0022 66.7832 97.38 66.6446 97.8005C66.3652 98.648 66.1313 99.5405 66.068 99.9833C66.069 99.9936 66.0721 100.018 66.0813 100.059C66.1029 100.158 66.1398 100.277 66.2027 100.475L66.2075 100.491C66.3367 100.898 66.5224 101.484 66.5855 102.241C66.5975 102.386 66.609 102.615 66.548 102.85C66.473 103.139 66.2477 103.544 65.7452 103.687C65.3903 103.787 65.0809 103.689 64.9907 103.66L64.9885 103.659C64.8735 103.622 64.753 103.571 64.6764 103.538C64.6706 103.535 64.6651 103.533 64.6599 103.531L64.6599 103.531C64.4481 103.44 64.2645 103.364 64.0428 103.327C63.8708 103.297 63.667 103.29 63.422 103.341C63.4151 103.345 63.4064 103.349 63.3959 103.355C63.3376 103.387 63.2564 103.437 63.1521 103.507C62.5835 103.888 61.7988 104 61.1666 103.552C60.496 103.077 60.3831 102.253 60.644 101.575C60.6797 101.482 60.7098 101.401 60.7347 101.331L60.6984 101.325L60.6509 101.306C60.6426 101.304 60.6325 101.302 60.6206 101.3C60.5511 101.288 60.4583 101.274 60.3424 101.257C59.9449 101.2 59.1959 100.934 59.0549 100.136C58.9784 99.7035 59.1415 99.3161 59.3915 99.0569C59.6226 98.8172 59.9091 98.6971 60.1525 98.6374C61.0129 98.4266 62.1903 98.3584 62.8421 98.3207C62.937 98.3152 63.0208 98.3103 63.0908 98.3057C63.1595 98.3013 63.2207 98.2973 63.2752 98.2935C63.3025 98.2542 63.3366 98.2008 63.3765 98.1293C63.5104 97.8898 63.6464 97.5629 63.7716 97.1885C64.0255 96.4289 64.1805 95.6411 64.2064 95.3108L64.323 93.8247ZM60.9353 101.379C60.9353 101.379 60.9341 101.379 60.9321 101.377C60.9344 101.379 60.9354 101.379 60.9353 101.379ZM64.0209 100.294L64.011 100.299L63.8385 100.322C63.6732 100.344 63.4541 100.358 63.2528 100.371C63.2436 100.372 63.2344 100.372 63.2252 100.373C63.1341 100.379 63.0345 100.385 62.9284 100.391C62.8651 100.395 62.7995 100.399 62.732 100.403C62.8078 100.568 62.8537 100.741 62.8688 100.915C62.8937 101.077 62.8837 101.218 62.8737 101.306C62.8722 101.319 62.8707 101.331 62.8691 101.343C62.8797 101.341 62.8905 101.338 62.9013 101.335L63.1381 102.344L62.9013 101.335C63.4143 101.215 63.8765 101.211 64.2805 101.268C64.2633 101.212 64.2458 101.157 64.2282 101.101C64.2213 101.079 64.2139 101.056 64.206 101.032C64.1461 100.846 64.0617 100.584 64.0209 100.294ZM64.5236 102.459C64.5236 102.459 64.5235 102.457 64.5237 102.452C64.5238 102.457 64.5237 102.459 64.5236 102.459Z" fill="#6A5D4A"/>
<path fill-rule="evenodd" clip-rule="evenodd" d="M66.1702 85.4291C66.6168 85.0718 67.2685 85.1442 67.6258 85.5909C67.6752 85.6526 67.7268 85.7177 67.7806 85.7856C68.4285 86.6033 69.415 87.8483 71.0845 88.9168C72.8756 90.0631 75.5071 91.0349 79.4042 90.885L79.4838 92.9548C75.1734 93.1206 72.1229 92.0406 69.968 90.6615C67.9966 89.3998 66.8203 87.9114 66.1635 87.0803C66.1082 87.0103 66.0565 86.945 66.0084 86.8848C65.6511 86.4382 65.7235 85.7864 66.1702 85.4291Z" fill="#6A5D4A"/>
<path d="M48.9798 74.828C49.2072 74.5248 50.8857 72.7896 52.3417 71.6934C52.9995 72.8445 54.1186 72.8924 54.6325 72.7725C54.3755 73.9544 54.6154 74.691 54.9408 75.3419C53.5019 76.6986 50.7099 77.4831 49.3909 77.8086C46.7701 78.4552 48.6715 75.2391 48.9798 74.828Z" fill="#6A5D4A"/>
<path fill-rule="evenodd" clip-rule="evenodd" d="M52.6575 70.1592L53.2407 71.1797C53.4352 71.5202 53.6677 71.6609 53.8658 71.7264C54.0912 71.8009 54.304 71.7858 54.3969 71.7641L55.9923 71.3919L55.6443 72.9927C55.4491 73.8905 55.6198 74.3847 55.8669 74.879L56.2112 75.5675L55.6511 76.0956C54.7854 76.9119 53.5787 77.5054 52.4967 77.9271C51.3941 78.3568 50.3174 78.6468 49.6388 78.8142C48.9189 78.9919 47.9884 79.0465 47.3902 78.3466C47.109 78.0176 47.0152 77.6364 46.9943 77.3284C46.9735 77.0228 47.019 76.7256 47.0797 76.473C47.2011 75.9685 47.4282 75.4634 47.6253 75.0824C47.8215 74.7032 48.0278 74.3712 48.151 74.2068C48.322 73.9789 48.8582 73.4144 49.4802 72.8135C50.1245 72.1909 50.9424 71.4505 51.7185 70.8662L52.6575 70.1592ZM49.8085 75.4491C49.812 75.4448 49.8383 75.4124 49.9006 75.343L49.8085 75.4491ZM49.9006 75.343C49.9622 75.2742 50.0446 75.1852 50.1456 75.0793L49.9006 75.343ZM50.1456 75.0793C50.3472 74.8679 50.6138 74.5983 50.9194 74.3031L50.1456 75.0793ZM50.9194 74.3031C51.3109 73.9248 51.7565 73.514 52.2039 73.1333L50.9194 74.3031ZM52.2039 73.1333C52.6131 73.4766 53.0622 73.6708 53.4887 73.7684C53.4945 74.2387 53.572 74.6487 53.6889 75.0176C53.1523 75.3837 52.4734 75.7131 51.7446 75.9972C50.7617 76.3802 49.7829 76.6452 49.1426 76.8032C49.1404 76.8038 49.1383 76.8043 49.1361 76.8048C49.2108 76.5664 49.3305 76.2942 49.465 76.0342C49.544 75.8815 49.6218 75.745 49.6869 75.6377C49.7194 75.5841 49.7476 75.5396 49.77 75.5054C49.7812 75.4884 49.7904 75.4749 49.7974 75.4647M48.7469 76.8569C48.7473 76.8564 48.7535 76.8568 48.7641 76.8595C48.7518 76.8587 48.7465 76.8574 48.7469 76.8569Z" fill="#6A5D4A"/>
<path d="M57.3785 71.3229C57.5758 71.8994 58.203 72.2068 58.7794 72.0096C59.3559 71.8124 59.6633 71.1852 59.4661 70.6087C59.2689 70.0323 58.6417 69.7248 58.0652 69.922C57.4887 70.1193 57.1813 70.7465 57.3785 71.3229Z" fill="#6A5D4A"/>
<defs>
<clipPath id="clip0_2527_6640">
<rect width="56.4706" height="9.41177" fill="white" transform="translate(6.11768 40)"/>
</clipPath>
</defs>
</svg>
