<svg width="238" height="59" viewBox="0 0 238 59" fill="none" xmlns="http://www.w3.org/2000/svg">
<path d="M96.2163 15.5679C96.2163 15.3435 97.1127 12.9202 98.9055 8.29789C100.745 3.67558 101.76 1.27467 101.948 1.09516C102.137 0.870778 102.302 0.736148 102.444 0.691271C102.633 0.601517 102.892 0.556641 103.222 0.556641C103.411 0.556641 103.741 0.601517 104.213 0.691271C104.732 1.18492 104.992 1.90294 104.992 2.84536C104.992 3.24925 104.944 3.85509 104.85 4.66287C104.708 5.24627 104.638 5.8521 104.638 6.48038C104.638 6.92915 104.756 7.15353 104.992 7.15353C105.275 7.15353 105.888 6.90671 106.832 6.41306C107.822 5.91942 108.671 5.53797 109.379 5.2687C110.087 4.95457 110.842 4.7975 111.644 4.7975C112.304 4.7975 112.894 4.97701 113.413 5.33602C113.932 5.65016 114.191 6.09893 114.191 6.68232C114.191 7.35548 113.531 8.11838 112.21 8.97104C110.889 9.77882 109.073 10.7437 106.761 11.8656C106.478 12.0002 105.864 12.3144 104.921 12.808C103.977 13.2568 103.34 13.6158 103.01 13.8851C102.727 14.1094 102.467 14.4236 102.232 14.8275C101.996 15.2314 101.831 15.5006 101.736 15.6352C101.312 16.3982 100.911 16.9816 100.533 17.3854C100.156 17.7893 99.7075 17.9913 99.1885 17.9913C98.4337 17.9913 97.7496 17.7669 97.1363 17.3181C96.5229 16.8245 96.2163 16.2411 96.2163 15.5679ZM82.8411 7.62474C82.8411 6.95158 83.1005 6.36819 83.6195 5.87454C84.1857 5.3809 84.8226 5.13407 85.5303 5.13407C86.5682 5.13407 87.5354 5.71747 88.4318 6.88427C89.3753 8.05107 89.9179 9.17299 90.0594 10.25C90.1538 10.8783 90.2481 11.3271 90.3425 11.5963C90.4369 11.8207 90.7199 12.1124 91.1917 12.4714C91.9938 13.01 92.3948 13.5036 92.3948 13.9524C92.3948 14.6255 92.2061 15.0967 91.8286 15.366C91.4984 15.6352 90.9322 15.8821 90.1302 16.1065C89.1866 16.3757 88.5497 16.6899 88.2195 17.0489C87.9364 17.3181 87.5354 18.6644 87.0164 21.0878C86.5446 23.5111 86.3087 25.0594 86.3087 25.7325C86.7333 25.7325 87.2759 25.6428 87.9364 25.4633C88.1251 25.4184 88.3374 25.3735 88.5733 25.3286C88.8564 25.2838 89.1866 25.2613 89.5641 25.2613C90.7435 25.2613 91.4512 26.0915 91.6871 27.752C91.923 29.3675 92.0409 31.2973 92.0409 33.5411C92.0409 35.381 91.9702 36.9966 91.8286 38.3878C91.6871 39.779 91.404 41.1253 90.9794 42.4267C90.8851 42.696 90.602 43.5711 90.1302 45.052C89.7056 46.488 89.0923 47.6997 88.2902 48.687C87.4882 49.6743 86.6154 50.1679 85.6718 50.1679C84.3508 50.1679 83.3836 49.8987 82.7703 49.3602C82.2042 48.8665 81.9211 48.0139 81.9211 46.8022C81.9211 46.3534 82.0154 46.0393 82.2042 45.8598C82.3929 45.6803 82.7231 45.5905 83.1949 45.5905C83.6667 45.5905 83.9969 45.6803 84.1857 45.8598C84.3744 46.0393 84.4923 46.129 84.5395 46.129C84.7282 46.129 84.8933 45.9944 85.0349 45.7251C85.2236 45.411 85.318 45.2315 85.318 45.1866C87.2051 41.417 88.1487 37.1312 88.1487 32.3294C88.1487 29.9061 87.842 28.6944 87.2287 28.6944C86.9456 28.6944 86.5446 28.9412 86.0256 29.4349C85.5539 29.8388 85.1528 30.4222 84.8226 31.1851C84.4923 31.948 84.1385 32.9577 83.7611 34.2142C83.1477 36.0093 82.5816 37.4678 82.0626 38.5897C81.5908 39.6668 80.9303 40.6092 80.0811 41.417C79.5621 41.9106 79.1139 42.1574 78.7365 42.1574C78.2175 42.1574 77.8873 42.0452 77.7458 41.8209C77.6042 41.5516 77.5334 41.1477 77.5334 40.6092C77.5334 38.8141 78.2411 35.5605 79.6565 30.8485C81.119 26.0915 82.4636 22.0526 83.6903 18.7317H83.7611L83.6903 18.3279C82.3693 18.3279 80.8831 18.7766 79.2319 19.6742C78.7129 19.6742 78.2883 19.4722 77.9581 19.0683C77.675 18.6644 77.5334 18.2157 77.5334 17.722C77.5334 17.1386 78.0288 16.5552 79.0196 15.9718C80.0103 15.3884 81.3785 14.7153 83.1241 13.9524C83.36 13.8626 83.7611 13.6831 84.3272 13.4138C84.8933 13.1446 85.2944 12.9202 85.5303 12.7407C85.8133 12.5612 85.9549 12.4266 85.9549 12.3368C85.9549 11.8432 85.8369 11.4617 85.601 11.1924C85.3651 10.8783 84.9641 10.4744 84.398 9.98077C83.879 9.532 83.478 9.15055 83.1949 8.83641C82.959 8.4774 82.8411 8.0735 82.8411 7.62474ZM96.6409 25.396C96.6409 24.1394 97.5373 22.6136 99.3301 20.8185C101.17 19.0234 103.27 17.4528 105.628 16.1065C107.987 14.7601 109.827 14.087 111.148 14.087C111.95 14.087 112.564 14.3114 112.988 14.7601C113.413 15.164 113.625 15.7474 113.625 16.5103C113.625 17.3181 113.13 18.1259 112.139 18.9337C111.148 19.7415 109.78 20.6614 108.035 21.6936C107.28 22.1424 106.548 22.6136 105.841 23.1072C105.133 23.556 104.638 23.9599 104.355 24.3189L104.992 23.9823C105.133 25.0594 105.204 26.1364 105.204 27.2135C105.204 31.5216 104.661 35.583 103.576 39.3975C103.529 39.6219 103.411 39.9809 103.222 40.4746C103.081 40.9682 103.01 41.417 103.01 41.8209L103.152 42.1574C103.435 42.0228 103.93 41.7311 104.638 41.2823C105.345 40.8336 105.959 40.6092 106.478 40.6092C107.044 40.6092 107.516 40.8336 107.893 41.2823C108.27 41.6862 108.459 42.1574 108.459 42.696C108.459 43.1896 108.129 43.7281 107.468 44.3115C106.855 44.85 106.006 45.4334 104.921 46.0617C103.788 46.7797 103.104 47.2734 102.868 47.5427C102.633 47.767 102.397 48.0587 102.161 48.4178C101.972 48.7768 101.831 49.0236 101.736 49.1582C101.453 49.6967 101.217 50.1006 101.029 50.3699C100.368 51.2225 99.8019 51.8733 99.3301 52.322C98.8583 52.8157 98.3865 53.0625 97.9147 53.0625C96.9239 53.0625 96.287 52.6586 96.004 51.8508C95.7209 51.0879 95.5794 50.1231 95.5794 48.9563C95.5794 47.9241 95.6973 46.9368 95.9332 45.9944C96.2163 45.0071 96.6173 43.7954 97.1363 42.3594L97.9855 39.7341C98.5044 38.0737 99.1414 35.7849 99.8962 32.8679C100.698 29.9061 101.099 28.0212 101.099 27.2135L100.958 26.8096L100.675 26.7423C100.439 26.7423 100.085 26.8769 99.6132 27.1461C99.1414 27.3705 98.7403 27.4827 98.4101 27.4827C97.8911 27.4827 97.4665 27.2583 97.1363 26.8096C96.806 26.3608 96.6409 25.8896 96.6409 25.396ZM105.77 35.2913C105.77 34.9323 106.029 34.5284 106.548 34.0796C107.115 33.586 107.445 33.2943 107.539 33.2045C108.011 32.8455 108.931 31.746 110.299 29.9061C112.186 27.5725 113.649 25.8672 114.687 24.7901C115.725 23.6682 116.574 23.1072 117.234 23.1072C117.942 23.1072 118.603 23.4214 119.216 24.0496C119.876 24.633 120.207 25.2613 120.207 25.9345C120.207 26.2486 119.617 26.9891 118.438 28.1559C117.305 29.2778 115.725 30.7363 113.696 32.5314C111.95 34.0123 111.078 34.8201 111.078 34.9547C111.078 35.1342 111.219 35.2688 111.502 35.3586C111.785 35.4484 111.95 35.4932 111.998 35.4932C113.083 35.8522 115.041 36.7947 117.871 38.3205C120.702 39.8463 123.344 41.417 125.797 43.0325C128.298 44.6481 129.784 45.8373 130.256 46.6002C130.633 47.1836 130.822 47.9241 130.822 48.8216C130.822 49.1358 130.728 49.4724 130.539 49.8314C130.397 50.1904 130.185 50.3699 129.902 50.3699C129.666 50.3699 129.359 50.325 128.982 50.2353C128.51 50.1455 127.449 49.5397 125.797 48.4178C124.193 47.3407 123.108 46.6227 122.542 46.2637C119.806 44.334 117.966 43.1447 117.022 42.696L115.253 41.7535C113.036 40.6765 111.172 39.7117 109.662 38.859C108.2 38.0063 107.162 37.2434 106.548 36.5703C106.501 36.5254 106.36 36.3683 106.124 36.0991C105.888 35.8298 105.77 35.5605 105.77 35.2913Z" fill="#6A5D4A"/>
<path d="M150.425 12.0002C150.425 12.2246 150.425 12.7407 150.425 13.5485C150.472 14.3563 150.307 14.9621 149.929 15.366C149.552 15.7699 148.915 15.9718 148.019 15.9718C147.311 15.9718 146.792 15.6577 146.462 15.0294C146.179 14.3563 145.943 13.6607 145.754 12.9426C145.613 12.1797 145.495 11.6412 145.4 11.3271L143.348 11.1251C141.838 10.9456 140.659 10.8559 139.81 10.8559L138.253 10.9232C137.168 10.9232 136.625 10.5193 136.625 9.71151C136.625 8.81397 137.05 8.23057 137.899 7.96131C138.795 7.64718 140.069 7.42279 141.72 7.28816C142.475 7.24328 143.183 7.17597 143.843 7.08622C144.551 6.95158 145.07 6.77208 145.4 6.54769C145.683 6.36819 145.872 6.09893 145.966 5.73991C146.108 5.3809 146.226 4.88725 146.32 4.25898C146.462 3.31656 146.627 2.64341 146.816 2.23952C147.051 1.79075 147.523 1.56637 148.231 1.56637C148.561 1.56637 148.868 1.63368 149.151 1.76831C149.387 2.08245 149.599 2.95755 149.788 4.39361C149.882 5.33602 149.977 5.96429 150.071 6.27843C153.609 6.27843 155.756 6.1438 156.511 5.87454C156.888 5.73991 157.171 5.51553 157.36 5.20139C157.596 4.84238 157.903 4.28142 158.28 3.51851C158.61 2.71073 158.941 2.10489 159.271 1.701C159.601 1.25223 160.049 1.02785 160.615 1.02785C160.851 1.02785 161.04 1.14004 161.182 1.36442C161.323 2.30684 161.394 3.72045 161.394 5.60528L163.517 5.53797C166.065 5.53797 167.338 6.12136 167.338 7.28816C167.338 8.14082 166.937 8.70178 166.135 8.97104C165.38 9.2403 164.272 9.44225 162.809 9.57688C161.677 9.66663 160.922 9.77882 160.545 9.91345C160.12 10.093 159.766 10.3847 159.483 10.7886C159.2 11.1924 158.87 11.731 158.492 12.4041C157.973 13.2568 157.549 13.8851 157.219 14.2889C156.935 14.648 156.534 14.8275 156.015 14.8275C155.685 14.8275 155.284 14.7377 154.812 14.5582C154.388 14.0646 154.175 13.526 154.175 12.9426C154.175 12.7183 154.246 12.4266 154.388 12.0675C154.576 11.6636 154.671 11.372 154.671 11.1924C154.671 10.8783 154.553 10.6988 154.317 10.6539C154.128 10.5642 153.845 10.5193 153.468 10.5193C152.571 10.5193 151.84 10.609 151.274 10.7886C150.708 10.9681 150.425 11.3719 150.425 12.0002ZM155.803 54.2069C154.293 54.2069 152.949 53.9825 151.769 53.5337C150.59 53.0849 150 52.2547 150 51.043C150 48.126 150.307 45.3437 150.92 42.696C151.062 42.0677 151.18 41.215 151.274 40.138C151.368 38.4775 151.604 37.2434 151.982 36.4356C152.17 36.0766 152.265 35.7849 152.265 35.5605L152.123 35.3586C151.699 35.4932 150.755 36.2786 149.292 37.7146C147.83 39.1058 146.839 40.0482 146.32 40.5419C143.867 42.9203 141.909 44.7603 140.446 46.0617C139.031 47.3183 138.064 47.9465 137.545 47.9465C137.12 47.9465 136.743 47.8119 136.413 47.5427C136.082 47.2734 135.917 46.9368 135.917 46.5329C135.917 45.5456 137.238 43.5037 139.88 40.4072C142.569 37.2659 144.693 34.9771 146.249 33.5411C147.099 32.7333 147.688 32.105 148.019 31.6563C147.547 31.1177 146.886 30.7363 146.037 30.5119C145.896 30.5568 145.329 30.7363 144.339 31.0504C143.395 31.3646 142.428 31.5216 141.437 31.5216C140.116 31.5216 139.456 31.1177 139.456 30.31C139.456 29.3227 139.81 28.6046 140.517 28.1559C141.272 27.7071 142.357 27.2808 143.773 26.8769C145.046 26.5179 145.99 26.1813 146.603 25.8672C147.217 25.5081 147.523 24.9472 147.523 24.1843C147.523 23.8701 147.24 23.7131 146.674 23.7131C146.155 23.7131 145.424 23.8028 144.48 23.9823C143.537 24.1618 142.805 24.2516 142.286 24.2516C141.909 24.2516 141.532 24.0496 141.154 23.6458C140.777 23.197 140.588 22.7931 140.588 22.4341C140.588 21.4019 140.989 20.6839 141.791 20.28C142.593 19.8761 143.773 19.562 145.329 19.3376C146.226 19.203 146.957 19.0683 147.523 18.9337C148.089 18.7991 148.538 18.5971 148.868 18.3279C148.962 18.1483 149.151 17.7893 149.434 17.2508C149.764 16.6674 150.118 16.2411 150.496 15.9718C150.92 15.7026 151.416 15.5679 151.982 15.5679C152.548 15.5679 152.949 15.7923 153.185 16.2411C153.421 16.645 153.539 17.1386 153.539 17.722C154.01 18.1259 155.284 18.3279 157.36 18.3279C158.681 18.3279 159.507 18.3727 159.837 18.4625C160.214 18.5522 160.474 18.7317 160.615 19.001C160.851 19.4498 161.205 19.8312 161.677 20.1454L163.234 20.078C164.083 20.078 164.72 20.4371 165.145 21.1551C165.097 21.4692 164.72 21.918 164.012 22.5014C163.682 22.8155 163.375 23.1297 163.092 23.4438C162.856 23.7579 162.738 24.0496 162.738 24.3189C162.738 24.5433 162.809 24.7228 162.951 24.8574C163.139 24.9472 163.352 25.0369 163.588 25.1267C163.824 25.1716 163.965 25.194 164.012 25.194C164.484 25.2838 164.838 25.4184 165.074 25.5979C165.357 25.7325 165.498 25.9793 165.498 26.3384C165.498 27.0564 165.263 27.6398 164.791 28.0886C164.319 28.4925 163.706 28.6944 162.951 28.6944C161.441 28.6944 160.167 28.8963 159.129 29.3002C158.139 29.7041 157.266 30.2651 156.511 30.9831C155.803 31.6563 154.907 32.666 153.822 34.0123L153.892 34.0796H157.36H158.634C159.436 34.0796 160.026 34.1694 160.403 34.3489C161.394 34.7079 162.031 35.583 162.314 36.9742C162.597 38.3653 162.738 39.936 162.738 41.6862C162.738 43.9301 162.479 46.2412 161.96 48.6197C161.913 48.7992 161.889 49.046 161.889 49.3602C161.889 49.6294 161.936 49.9884 162.031 50.4372C162.172 50.886 162.243 51.2225 162.243 51.4469C162.243 52.524 161.535 53.242 160.12 53.601C158.752 54.0049 157.313 54.2069 155.803 54.2069ZM154.105 23.915C154.105 24.1394 154.152 24.3862 154.246 24.6555C154.341 24.8799 154.506 24.9921 154.742 24.9921C155.025 24.9921 155.591 24.6555 156.44 23.9823C157.336 23.2643 157.879 22.7482 158.068 22.4341C158.021 22.2546 157.808 22.1648 157.431 22.1648C155.213 22.1648 154.105 22.7482 154.105 23.915ZM156.157 41.1477C156.723 41.1477 157.289 41.058 157.855 40.8784C158.469 40.6989 158.775 40.4072 158.775 40.0033C158.775 39.7341 158.705 39.4873 158.563 39.2629C158.422 38.9936 158.209 38.859 157.926 38.859C157.502 38.859 156.959 39.0834 156.299 39.5321C155.685 39.936 155.379 40.3175 155.379 40.6765C155.379 40.9906 155.638 41.1477 156.157 41.1477ZM154.175 49.4275C154.694 49.4275 155.426 49.3153 156.369 49.0909C157.36 48.9114 157.95 48.687 158.139 48.4178C158.28 48.1934 158.351 47.9017 158.351 47.5427C158.351 47.1388 158.351 46.9144 158.351 46.8695C158.351 46.2861 158.256 45.8822 158.068 45.6578C157.926 45.3886 157.572 45.2539 157.006 45.2539C155.732 45.2539 154.93 45.5232 154.6 46.0617C154.317 46.5554 154.175 47.4753 154.175 48.8216V49.4275Z" fill="#6A5D4A"/>
<path d="M96.2163 15.5679C96.2163 15.3435 97.1127 12.9202 98.9055 8.29789C100.745 3.67558 101.76 1.27467 101.948 1.09516C102.137 0.870778 102.302 0.736148 102.444 0.691271C102.633 0.601517 102.892 0.556641 103.222 0.556641C103.411 0.556641 103.741 0.601517 104.213 0.691271C104.732 1.18492 104.992 1.90294 104.992 2.84536C104.992 3.24925 104.944 3.85509 104.85 4.66287C104.708 5.24627 104.638 5.8521 104.638 6.48038C104.638 6.92915 104.756 7.15353 104.992 7.15353C105.275 7.15353 105.888 6.90671 106.832 6.41306C107.822 5.91942 108.671 5.53797 109.379 5.2687C110.087 4.95457 110.842 4.7975 111.644 4.7975C112.304 4.7975 112.894 4.97701 113.413 5.33602C113.932 5.65016 114.191 6.09893 114.191 6.68232C114.191 7.35548 113.531 8.11838 112.21 8.97104C110.889 9.77882 109.073 10.7437 106.761 11.8656C106.478 12.0002 105.864 12.3144 104.921 12.808C103.977 13.2568 103.34 13.6158 103.01 13.8851C102.727 14.1094 102.467 14.4236 102.232 14.8275C101.996 15.2314 101.831 15.5006 101.736 15.6352C101.312 16.3982 100.911 16.9816 100.533 17.3854C100.156 17.7893 99.7075 17.9913 99.1885 17.9913C98.4337 17.9913 97.7496 17.7669 97.1363 17.3181C96.5229 16.8245 96.2163 16.2411 96.2163 15.5679ZM82.8411 7.62474C82.8411 6.95158 83.1005 6.36819 83.6195 5.87454C84.1857 5.3809 84.8226 5.13407 85.5303 5.13407C86.5682 5.13407 87.5354 5.71747 88.4318 6.88427C89.3753 8.05107 89.9179 9.17299 90.0594 10.25C90.1538 10.8783 90.2481 11.3271 90.3425 11.5963C90.4369 11.8207 90.7199 12.1124 91.1917 12.4714C91.9938 13.01 92.3948 13.5036 92.3948 13.9524C92.3948 14.6255 92.2061 15.0967 91.8286 15.366C91.4984 15.6352 90.9322 15.8821 90.1302 16.1065C89.1866 16.3757 88.5497 16.6899 88.2195 17.0489C87.9364 17.3181 87.5354 18.6644 87.0164 21.0878C86.5446 23.5111 86.3087 25.0594 86.3087 25.7325C86.7333 25.7325 87.2759 25.6428 87.9364 25.4633C88.1251 25.4184 88.3374 25.3735 88.5733 25.3286C88.8564 25.2838 89.1866 25.2613 89.5641 25.2613C90.7435 25.2613 91.4512 26.0915 91.6871 27.752C91.923 29.3675 92.0409 31.2973 92.0409 33.5411C92.0409 35.381 91.9702 36.9966 91.8286 38.3878C91.6871 39.779 91.404 41.1253 90.9794 42.4267C90.8851 42.696 90.602 43.5711 90.1302 45.052C89.7056 46.488 89.0923 47.6997 88.2902 48.687C87.4882 49.6743 86.6154 50.1679 85.6718 50.1679C84.3508 50.1679 83.3836 49.8987 82.7703 49.3602C82.2042 48.8665 81.9211 48.0139 81.9211 46.8022C81.9211 46.3534 82.0154 46.0393 82.2042 45.8598C82.3929 45.6803 82.7231 45.5905 83.1949 45.5905C83.6667 45.5905 83.9969 45.6803 84.1857 45.8598C84.3744 46.0393 84.4923 46.129 84.5395 46.129C84.7282 46.129 84.8933 45.9944 85.0349 45.7251C85.2236 45.411 85.318 45.2315 85.318 45.1866C87.2051 41.417 88.1487 37.1312 88.1487 32.3294C88.1487 29.9061 87.842 28.6944 87.2287 28.6944C86.9456 28.6944 86.5446 28.9412 86.0256 29.4349C85.5539 29.8388 85.1528 30.4222 84.8226 31.1851C84.4923 31.948 84.1385 32.9577 83.7611 34.2142C83.1477 36.0093 82.5816 37.4678 82.0626 38.5897C81.5908 39.6668 80.9303 40.6092 80.0811 41.417C79.5621 41.9106 79.1139 42.1574 78.7365 42.1574C78.2175 42.1574 77.8873 42.0452 77.7458 41.8209C77.6042 41.5516 77.5334 41.1477 77.5334 40.6092C77.5334 38.8141 78.2411 35.5605 79.6565 30.8485C81.119 26.0915 82.4636 22.0526 83.6903 18.7317H83.7611L83.6903 18.3279C82.3693 18.3279 80.8831 18.7766 79.2319 19.6742C78.7129 19.6742 78.2883 19.4722 77.9581 19.0683C77.675 18.6644 77.5334 18.2157 77.5334 17.722C77.5334 17.1386 78.0288 16.5552 79.0196 15.9718C80.0103 15.3884 81.3785 14.7153 83.1241 13.9524C83.36 13.8626 83.7611 13.6831 84.3272 13.4138C84.8933 13.1446 85.2944 12.9202 85.5303 12.7407C85.8133 12.5612 85.9549 12.4266 85.9549 12.3368C85.9549 11.8432 85.8369 11.4617 85.601 11.1924C85.3651 10.8783 84.9641 10.4744 84.398 9.98077C83.879 9.532 83.478 9.15055 83.1949 8.83641C82.959 8.4774 82.8411 8.0735 82.8411 7.62474ZM96.6409 25.396C96.6409 24.1394 97.5373 22.6136 99.3301 20.8185C101.17 19.0234 103.27 17.4528 105.628 16.1065C107.987 14.7601 109.827 14.087 111.148 14.087C111.95 14.087 112.564 14.3114 112.988 14.7601C113.413 15.164 113.625 15.7474 113.625 16.5103C113.625 17.3181 113.13 18.1259 112.139 18.9337C111.148 19.7415 109.78 20.6614 108.035 21.6936C107.28 22.1424 106.548 22.6136 105.841 23.1072C105.133 23.556 104.638 23.9599 104.355 24.3189L104.992 23.9823C105.133 25.0594 105.204 26.1364 105.204 27.2135C105.204 31.5216 104.661 35.583 103.576 39.3975C103.529 39.6219 103.411 39.9809 103.222 40.4746C103.081 40.9682 103.01 41.417 103.01 41.8209L103.152 42.1574C103.435 42.0228 103.93 41.7311 104.638 41.2823C105.345 40.8336 105.959 40.6092 106.478 40.6092C107.044 40.6092 107.516 40.8336 107.893 41.2823C108.27 41.6862 108.459 42.1574 108.459 42.696C108.459 43.1896 108.129 43.7281 107.468 44.3115C106.855 44.85 106.006 45.4334 104.921 46.0617C103.788 46.7797 103.104 47.2734 102.868 47.5427C102.633 47.767 102.397 48.0587 102.161 48.4178C101.972 48.7768 101.831 49.0236 101.736 49.1582C101.453 49.6967 101.217 50.1006 101.029 50.3699C100.368 51.2225 99.8019 51.8733 99.3301 52.322C98.8583 52.8157 98.3865 53.0625 97.9147 53.0625C96.9239 53.0625 96.287 52.6586 96.004 51.8508C95.7209 51.0879 95.5794 50.1231 95.5794 48.9563C95.5794 47.9241 95.6973 46.9368 95.9332 45.9944C96.2163 45.0071 96.6173 43.7954 97.1363 42.3594L97.9855 39.7341C98.5044 38.0737 99.1414 35.7849 99.8962 32.8679C100.698 29.9061 101.099 28.0212 101.099 27.2135L100.958 26.8096L100.675 26.7423C100.439 26.7423 100.085 26.8769 99.6132 27.1461C99.1414 27.3705 98.7403 27.4827 98.4101 27.4827C97.8911 27.4827 97.4665 27.2583 97.1363 26.8096C96.806 26.3608 96.6409 25.8896 96.6409 25.396ZM105.77 35.2913C105.77 34.9323 106.029 34.5284 106.548 34.0796C107.115 33.586 107.445 33.2943 107.539 33.2045C108.011 32.8455 108.931 31.746 110.299 29.9061C112.186 27.5725 113.649 25.8672 114.687 24.7901C115.725 23.6682 116.574 23.1072 117.234 23.1072C117.942 23.1072 118.603 23.4214 119.216 24.0496C119.876 24.633 120.207 25.2613 120.207 25.9345C120.207 26.2486 119.617 26.9891 118.438 28.1559C117.305 29.2778 115.725 30.7363 113.696 32.5314C111.95 34.0123 111.078 34.8201 111.078 34.9547C111.078 35.1342 111.219 35.2688 111.502 35.3586C111.785 35.4484 111.95 35.4932 111.998 35.4932C113.083 35.8522 115.041 36.7947 117.871 38.3205C120.702 39.8463 123.344 41.417 125.797 43.0325C128.298 44.6481 129.784 45.8373 130.256 46.6002C130.633 47.1836 130.822 47.9241 130.822 48.8216C130.822 49.1358 130.728 49.4724 130.539 49.8314C130.397 50.1904 130.185 50.3699 129.902 50.3699C129.666 50.3699 129.359 50.325 128.982 50.2353C128.51 50.1455 127.449 49.5397 125.797 48.4178C124.193 47.3407 123.108 46.6227 122.542 46.2637C119.806 44.334 117.966 43.1447 117.022 42.696L115.253 41.7535C113.036 40.6765 111.172 39.7117 109.662 38.859C108.2 38.0063 107.162 37.2434 106.548 36.5703C106.501 36.5254 106.36 36.3683 106.124 36.0991C105.888 35.8298 105.77 35.5605 105.77 35.2913Z" stroke="#6A5D4A" stroke-width="0.5"/>
<path d="M150.425 12.0002C150.425 12.2246 150.425 12.7407 150.425 13.5485C150.472 14.3563 150.307 14.9621 149.929 15.366C149.552 15.7699 148.915 15.9718 148.019 15.9718C147.311 15.9718 146.792 15.6577 146.462 15.0294C146.179 14.3563 145.943 13.6607 145.754 12.9426C145.613 12.1797 145.495 11.6412 145.4 11.3271L143.348 11.1251C141.838 10.9456 140.659 10.8559 139.81 10.8559L138.253 10.9232C137.168 10.9232 136.625 10.5193 136.625 9.71151C136.625 8.81397 137.05 8.23057 137.899 7.96131C138.795 7.64718 140.069 7.42279 141.72 7.28816C142.475 7.24328 143.183 7.17597 143.843 7.08622C144.551 6.95158 145.07 6.77208 145.4 6.54769C145.683 6.36819 145.872 6.09893 145.966 5.73991C146.108 5.3809 146.226 4.88725 146.32 4.25898C146.462 3.31656 146.627 2.64341 146.816 2.23952C147.051 1.79075 147.523 1.56637 148.231 1.56637C148.561 1.56637 148.868 1.63368 149.151 1.76831C149.387 2.08245 149.599 2.95755 149.788 4.39361C149.882 5.33602 149.977 5.96429 150.071 6.27843C153.609 6.27843 155.756 6.1438 156.511 5.87454C156.888 5.73991 157.171 5.51553 157.36 5.20139C157.596 4.84238 157.903 4.28142 158.28 3.51851C158.61 2.71073 158.941 2.10489 159.271 1.701C159.601 1.25223 160.049 1.02785 160.615 1.02785C160.851 1.02785 161.04 1.14004 161.182 1.36442C161.323 2.30684 161.394 3.72045 161.394 5.60528L163.517 5.53797C166.065 5.53797 167.338 6.12136 167.338 7.28816C167.338 8.14082 166.937 8.70178 166.135 8.97104C165.38 9.2403 164.272 9.44225 162.809 9.57688C161.677 9.66663 160.922 9.77882 160.545 9.91345C160.12 10.093 159.766 10.3847 159.483 10.7886C159.2 11.1924 158.87 11.731 158.492 12.4041C157.973 13.2568 157.549 13.8851 157.219 14.2889C156.935 14.648 156.534 14.8275 156.015 14.8275C155.685 14.8275 155.284 14.7377 154.812 14.5582C154.388 14.0646 154.175 13.526 154.175 12.9426C154.175 12.7183 154.246 12.4266 154.388 12.0675C154.576 11.6636 154.671 11.372 154.671 11.1924C154.671 10.8783 154.553 10.6988 154.317 10.6539C154.128 10.5642 153.845 10.5193 153.468 10.5193C152.571 10.5193 151.84 10.609 151.274 10.7886C150.708 10.9681 150.425 11.3719 150.425 12.0002ZM155.803 54.2069C154.293 54.2069 152.949 53.9825 151.769 53.5337C150.59 53.0849 150 52.2547 150 51.043C150 48.126 150.307 45.3437 150.92 42.696C151.062 42.0677 151.18 41.215 151.274 40.138C151.368 38.4775 151.604 37.2434 151.982 36.4356C152.17 36.0766 152.265 35.7849 152.265 35.5605L152.123 35.3586C151.699 35.4932 150.755 36.2786 149.292 37.7146C147.83 39.1058 146.839 40.0482 146.32 40.5419C143.867 42.9203 141.909 44.7603 140.446 46.0617C139.031 47.3183 138.064 47.9465 137.545 47.9465C137.12 47.9465 136.743 47.8119 136.413 47.5427C136.082 47.2734 135.917 46.9368 135.917 46.5329C135.917 45.5456 137.238 43.5037 139.88 40.4072C142.569 37.2659 144.693 34.9771 146.249 33.5411C147.099 32.7333 147.688 32.105 148.019 31.6563C147.547 31.1177 146.886 30.7363 146.037 30.5119C145.896 30.5568 145.329 30.7363 144.339 31.0504C143.395 31.3646 142.428 31.5216 141.437 31.5216C140.116 31.5216 139.456 31.1177 139.456 30.31C139.456 29.3227 139.81 28.6046 140.517 28.1559C141.272 27.7071 142.357 27.2808 143.773 26.8769C145.046 26.5179 145.99 26.1813 146.603 25.8672C147.217 25.5081 147.523 24.9472 147.523 24.1843C147.523 23.8701 147.24 23.7131 146.674 23.7131C146.155 23.7131 145.424 23.8028 144.48 23.9823C143.537 24.1618 142.805 24.2516 142.286 24.2516C141.909 24.2516 141.532 24.0496 141.154 23.6458C140.777 23.197 140.588 22.7931 140.588 22.4341C140.588 21.4019 140.989 20.6839 141.791 20.28C142.593 19.8761 143.773 19.562 145.329 19.3376C146.226 19.203 146.957 19.0683 147.523 18.9337C148.089 18.7991 148.538 18.5971 148.868 18.3279C148.962 18.1483 149.151 17.7893 149.434 17.2508C149.764 16.6674 150.118 16.2411 150.496 15.9718C150.92 15.7026 151.416 15.5679 151.982 15.5679C152.548 15.5679 152.949 15.7923 153.185 16.2411C153.421 16.645 153.539 17.1386 153.539 17.722C154.01 18.1259 155.284 18.3279 157.36 18.3279C158.681 18.3279 159.507 18.3727 159.837 18.4625C160.214 18.5522 160.474 18.7317 160.615 19.001C160.851 19.4498 161.205 19.8312 161.677 20.1454L163.234 20.078C164.083 20.078 164.72 20.4371 165.145 21.1551C165.097 21.4692 164.72 21.918 164.012 22.5014C163.682 22.8155 163.375 23.1297 163.092 23.4438C162.856 23.7579 162.738 24.0496 162.738 24.3189C162.738 24.5433 162.809 24.7228 162.951 24.8574C163.139 24.9472 163.352 25.0369 163.588 25.1267C163.824 25.1716 163.965 25.194 164.012 25.194C164.484 25.2838 164.838 25.4184 165.074 25.5979C165.357 25.7325 165.498 25.9793 165.498 26.3384C165.498 27.0564 165.263 27.6398 164.791 28.0886C164.319 28.4925 163.706 28.6944 162.951 28.6944C161.441 28.6944 160.167 28.8963 159.129 29.3002C158.139 29.7041 157.266 30.2651 156.511 30.9831C155.803 31.6563 154.907 32.666 153.822 34.0123L153.892 34.0796H157.36H158.634C159.436 34.0796 160.026 34.1694 160.403 34.3489C161.394 34.7079 162.031 35.583 162.314 36.9742C162.597 38.3653 162.738 39.936 162.738 41.6862C162.738 43.9301 162.479 46.2412 161.96 48.6197C161.913 48.7992 161.889 49.046 161.889 49.3602C161.889 49.6294 161.936 49.9884 162.031 50.4372C162.172 50.886 162.243 51.2225 162.243 51.4469C162.243 52.524 161.535 53.242 160.12 53.601C158.752 54.0049 157.313 54.2069 155.803 54.2069ZM154.105 23.915C154.105 24.1394 154.152 24.3862 154.246 24.6555C154.341 24.8799 154.506 24.9921 154.742 24.9921C155.025 24.9921 155.591 24.6555 156.44 23.9823C157.336 23.2643 157.879 22.7482 158.068 22.4341C158.021 22.2546 157.808 22.1648 157.431 22.1648C155.213 22.1648 154.105 22.7482 154.105 23.915ZM156.157 41.1477C156.723 41.1477 157.289 41.058 157.855 40.8784C158.469 40.6989 158.775 40.4072 158.775 40.0033C158.775 39.7341 158.705 39.4873 158.563 39.2629C158.422 38.9936 158.209 38.859 157.926 38.859C157.502 38.859 156.959 39.0834 156.299 39.5321C155.685 39.936 155.379 40.3175 155.379 40.6765C155.379 40.9906 155.638 41.1477 156.157 41.1477ZM154.175 49.4275C154.694 49.4275 155.426 49.3153 156.369 49.0909C157.36 48.9114 157.95 48.687 158.139 48.4178C158.28 48.1934 158.351 47.9017 158.351 47.5427C158.351 47.1388 158.351 46.9144 158.351 46.8695C158.351 46.2861 158.256 45.8822 158.068 45.6578C157.926 45.3886 157.572 45.2539 157.006 45.2539C155.732 45.2539 154.93 45.5232 154.6 46.0617C154.317 46.5554 154.175 47.4753 154.175 48.8216V49.4275Z" stroke="#6A5D4A" stroke-width="0.5"/>
<g clip-path="url(#clip0_2680_8454)">
<path d="M25.3976 57.1209C24.6769 54.3707 24.4223 53.3638 24.307 52.9838L24.2878 52.8674C24.0476 51.357 22.9041 49.039 21.4051 48.6092C20.6292 48.3883 19.8773 48.6757 19.1687 49.4641L19.1519 49.4855C18.215 50.8226 17.845 52.3948 17.4895 53.9171C17.2726 55.005 16.9508 56.0699 16.5286 57.0971C16.4327 57.3437 16.4396 57.6179 16.5479 57.8595C16.601 57.9782 16.6777 58.0852 16.7735 58.1742C16.8692 58.2631 16.982 58.3321 17.1052 58.3772C17.218 58.4296 17.3409 58.4571 17.4655 58.458C17.5904 58.4594 17.7138 58.4317 17.8258 58.3772C18.6017 57.9972 18.9885 56.3752 19.3008 55.0713C19.3969 54.6676 19.481 54.3114 19.5578 54.0834H22.5222L23.4518 57.6648C23.4848 57.7917 23.5427 57.911 23.6223 58.0158C23.7019 58.1206 23.8016 58.2088 23.9157 58.2755C24.0298 58.3423 24.156 58.3861 24.2873 58.4046C24.4185 58.423 24.5521 58.4158 24.6805 58.3832C24.8089 58.3506 24.9296 58.2933 25.0356 58.2146C25.1416 58.1359 25.2309 58.0374 25.2983 57.9246C25.3658 57.8118 25.4102 57.6869 25.4288 57.5572C25.4475 57.4274 25.4402 57.2953 25.4072 57.1684L25.3976 57.1209ZM21.936 52.0861H20.0839C20.5187 50.73 20.855 50.6136 20.9559 50.6112C21.0568 50.6089 21.3979 50.6944 21.936 52.0861Z" fill="#695C4A"/>
<path d="M8.72165 47.8199C8.46477 47.7986 8.20939 47.8753 8.00792 48.0343C7.80645 48.1933 7.67418 48.4225 7.63826 48.6749V48.6986C7.63826 48.9242 7.58781 49.366 7.53736 49.8861C7.19385 53.363 6.93441 57.1343 8.18836 57.8991C8.32891 57.9674 8.48336 58.0031 8.63998 58.0036C8.78511 57.9996 8.92766 57.9648 9.05796 57.9014C12.7141 56.239 14.5254 53.952 14.0281 51.6103C13.5933 49.5702 11.4602 48.0455 8.72165 47.8199ZM9.34142 55.5265C9.29271 53.6816 9.35367 51.8355 9.52399 49.9977C11.0854 50.4727 11.9983 51.2422 12.1064 52.1589C12.2289 53.211 11.2248 54.4341 9.34142 55.5265Z" fill="#695C4A"/>
<path d="M29.8849 47.2954C29.5394 47.245 29.1865 47.2818 28.8592 47.4022C27.8166 47.7846 27.1584 48.5303 27.1416 49.3497C27.1248 50.1286 27.6845 50.8364 28.6862 51.3066C28.5853 51.8291 28.5949 53.1187 28.6502 55.5126C28.667 56.2251 28.691 57.2154 28.667 57.3294V57.3627V57.3817C28.6612 57.5169 28.6832 57.6519 28.7318 57.7785C28.7803 57.9051 28.8543 58.0206 28.9494 58.1181C29.0444 58.2155 29.1585 58.2929 29.2847 58.3454C29.4109 58.398 29.5465 58.4247 29.6834 58.4239C29.8204 58.4231 29.9557 58.3948 30.0812 58.3408C30.2068 58.2867 30.3199 58.208 30.4138 58.1094C30.5076 58.0109 30.5803 57.8945 30.6273 57.7674C30.6743 57.6402 30.6947 57.505 30.6873 57.3698V57.3389V57.3128C30.6704 57.2178 30.6753 56.3794 30.6873 55.6218C30.7089 52.8717 30.6873 51.7436 30.5936 51.2876C31.6554 50.7533 32.2127 49.9292 32.0902 49.0647C31.946 48.1646 31.086 47.4687 29.8849 47.2954ZM29.8657 49.3592C29.7792 49.4185 29.6879 49.4755 29.6111 49.5207C29.5102 49.4708 29.4309 49.4233 29.3709 49.3829C29.4525 49.3425 29.5414 49.3045 29.6351 49.2689C29.7216 49.3022 29.8008 49.3307 29.8657 49.352V49.3592Z" fill="#695C4A"/>
<path d="M47.1736 47.1975C46.9302 47.0878 46.6527 47.0779 46.4019 47.1701C46.1511 47.2622 45.9475 47.4488 45.8356 47.6891L44.5144 50.5603L43.1547 47.7104C43.0329 47.4837 42.8275 47.312 42.5811 47.2309C42.3346 47.1498 42.0661 47.1656 41.8311 47.2749C41.5961 47.3841 41.4127 47.5786 41.3188 47.818C41.2248 48.0574 41.2277 48.3233 41.3266 48.5607L43.5295 53.1656L43.5559 57.279C43.547 57.4461 43.5846 57.6124 43.6646 57.7598C43.7447 57.9072 43.8641 58.03 44.0099 58.115C44.1773 58.2075 44.3658 58.2561 44.5576 58.2561C44.7494 58.2561 44.938 58.2075 45.1053 58.115C45.2521 58.0304 45.3724 57.9073 45.453 57.7594C45.5335 57.6114 45.5712 57.4444 45.5617 57.2766L45.5425 53.1514L47.6733 48.5179C47.7841 48.2769 47.7937 48.0024 47.7 47.7544C47.6064 47.5064 47.4171 47.3053 47.1736 47.1951V47.1975Z" fill="#695C4A"/>
<path d="M37.1324 47.1719C36.9999 47.1728 36.8689 47.1995 36.7468 47.2505C36.6248 47.3015 36.5141 47.3758 36.4211 47.4691C36.3281 47.5623 36.2545 47.6728 36.2047 47.7942C36.1549 47.9156 36.1297 48.0455 36.1307 48.1765L36.1907 57.3318C36.1945 57.5964 36.3035 57.8489 36.4941 58.0346C36.6847 58.2204 36.9416 58.3245 37.2093 58.3245C37.4769 58.3214 37.7324 58.2138 37.92 58.0251C38.1077 57.8365 38.2123 57.5821 38.211 57.3175L38.1437 48.1646C38.1412 47.9008 38.0336 47.6487 37.8443 47.4629C37.655 47.277 37.3992 47.1725 37.1324 47.1719Z" fill="#695C4A"/>
<path d="M53.1383 51.1954C52.7928 50.997 52.4004 50.8926 52.0009 50.8926C51.6013 50.8926 51.2089 50.997 50.8634 51.1954C50.0971 51.6371 49.6623 52.4921 49.6743 53.537C49.6863 54.582 50.0971 55.437 50.8634 55.8835C51.2087 56.0825 51.6012 56.1874 52.0009 56.1874C52.4005 56.1874 52.793 56.0825 53.1383 55.8835C53.907 55.4417 54.3394 54.5868 54.3274 53.5418C54.3154 52.4968 53.907 51.6371 53.1383 51.1954ZM51.697 53.5299C51.6781 53.4166 51.688 53.3004 51.7257 53.1918C51.7634 53.0832 51.8278 52.9856 51.9132 52.9077C51.9404 52.8903 51.9721 52.8811 52.0045 52.8811C52.0368 52.8811 52.0685 52.8903 52.0957 52.9077C52.2375 52.9908 52.3215 53.2331 52.3095 53.5465C52.3287 53.66 52.3192 53.7764 52.2819 53.8854C52.2446 53.9943 52.1807 54.0925 52.0957 54.1712C52.0685 54.1885 52.0368 54.1978 52.0045 54.1978C51.9721 54.1978 51.9404 54.1885 51.9132 54.1712C51.769 54.088 51.6874 53.8482 51.697 53.5323V53.5299Z" fill="#695C4A"/>
<path d="M73.951 49.1264L73.9246 48.9198C73.9299 48.7347 73.8956 48.5506 73.824 48.3796C73.7524 48.2085 73.645 48.0543 73.509 47.927C73.3996 47.8352 73.2707 47.7687 73.1318 47.7325C72.993 47.6964 72.8477 47.6914 72.7067 47.7181C71.7122 47.9437 71.8515 48.8058 71.9524 49.4327C71.9788 49.6037 72.0076 49.7795 72.0173 49.9457V49.9742C72.1181 51.0334 72.3007 52.9666 71.9812 54.0116C71.5728 53.7005 71.3302 53.0783 71.114 52.5249C70.833 51.8124 70.5423 51.0596 69.8721 51.0596C69.1802 51.0216 68.8704 51.7127 68.5244 52.4703C68.253 53.0688 67.9455 53.7385 67.4458 54.0116C67.1215 52.8408 67.4699 50.9242 67.7053 49.6346V49.6037C67.7317 49.4636 67.7557 49.3306 67.7677 49.2451C67.8325 49.0778 67.8616 48.899 67.8533 48.7201C67.8451 48.5411 67.7996 48.3657 67.7197 48.2049C67.6532 48.0842 67.5609 47.9793 67.4494 47.8973C67.3378 47.8153 67.2096 47.7582 67.0735 47.7299C66.938 47.6981 66.7973 47.6953 66.6606 47.7215C66.5239 47.7477 66.3944 47.8024 66.2808 47.8819C66.1638 47.9611 66.0648 48.0634 65.99 48.1823C65.9151 48.3013 65.8661 48.4343 65.846 48.573C65.5909 49.7289 65.4184 50.901 65.3295 52.0808C65.0484 54.014 65.625 55.5838 66.7708 55.9875C67.7317 56.3272 68.8415 55.75 69.7568 54.4367C70.2516 55.2798 71.2413 56.1134 72.2599 56.1134C72.7619 56.1134 73.4418 55.8759 73.8333 54.8476C74.4171 53.1685 74.148 50.8316 73.951 49.1264Z" fill="#695C4A"/>
<path d="M62.3388 48.0793H55.3892C55.2524 48.0727 55.1157 48.0937 54.9873 48.1409C54.8589 48.1881 54.7416 48.2606 54.6424 48.3539C54.5433 48.4473 54.4643 48.5597 54.4104 48.6841C54.3564 48.8086 54.3286 48.9426 54.3286 49.078C54.3286 49.2134 54.3564 49.3474 54.4104 49.4718C54.4643 49.5963 54.5433 49.7086 54.6424 49.802C54.7416 49.8954 54.8589 49.9679 54.9873 50.0151C55.1157 50.0623 55.2524 50.0832 55.3892 50.0766H57.8539V56.1422C57.8472 56.2774 57.8684 56.4126 57.9161 56.5395C57.9639 56.6664 58.0372 56.7824 58.1316 56.8804C58.2261 56.9785 58.3397 57.0566 58.4656 57.1099C58.5915 57.1632 58.727 57.1907 58.864 57.1907C59.0009 57.1907 59.1365 57.1632 59.2624 57.1099C59.3882 57.0566 59.5019 56.9785 59.5963 56.8804C59.6908 56.7824 59.7641 56.6664 59.8119 56.5395C59.8596 56.4126 59.8808 56.2774 59.8741 56.1422V50.0766H62.3388C62.5982 50.0641 62.8427 49.9534 63.0218 49.7675C63.2009 49.5816 63.3008 49.3347 63.3008 49.078C63.3008 48.8212 63.2009 48.5743 63.0218 48.3884C62.8427 48.2025 62.5982 48.0918 62.3388 48.0793Z" fill="#695C4A"/>
</g>
<path d="M221.518 48.899C222.492 47.9077 224.46 47.8148 225.322 47.8922C226.007 47.9537 226.615 48.7441 226.691 49.1313C226.766 49.511 226.691 51.6868 225.702 52.6935C224.713 53.7002 224.028 53.1581 224.713 52.074C225.398 50.9898 224.561 51.0371 224.257 51.2221C224.1 51.3175 223.344 51.8675 222.887 52.074C222.355 52.6935 220.513 52.1523 221.974 51.0371C223.435 49.922 222.887 49.6432 222.431 49.6432C221.645 49.8239 220.544 49.8902 221.518 48.899Z" fill="#6A5D4A"/>
<path d="M225.78 42.8794C226.754 41.8882 228.722 41.7953 229.585 41.8727C230.269 41.9342 230.878 42.7246 230.954 43.1118C231.029 43.4915 230.954 45.6673 229.965 46.674C228.976 47.6807 228.291 47.1386 228.976 46.0544C229.661 44.9703 228.824 45.0176 228.519 45.2026C228.363 45.2979 227.606 45.8479 227.15 46.0544C226.617 46.674 224.776 46.1327 226.237 45.0176C227.698 43.9025 227.15 43.6237 226.693 43.6237C225.907 43.8044 224.807 43.8706 225.78 42.8794Z" fill="#6A5D4A"/>
<path d="M231.867 47.3677C232.841 46.3765 234.809 46.2836 235.672 46.361C236.356 46.4225 236.965 47.2128 237.041 47.6C237.116 47.9797 237.041 50.1555 236.052 51.1622C235.063 52.1689 234.378 51.6269 235.063 50.5427C235.748 49.4586 234.911 49.5059 234.606 49.6909C234.45 49.7862 233.693 50.3362 233.237 50.5427C232.704 51.1622 230.863 50.621 232.324 49.5059C233.785 48.3908 233.237 48.112 232.78 48.112C231.994 48.2927 230.894 48.3589 231.867 47.3677Z" fill="#6A5D4A"/>
<path fill-rule="evenodd" clip-rule="evenodd" d="M201.956 30.9871C201.956 30.9872 201.957 30.9904 201.958 30.9963C201.956 30.99 201.956 30.987 201.956 30.9871ZM201.988 31.0888C202.99 28.9236 203.229 26.9937 202.865 25.3635C202.489 23.6788 201.49 22.4151 200.233 21.6192C197.79 20.0714 194.213 20.2266 192.193 22.5911C191.459 23.4494 190.805 24.8432 190.481 26.2138C189.867 26.7088 189.244 27.287 188.739 27.7835C188.178 28.3354 187.694 28.8539 187.54 29.0632C187.429 29.2141 187.243 29.5191 187.066 29.8674C186.888 30.2173 186.683 30.6812 186.573 31.1445C186.518 31.3765 186.477 31.6495 186.496 31.9302C186.499 31.9737 186.504 32.0187 186.51 32.065C185.521 32.2018 184.629 32.7294 184.149 33.5057C183.762 34.1303 183.65 34.9261 184.024 35.699C184.182 36.0269 184.414 36.3214 184.709 36.5838C184.367 36.9266 184.113 37.31 183.963 37.7334C183.65 38.6145 183.857 39.4769 184.325 40.1564C185.02 41.1633 186.313 41.8475 187.762 42.0258C187.757 42.1597 187.761 42.2936 187.775 42.4271C187.837 43.014 188.082 43.5248 188.438 43.9446C189.125 44.7564 190.224 45.2388 191.378 45.4766C193.389 45.8909 195.998 45.6523 198.228 44.5584C199.027 46.4988 200.346 47.9279 201.959 48.8444C201.873 49.1922 201.742 49.6329 201.576 50.0789C201.434 50.4623 201.281 50.8067 201.134 51.0631C201.079 51.1599 201.033 51.2276 201 51.2736C200.95 51.2771 200.894 51.2808 200.831 51.285C200.768 51.2892 200.692 51.2937 200.606 51.2987C200.018 51.3334 198.956 51.396 198.179 51.5897C197.96 51.6444 197.701 51.7547 197.493 51.9749C197.267 52.213 197.12 52.5687 197.189 52.966C197.316 53.6991 197.992 53.943 198.351 53.9959C198.455 54.0113 198.539 54.024 198.602 54.0352C198.612 54.0371 198.621 54.0388 198.629 54.0402C198.656 54.0517 198.68 54.0619 198.702 54.0713C198.68 54.1337 198.654 54.2053 198.623 54.2871C198.387 54.9099 198.489 55.6667 199.094 56.1031C199.665 56.5146 200.373 56.4115 200.886 56.0619C200.98 55.9978 201.054 55.9519 201.106 55.9225C201.116 55.9173 201.123 55.9131 201.13 55.9098C201.351 55.8627 201.535 55.8693 201.69 55.8963C201.89 55.931 202.056 56.0005 202.247 56.0838L202.262 56.0903C202.331 56.1205 202.439 56.168 202.543 56.2017L202.545 56.2023C202.627 56.2287 202.906 56.3195 203.226 56.227C203.679 56.096 203.883 55.7238 203.95 55.4585C204.005 55.2431 203.995 55.032 203.984 54.8992C203.927 54.2037 203.76 53.6658 203.643 53.2916L203.639 53.2777C203.582 53.0952 203.549 52.9858 203.529 52.8957C203.521 52.8573 203.518 52.8353 203.517 52.8258C203.577 52.4093 203.843 51.4843 204.156 50.6232C204.268 50.3144 204.378 50.036 204.475 49.8134C204.85 49.899 205.233 49.9634 205.621 50.0065C206.759 50.1331 207.946 50.0785 209.139 49.8462C209.338 50.0749 209.562 50.3597 209.752 50.6536C209.904 50.8904 210.016 51.1044 210.08 51.2777C210.094 51.3172 210.105 51.3505 210.112 51.3778C210.082 51.4222 210.047 51.4725 210.008 51.5298C209.915 51.6638 209.781 51.8345 209.612 52.051C209.524 52.1629 209.427 52.2871 209.321 52.4249C209.035 52.7948 208.703 53.2417 208.465 53.6636C208.345 53.8751 208.246 54.1565 208.272 54.4768C208.299 54.8215 208.471 55.1444 208.768 55.3499C209.318 55.7315 209.935 55.5246 210.278 55.2978C210.309 55.2769 210.34 55.2566 210.369 55.2371C210.441 55.1892 210.507 55.1458 210.563 55.1087C210.603 55.0827 210.635 55.0618 210.66 55.0462C210.68 55.0332 210.688 55.028 210.689 55.0278C210.744 54.9966 210.787 54.9728 210.821 54.9543C210.845 54.9788 210.872 55.0074 210.903 55.0404C211.027 55.1725 211.182 55.3487 211.353 55.5494C211.726 55.9869 212.389 56.3484 213.081 56.0437C213.809 55.7228 213.967 54.9413 213.858 54.3538C213.842 54.2682 213.829 54.193 213.821 54.1274C213.816 54.0951 213.813 54.067 213.811 54.0428C213.933 53.8773 214.065 53.7574 214.192 53.6647C214.344 53.5546 214.491 53.4811 214.651 53.403C214.656 53.4005 214.661 53.3979 214.667 53.3952C214.735 53.3622 214.848 53.3069 214.944 53.2458C214.999 53.2109 215.091 53.1482 215.18 53.0537C215.271 52.9586 215.407 52.7814 215.454 52.5184C215.561 51.9312 215.154 51.5758 215.071 51.5052C214.937 51.3926 214.78 51.3043 214.656 51.2393C214.133 50.9649 213.735 50.7918 213.44 50.6631L213.438 50.6622C213.217 50.5661 213.094 50.5117 213 50.4599C212.921 50.4165 212.896 50.3925 212.882 50.378C212.637 50.114 212.361 49.5946 212.05 48.995L212.042 48.979C212.035 48.9647 212.027 48.9503 212.02 48.9359C213.46 48.301 214.856 47.4028 216.131 46.2477C217.184 46.0401 218.051 45.3783 218.435 44.406C218.738 43.6388 218.698 42.7896 218.338 41.9825C218.846 41.6564 219.388 41.2209 219.784 40.7074C220.13 40.2602 220.449 39.6425 220.397 38.9158C220.371 38.5497 220.255 38.2132 220.067 37.9075C220.299 37.7035 220.509 37.4975 220.691 37.2918C221.054 36.8824 221.403 36.3668 221.483 35.7905C221.527 35.4775 221.491 35.1358 221.323 34.8134C221.158 34.4962 220.904 34.2721 220.632 34.1191C220.119 33.8307 219.436 33.7327 218.68 33.7327C217.104 33.7327 215.986 34.1067 215.049 34.4494C214.988 34.4715 214.929 34.4933 214.87 34.5147C214.029 34.8235 213.413 35.0494 212.63 35.0541C212.115 35.0224 211.555 34.8768 210.914 34.6517C210.502 34.5072 210.105 34.3484 209.68 34.1785C209.408 34.0699 209.126 33.9569 208.821 33.8402C207.356 33.2798 205.631 32.7378 203.699 33.0216C203.647 32.9979 203.564 32.9513 203.454 32.8711C203.211 32.6945 202.925 32.4216 202.658 32.1063C202.389 31.7902 202.174 31.4723 202.049 31.224C202.022 31.1694 202.002 31.1245 201.988 31.0888ZM203.742 33.0376C203.742 33.0377 203.74 33.0372 203.736 33.0359C203.739 33.0368 203.742 33.0375 203.742 33.0376ZM211.928 52.0229L211.848 52.1564C211.77 52.2872 211.656 52.452 211.551 52.6035L211.536 52.6243C211.454 52.7433 211.343 52.89 211.222 53.0461C211.42 53.0943 211.601 53.1795 211.766 53.285C211.845 53.3356 211.926 53.4023 212.002 53.472C212.031 53.3726 212.074 53.2702 212.134 53.1712C212.319 52.8688 212.526 52.6244 212.735 52.4254C212.724 52.4207 212.713 52.416 212.702 52.4113C212.679 52.4012 212.656 52.391 212.632 52.3807C212.411 52.2854 212.164 52.1785 211.928 52.0229ZM210.272 47.5815C211.937 47.0174 213.595 46.045 215.078 44.6513L215.306 44.4368L215.615 44.4041C216.227 44.3394 216.574 44.0185 216.701 43.6966C216.822 43.3906 216.825 42.8721 216.296 42.2354L215.467 41.2358L216.657 40.7411C217.118 40.5494 217.905 40.0625 218.315 39.532C218.514 39.274 218.538 39.1183 218.533 39.0543C218.531 39.0252 218.516 38.8509 218.134 38.571L217.067 37.7895L218.143 37.0204C218.651 36.6572 219.041 36.314 219.303 36.0184C219.406 35.9015 219.482 35.8001 219.536 35.7158C219.369 35.674 219.097 35.6351 218.68 35.6351C217.427 35.6351 216.551 35.9218 215.68 36.2399C215.609 36.266 215.536 36.2926 215.463 36.3196C214.654 36.619 213.74 36.9565 212.605 36.9565H212.58L212.555 36.9552C211.779 36.9129 211.02 36.7014 210.304 36.4501C209.865 36.2958 209.394 36.108 208.936 35.9251C208.671 35.8196 208.411 35.7157 208.163 35.6208C206.732 35.0732 205.36 34.6799 203.894 34.9155C203.551 34.9706 203.24 34.8841 203.018 34.7934C202.785 34.6981 202.564 34.5625 202.367 34.4191C201.972 34.1318 201.579 33.7453 201.243 33.3497C200.908 32.9547 200.596 32.5101 200.384 32.0882C200.28 31.8791 200.183 31.6421 200.131 31.3976C200.083 31.1734 200.044 30.8076 200.219 30.4433C201.16 28.4853 201.3 26.9374 201.043 25.7851C200.787 24.6399 200.118 23.7866 199.246 23.2342C197.432 22.0852 194.912 22.3076 193.603 23.8394C193.12 24.405 192.6 25.4559 192.325 26.5475C192.45 26.6773 192.58 26.7459 192.697 26.7851C192.9 26.8536 193.092 26.8397 193.176 26.8198L194.616 26.4779L194.302 27.9481C194.125 28.7726 194.279 29.2266 194.502 29.6805L194.813 30.3129L194.308 30.7979C194.26 30.844 194.21 30.8893 194.16 30.9339C194.703 31.1994 195.375 31.4281 196.173 31.5774C197.272 31.7827 198.285 32.0462 198.848 32.9167C199.122 33.3388 199.234 33.818 199.289 34.2936C199.344 34.7662 199.35 35.3272 199.35 35.9582V36.044L199.335 36.1283C199.244 36.6423 199.166 37.8174 199.195 39.1669C199.224 40.5152 199.357 41.9205 199.638 42.9158C200.246 45.0611 201.547 46.5459 203.233 47.377L203.4 47.4562C203.57 47.5365 203.853 47.6434 204.093 47.7285C204.186 47.7613 204.264 47.7883 204.318 47.8062C204.334 47.8109 204.351 47.8161 204.368 47.8219C204.834 47.9618 205.321 48.0596 205.824 48.1154C206.908 48.236 208.066 48.159 209.237 47.88C209.673 47.7668 210.018 47.6643 210.272 47.5815ZM201.67 53.1113L201.661 53.1158L201.506 53.1367C201.356 53.1567 201.159 53.1697 200.977 53.1817L200.952 53.1834C200.87 53.1888 200.78 53.1943 200.684 53.2001C200.617 53.2043 200.546 53.2086 200.474 53.2131C200.521 53.3075 200.563 53.4113 200.596 53.5255C200.659 53.7389 200.647 53.9322 200.635 54.0408C200.634 54.0522 200.632 54.0635 200.631 54.0748C200.64 54.0722 200.65 54.0698 200.66 54.0674C201.123 53.9568 201.54 53.9534 201.904 54.0052C201.889 53.9541 201.873 53.9032 201.857 53.8524C201.851 53.8325 201.844 53.8112 201.837 53.7887C201.783 53.6182 201.707 53.3778 201.67 53.1113ZM202.124 55.0996C202.124 55.0994 202.124 55.0972 202.124 55.0932C202.124 55.0978 202.124 55.0998 202.124 55.0996ZM192.537 29.8079C192.432 29.469 192.362 29.0925 192.356 28.6606C191.972 28.571 191.566 28.3925 191.197 28.0773C190.793 28.4269 190.391 28.8042 190.038 29.1516C189.762 29.4228 189.522 29.6703 189.34 29.8646C189.249 29.9618 189.174 30.0435 189.119 30.1067C189.063 30.1704 189.039 30.2002 189.036 30.2042C189.035 30.2046 189.035 30.2047 189.035 30.2046C189.035 30.2046 189.032 30.2088 189.026 30.2185C189.019 30.2278 189.011 30.2402 189.001 30.2559C188.981 30.2872 188.955 30.3281 188.926 30.3773C188.867 30.4759 188.797 30.6013 188.726 30.7415C188.604 30.9803 188.496 31.2303 188.429 31.4493C188.431 31.4488 188.433 31.4483 188.435 31.4478C189.012 31.3027 189.896 31.0593 190.783 30.7075C191.221 30.5336 191.639 30.3412 192.013 30.1326C192.025 30.1257 192.037 30.119 192.049 30.1126C192.222 30.0145 192.386 29.9128 192.537 29.8079ZM188.078 31.4971C188.078 31.4967 188.084 31.497 188.093 31.4995C188.082 31.4987 188.077 31.4975 188.078 31.4971ZM197.668 42.7155C197.446 41.6182 197.351 40.3481 197.326 39.2082C197.308 38.3709 197.328 37.562 197.374 36.8977C194.412 36.8281 192.973 36.4505 191.766 35.8759C191.388 35.6961 191.065 35.5169 190.742 35.3378C189.939 34.8929 189.137 34.4484 187.506 33.9971C186.691 33.7718 185.954 34.1586 185.73 34.5196C185.647 34.6537 185.647 34.7481 185.7 34.8585C185.776 35.0158 186.033 35.33 186.771 35.649L188.609 36.4432L186.833 37.3708C186.07 37.7689 185.802 38.1503 185.721 38.379C185.652 38.5731 185.669 38.7932 185.855 39.0635C186.272 39.6687 187.427 40.2761 188.88 40.1546L190.525 40.017L189.794 41.5234C189.643 41.8363 189.617 42.0647 189.634 42.2245C189.65 42.3807 189.714 42.5381 189.854 42.7031C190.157 43.0609 190.79 43.4145 191.749 43.6121C193.471 43.9669 195.787 43.7232 197.668 42.7155ZM197.468 34.997C194.618 34.9338 193.453 34.579 192.558 34.1527C192.301 34.0306 192.042 33.8869 191.757 33.7293C191.319 33.4868 190.822 33.2112 190.183 32.9301C190.585 32.8043 191.021 32.6547 191.461 32.48C191.761 32.3612 192.071 32.2275 192.38 32.0776C193.261 32.6997 194.438 33.1871 195.836 33.4484C197.025 33.6707 197.218 33.8556 197.288 33.9636C197.331 34.0309 197.393 34.1735 197.433 34.5161C197.449 34.6567 197.46 34.8151 197.468 34.997Z" fill="#6A5D4A"/>
<path d="M211.05 51.6622C211.226 50.8372 210.027 49.3588 209.452 48.8066C209.916 48.6864 210.287 48.5764 210.565 48.4856C210.844 48.3945 211.496 50.2706 212.203 51.0321C212.403 51.247 212.654 51.3563 213.07 51.5375L213.07 51.5375C213.362 51.6644 213.734 51.8267 214.228 52.0854C214.691 52.3286 214.579 52.3835 214.246 52.5465C214.085 52.625 213.874 52.7287 213.65 52.8906C213.406 53.0678 213.148 53.3146 212.928 53.6745C212.802 53.8793 212.908 54.4042 213.027 54.961C213.134 55.4667 212.668 55.6556 212.339 55.2605C211.884 54.7123 211.429 54.1936 211.268 54.0906C211.134 53.9813 210.74 53.8501 210.232 54.1989C210.155 54.2424 209.872 54.4335 209.596 54.6145C209.305 54.8055 209.024 54.6374 209.178 54.322C209.539 53.583 210.426 52.5782 210.772 52.0778C210.889 51.9087 210.988 51.7656 211.05 51.6622Z" fill="#6A5D4A"/>
<path fill-rule="evenodd" clip-rule="evenodd" d="M212.05 48.9957C212.361 49.5953 212.637 50.1147 212.882 50.3787C212.896 50.3932 212.92 50.4172 212.999 50.4606C213.094 50.5124 213.217 50.5668 213.437 50.6629L213.437 50.6629L213.439 50.6639C213.441 50.6644 213.442 50.665 213.443 50.6656L213.463 50.6741L213.463 50.6741C213.756 50.8017 214.146 50.9728 214.656 51.24C214.78 51.305 214.937 51.3933 215.07 51.5059C215.154 51.5765 215.561 51.9319 215.454 52.5191C215.406 52.7821 215.271 52.9593 215.18 53.0544C215.09 53.1489 214.999 53.2116 214.944 53.2465C214.848 53.3076 214.734 53.3629 214.667 53.3959C214.661 53.3986 214.656 53.4012 214.651 53.4037C214.491 53.4817 214.344 53.5552 214.192 53.6654C214.064 53.7581 213.932 53.878 213.811 54.0435C213.811 54.0539 213.813 54.065 213.814 54.0768C213.833 54.2485 213.879 54.4721 213.94 54.7602C214.057 55.3126 213.89 56.0367 213.205 56.3268C212.571 56.595 211.963 56.2812 211.626 55.8745C211.402 55.6052 211.184 55.3498 211.005 55.1528C210.93 55.0697 210.867 55.0019 210.816 54.9499C210.798 54.959 210.778 54.9712 210.754 54.9876L210.72 55.0106L210.685 55.0306C210.686 55.0297 210.687 55.0292 210.687 55.0293C210.687 55.0293 210.674 55.0376 210.639 55.0603C210.601 55.0842 210.554 55.1155 210.497 55.153C210.458 55.1785 210.415 55.2069 210.37 55.2371C210.286 55.293 210.193 55.3547 210.103 55.4137L209.603 54.6257L210.103 55.4137C209.774 55.6298 209.217 55.7888 208.712 55.4568C208.447 55.282 208.267 55.0032 208.215 54.6824C208.166 54.3783 208.24 54.1049 208.341 53.8986C208.568 53.4345 208.933 52.9316 209.243 52.5267C209.381 52.3457 209.506 52.1868 209.615 52.0467C209.781 51.8358 209.913 51.6675 210.008 51.5305C210.047 51.4732 210.082 51.4228 210.112 51.3785C210.105 51.3512 210.094 51.3179 210.08 51.2784C210.016 51.105 209.904 50.8911 209.751 50.6543C209.445 50.1791 209.049 49.7278 208.811 49.4985L207.574 48.3116L209.221 47.8848C209.669 47.7688 210.021 47.664 210.28 47.5798C210.852 47.3932 211.258 47.779 211.327 47.8455C211.457 47.9699 211.557 48.1166 211.623 48.2206C211.76 48.4353 211.908 48.7217 212.042 48.9798L212.05 48.9957ZM212.702 52.4119C212.679 52.4018 212.655 52.3917 212.632 52.3814C212.411 52.2861 212.164 52.1792 211.928 52.0235L211.848 52.1571C211.769 52.2879 211.655 52.4527 211.551 52.6042C211.546 52.6112 211.541 52.6181 211.536 52.625C211.454 52.7437 211.341 52.8936 211.216 53.0548C211.443 53.1007 211.647 53.1926 211.813 53.3174C211.882 53.3665 211.947 53.4221 212.001 53.4723C212.03 53.3758 212.072 53.2731 212.134 53.1718C212.319 52.8695 212.525 52.6251 212.735 52.4261C212.724 52.4214 212.713 52.4167 212.702 52.412L212.702 52.412C212.702 52.412 212.702 52.4119 212.702 52.4119Z" fill="#6A5D4A"/>
<path d="M201.574 52.1083C202.316 51.7307 202.897 49.3258 202.959 48.5234C203.269 48.6696 203.831 48.7934 204.046 48.8247C204.065 48.8121 204.083 48.808 204.099 48.8134C204.162 48.8349 204.132 48.8372 204.046 48.8247C203.721 49.036 202.911 51.6475 202.779 52.6274C202.747 52.8668 202.832 53.1375 202.938 53.4797C203.053 53.85 203.195 54.3041 203.243 54.8928C203.279 55.3307 203.135 55.2678 202.805 55.124L202.805 55.124C202.612 55.0402 202.357 54.9289 202.037 54.8733C201.761 54.8252 201.437 54.8189 201.064 54.908C200.951 54.9351 200.768 55.0417 200.556 55.1861C200.005 55.5615 199.447 55.1732 199.685 54.5434C199.829 54.162 199.932 53.8523 199.891 53.7129C199.892 53.5367 199.738 53.158 199.12 53.0524C199.061 53.0275 198.882 52.9997 198.675 52.9691C198.225 52.9029 198.151 52.5382 198.592 52.4282C199.379 52.232 200.528 52.1855 201.082 52.1488C201.284 52.1354 201.456 52.1241 201.574 52.1083Z" fill="#6A5D4A"/>
<path fill-rule="evenodd" clip-rule="evenodd" d="M202.133 47.084L203.353 47.6605C203.426 47.6952 203.576 47.7455 203.767 47.7949C203.873 47.8222 203.972 47.8442 204.049 47.8597C204.155 47.8556 204.271 47.869 204.394 47.9108L204.098 48.8132L204.394 47.9108C204.394 47.9109 204.395 47.911 204.395 47.9111C204.408 47.9152 204.518 47.9509 204.628 48.0213C204.66 48.0419 204.746 48.0992 204.833 48.1989C204.9 48.2768 205.133 48.573 205.05 49.0095C204.986 49.3475 204.778 49.5364 204.64 49.628C204.624 49.6631 204.606 49.7033 204.587 49.749C204.478 50.0023 204.353 50.3493 204.228 50.7354C203.975 51.5138 203.764 52.3335 203.707 52.7402C203.708 52.7496 203.711 52.7717 203.719 52.8101C203.739 52.9002 203.772 53.0096 203.829 53.1921L203.833 53.2061C203.95 53.5802 204.117 54.1182 204.174 54.8136C204.185 54.9464 204.195 55.1575 204.14 55.373C204.073 55.6382 203.869 56.0105 203.416 56.1414C203.096 56.2339 202.816 56.1432 202.735 56.1168L202.733 56.1161C202.629 56.0824 202.521 56.0349 202.451 56.0047C202.446 56.0024 202.441 56.0003 202.437 55.9982L202.437 55.9982C202.245 55.9149 202.08 55.8455 201.88 55.8107C201.725 55.7837 201.541 55.7772 201.32 55.8242C201.313 55.8275 201.305 55.8317 201.296 55.837C201.243 55.8663 201.17 55.9122 201.076 55.9763C200.563 56.3259 199.855 56.429 199.284 56.0176C198.679 55.5811 198.577 54.8243 198.813 54.2016C198.845 54.1164 198.872 54.0424 198.895 53.9782L198.862 53.9726L198.819 53.9547C198.812 53.9532 198.802 53.9516 198.792 53.9496C198.729 53.9385 198.645 53.9257 198.541 53.9103C198.182 53.8575 197.506 53.6135 197.379 52.8804C197.31 52.4832 197.457 52.1274 197.683 51.8894C197.891 51.6692 198.15 51.5589 198.369 51.5041C199.146 51.3105 200.208 51.2478 200.796 51.2132C200.882 51.2081 200.958 51.2036 201.021 51.1995C201.083 51.1954 201.138 51.1917 201.187 51.1882C201.212 51.1522 201.243 51.1031 201.279 51.0374C201.399 50.8174 201.522 50.5173 201.635 50.1734C201.864 49.4757 202.004 48.7522 202.027 48.4489L202.133 47.084ZM199.076 54.0223C199.076 54.0223 199.075 54.0218 199.073 54.0205C199.075 54.0216 199.076 54.0222 199.076 54.0223ZM201.86 53.0257L201.851 53.0303L201.695 53.0511C201.546 53.0711 201.349 53.0842 201.167 53.0962C201.159 53.0967 201.15 53.0973 201.142 53.0978C201.06 53.1032 200.97 53.1087 200.874 53.1146C200.817 53.1181 200.758 53.1217 200.697 53.1255C200.765 53.2775 200.807 53.4365 200.82 53.5956C200.843 53.7449 200.834 53.8738 200.825 53.9552C200.824 53.9666 200.822 53.978 200.821 53.9892C200.83 53.9867 200.84 53.9842 200.85 53.9819L201.063 54.9078L200.85 53.9819C201.313 53.8712 201.73 53.8678 202.094 53.9197C202.079 53.8685 202.063 53.8177 202.047 53.7668C202.041 53.7469 202.034 53.7256 202.027 53.7032C201.973 53.5327 201.897 53.2923 201.86 53.0257ZM202.314 55.0141C202.314 55.014 202.314 55.0117 202.314 55.0075C202.314 55.012 202.314 55.0141 202.314 55.0141Z" fill="#6A5D4A"/>
<path fill-rule="evenodd" clip-rule="evenodd" d="M203.799 39.3686C204.203 39.0405 204.791 39.107 205.113 39.5172C205.158 39.5739 205.204 39.6336 205.253 39.6961C205.837 40.447 206.727 41.5904 208.234 42.5718C209.85 43.6246 212.225 44.5171 215.741 44.3794L215.813 46.2804C211.924 46.4326 209.171 45.4407 207.226 44.1741C205.448 43.0153 204.386 41.6484 203.794 40.8851C203.744 40.8208 203.697 40.7608 203.654 40.7056C203.331 40.2954 203.396 39.6968 203.799 39.3686Z" fill="#6A5D4A"/>
<path d="M188.287 29.6348C188.493 29.3563 190.007 27.7627 191.321 26.7559C191.915 27.8131 192.924 27.8571 193.388 27.747C193.156 28.8325 193.373 29.509 193.666 30.1068C192.368 31.3528 189.849 32.0733 188.658 32.3722C186.294 32.9661 188.009 30.0124 188.287 29.6348Z" fill="#6A5D4A"/>
<path fill-rule="evenodd" clip-rule="evenodd" d="M191.606 25.3457L192.133 26.283C192.308 26.5957 192.518 26.7249 192.697 26.7851C192.9 26.8535 193.092 26.8396 193.176 26.8197L194.616 26.4778L194.302 27.9481C194.125 28.7726 194.279 29.2265 194.502 29.6804L194.813 30.3128L194.308 30.7979C193.526 31.5475 192.438 32.0926 191.461 32.4799C190.466 32.8746 189.495 33.1409 188.882 33.2947C188.233 33.4578 187.393 33.508 186.853 32.8652C186.6 32.5631 186.515 32.213 186.496 31.9301C186.477 31.6494 186.518 31.3764 186.573 31.1444C186.683 30.6811 186.888 30.2172 187.066 29.8673C187.243 29.5191 187.429 29.2141 187.54 29.0631C187.694 28.8538 188.178 28.3353 188.739 27.7835C189.321 27.2117 190.059 26.5317 190.759 25.995L191.606 25.3457ZM189.036 30.2041C189.039 30.2001 189.062 30.1703 189.119 30.1066L189.036 30.2041ZM189.119 30.1066C189.174 30.0435 189.249 29.9617 189.34 29.8645L189.119 30.1066ZM189.34 29.8645C189.522 29.6703 189.762 29.4227 190.038 29.1516L189.34 29.8645ZM190.038 29.1516C190.391 28.8041 190.793 28.4268 191.197 28.0772L190.038 29.1516ZM191.197 28.0772C191.566 28.3925 191.972 28.5709 192.356 28.6605C192.362 29.0924 192.432 29.469 192.537 29.8078C192.053 30.144 191.44 30.4466 190.783 30.7074C189.896 31.0592 189.012 31.3026 188.435 31.4478C188.433 31.4482 188.431 31.4487 188.429 31.4492C188.496 31.2302 188.604 30.9803 188.726 30.7414C188.797 30.6012 188.867 30.4758 188.926 30.3773C188.955 30.3281 188.981 30.2872 189.001 30.2558C189.011 30.2402 189.019 30.2277 189.026 30.2184M188.078 31.497C188.078 31.4966 188.084 31.497 188.093 31.4994C188.082 31.4987 188.077 31.4975 188.078 31.497Z" fill="#6A5D4A"/>
<path d="M195.866 26.4134C196.044 26.9428 196.61 27.2252 197.131 27.0441C197.651 26.8629 197.928 26.2869 197.75 25.7575C197.572 25.228 197.006 24.9457 196.486 25.1268C195.966 25.3079 195.689 25.884 195.866 26.4134Z" fill="#6A5D4A"/>
<path fill-rule="evenodd" clip-rule="evenodd" d="M2.63944 41.2162C2.33938 40.8116 1.90869 40.3719 1.36454 39.8984C0.909358 39.4088 0.567033 38.9567 0.327934 38.5421C0.111144 38.1663 0 37.7465 0 37.2702C0.000142231 37.2678 0.00189528 37.2388 0.0224452 37.1754C0.0437659 37.1097 0.0802291 37.0226 0.137737 36.9118C0.253295 36.6892 0.436358 36.4043 0.696827 36.0531L0.72385 36.0166L0.744805 35.9763C0.845316 35.7826 1.0008 35.5076 1.21477 35.1469C1.44048 34.7664 1.60746 34.4009 1.68246 34.0599C1.91866 33.2484 2.02355 32.0426 2.02355 30.4875C2.02355 24.1155 2.18463 18.8123 2.50562 14.5743C2.56571 14.197 2.61875 13.3045 2.67066 11.9547C2.72318 10.5888 2.9065 9.39055 3.21388 8.35435C3.36222 7.85425 3.53774 7.53845 3.71037 7.35468C3.86822 7.18664 4.02885 7.12078 4.21779 7.12078C4.49792 7.12078 4.87566 7.241 5.36671 7.57209L5.39198 7.58912L5.41891 7.60327C5.88675 7.84906 6.17441 8.08585 6.33616 8.29557C6.34804 8.49856 6.38311 8.70253 6.46495 8.87989C6.52166 9.00279 6.61031 9.13349 6.74817 9.23308C6.89129 9.33647 7.05364 9.38169 7.21266 9.38169C7.31767 9.38169 7.40094 9.34949 7.41198 9.34522C7.43833 9.33543 7.46022 9.32525 7.47336 9.31892C7.50089 9.30566 7.52848 9.29056 7.55181 9.27738C7.60032 9.24995 7.66255 9.21246 7.73528 9.16743C7.88226 9.07641 8.09211 8.94217 8.36283 8.76616C8.90524 8.41351 9.70339 7.88588 10.7561 7.18393L10.7638 7.17857C12.7646 5.79497 15.1345 5.09375 17.8971 5.09375C20.0437 5.09375 21.6234 5.53636 22.7062 6.34759C23.7726 7.14645 24.4268 8.35515 24.6281 10.0515C25.167 14.6191 25.4335 18.0743 25.4335 20.4304C25.4335 21.7692 25.3799 23.6835 25.2721 26.1756C25.1641 28.7761 25.1097 30.735 25.1097 32.0468C25.1097 34.2544 24.6675 36.2168 23.7952 37.9466L23.7921 37.9531C23.4023 38.7507 22.8859 39.3248 22.2493 39.7039C21.6101 40.0845 20.815 40.2888 19.8397 40.2888C19.5272 40.2888 19.1971 40.1971 18.8426 39.9865C18.4892 39.7423 18.0782 39.4209 17.6086 39.0188C17.1133 38.5947 16.6656 38.2437 16.2668 37.9694L15.8961 37.7143L15.5915 38.0077L9.57448 39.6852L9.56593 39.6878C8.72289 39.9376 7.98652 40.5181 7.3459 41.3565C6.94459 41.8382 6.56143 42.1775 6.20022 42.3949L6.18574 42.4037L6.17181 42.4132C5.9336 42.5771 5.47709 42.7057 4.70345 42.7057C4.23607 42.7057 3.87518 42.6163 3.59793 42.465C3.41838 42.3601 3.23903 42.195 3.06581 41.9485C2.85401 41.5913 2.73165 41.3782 2.68742 41.293L2.66647 41.2526L2.63944 41.2162ZM7.30241 18.3786L8.72661 18.5033H8.75056C9.07949 18.5033 9.53042 18.4037 10.0599 18.2468C10.6045 18.0854 11.2855 17.8465 12.0993 17.5331C13.4121 17.059 14.1421 16.8199 14.3584 16.7782L14.3708 16.7758L14.3831 16.7729C14.7776 16.6779 15.4487 16.5768 16.4175 16.4732L16.4318 16.4716L16.446 16.4693C16.9402 16.39 17.351 16.3088 17.6722 16.2244C17.9677 16.1468 18.2572 16.0499 18.4565 15.9082C18.9063 15.5975 19.2643 15.1619 19.2643 14.5832C19.2643 13.7418 19.2371 13.0216 19.181 12.4262C19.1267 11.7987 19.0716 11.2924 19.0152 10.9122L18.9841 10.7023L18.8253 10.5647C18.4588 10.2469 17.9618 10.0434 17.3888 9.91602C16.8103 9.78744 16.1131 9.72753 15.3069 9.72753C12.3885 9.72753 9.74045 10.5678 7.37891 12.2467L7.13113 12.4228L7.22232 15.3211L7.22402 15.3391C7.27534 15.8828 7.30241 16.7183 7.30241 17.8576V18.3786ZM7.83207 33.4373L7.92505 33.6611L8.64853 33.9399H8.75056C9.06928 33.9399 9.64005 33.8308 10.3945 33.6523C11.1739 33.4679 12.2137 33.1929 13.5109 32.8284C14.8353 32.464 15.8633 32.1625 16.5905 31.9246C16.9534 31.8059 17.2495 31.7004 17.4733 31.6085C17.585 31.5627 17.6862 31.5172 17.7722 31.472C17.8479 31.4322 17.9515 31.3726 18.0376 31.2897L18.0602 31.268L18.0802 31.2439C18.1981 31.102 18.2759 30.9263 18.3321 30.7639C18.3912 30.5931 18.4412 30.3925 18.4847 30.1691C18.5713 29.7243 18.6405 29.1443 18.6951 28.4379C18.8572 27.0305 18.9405 25.8917 18.9405 25.0302C18.9405 24.1975 18.8457 23.4911 18.6028 22.973C18.4778 22.7064 18.3039 22.469 18.0647 22.299C17.8206 22.1254 17.5415 22.0456 17.2495 22.0456C16.872 22.0456 16.26 22.1694 15.4718 22.3753C14.6625 22.5867 13.6073 22.9016 12.3094 23.3182C11.0375 23.7093 10.0198 24.0511 9.26134 24.3433C8.88196 24.4895 8.56076 24.6258 8.30184 24.7522C8.05098 24.8747 7.82778 25.0026 7.66634 25.1386L7.54731 25.2389L7.49597 25.3873C7.38519 25.7074 7.30241 26.0188 7.30241 26.2776C7.30241 27.2313 7.35726 28.5709 7.46543 30.2899C7.51961 31.151 7.57422 31.8368 7.62959 32.3434C7.65724 32.5964 7.68573 32.8109 7.71557 32.9834C7.74312 33.1426 7.77852 33.3083 7.83207 33.4373ZM41.4918 41.2162C41.1917 40.8116 40.761 40.3719 40.2169 39.8984C39.7617 39.4088 39.4194 38.9567 39.1803 38.5421C38.9635 38.1663 38.8523 37.7465 38.8523 37.2702C38.8525 37.2678 38.8542 37.2388 38.8748 37.1754C38.8961 37.1097 38.9326 37.0226 38.9901 36.9118C39.1056 36.6892 39.2887 36.4043 39.5492 36.0531L39.5762 36.0166L39.5971 35.9763C39.6976 35.7826 39.8531 35.5076 40.0671 35.1469C40.2928 34.7665 40.4598 34.4009 40.5348 34.0599C40.771 33.2484 40.8759 32.0427 40.8759 30.4875C40.8759 24.1156 41.037 18.8123 41.3579 14.5744C41.418 14.1971 41.4711 13.3046 41.523 11.9547C41.5755 10.5888 41.7588 9.39055 42.0662 8.35435C42.2146 7.85425 42.3901 7.53845 42.5627 7.35468C42.7205 7.18664 42.8812 7.12078 43.0701 7.12078C43.3503 7.12078 43.728 7.241 44.219 7.57209L44.2443 7.58912L44.2712 7.60327C44.7391 7.84906 45.0267 8.08585 45.1885 8.29557C45.2004 8.49856 45.2354 8.70253 45.3173 8.87989C45.374 9.00278 45.4626 9.13349 45.6005 9.23308C45.7436 9.33647 45.906 9.38169 46.065 9.38169C46.17 9.38169 46.2533 9.34948 46.2643 9.34522C46.2907 9.33543 46.3125 9.32525 46.3257 9.31892C46.3532 9.30566 46.3808 9.29056 46.4041 9.27738C46.4526 9.24995 46.5149 9.21246 46.5876 9.16743C46.7346 9.07641 46.9444 8.94217 47.2152 8.76616C47.7576 8.41351 48.5557 7.88588 49.6084 7.18393L49.6162 7.17857C51.617 5.79497 53.9868 5.09375 56.7494 5.09375C58.896 5.09375 60.4757 5.53636 61.5586 6.34759C62.6249 7.14639 63.2791 8.35497 63.4804 10.0511C64.0193 14.6189 64.2858 18.0742 64.2858 20.4304C64.2858 21.7692 64.2322 23.6835 64.1244 26.1756C64.0164 28.7761 63.9621 30.735 63.9621 32.0468C63.9621 34.2544 63.5199 36.2168 62.6475 37.9466L62.6444 37.9531C62.2547 38.7507 61.7383 39.3248 61.1017 39.7039C60.4624 40.0845 59.6673 40.2888 58.692 40.2888C58.3795 40.2888 58.0494 40.1971 57.695 39.9865C57.3415 39.7423 56.9306 39.4209 56.4609 39.0188C55.9656 38.5947 55.5179 38.2437 55.1191 37.9694L54.7484 37.7143L54.4438 38.0077L48.4268 39.6852L48.4183 39.6878C47.5752 39.9376 46.8388 40.5181 46.1982 41.3565C45.7969 41.8382 45.4138 42.1775 45.0525 42.3949L45.0381 42.4037L45.0241 42.4132C44.7859 42.5771 44.3294 42.7057 43.5558 42.7057C43.0884 42.7057 42.7276 42.6163 42.4503 42.465C42.2707 42.3602 42.0914 42.195 41.9182 41.9485C41.7064 41.5913 41.584 41.3782 41.5397 41.293L41.5188 41.2526L41.4918 41.2162ZM46.1547 18.3786L47.5789 18.5033H47.6029C47.9318 18.5033 48.3828 18.4037 48.9123 18.2468C49.4568 18.0854 50.1378 17.8465 50.9516 17.5331C52.2644 17.059 52.9944 16.8199 53.2107 16.7782L53.2231 16.7758L53.2354 16.7729C53.6299 16.6779 54.301 16.5768 55.2698 16.4732L55.2841 16.4716L55.2984 16.4693C55.7925 16.39 56.2033 16.3088 56.5245 16.2244C56.8201 16.1467 57.1097 16.0498 57.309 15.9081C57.7588 15.5974 58.1166 15.1618 58.1166 14.5832C58.1166 13.7417 58.0894 13.0214 58.0333 12.426C57.979 11.7986 57.9239 11.2924 57.8675 10.9122L57.8364 10.7023L57.6777 10.5647C57.3111 10.2469 56.8142 10.0434 56.2411 9.91602C55.6627 9.78744 54.9654 9.72753 54.1592 9.72753C51.2408 9.72753 48.5928 10.5678 46.2312 12.2467L45.9835 12.4228L46.0746 15.3211L46.0764 15.3391C46.1277 15.8828 46.1547 16.7183 46.1547 17.8576V18.3786ZM46.6844 33.4373L46.7774 33.6611L47.5009 33.9399H47.6029C47.9216 33.9399 48.4924 33.8308 49.2468 33.6523C50.0262 33.4679 51.066 33.1929 52.3633 32.8284C53.6876 32.464 54.7156 32.1625 55.4429 31.9246C55.8057 31.8059 56.1019 31.7004 56.3257 31.6085C56.4373 31.5627 56.5386 31.5172 56.6245 31.472C56.7003 31.4322 56.8039 31.3726 56.89 31.2897L56.9125 31.268L56.9325 31.2439C57.0504 31.102 57.1282 30.9263 57.1844 30.7639C57.2435 30.5931 57.2935 30.3925 57.337 30.1691C57.4236 29.7243 57.4929 29.1443 57.5475 28.4378C57.7096 27.0304 57.7928 25.8917 57.7928 25.0302C57.7928 24.1975 57.6981 23.4911 57.4551 22.973C57.3301 22.7064 57.1563 22.469 56.917 22.299C56.673 22.1254 56.3938 22.0456 56.1018 22.0456C55.7243 22.0456 55.1123 22.1694 54.3241 22.3753C53.5148 22.5867 52.4596 22.9016 51.1617 23.3182C49.8898 23.7093 48.8722 24.0511 48.1137 24.3433C47.7343 24.4895 47.4131 24.6258 47.1542 24.7522C46.9033 24.8747 46.6801 25.0026 46.5187 25.1386L46.3996 25.2389L46.3483 25.3873C46.2375 25.7074 46.1547 26.0188 46.1547 26.2776C46.1547 27.2313 46.2096 28.5709 46.3178 30.2899C46.3719 31.151 46.4266 31.8368 46.4819 32.3434C46.5096 32.5964 46.5381 32.8109 46.5679 32.9834C46.5955 33.1426 46.6308 33.3083 46.6844 33.4373Z" fill="#6A5D4A"/>
<defs>
<clipPath id="clip0_2680_8454">
<rect width="66.9352" height="11.3545" fill="white" transform="translate(7.25131 47.1074)"/>
</clipPath>
</defs>
</svg>
