<svg width="1135" height="361" viewBox="0 0 1135 361" fill="none" xmlns="http://www.w3.org/2000/svg">
<path fill-rule="evenodd" clip-rule="evenodd" d="M1091.74 0L632.994 0C632.787 6.72197 627.272 12.1076 620.5 12.1076C613.728 12.1076 608.213 6.72197 608.006 0L45.7108 0C45.7108 23.735 25.6283 42.9759 0.855469 42.9759C0.569702 42.9759 0.284546 42.9734 0.00012207 42.9683V65.5619C0.283081 65.5468 0.568237 65.5392 0.855225 65.5392C8.90649 65.5392 15.4332 71.552 15.4332 78.9693C15.4332 86.3865 8.90649 92.3993 0.855225 92.3993C0.568237 92.3993 0.283081 92.3917 0.00012207 92.3766V106.389C0.283081 106.374 0.568237 106.366 0.855225 106.366C8.90649 106.366 15.4332 112.379 15.4332 119.796C15.4332 127.214 8.90649 133.226 0.855225 133.226C0.568237 133.226 0.283081 133.219 0.00012207 133.204V147.216C0.283081 147.201 0.568237 147.193 0.855225 147.193C8.90649 147.193 15.4332 153.206 15.4332 160.624C15.4332 168.041 8.90649 174.054 0.855225 174.054C0.568237 174.054 0.283081 174.046 0.00012207 174.031V188.043C0.283081 188.028 0.568237 188.021 0.855225 188.021C8.90649 188.021 15.4332 194.033 15.4332 201.451C15.4332 208.868 8.90649 214.881 0.855225 214.881C0.568237 214.881 0.283081 214.873 0.00012207 214.858V228.87C0.283081 228.855 0.568237 228.848 0.855225 228.848C8.90649 228.848 15.4332 234.861 15.4332 242.278C15.4332 249.695 8.90649 255.708 0.855225 255.708C0.568237 255.708 0.283081 255.7 0.00012207 255.685V269.699C0.283081 269.684 0.568237 269.676 0.855225 269.676C8.90649 269.676 15.4332 275.689 15.4332 283.106C15.4332 290.523 8.90649 296.536 0.855225 296.536C0.568237 296.536 0.283081 296.528 0.00012207 296.513V318.031C0.284546 318.026 0.56958 318.024 0.855347 318.024C25.6283 318.024 45.7107 337.265 45.7107 361L608.006 361C608.002 360.87 608 360.739 608 360.608C608 353.704 613.596 348.108 620.5 348.108C627.404 348.108 633 353.704 633 360.608C633 360.739 632.998 360.87 632.994 361L1091.74 361C1091.74 361 1091.74 361 1091.74 361C1091.74 337.386 1111.07 318.22 1135 318.025V296.532C1127.34 296.346 1121.19 290.406 1121.19 283.106C1121.19 275.806 1127.34 269.866 1135 269.68V255.703C1127.34 255.518 1121.19 249.578 1121.19 242.278C1121.19 234.977 1127.34 229.038 1135 228.852V214.876C1127.34 214.691 1121.19 208.751 1121.19 201.451C1121.19 194.15 1127.34 188.21 1135 188.025V174.049C1127.34 173.864 1121.19 167.924 1121.19 160.624C1121.19 153.323 1127.34 147.383 1135 147.198V133.222C1127.34 133.037 1121.19 127.097 1121.19 119.796C1121.19 112.496 1127.34 106.556 1135 106.371V92.3949C1127.34 92.2096 1121.19 86.2697 1121.19 78.9693C1121.19 71.6688 1127.34 65.7289 1135 65.5436V42.9744C1111.07 42.7793 1091.74 23.6137 1091.74 0ZM618.074 40.9008V24.5405H623.074V40.9008H618.074ZM618.074 73.6213V57.261H623.074V73.6213H618.074ZM618.074 106.342V89.9815L623.074 89.9815V106.342H618.074ZM618.074 139.062V122.702L623.074 122.702V139.062H618.074ZM618.074 171.783V155.423H623.074V171.783H618.074ZM618.074 204.503L618.074 188.143H623.074L623.074 204.503H618.074ZM618.074 237.224V220.864H623.074V237.224H618.074ZM618.074 269.944V253.584H623.074V269.944H618.074ZM618.074 302.665V286.305H623.074V302.665H618.074ZM618.074 335.385V319.025H623.074V335.385H618.074Z" fill="#74B5C4"/>
</svg>
