<svg width="275" height="533" viewBox="0 0 275 533" fill="none" xmlns="http://www.w3.org/2000/svg">
<path fill-rule="evenodd" clip-rule="evenodd" d="M0 33.9346L-1.90735e-05 228C5.42421 228 9.82141 232.558 9.82141 238.18C9.82141 243.803 5.42421 248.361 -1.90735e-05 248.361L0 498.855C18.0807 498.855 32.738 514.048 32.738 532.789C32.738 532.86 32.7378 532.93 32.7374 533H49.9275C49.9263 532.93 49.9257 532.86 49.9257 532.789C49.9257 526.698 54.5061 521.761 60.1564 521.761C65.8066 521.761 70.387 526.698 70.387 532.789C70.387 532.86 70.3864 532.93 70.3852 533H81.0287C81.0275 532.93 81.0269 532.86 81.0269 532.789C81.0269 526.698 85.6073 521.761 91.2575 521.761C96.9078 521.761 101.488 526.698 101.488 532.789C101.488 532.86 101.488 532.93 101.486 533H112.13C112.129 532.93 112.128 532.86 112.128 532.789C112.128 526.698 116.708 521.761 122.359 521.761C128.009 521.761 132.589 526.698 132.589 532.789C132.589 532.86 132.589 532.93 132.587 533H143.231C143.23 532.93 143.229 532.86 143.229 532.789C143.229 526.698 147.81 521.761 153.46 521.761C159.11 521.761 163.69 526.698 163.69 532.789C163.69 532.86 163.69 532.93 163.689 533H174.332C174.331 532.93 174.33 532.86 174.33 532.789C174.33 526.698 178.911 521.761 184.561 521.761C190.211 521.761 194.792 526.698 194.792 532.789C194.792 532.86 194.791 532.93 194.79 533H205.433C205.432 532.93 205.431 532.86 205.431 532.789C205.431 526.698 210.012 521.761 215.662 521.761C221.312 521.761 225.893 526.698 225.893 532.789C225.893 532.86 225.892 532.93 225.891 533H242.262C242.262 532.93 242.262 532.86 242.262 532.789C242.262 514.048 256.919 498.855 275 498.855L275 248.361C269.576 248.361 265.179 243.803 265.179 238.18C265.179 232.558 269.576 228 275 228L275 33.9346C256.919 33.9346 242.262 18.7416 242.262 0L225.893 -3.43323e-05C225.893 6.09098 221.312 11.0287 215.662 11.0287C210.012 11.0287 205.431 6.09098 205.431 -3.43323e-05H194.792C194.792 6.09098 190.211 11.0287 184.561 11.0287C178.911 11.0287 174.33 6.09098 174.33 -3.43323e-05H163.69C163.69 6.09098 159.11 11.0287 153.46 11.0287C147.81 11.0287 143.229 6.09098 143.229 -3.43323e-05H132.589C132.589 6.09098 128.009 11.0287 122.359 11.0287C116.708 11.0287 112.128 6.09098 112.128 -3.43323e-05H101.488C101.488 6.09098 96.9077 11.0287 91.2575 11.0287C85.6073 11.0287 81.0269 6.09098 81.0269 -3.43323e-05H70.387C70.387 6.09098 65.8066 11.0287 60.1563 11.0287C54.5061 11.0287 49.9257 6.091 49.9257 0H32.738C32.7379 18.7415 18.0807 33.9345 0 33.9346ZM38.0808 240.729H22.8485L22.8485 235.729H38.0809L38.0808 240.729ZM68.5455 240.729H53.3132L53.3132 235.729H68.5455L68.5455 240.729ZM99.0101 240.729H83.7778L83.7778 235.729H99.0101V240.729ZM129.475 240.729H114.242V235.729H129.475V240.729ZM159.939 240.729H144.707V235.729H159.939V240.729ZM190.404 240.729H175.172V235.729H190.404V240.729ZM220.869 240.729H205.636V235.729H220.869V240.729ZM251.333 240.729H236.101V235.729H251.333V240.729Z" fill="#74B5C4"/>
</svg>
